<?xml version="1.0" encoding="utf-8"?>
<!-- Generator: Adobe Illustrator 27.4.0, SVG Export Plug-In . SVG Version: 6.00 Build 0)  -->
<svg version="1.1" xmlns="http://www.w3.org/2000/svg" xmlns:xlink="http://www.w3.org/1999/xlink" x="0px" y="0px"
	 viewBox="0 0 1064 612" style="enable-background:new 0 0 1064 612;" xml:space="preserve">
<style type="text/css">
	.st0{fill:#FFFFFF;}
	.st1{stroke:#000000;stroke-width:3.1735;stroke-miterlimit:10;}
	.st2{fill:none;stroke:#000000;stroke-width:0.5457;stroke-miterlimit:10;}
	.st3{fill:#FFFFFF;stroke:#000000;stroke-width:0.5457;stroke-miterlimit:10;}
	.st4{stroke:#000000;stroke-width:3.4673;stroke-miterlimit:10;}
	.st5{fill:none;stroke:#000000;stroke-width:0.5417;stroke-linecap:round;stroke-miterlimit:10;}
	.st6{fill:none;stroke:#000000;stroke-width:0.698;stroke-linecap:round;stroke-miterlimit:10;}
	.st7{fill:none;stroke:#000000;stroke-width:0.7186;stroke-linecap:round;stroke-miterlimit:10;}
	.st8{fill:none;stroke:#000000;stroke-width:0.6751;stroke-linecap:round;stroke-miterlimit:10;}
	.st9{fill:none;stroke:#000000;stroke-width:0.5962;stroke-miterlimit:10;}
	.st10{fill:#FFFFFF;stroke:#000000;stroke-width:0.5962;stroke-miterlimit:10;}
	.st11{font-family:'Futura-Bold';}
	.st12{font-size:22.3053px;}
	.st13{font-size:21px;}
</style>
<g id="Layer_1">
</g>
<g id="Layer_2">
	
		<image style="overflow:visible;" width="1428" height="1366" id="Layer_3_00000119079120706435036760000001275301481594273433_" xlink:href="3A3E69516423B0C9.png"  transform="matrix(0.228 0 0 0.228 540.9128 188.6622)">
	</image>
	
		<image style="overflow:visible;" width="394" height="311" xlink:href="3A3E69516423B0C7.png"  transform="matrix(0.4189 0 0 0.4189 858.0693 283.4734)">
	</image>
	<g>
		<path d="M548.7,94l-0.6,4.5l-3,0.8l-6.7,53.4l17.5-5.8l0.4-4.2l3.2-1.1l1.2-12.8l8.2-3l0.2-4l3.4-1.3l0.6-11.6l6.3-1.8l0.4-4.4
			l2.6-0.7l0.6-0.2l0.8-7.5l1-9.5L548.7,94z M581.5,100.3l-21,6.2l-0.6,6.6l11.6-3.4l-0.5,9.6l-11.4,4.2l-1.6,16.9l-14,4.7l6.2-49.7
			l32.9-8.5L581.5,100.3z"/>
		<polygon class="st0" points="560.4,106.5 559.8,113.1 571.4,109.6 571,119.2 559.6,123.4 558,140.3 544,145 550.1,95.3 583,86.7 
			581.5,100.3 		"/>
		<path d="M587.2,88.9l-0.7,4.5l-2.6,0.7l-0.3,0.1l-1.1,7.7l-6.3,42.6L595,138l0.5-4.2l3.2-1.1l5.5-48.4L587.2,88.9z M597.1,131.4
			l-15.4,5.3l6.9-46.6l13.7-3.7L597.1,131.4z"/>
		<polygon class="st0" points="602.2,86.4 597.1,131.4 581.7,136.7 588.6,90.1 		"/>
		<path d="M624.2,89.6c-1.3,0.3-2.7,0.6-3.9,0.9l-1.3,9.4c2.7-1.1,13.4-5.7,12.7-9C631.3,88.3,625.9,89.3,624.2,89.6z M621.1,97.3
			l0.2-1.2c0.5-0.1,1.1-0.3,1.6-0.4c0.7-0.1,1.5-0.2,2.2-0.2C623.7,96.2,622.4,96.7,621.1,97.3z M621.3,108.1
			c-0.8,0.2-1.7,0.3-2.5,0.5l-1.3,10.7c2.9-1.5,14.3-5.5,13.5-9.6C630.4,106.5,623.5,107.7,621.3,108.1z M619.5,116.6l0.2-1.9
			c1.5-0.2,3.2-0.4,4.7-0.4C622.7,115.1,621.1,115.8,619.5,116.6z M624.2,89.6c-1.3,0.3-2.7,0.6-3.9,0.9l-1.3,9.4
			c2.7-1.1,13.4-5.7,12.7-9C631.3,88.3,625.9,89.3,624.2,89.6z M621.1,97.3l0.2-1.2c0.5-0.1,1.1-0.3,1.6-0.4
			c0.7-0.1,1.5-0.2,2.2-0.2C623.7,96.2,622.4,96.7,621.1,97.3z M621.3,108.1c-0.8,0.2-1.7,0.3-2.5,0.5l-1.3,10.7
			c2.9-1.5,14.3-5.5,13.5-9.6C630.4,106.5,623.5,107.7,621.3,108.1z M619.5,116.6l0.2-1.9c1.5-0.2,3.2-0.4,4.7-0.4
			C622.7,115.1,621.1,115.8,619.5,116.6z M638.1,99.7c1.4-1.4,2.7-3,3.2-4.9c2.5-2.4,4.5-5.3,3.8-8.9c-1.8-9.5-14.9-8.1-21.9-6.8
			c-5.1,1-10.3,2.4-15.1,4.3l-0.5,4.2c-1.1,0.3-2.1,0.7-3.1,1.1l-6.4,54.7c5-1.5,10.1-2.7,15.1-4.1c8.7-2.5,19.5-5.8,25.6-12.9
			c1.2-1.4,1.9-2.9,2.9-4.5c0.3-0.5,0.8-1,1.2-1.5c0.3-0.4,0.6-0.7,0.9-1.1c1.8-2.7,2.9-5.9,3.1-9.1c0.1-1,0-2-0.2-3
			c-0.3-1.6-0.9-2.8-1.8-3.8C643.3,101.4,640.8,100.3,638.1,99.7z M645.4,110c-0.2,2.5-0.9,4.7-2,6.8c-6.6,12-28.2,15.7-39.7,18.9
			l6-51.4c4.7-1.8,9.5-3.2,14.4-4.1c6-1.1,17.8-2.4,19.4,5.9c0.8,4.1-2.9,7.2-5.7,9.6c-1.8,1.5-3.6,3.1-5.4,4.7
			c4.1,0.5,10.3,1.3,12.3,5.5c0.3,0.5,0.4,1.1,0.5,1.7C645.4,108.4,645.4,109.2,645.4,110z M631.8,90.8c-0.5-2.5-5.9-1.6-7.5-1.3
			c-1.3,0.3-2.7,0.6-3.9,0.9l-1.3,9.4C621.7,98.8,632.4,94.2,631.8,90.8z M621.1,97.3l0.2-1.2c0.5-0.1,1.1-0.3,1.6-0.4
			c0.7-0.1,1.5-0.2,2.2-0.2C623.7,96.2,622.4,96.7,621.1,97.3z M621.3,108.1c-0.8,0.2-1.7,0.3-2.5,0.5l-1.3,10.7
			c2.9-1.5,14.3-5.5,13.5-9.6C630.4,106.5,623.5,107.7,621.3,108.1z M619.5,116.6l0.2-1.9c1.5-0.2,3.2-0.4,4.7-0.4
			C622.7,115.1,621.1,115.8,619.5,116.6z"/>
		<path class="st0" d="M643.5,86.1c-1.6-8.3-13.4-7-19.4-5.9c-4.9,0.9-9.8,2.3-14.4,4.1l-6,51.4c11.4-3.3,33-7,39.7-18.9l1.3-10.9
			c-2-4.2-8.2-5-12.3-5.5c1.8-1.6,3.6-3.2,5.4-4.7C640.7,93.3,644.3,90.3,643.5,86.1z M617.5,119.3l1.3-10.7
			c0.8-0.2,1.7-0.4,2.5-0.5c2.2-0.4,9.1-1.6,9.7,1.6C631.8,113.8,620.4,117.8,617.5,119.3z M619,99.9l1.3-9.4
			c1.2-0.4,2.6-0.7,3.9-0.9c1.6-0.3,7.1-1.3,7.5,1.3C632.4,94.2,621.7,98.8,619,99.9z"/>
		<path d="M677,98.4l1.1-11l1.5-0.4l0.4-4.4l3.2-0.9l1.5-15.1l-33.4,9.1l-0.5,4.4l-3.1,0.8l-2.7,22.2l-0.3,2.6l-1.3,10.9l-0.4,3.5
			l-1.5,12.5l38-10.7l0.4-4.4l1.5-0.4l1.7-0.5l1.9-18.6l-1.2,0.4l0,0l-10.2,3.3l0.2-2.5L677,98.4z M683,100.6l-1.5,15l-34.5,9.8
			l5.7-48.2l30.1-8.3l-1.1,11.6l-18.1,5l-0.8,5.7l13.7-4l-1,10.1l-13.4,4.2l-0.7,6.3L683,100.6z"/>
		<polygon class="st0" points="663.6,85.5 662.8,91.2 676.5,87.1 675.5,97.2 662.1,101.4 661.3,107.6 683,100.6 681.6,115.6 
			647,125.3 652.7,77.1 682.8,68.8 681.7,80.4 		"/>
		<path d="M708.7,75.1c-2.6,0.5-5.2,1.6-7.7,2.7l-1.3,10.5c3.8-1.4,15-6.9,14-11.8C713.4,74.4,710.1,74.8,708.7,75.1z M701.6,85.7
			l0.3-2.8c1.5-0.5,3.4-1.2,5-1.5c0.6-0.1,1.3-0.2,1.4,0.6C706.4,83.5,704,84.7,701.6,85.7z M708.7,75.1c-2.6,0.5-5.2,1.6-7.7,2.7
			l-1.3,10.5c3.8-1.4,15-6.9,14-11.8C713.4,74.4,710.1,74.8,708.7,75.1z M701.6,85.7l0.3-2.8c1.5-0.5,3.4-1.2,5-1.5
			c0.6-0.1,1.3-0.2,1.4,0.6C706.4,83.5,704,84.7,701.6,85.7z M706.6,64.1c-5.4,1-10.9,2.5-16,4.4l-0.5,4.2l-3.1,1l-3.2,24.9l0,0
			l-2.2,16.9l-0.2,1.8l-1,7.9l15.8-5.8l0.2-4.1l2.7-1l3.7,10l16.9-6.3l-1.2-3.5l4.9-1.8l-6.6-17.9c2.1-2.3,3.6-4.7,5.3-7.3
			c0.7-1,1.5-1.9,2.2-2.9c2.9-4.3,5.2-9.3,4.2-14.5l-0.1-0.4C726.6,61,712.7,63,706.6,64.1z M714.2,92.9l6.9,18.8l-13.8,5.2
			l-8.1-21.7l-1,17.6l-12.3,4.5l6.2-47.8c5.1-1.9,10.5-3.4,15.8-4.4c5.2-1,17.3-2.8,18.7,4.7C728.2,78.6,720.3,87.8,714.2,92.9z
			 M708.7,75.1c-2.6,0.5-5.2,1.6-7.7,2.7l-1.3,10.5c3.8-1.4,15-6.9,14-11.8C713.4,74.4,710.1,74.8,708.7,75.1z M701.6,85.7l0.3-2.8
			c1.5-0.5,3.4-1.2,5-1.5c0.6-0.1,1.3-0.2,1.4,0.6C706.4,83.5,704,84.7,701.6,85.7z"/>
		<path class="st0" d="M726.6,70c-1.4-7.5-13.5-5.7-18.7-4.7c-5.3,1-10.7,2.5-15.8,4.4l-6.2,47.8l12.3-4.5l1-17.6l8.1,21.7l13.8-5.2
			l-6.9-18.8C720.3,87.8,728.2,78.6,726.6,70z M699.7,88.3l1.3-10.5c2.4-1.1,5-2.2,7.7-2.7c1.4-0.3,4.7-0.6,5.1,1.4
			C714.6,81.3,703.5,86.8,699.7,88.3z"/>
		<path d="M625.3,152.3L625.3,152.3l-5.6,1.8l2-12.6l-6.4,2l-0.2,1.7l-1.1,0.4l-2.7,19.3l11.5-3.2l0.3-1.7l0.5-0.1l0.6-0.2l1.3-7.4
			L625.3,152.3z M613.3,162l2.5-18l5-1.6l-2,12.6l5.8-1.8l-1.1,6L613.3,162z"/>
		<polygon class="st0" points="624.7,153.1 623.6,159.1 613.3,162 615.8,144 620.8,142.4 618.9,155 		"/>
		<path d="M632.6,144.2l-0.8,5.2l2.6-0.8l0.1-5.3L632.6,144.2z M632.6,144.2l-0.8,5.2l2.6-0.8l0.1-5.3L632.6,144.2z M640.3,158.1
			l-0.3-5.9l-0.8-15.2l-10.4,3.7l-0.4,1.7l-1,0.4l-2.2,9.6l-1.7,7.5l-0.6,2.6l6.3-2l0.4-1.7l1-0.3l0.3-1.4l1.3-0.5l-0.3,6.2l7-2.5
			l-0.1-1.5L640.3,158.1L640.3,158.1z M639.7,157.7l-5.7,2l0.3-6.3l-3.5,1.4l-0.7,3l-4.9,1.6l4.3-18.3l9.3-3.3l0.7,14.6L639.7,157.7
			L639.7,157.7z M631.8,149.5l2.6-0.8l0.1-5.3l-1.8,0.9L631.8,149.5z"/>
		<path class="st0" d="M639,156c-0.2-1,0.1-2.5,0.4-3.5c0,0,0.1,0,0.1,0l-0.7-14.6l-9.3,3.3l-4.3,18.3l4.9-1.6l0.7-3l3.5-1.4
			l-0.3,6.3l5.7-2v-0.1C639.3,157.1,639.1,156.6,639,156z M634.3,148.6l-2.6,0.8l0.8-5.2l1.8-0.9L634.3,148.6z"/>
		<path d="M658.5,146.5c-0.2-0.8-0.5-1.3-0.9-1.7c-0.8-0.7-1.9-0.8-3.1-1l0.8-0.2c0.3-0.5,0.4-1.2,0.5-1.8l0.9-0.2
			c0.5-0.8,0.6-2.2,0.4-3.1c-0.6-3.3-5-3.3-7.5-2.8l-0.2,0c-2.3,0.4-4.3,1.8-5.7,3.7c-0.3,0.4-0.5,0.9-0.8,1.3
			c-0.2,0.3-0.5,0.6-0.7,0.9c-0.9,1.4-1.6,3-1.5,4.7c0,0.3,0,0.5,0.1,0.7c0.3,1.8,1.3,2.1,2.9,2.4c-1,0.3-2,0.7-3,1.1
			c-0.2,0.5-0.3,1.1-0.4,1.6c-0.1,0-0.2,0.1-0.3,0.1c-0.2,0.1-0.4,0.2-0.6,0.2c0,0-0.1,0-0.1,0c-0.3,1-0.5,2.5-0.4,3.5
			c0.1,0.6,0.4,1.2,0.7,1.6c0.2,0.2,0.4,0.4,0.6,0.6c1.7,1.3,4.5,1.4,6.5,1c2.5-0.5,5.1-1.6,7.1-3c0.8-0.6,1.5-1.3,2-2.2
			c0.1-0.3,0.3-0.6,0.4-0.8c0.1-0.2,0.3-0.4,0.5-0.6c0.2-0.2,0.3-0.4,0.4-0.6C658.1,150.4,658.9,148.3,658.5,146.5z M656.9,151.3
			c-0.5,0.9-1.2,1.7-2,2.2c-2,1.5-4.5,2.5-6.9,3c-2.4,0.4-6.5,0.2-7-2.7c-0.2-0.9,0.1-2,0.3-2.9c1.7-0.6,3.4-1.3,5.1-1.8
			c-0.1,0.5-0.2,1-0.1,1.6c0.2,1,1.1,1.2,2,1c1.7-0.3,4-0.8,4.5-2.7c0-0.1,0-0.3,0-0.4c-0.2-1.1-2.8-1.2-3.7-1.2
			c-1.6,0-3.5-0.4-5.1-0.9c-0.8-0.2-1.2-0.9-1.3-1.7c0-0.2-0.1-0.4-0.1-0.6c-0.1-3.9,3.4-7.3,7.1-8c2.1-0.4,6.3-0.5,6.8,2.3
			c0.1,0.7,0.1,1.8-0.2,2.5l-4.6,1.3c0.1-0.4,0.1-0.8,0-1.2c-0.2-1-1.2-1.1-2.1-0.9c-1,0.2-3,1-2.8,2.3c0.2,1,2.3,1.4,3.2,1.5
			c2.1,0.1,4.2,0.4,6.2,0.9c0.6,0.2,1,0.5,1.2,1c0.2,0.3,0.3,0.6,0.3,1C658.2,148.3,657.7,150,656.9,151.3z M646.9,150
			c0.8,0.1,3.4-0.1,3.9,0.4c-0.8,0.4-1.6,0.6-2.5,0.7c-0.6,0.1-1.2,0.1-1.4-0.6C646.8,150.3,646.8,150.1,646.9,150z M649.7,143.2
			c-0.6,0-1.3-0.1-1.8-0.4c0.1,0,0.2-0.1,0.3-0.1C648.8,142.7,649.5,142.6,649.7,143.2z"/>
		<path class="st0" d="M657.6,145.8l-0.7,5.6c-0.5,0.9-1.2,1.7-2,2.2c-2,1.5-4.5,2.5-6.9,3c-2.4,0.4-6.5,0.2-7-2.7
			c-0.2-0.9,0.1-2,0.3-2.9c1.7-0.6,3.4-1.3,5.1-1.8c-0.1,0.5-0.2,1-0.1,1.6c0.2,1,1.1,1.2,2,1c1.7-0.3,4-0.8,4.5-2.7
			c0-0.1,0-0.3,0-0.4c-0.2-1.1-2.8-1.2-3.7-1.2c-1.6,0-3.5-0.4-5.1-0.9c-0.8-0.2-1.2-0.9-1.3-1.7c0-0.2-0.1-0.4-0.1-0.6
			c-0.1-3.9,3.4-7.3,7.1-8c2.1-0.4,6.3-0.5,6.8,2.3c0.1,0.7,0.1,1.8-0.2,2.5l-4.6,1.3c0.1-0.4,0.1-0.8,0-1.2c-0.2-1-1.2-1.1-2.1-0.9
			c-1,0.2-3,1-2.8,2.3c0.2,1,2.3,1.4,3.2,1.5c2.1,0.1,4.2,0.4,6.2,0.9C656.9,144.9,657.3,145.3,657.6,145.8z"/>
		<path d="M672.4,143.7l-3.9,1.3l0.1-1l1.2-0.4l0.4-4.2l0.6-0.2l0.2-1.7l1.2-0.3l0.6-5.8l-12.8,3.5l-0.2,1.7l-1.2,0.3l-0.9,7.9
			l-0.1,1l-0.7,5.6l-0.1,1.2l-0.5,4.2l14.5-4.1l0.2-1.7l0.6-0.2l0.7-0.2l0.7-7.1L672.4,143.7z M658.4,153.8l2.2-18.4l11.5-3.2
			l-0.4,4.4l-6.9,1.9l-0.3,2.2l5.2-1.5l-0.4,3.8l-5.1,1.6l-0.3,2.4l8.3-2.7l-0.6,5.7L658.4,153.8z"/>
		<polygon class="st0" points="672.1,144.4 671.6,150.1 658.4,153.8 660.5,135.4 672,132.3 671.6,136.7 664.7,138.6 664.4,140.8 
			669.6,139.3 669.2,143.1 664.1,144.7 663.8,147.1 		"/>
		<path d="M683.8,135.2c-0.1-0.8-1.4-0.6-1.9-0.5c-1,0.2-2,0.6-2.9,1l-0.5,4C679.9,139.1,684.2,137,683.8,135.2z M679.2,138.7
			l0.1-1.1c0.6-0.2,1.3-0.5,1.9-0.6c0.2,0,0.5-0.1,0.5,0.2C681,137.9,680.1,138.3,679.2,138.7z M683.8,135.2
			c-0.1-0.8-1.4-0.6-1.9-0.5c-1,0.2-2,0.6-2.9,1l-0.5,4C679.9,139.1,684.2,137,683.8,135.2z M679.2,138.7l0.1-1.1
			c0.6-0.2,1.3-0.5,1.9-0.6c0.2,0,0.5-0.1,0.5,0.2C681,137.9,680.1,138.3,679.2,138.7z M687.8,138.3c1.1-1.6,2-3.5,1.6-5.5l0-0.2
			c-0.6-3.3-5.9-2.6-8.3-2.1c-2.1,0.4-4.1,1-6.1,1.7l-0.2,1.6l-1.2,0.4l-1.2,9.5l-0.8,6.5l-0.1,0.7l-0.4,3l6-2.2l0.1-1.6l1-0.4
			l1.4,3.8l6.4-2.4l-0.5-1.3l1.9-0.7l-2.5-6.8c0.8-0.9,1.4-1.8,2-2.8C687.2,139,687.6,138.7,687.8,138.3z M684,141.5l2.7,7.2l-5.3,2
			l-3.1-8.3l-0.4,6.7l-4.7,1.7l2.4-18.2c1.9-0.7,4-1.3,6-1.7c2-0.4,6.6-1.1,7.2,1.8C689.4,136,686.4,139.5,684,141.5z M681.9,134.7
			c-1,0.2-2,0.6-2.9,1l-0.5,4c1.5-0.6,5.7-2.7,5.4-4.5C683.7,134.4,682.5,134.6,681.9,134.7z M679.2,138.7l0.1-1.1
			c0.6-0.2,1.3-0.5,1.9-0.6c0.2,0,0.5-0.1,0.5,0.2C681,137.9,680.1,138.3,679.2,138.7z"/>
		<path class="st0" d="M688.8,132.7c-0.5-2.9-5.2-2.2-7.2-1.8c-2,0.4-4.1,1-6,1.7l-2.4,18.2l4.7-1.7l0.4-6.7l3.1,8.3l5.3-2l-2.7-7.2
			C686.4,139.5,689.4,136,688.8,132.7z M678.5,139.7l0.5-4c0.9-0.4,1.9-0.8,2.9-1c0.5-0.1,1.8-0.2,1.9,0.5
			C684.2,137,679.9,139.1,678.5,139.7z"/>
		<path d="M566.6,198.2l-5.5,1.8l0.1-1.6l2-0.6l0.7-6.8l0.9-0.3l0.3-2.7l2-0.5l0.9-9.3l-20.6,5.7l-0.3,2.7l-1.9,0.5l-3.8,32
			l23.5-6.6l0.3-2.7l0.2-0.1l1.8-0.5l1.2-11.5L566.6,198.2z M566.1,208.4l-0.7,0.2l-20.6,5.8l3.5-29.8l18.6-5.1l-0.7,7.2l-11.2,3.1
			l-0.5,3.5l8.5-2.5l-0.6,6.2l-8.3,2.6l-0.5,3.9l12.9-4.2l0.5-0.2L566.1,208.4z"/>
		<polygon class="st0" points="553.6,203.5 566.5,199.3 565.4,208.6 544.7,214.4 548.2,184.6 566.8,179.5 566.2,186.7 554.9,189.8 
			554.5,193.3 562.9,190.8 562.3,197 554,199.6 		"/>
		<path d="M585.4,174.2l-0.3,2.8l-2,0.4l-0.9,8.7l-1.9-7l-10,2.5l-0.3,2.8l-1.9,0.5l-1.6,13.3l-0.1,1.1l-1.1,9.3l-0.1,1.1l-0.3,2.7
			l10.5-3.6l0.2-2.6l1.2-0.4l2,8.9l10.5-3.3l0.4-2.7l1.8-0.5l1.5-9.8c0,0,0,0,0,0l2.3-14.4l2-12.5L585.4,174.2z M593.7,188.5
			C593.7,188.5,593.7,188.5,593.7,188.5l-0.9,5.4c0,0,0,0,0,0l-2.1,13.5l-8.9,2.8l-4.2-18.6l-1,13.2l-8.4,2.8l3.1-25.2l8.3-2.1
			l4.4,16.5l2.3-21.9l9.9-2.2L593.7,188.5z"/>
		<path class="st0" d="M596.2,172.8l-2.5,15.7c0,0,0,0,0,0c-0.5,1.8-0.8,3.6-0.9,5.4c0,0,0,0,0,0l-2.1,13.5l-8.9,2.8l-4.2-18.6
			l-1,13.2l-8.4,2.8l3.1-25.2l8.3-2.1l4.4,16.5l2.3-21.9L596.2,172.8z"/>
		<path d="M625.4,181.8l-4.2,1l0-2.4l2.2-0.7c0.1-1.4,0.2-2.8-0.1-4.2c-1.1-5.7-6.2-7.3-11.4-6.3c-0.5,0.1-1,0.2-1.4,0.3
			c-4.2,1.3-7.7,3.8-10.4,7.3c-0.7,0.9-1.2,1.8-1.8,2.7s-1.3,1.7-1.8,2.6c-0.4,0.6-0.7,1.3-1.1,2c-0.7,1.4-1.3,2.9-1.7,4.5
			c0,0,0,0,0,0c-0.5,1.8-0.8,3.6-0.9,5.4c0,0,0,0,0,0c0,0.5,0,1,0,1.5c0,1,0.1,1.9,0.3,2.9c0,0,0,0.1,0,0.1c0,0,0,0,0,0
			c1.5,7.4,7.8,11.5,15.2,10.1c0.7-0.1,1.4-0.3,2-0.5c3.5-1.1,6.6-3.1,8.7-6.1c0.5-0.7,0.8-1.4,1.3-2c0.6-0.9,1.4-1.7,2-2.7
			c0.6-1.1,1.1-2.2,1.5-3.4l0,0c1.3-3.8,1.6-8,1.8-11.9L625.4,181.8z M612.3,203.8c-0.6,0.2-1.3,0.4-1.9,0.5
			c-6.9,1.3-12.8-2.6-14.1-9.5c-1.9-10.2,5.3-22.8,15.9-24.7c4.5-0.8,9.2,0.4,10.1,5.6c0.2,1.1,0.2,2.2,0.1,3.4l-7.7,2.5
			c-0.1-2-1.2-4-3.6-3.6c-5.7,1.1-8.3,9.3-7.4,14.4c0.6,3.3,2.6,5.3,6.1,4.7c2.6-0.5,5.8-2.5,6.4-5.3l-7,1.4l0.2-6.6l15.1-3.5
			C624.1,192.3,622.3,200.6,612.3,203.8z M611.5,185.1l-3,0.7l-0.1,2.8l-2.1,0.5l-0.2,6.1c-0.8-0.8-1.2-1.9-1.4-3
			c-0.5-2.7-0.1-5.5,1.1-8c0.8-0.8,2.1-1.7,3.3-2c1.4-0.3,2,0.9,2.3,2.1C611.4,184.5,611.5,184.8,611.5,185.1z"/>
		<path class="st0" d="M624.6,183c-0.5,9.3-2.4,17.6-12.3,20.8c-0.6,0.2-1.3,0.4-1.9,0.5c-6.9,1.3-12.8-2.6-14.1-9.5
			c-1.9-10.2,5.3-22.8,15.9-24.7c4.5-0.8,9.2,0.4,10.1,5.6c0.2,1.1,0.2,2.2,0.1,3.4l-7.7,2.5c-0.1-2-1.2-4-3.6-3.6
			c-5.7,1.1-8.3,9.3-7.4,14.4c0.6,3.3,2.6,5.3,6.1,4.7c2.6-0.5,5.8-2.5,6.4-5.3l-7,1.4l0.2-6.6L624.6,183z"/>
		<path d="M643.3,173.5c-0.2-1.2-2.3-1-3.1-0.8c-1.6,0.3-3.2,1-4.7,1.7l-0.8,6.5C636.9,179.9,643.8,176.5,643.3,173.5z M635.8,179.2
			l0.2-1.7c1-0.3,2.1-0.8,3.1-1c0.4-0.1,0.8-0.1,0.9,0.4C638.7,177.8,637.3,178.6,635.8,179.2z M643.3,173.5c-0.2-1.2-2.3-1-3.1-0.8
			c-1.6,0.3-3.2,1-4.7,1.7l-0.8,6.5C636.9,179.9,643.8,176.5,643.3,173.5z M635.8,179.2l0.2-1.7c1-0.3,2.1-0.8,3.1-1
			c0.4-0.1,0.8-0.1,0.9,0.4C638.7,177.8,637.3,178.6,635.8,179.2z M649.7,178.5c1.8-2.6,3.2-5.7,2.6-8.9l-0.1-0.3
			c-1-5.3-9.6-4.1-13.4-3.4c-3.3,0.6-6.7,1.5-9.9,2.7l-0.3,2.6l-1.9,0.6l-1.3,10l-1.5,11.9l0,0l-1.3,9.9l9.7-3.6l0.1-2.5l1.7-0.6
			l2.3,6.2l10.4-3.9l-0.8-2.1l1.1-0.4l2-0.7l-1.1-2.9l-3-8.1c1.3-1.4,2.2-2.9,3.3-4.5C648.7,179.7,649.2,179.1,649.7,178.5z
			 M643.5,183.7l4.1,11l0.2,0.6l-0.4,0.1l-8.2,3l-5-13.4l-0.6,10.9l-7.6,2.8l3.8-29.5c3.2-1.2,6.5-2.1,9.8-2.7
			c3.2-0.6,10.7-1.7,11.6,2.9C652.2,174.8,647.3,180.5,643.5,183.7z M640.1,172.6c-1.6,0.3-3.2,1-4.7,1.7l-0.8,6.5
			c2.3-0.9,9.2-4.3,8.7-7.3C643,172.2,641,172.5,640.1,172.6z M635.8,179.2l0.2-1.7c1-0.3,2.1-0.8,3.1-1c0.4-0.1,0.8-0.1,0.9,0.4
			C638.7,177.8,637.3,178.6,635.8,179.2z"/>
		<path class="st0" d="M651.2,169.5c-0.9-4.6-8.3-3.5-11.6-2.9c-3.3,0.6-6.6,1.6-9.8,2.7l-3.8,29.5l7.6-2.8l0.6-10.9l5,13.4l8.2-3
			l0.2-0.8l-4.1-11C647.3,180.5,652.2,174.8,651.2,169.5z M634.6,180.8l0.8-6.5c1.5-0.7,3.1-1.4,4.7-1.7c0.9-0.2,2.9-0.4,3.1,0.8
			C643.8,176.5,636.9,179.9,634.6,180.8z"/>
		<path d="M662.4,169l-1.3,8.5l4.1-1.3l0.1-8.6L662.4,169z M662.4,169l-1.3,8.5l4.1-1.3l0.1-8.6L662.4,169z M674.9,191.4l-1.4-27.4
			l-0.3-6.8l-16.8,6l-0.6,2.7l-1.6,0.6l-6.1,26.4l-0.4,1.8l-0.2,0.8l-0.3,1.2l-0.4,1.7l10.2-3.3l0.6-2.7l1.7-0.6l0.5-2.3l2.1-0.9
			l-0.4,10.1l11.3-4l-0.1-2.4l1.8-0.6L674.9,191.4z M664.6,194l0.5-10.2l-5.7,2.3l-1,4.8l-7.9,2.6l6.9-29.5l15-5.4l1.6,32.1
			L664.6,194z M661.1,177.5l4.1-1.3l0.1-8.6l-3,1.5L661.1,177.5z M662.4,169l-1.3,8.5l4.1-1.3l0.1-8.6L662.4,169z M662.4,169
			l-1.3,8.5l4.1-1.3l0.1-8.6L662.4,169z"/>
		<path class="st0" d="M673.9,190.7l-1.6-32.1l-15,5.4l-6.9,29.5l7.9-2.6l1-4.8l5.7-2.3l-0.5,10.2L673.9,190.7z M661.1,177.5
			l1.3-8.5l3-1.5l-0.1,8.6L661.1,177.5z"/>
		<path d="M689.9,154.8l-0.7,3l-1.5,0.3l-2.2,9.8l0.1-9.9l-10.1,2.9l0.1,2.6l-2,0.6l-0.3,0.1l1.1,27.5l0.1,2.4l15.2-4.5l0.9-2.9
			l1.3-0.4l7.8-25.8l0.5-1.8l1.9-6.3L689.9,154.8z M691.1,185.5l-13.5,3.9l-1.2-27.7l8-2.3l-0.2,18.9l1.4-0.6l5-22l10-2L691.1,185.5
			z"/>
		<polygon class="st0" points="700.7,153.7 691.1,185.5 677.6,189.4 676.4,161.7 684.5,159.3 684.3,178.2 685.7,177.7 690.7,155.7 
					"/>
		<path d="M702.2,155.5l-0.4,2.8l-1.5,0.4l-0.3,0.1l-0.2,1.7l0,0l-4.4,29.3l11.7-4l0.3-2.6l1.8-0.6l0.1,0l1.9-16.4l1.5-13.5
			L702.2,155.5z M708.3,181.8l-9.5,3.2l4.3-28.8l8.4-2.3L708.3,181.8z"/>
		<polygon class="st0" points="711.5,154 708.3,181.8 698.8,185 703.1,156.2 		"/>
		<path d="M729.3,147.2L729,150l-2,0.4l-0.9,8.7l-1.9-7l-10,2.5l-0.3,2.8l-1.9,0.5l-0.9,7.5l-0.1,0.6l-2,16.4l-0.3,2.8l10.5-3.6
			l0.2-2.6l1.2-0.4l2,8.9l10.5-3.3l0.4-2.7l1.8-0.5l1.5-9.8l2.3-14.4l2-12.5L729.3,147.2z M737.6,161.5l-0.9,5.5l-2.1,13.4l-8.9,2.8
			l-4.2-18.6l-0.9,13.2l-8.4,2.8l3.1-25.2l8.3-2.1l4.4,16.5l2.2-21.9l9.9-2.2L737.6,161.5z"/>
		<path class="st0" d="M740.1,145.8l-2.5,15.7c-0.5,1.8-0.8,3.6-0.9,5.5l-2.1,13.4l-8.9,2.8l-4.2-18.6l-0.9,13.2l-8.4,2.8l3.1-25.2
			l8.3-2.1l4.4,16.5l2.2-21.9L740.1,145.8z"/>
		<path d="M765.1,155.9l0-2.4l2.2-0.7c0.1-1.4,0.2-2.8-0.1-4.3c-1.1-5.7-6.2-7.2-11.3-6.3c-0.5,0.1-1,0.2-1.4,0.4
			c-4.2,1.3-7.7,3.8-10.4,7.3c-0.7,0.9-1.2,1.8-1.8,2.7c-0.6,0.9-1.3,1.7-1.8,2.6c-0.4,0.6-0.7,1.3-1,1.9c-0.7,1.4-1.3,2.9-1.7,4.5
			c-0.5,1.8-0.8,3.6-0.9,5.5c0,0.5,0,0.9,0,1.4c0,1,0.1,1.9,0.3,2.9c0,0,0,0.1,0,0.1c1.5,7.4,7.8,11.5,15.2,10.1
			c0.7-0.1,1.4-0.3,2-0.5c3.5-1.1,6.6-3.1,8.7-6.1c0.5-0.7,0.8-1.4,1.2-2c0.6-0.9,1.4-1.7,2-2.7c2.6-4.6,3.1-10.2,3.3-15.4
			L765.1,155.9z M756.2,176.9c-0.6,0.2-1.3,0.4-1.9,0.5c-6.9,1.3-12.8-2.6-14.1-9.5c-1.9-10.2,5.3-22.8,15.9-24.7
			c4.5-0.8,9.2,0.4,10.1,5.6c0.2,1.1,0.2,2.2,0.1,3.3l-7.7,2.5c-0.1-2-1.2-4-3.6-3.6c-5.7,1.1-8.4,9.3-7.4,14.4
			c0.6,3.3,2.6,5.3,6.1,4.7c2.6-0.5,5.8-2.5,6.4-5.3l-7,1.4l0.2-6.6l15.1-3.5C768,165.4,766.1,173.6,756.2,176.9z M755.4,158.1
			l-3,0.7l-0.1,2.8l-2.1,0.5l-0.2,6.1c-0.8-0.8-1.2-1.9-1.4-3c-0.5-2.7-0.1-5.5,1.1-8c0.8-0.8,2.1-1.7,3.3-2c1.4-0.3,2,0.9,2.3,2.1
			C755.3,157.6,755.4,157.8,755.4,158.1z"/>
		<path class="st0" d="M768.5,156.1c-0.5,9.3-2.4,17.6-12.3,20.8c-0.6,0.2-1.3,0.4-1.9,0.5c-6.9,1.3-12.8-2.6-14.1-9.5
			c-1.9-10.2,5.3-22.8,15.9-24.7c4.5-0.8,9.2,0.4,10.1,5.6c0.2,1.1,0.2,2.2,0.1,3.3l-7.7,2.5c-0.1-2-1.2-4-3.6-3.6
			c-5.7,1.1-8.4,9.3-7.4,14.4c0.6,3.3,2.6,5.3,6.1,4.7c2.6-0.5,5.8-2.5,6.4-5.3l-7,1.4l0.2-6.6L768.5,156.1z"/>
	</g>
	<g>
		<polygon points="780.1,153.8 786.7,154.6 782.8,160 		"/>
		<g>
			<polygon points="790,150.1 787.7,153.2 779.3,152.2 777.8,148.6 			"/>
			<polygon points="793.6,145.1 791,148.7 777,147 775.2,142.9 			"/>
			<polygon points="812.7,118.6 794.6,143.6 774.4,141.2 762,113.4 			"/>
			
				<rect x="782.1" y="83.6" transform="matrix(9.785596e-02 -0.9952 0.9952 9.785596e-02 602.5364 882.8834)" width="12.3" height="51.1"/>
			<path class="st1" d="M822.5,104L822.5,104l-66.9-6.5l0,0c1.8-18.5,18.3-32,36.8-30.2C810.8,69.1,824.3,85.5,822.5,104z"/>
		</g>
		<path d="M783.4,160.1c0,0-2.9,28.9-3.2,28.8c-0.3,0,2.1-28.8,2.1-28.8l0.4,1L783.4,160.1z"/>
		<path d="M782.8,191.4L782.8,191.4l-5.5-0.5l0,0c0.1-1.5,1.5-2.7,3-2.5C781.8,188.5,782.9,189.9,782.8,191.4z"/>
		<g>
			<polygon points="773.4,190 776.7,190.8 776.8,189.7 			"/>
			<polygon points="776,185.6 777.7,188.5 778.6,187.8 			"/>
		</g>
		<g>
			<polygon points="786.7,191.2 783.3,191.4 783.4,190.3 			"/>
			<polygon points="784.9,186.4 782.7,188.9 782,188.1 			"/>
		</g>
		<g>
			<path d="M800.8,182.5l-4.3-2.4l-8,2.5l2.7,1.6l-5.2,4.2l11.4-2.9l-1.9-1.3L800.8,182.5z M789.9,186.4l2.9-2.4l-2.1-1.2l5.6-1.7
				l2.1,1.1l-5,1.6l1.7,1.2L789.9,186.4z"/>
			<g>
				<path d="M788.7,177.6l-1.2-2.3l-1,2.7l-0.6-1l-1.7,5.9l2.3-2.6l0.8,1.5L788.7,177.6z M785.3,180.8l0.8-2.7l0.6,0.9l0.9-2.6
					l0.5,1.1l-1,2.9l-0.6-1.1L785.3,180.8z"/>
			</g>
			<g>
				<path d="M794,176l-0.8-1.5l-0.6,1.8l-0.5-0.7l-1.1,3.9l1.5-1.7l0.5,1L794,176z M791.8,178.2l0.5-1.8l0.4,0.6l0.6-1.7l0.4,0.7
					l-0.6,1.9l-0.4-0.7L791.8,178.2z"/>
			</g>
		</g>
		<g>
			<path d="M761.2,178.8l4.7-1.6l7.4,3.9l-3,1.1l4.3,5.1l-10.7-4.9l2.1-1L761.2,178.8z M771.1,184.7l-2.4-2.9l2.2-0.8l-5.2-2.7
				l-2.2,0.7l4.6,2.5l-1.9,0.9L771.1,184.7z"/>
			<g>
				<path d="M773.9,176.2l1.6-2.1l0.5,2.8l0.8-0.9l0.7,6.1l-1.8-3l-1,1.3L773.9,176.2z M776.7,180l-0.3-2.8l-0.8,0.8l-0.4-2.7
					l-0.7,1l0.5,3l0.8-1L776.7,180z"/>
			</g>
			<g>
				<path d="M768.9,173.7l1-1.4l0.3,1.9l0.6-0.6l0.4,4.1l-1.2-2l-0.7,0.8L768.9,173.7z M770.8,176.3l-0.2-1.9l-0.5,0.6l-0.3-1.8
					l-0.5,0.6l0.3,2l0.5-0.6L770.8,176.3z"/>
			</g>
		</g>
		<path d="M788.9,71.7l-3.2-5.7l2.8-1.6c4.4-2.5,6.6-5.3,6.7-8.4c0.3-7.1-9.6-15.4-13.4-18l-1.9-1.3c-0.5-0.3-0.8-0.8-0.4-1.2
			l1.4-0.9l0.2-1.5l1.4-0.5l0.2-1.2c0.3-0.5,0.8-0.1,1.3,0.2l1.4,1c1.7,1.2,16.7,11.7,16.3,23.6c-0.2,5.5-3.6,10.2-10,13.9
			L788.9,71.7z"/>
		<path class="st2" d="M780,35.6c0,0-1.8-2.3-3.2-2.5"/>
		<path class="st3" d="M780.7,35.3c0,0-1.7-2.9-2-4.1"/>
		<path class="st3" d="M782.1,33.6c-0.8-2.1-3-3.6-3-3.6"/>
		<path class="st3" d="M782.9,33.1c-0.4-1.8-1.7-4.2-1.7-4.2"/>
		<path class="st2" d="M781.2,34.4c-0.5-1-1.3-2.7-1.3-2.7"/>
	</g>
	
		<image style="overflow:visible;" width="1205" height="1335" id="Layer_2_00000031204631874412078890000008182255959389856659_" xlink:href="3A3E69516423B0D9.png"  transform="matrix(0.228 0 0 0.228 206.3357 183.1057)">
	</image>
	
		<image style="overflow:visible;" width="394" height="312" xlink:href="3A3E69516423B0DA.png"  transform="matrix(0.4108 0 0 0.4108 54.3952 265.6553)">
	</image>
	<g>
		<path d="M256.4,124.7l-15.2,1.8c-0.2,1.8-0.9,3.7-2,5.3l-2,0.3l-0.5,2.3c-1.2,0.8-2.9,1.4-4.4,1.7c-4.3,0.7-6.3-2.2-6.9-6
			c-0.9-5.3,0.4-12.3,2.7-17.1c1.1-1,2.7-1.9,4.1-2.2c1.9-0.3,2.6,1.4,2.8,2.9c0.3,1.7,0.3,3.5,0.2,5.3l16.6-5.2
			c0.2-1.4,0.2-2.9,0.2-4.4l3.8-1.2c0.3-2.4,0.4-4.9-0.1-7.3c-1.7-9.9-10.5-12.7-19.4-11.2c-0.8,0.1-1.7,0.4-2.5,0.6
			c-7.3,2-13.6,6.5-18.2,12.4c-1.1,1.4-2,3-3,4.4c-1.1,1.6-2.3,3-3.3,4.6c-4.2,6.7-6.5,14.7-6.6,22.6c0,1.7,0.1,3.3,0.4,5
			c2.2,12.9,13.1,20.3,25.9,18.1c1.2-0.2,2.4-0.5,3.5-0.8c6.7-2,13.1-5.6,17.5-11.1c1.1-1.4,1.9-2.9,2.8-4.3
			c0.4-0.6,0.9-1.1,1.4-1.7c0.3-0.3,0.5-0.6,0.7-0.9c3-4.2,4.7-9.2,5.1-14.3L256.4,124.7z M254.9,135.9
			c-4.7,7.6-13.2,12.7-22.2,14.3c-11.9,2-21.9-4.8-23.9-16.7c-3-17.6,9.8-39,28-42.1c7.8-1.3,15.8,1,17.3,9.8
			c0.3,1.9,0.3,3.9,0.1,5.8L241,111c0-0.9-0.1-1.8-0.2-2.7c-0.4-2.5-1.7-5.4-4.8-4.9c-9.8,1.7-13.5,18.5-12.1,26.8
			c0.8,4.8,3.4,8.4,8.8,7.5c5.3-0.9,9-4.3,10-9.6l13.5-1.6l2.2-0.3C257.9,129.8,256.7,133,254.9,135.9z"/>
		<path class="st0" d="M256.2,126.5l-1.3,9.3c-4.7,7.6-13.2,12.7-22.2,14.3c-11.9,2-21.9-4.8-23.9-16.7c-3-17.6,9.8-39,28-42.1
			c7.8-1.3,15.8,1,17.3,9.8c0.3,1.9,0.3,3.9,0.1,5.8L241,111c0-0.9-0.1-1.8-0.2-2.7c-0.4-2.5-1.7-5.4-4.8-4.9
			c-9.8,1.7-13.5,18.5-12.1,26.8c0.8,4.8,3.4,8.4,8.8,7.5c5.3-0.9,9-4.3,10-9.6L256.2,126.5z"/>
		<path d="M289.9,80.6l-0.6,4.8l-3.4,0.7l-1.8,15l-3-12.1l-17.2,4l-0.6,4.8l-3.3,0.8l-3.6,26.1l-0.2,1.8l-1.3,9.3l-0.5,3.6l-0.9,6.3
			l18.2-5.8l0.4-4.4l2.1-0.7l3.2,15.5l18.2-5.3l0.8-4.7l3.1-0.9l3.3-18.9l0,0l3.6-20.6l4.1-23.5L289.9,80.6z M298.2,138l-15.4,4.6
			l-6.7-32.1l-2,22.7l-14.6,4.6l6-43.3l14.4-3.3l7.1,28.5l4.5-37.6l17.2-3.5L298.2,138z"/>
		<polygon class="st0" points="308.6,78.5 298.2,138 282.8,142.5 276.1,110.4 274.1,133.1 259.5,137.8 265.5,94.5 279.9,91.1 
			287,119.6 291.5,82 		"/>
		<path d="M341.3,109.5c-0.2,1.9-0.9,3.7-2,5.3l-2,0.3l-0.5,2.3c-1.3,0.9-2.9,1.4-4.4,1.7c-4.3,0.7-6.3-2.2-6.9-6
			c-0.9-5.3,0.4-12.3,2.7-17.1c1.1-1,2.7-1.9,4.1-2.2c1.9-0.3,2.5,1.4,2.8,2.9c0.3,1.7,0.2,3.5,0.2,5.3l16.7-5.2
			c0.2-1.4,0.2-2.9,0.2-4.4l3.8-1.2c0.3-2.4,0.4-4.9-0.1-7.3c-1.7-9.8-10.5-12.7-19.4-11.2c-0.8,0.2-1.7,0.4-2.5,0.6
			c-7.3,2-13.6,6.5-18.2,12.4c-1.1,1.4-2,3-3,4.4c-1.1,1.6-2.3,3-3.3,4.6c-1.1,1.7-2,3.4-2.8,5.2c-2.4,5.4-3.7,11.4-3.8,17.4
			c0,1.1,0.1,2.1,0.2,3.2l0,0c0.1,0.6,0.1,1.2,0.2,1.8c2.2,12.9,13.1,20.3,25.9,18.1c1.2-0.2,2.4-0.5,3.5-0.8
			c6.7-2,13.1-5.6,17.5-11.1c1.1-1.4,1.9-2.8,2.8-4.3c0.6-0.9,1.5-1.7,2.1-2.6c3-4.2,4.7-9.2,5.1-14.3L341.3,109.5z M332.8,133.1
			c-11.9,2-21.9-4.8-23.9-16.7c-3-17.7,9.9-39.1,28-42.2c7.8-1.3,15.8,1,17.3,9.9c0.3,1.9,0.3,3.9,0.1,5.8L341,94
			c0-0.9-0.1-1.8-0.3-2.7c-0.4-2.5-1.7-5.4-4.8-4.9c-9.8,1.7-13.5,18.5-12.1,26.8c0.8,4.8,3.4,8.4,8.8,7.5c5.3-0.9,9.1-4.3,10-9.6
			l15.7-1.8C356.7,122.1,345.1,131,332.8,133.1z"/>
		<path class="st0" d="M358.4,109.3c-1.7,12.9-13.3,21.8-25.6,23.9c-11.9,2-21.9-4.8-23.9-16.7c-3-17.7,9.9-39.1,28-42.2
			c7.8-1.3,15.8,1,17.3,9.9c0.3,1.9,0.3,3.9,0.1,5.8L341,94c0-0.9-0.1-1.8-0.3-2.7c-0.4-2.5-1.7-5.4-4.8-4.9
			c-9.8,1.7-13.5,18.5-12.1,26.8c0.8,4.8,3.4,8.4,8.8,7.5c5.3-0.9,9.1-4.3,10-9.6L358.4,109.3z"/>
		<path d="M190.5,193.7l0.2-1.7l2.1-0.6l0.8-7.2l1-0.3l0.3-2.9l2.1-0.5l1.1-9.9l-22.1,5.7l-0.4,2.9l-2,0.5l-4.6,34l25.1-6.6l0.3-2.9
			l0.2-0.1l1.9-0.5l1.4-12.2l-1.7,0.5L190.5,193.7z M196.8,192.8l-1.1,9.8l-0.8,0.2l-22,5.8l4.2-31.6l19.9-5.1l-0.9,7.6l-12,3.1
			l-0.6,3.7l9.1-2.5l-0.8,6.6l-8.9,2.6l-0.6,4.1l13.8-4.2L196.8,192.8z"/>
		<polygon class="st0" points="184.1,182.7 183.6,186.4 192.6,183.9 191.9,190.5 183,193.1 182.4,197.2 196.2,193 194.9,202.9 
			172.8,208.7 177.1,177.1 197,171.9 196.1,179.6 		"/>
		<path d="M216.8,166.6l-0.4,3l-2.1,0.4l-1.1,9.3l-1.9-7.5l-10.6,2.4l-0.4,3l-2,0.5l-1.9,14.1l-0.2,1.2l-1.3,9.9l-0.2,1.1l-0.4,2.9
			l11.3-3.6l0.3-2.7l1.3-0.4l2,9.6l11.3-3.3l0.5-2.9l1.9-0.5l1.8-10.4l2.7-15.3c0,0,0,0,0,0l2.3-13.3L216.8,166.6z M225.5,181.9
			C225.5,181.9,225.4,181.9,225.5,181.9l-1,5.9c0,0,0,0,0,0l-2.5,14.2l-9.5,2.8l-4.1-19.8l-1.2,14l-9,2.9l3.7-26.8l8.9-2.1l4.4,17.6
			l2.8-23.2l10.6-2.1L225.5,181.9z"/>
		<path class="st0" d="M228.4,165.3l-2.9,16.6c0,0,0,0,0,0.1c-0.6,1.9-0.9,3.9-1,5.9c0,0,0,0,0,0l-2.5,14.2l-9.5,2.8l-4.1-19.8
			l-1.2,14l-9,2.9l3.7-26.8l8.9-2.1l4.4,17.6l2.8-23.2L228.4,165.3z"/>
		<path d="M259.3,175.4l-4.5,1l0.1-2.5l2.3-0.7c0.2-1.5,0.2-3,0-4.5c-1-6.1-6.5-7.8-12-6.9c-0.5,0.1-1,0.2-1.5,0.3
			c-4.5,1.3-8.3,3.9-11.2,7.6c-0.7,0.9-1.3,1.9-1.9,2.8s-1.4,1.7-2,2.7c-0.4,0.7-0.8,1.3-1.2,2l0,0c-0.8,1.5-1.4,3.1-1.9,4.7
			c0,0,0,0,0,0.1c-0.6,1.9-0.9,3.9-1,5.9c0,0,0,0,0,0c0,0.5,0,1,0,1.4c0,1,0.1,2.1,0.3,3.1c0,0,0,0.1,0,0.1
			c1.4,7.9,8.1,12.4,16,11.1c0.7-0.1,1.5-0.3,2.2-0.5c3.8-1.1,7.1-3.2,9.4-6.4c0.5-0.7,0.9-1.4,1.4-2.1c0.7-1,1.5-1.8,2.1-2.9
			c0.7-1.2,1.3-2.4,1.7-3.7c1.4-4,1.8-8.4,2.1-12.6L259.3,175.4z M244.9,198.6c-0.7,0.2-1.4,0.4-2,0.5c-7.3,1.2-13.5-3-14.8-10.4
			c-1.9-10.9,6.1-24.1,17.3-26.1c4.8-0.8,9.7,0.6,10.7,6.1c0.2,1.2,0.2,2.4,0.1,3.6l-8.2,2.6c-0.1-2.2-1.2-4.3-3.7-3.9
			c-6.1,1-9.1,9.7-8.1,15.2c0.6,3.6,2.7,5.7,6.4,5.1c2.8-0.5,6.3-2.5,6.9-5.5l-7.4,1.4l0.3-7l16.2-3.5
			C257.7,186.6,255.6,195.4,244.9,198.6z M244.4,178.6l-3.2,0.7l-0.1,3l-2.3,0.5l-0.3,6.4c-0.8-0.8-1.2-2-1.4-3.2
			c-0.5-2.9,0-5.9,1.3-8.5c0.9-0.8,2.2-1.8,3.5-2c1.5-0.3,2.2,1,2.4,2.3C244.4,178.1,244.4,178.4,244.4,178.6z"/>
		<path class="st0" d="M258.4,176.7c-0.7,9.9-2.8,18.7-13.5,21.9c-0.7,0.2-1.4,0.4-2,0.5c-7.3,1.2-13.5-3-14.8-10.4
			c-1.9-10.9,6.1-24.1,17.3-26.1c4.8-0.8,9.7,0.6,10.7,6.1c0.2,1.2,0.2,2.4,0.1,3.6l-8.2,2.6c-0.1-2.2-1.2-4.3-3.7-3.9
			c-6.1,1-9.1,9.7-8.1,15.2c0.6,3.6,2.7,5.7,6.4,5.1c2.8-0.5,6.3-2.5,6.9-5.5l-7.4,1.4l0.3-7L258.4,176.7z"/>
		<path d="M275.1,165.9c-1.7,0.3-3.5,1-5.1,1.7l-1,6.9c2.5-0.9,9.9-4.4,9.4-7.6C278.2,165.6,276,165.7,275.1,165.9z M270.4,172.9
			l0.2-1.9c1-0.3,2.2-0.8,3.3-1c0.4-0.1,0.9-0.1,0.9,0.4C273.5,171.5,272,172.2,270.4,172.9z M275.1,165.9c-1.7,0.3-3.5,1-5.1,1.7
			l-1,6.9c2.5-0.9,9.9-4.4,9.4-7.6C278.2,165.6,276,165.7,275.1,165.9z M270.4,172.9l0.2-1.9c1-0.3,2.2-0.8,3.3-1
			c0.4-0.1,0.9-0.1,0.9,0.4C273.5,171.5,272,172.2,270.4,172.9z M288.1,162.9l0-0.3c-1-5.7-10.2-4.6-14.2-3.9
			c-3.6,0.6-7.2,1.5-10.6,2.7l-0.4,2.8l-2,0.7l-1.5,10.6l-1.8,12.6l-1.5,10.6l10.4-3.7l0.2-2.7l1.8-0.6l2.3,6.6l11.2-4l-0.8-2.3
			l1.1-0.4l2.1-0.7l-1.1-3.2l-3.1-8.7c1.4-1.5,2.4-3,3.6-4.7c0.5-0.6,1-1.2,1.5-1.9C287.1,169.6,288.7,166.3,288.1,162.9z
			 M278.5,177.7l4.2,11.8l0.2,0.7l-0.4,0.2l-8.7,3.1l-5.1-14.3l-0.9,11.6l-8.2,2.9l4.6-31.4c3.4-1.2,6.9-2.1,10.5-2.7
			c3.4-0.6,11.4-1.6,12.3,3.3C287.9,168.5,282.7,174.4,278.5,177.7z M275.1,165.9c-1.7,0.3-3.5,1-5.1,1.7l-1,6.9
			c2.5-0.9,9.9-4.4,9.4-7.6C278.2,165.6,276,165.7,275.1,165.9z M270.4,172.9l0.2-1.9c1-0.3,2.2-0.8,3.3-1c0.4-0.1,0.9-0.1,0.9,0.4
			C273.5,171.5,272,172.2,270.4,172.9z"/>
		<path class="st0" d="M287,162.8c-0.8-5-8.8-3.9-12.3-3.3c-3.5,0.6-7.1,1.5-10.5,2.7l-4.6,31.4l8.2-2.9l0.9-11.6l5.1,14.3l8.7-3.1
			l0.2-0.8l-4.2-11.8C282.7,174.4,287.9,168.5,287,162.8z M269.1,174.5l1-6.9c1.6-0.7,3.3-1.4,5.1-1.7c0.9-0.2,3.1-0.3,3.3,0.9
			C279,170.1,271.6,173.6,269.1,174.5z"/>
		<path d="M298.9,162.5l-1.5,9l4.4-1.4l0.3-9.2L298.9,162.5z M298.9,162.5l-1.5,9l4.4-1.4l0.3-9.2L298.9,162.5z M292.6,156.2
			l-0.7,2.8l-1.7,0.6l-7,28l-0.5,1.9l-0.2,0.8l-0.3,1.2l-0.5,1.8l10.9-3.3l0.7-2.9l1.7-0.6l0.6-2.4l2.2-0.9l-0.6,10.7l12.1-4.1
			l-0.1-2.6l1.9-0.6l0.6-0.2l-1-29.1l-0.2-7.3L292.6,156.2z M310.7,185.8l-9.9,3.3l0.7-10.8l-6.1,2.4l-1.2,5.1l-8.4,2.6l7.8-31.3
			l16-5.5L310.7,185.8z M297.3,171.5l4.4-1.4l0.3-9.2l-3.2,1.5L297.3,171.5z M298.9,162.5l-1.5,9l4.4-1.4l0.3-9.2L298.9,162.5z
			 M298.9,162.5l-1.5,9l4.4-1.4l0.3-9.2L298.9,162.5z"/>
		<path class="st0" d="M293.5,157.1l-7.8,31.3l8.4-2.6l1.2-5.1l6.1-2.4l-0.7,10.8l9.9-3.3l-1.2-34.2L293.5,157.1z M301.8,170.1
			l-4.4,1.4l1.5-9l3.2-1.5L301.8,170.1z"/>
		<path d="M328.4,147.9l-0.8,3.2l-1.6,0.3l-2.5,10.4l0.3-10.5l-10.8,2.9l0.1,2.8l-2.1,0.5l-0.4,0.1l0.7,29.3l0.1,2.5l16.3-4.5l1-3
			l1.4-0.4l8.8-27.4l0.6-1.9l2.1-6.7L328.4,147.9z M329.1,180.5l-14.4,4l-0.7-29.5l8.6-2.3l-0.6,20.1l1.5-0.6l5.7-23.3l10.7-2
			L329.1,180.5z"/>
		<polygon class="st0" points="339.9,146.9 329.1,180.5 314.7,184.4 314,154.9 322.6,152.6 322,172.6 323.5,172.1 329.2,148.8 		"/>
		<path d="M341.5,148.7l-0.5,2.9l-1.6,0.4l-0.3,0.1l-0.3,1.8l0,0l-5.2,31.2l12.5-4l0.4-2.8l2-0.6l0.1,0l2-15.2l2.2-16.6L341.5,148.7
			z M347.5,176.9l-10.2,3.3l5-30.6l9-2.3L347.5,176.9z"/>
		<polygon class="st0" points="351.4,147.3 347.5,176.9 337.4,180.2 342.4,149.6 		"/>
		<path d="M370.5,140.4l-0.4,3l-2.1,0.4l-1.1,9.3l-1.9-7.5l-10.6,2.5l-0.4,3l-2,0.5l-1.3,9.9l-0.1,1.1l-2.1,15.2l-0.4,3l11.2-3.6
			l0.3-2.7l1.3-0.4l2,9.6l11.3-3.3l0.5-2.9l1.9-0.5l1.8-10.4l2.7-15.3l2.3-13.3L370.5,140.4z M379.1,155.8L379.1,155.8l-1,5.8
			l-2.5,14.3l-9.5,2.8l-4.1-19.9l-1.2,14l-9,2.9l3.7-26.7l8.9-2.1l4.4,17.6l2.8-23.2l10.6-2.2L379.1,155.8z"/>
		<path class="st0" d="M382,139.2l-2.9,16.7l0,0c-0.6,1.9-0.9,3.8-1,5.7l-2.5,14.3l-9.5,2.8l-4.1-19.9l-1.2,14l-9,2.9l3.7-26.7
			l8.9-2.1l4.4,17.6l2.8-23.2L382,139.2z"/>
		<path d="M408.4,150.3l0.1-2.5l2.3-0.7c0.2-1.5,0.2-3,0-4.5c-1-6.1-6.5-7.8-12-6.9c-0.5,0.1-1.1,0.2-1.5,0.4
			c-4.5,1.3-8.3,3.9-11.2,7.6c-0.7,0.9-1.3,1.9-1.9,2.8c-0.7,0.9-1.4,1.8-2,2.7c-0.4,0.7-0.8,1.4-1.2,2.1c-0.8,1.5-1.4,3.1-1.9,4.7
			l0,0c-0.6,1.9-0.9,3.8-1,5.7c0,0.5,0,1.1,0,1.6c0,1,0.1,2.1,0.3,3.1c0,0,0,0.1,0,0.1c1.4,7.9,8.1,12.4,16,11
			c0.7-0.1,1.5-0.3,2.2-0.5c3.8-1.1,7.1-3.2,9.4-6.4c0.5-0.7,0.9-1.4,1.4-2.1c0.7-1,1.5-1.8,2.1-2.9c2.9-4.9,3.4-10.8,3.8-16.3
			L408.4,150.3z M398.6,172.5c-0.7,0.2-1.4,0.4-2,0.5c-7.4,1.3-13.5-3-14.8-10.4c-1.9-10.9,6.1-24.1,17.3-26
			c4.8-0.8,9.8,0.6,10.7,6.1c0.2,1.2,0.2,2.4,0.1,3.6l-8.2,2.6c-0.1-2.2-1.2-4.3-3.7-3.9c-6.1,1-9.1,9.8-8.1,15.2
			c0.6,3.6,2.7,5.7,6.4,5.1c2.8-0.5,6.3-2.5,6.9-5.5l-7.5,1.4l0.3-7l16.2-3.5C411.3,160.4,409.3,169.2,398.6,172.5z M398.1,152.5
			l-3.2,0.7l-0.1,3l-2.3,0.5l-0.3,6.4c-0.8-0.8-1.2-2-1.4-3.2c-0.5-2.9,0-5.9,1.3-8.5c0.9-0.9,2.2-1.8,3.5-2c1.5-0.3,2.2,1,2.4,2.3
			C398,151.9,398.1,152.2,398.1,152.5z"/>
		<path class="st0" d="M412.1,150.5c-0.7,9.9-2.8,18.7-13.5,21.9c-0.7,0.2-1.4,0.4-2,0.5c-7.4,1.3-13.5-3-14.8-10.4
			c-1.9-10.9,6.1-24.1,17.3-26c4.8-0.8,9.8,0.6,10.7,6.1c0.2,1.2,0.2,2.4,0.1,3.6l-8.2,2.6c-0.1-2.2-1.2-4.3-3.7-3.9
			c-6.1,1-9.1,9.8-8.1,15.2c0.6,3.6,2.7,5.7,6.4,5.1c2.8-0.5,6.3-2.5,6.9-5.5l-7.5,1.4l0.3-7L412.1,150.5z"/>
	</g>
	<g>
		<path d="M464.3,130.7l-20.5,29.8c-1.8,2.6-4.9,3.8-8,3.2l-12-2.4c-3-0.6-5.3-2.8-6-5.8l-8.5-35L464.3,130.7z"/>
		<rect x="431.8" y="90.3" transform="matrix(0.1788 -0.9839 0.9839 0.1788 243.8534 528.4877)" width="13.4" height="55.8"/>
		<path class="st4" d="M476.2,115.7L476.2,115.7l-72.3-13.1l0,0c3.6-20,22.8-33.2,42.7-29.6C466.6,76.6,479.9,95.7,476.2,115.7z"/>
		<path d="M427.9,183.6l-2.2-0.4c-0.4-0.1-0.6-0.4-0.6-0.8l3.5-20.2c0.1-0.4,0.4-0.6,0.8-0.6l2.2,0.4c0.4,0.1,0.6,0.4,0.6,0.8
			l-3.5,20.2C428.6,183.5,428.3,183.7,427.9,183.6z"/>
		<polygon points="428.2,175.1 443.3,155.5 420.7,151.6 		"/>
		<g>
			<path d="M427,182.1c0.2,0.3,0.2,0.6,0.1,0.9l-0.2,0.9c0,0.3-0.2,1-0.2,1.3c-0.1,0.1-0.2,0.2-0.4,0.4c-0.1-0.2-0.1-0.3-0.2-0.5
				c0-0.3,0.2-1,0.2-1.3l0.2-0.9C426.6,182.6,426.8,182.3,427,182.1L427,182.1z"/>
		</g>
		<polyline class="st5" points="433.2,180.6 434.5,179.8 435.5,181 		"/>
		<polyline class="st5" points="433.5,178.5 434.5,179.8 435.9,178.9 		"/>
		<polyline class="st6" points="417.6,177.9 419.6,178.3 419.4,180.3 		"/>
		<polyline class="st6" points="419.8,176.2 419.6,178.3 421.7,178.7 		"/>
		<polyline class="st7" points="413.7,169.2 415.8,168.6 416.5,170.6 		"/>
		<polyline class="st7" points="415.1,166.5 415.8,168.6 417.9,168 		"/>
		<polyline class="st8" points="440.6,177.1 442.6,176.9 442.9,178.8 		"/>
		<polyline class="st8" points="442.2,174.9 442.6,176.9 444.6,176.7 		"/>
		<path d="M451.3,79.1l5-5l-2.5-2.5c-3.9-3.9-5.4-7.4-4.7-10.8c1.8-7.6,14.5-13.5,19.2-15.1l2.3-0.8c0.6-0.2,1-0.6,0.8-1.2l-1.2-1.4
			l0.2-1.6l-1.4-1l0.1-1.3c-0.2-0.6-0.8-0.4-1.4-0.2l-1.8,0.6c-2.1,0.7-21,7.5-23.9,20.2c-1.4,5.9,0.9,11.8,6.6,17.5L451.3,79.1z"/>
		<path class="st9" d="M471,43.5c0,0,2.5-1.9,4.1-1.8"/>
		<path class="st10" d="M470.3,43c0,0,2.6-2.6,3.3-3.8"/>
		<path class="st10" d="M469.4,40.7c1.4-2,4.2-3,4.2-3"/>
		<path class="st10" d="M468.7,40c0.9-1.7,3-3.9,3-3.9"/>
		<path class="st9" d="M470.1,41.9c0.8-0.9,2.1-2.4,2.1-2.4"/>
	</g>
	<g>
		<path class="st0" d="M50.3,261.1v137h170v-137H50.3z M213.8,391.6h-157v-124h157V391.6z"/>
		<path d="M47.8,258.6v142h175v-142H47.8z M217.8,395.6h-165v-132h165V395.6z"/>
	</g>
	<g>
		<path class="st0" d="M44.3,483.6c-18.1,0-33.3-13-36.1-31c-1.5-9.7,0.8-19.3,6.6-27.2s14.3-13.1,23.9-14.6L210,384
			c1.9-0.3,3.8-0.4,5.7-0.4c18.1,0,33.3,13,36.1,31c1.5,9.7-0.8,19.3-6.6,27.2s-14.3,13.1-23.9,14.6L50,483.2
			C48.1,483.5,46.2,483.6,44.3,483.6z"/>
		<path d="M215.7,381.8v3.5c8.2,0,16.2,2.9,22.5,8.3c6.4,5.4,10.6,12.9,11.9,21.2c3,19-10.1,36.9-29.1,39.9L49.7,481.5
			c-1.8,0.3-3.6,0.4-5.4,0.4c-8.2,0-16.2-2.9-22.5-8.3c-6.4-5.4-10.6-12.9-11.9-21.2c-1.4-9.2,0.8-18.4,6.3-26
			c5.5-7.5,13.6-12.5,22.8-13.9l171.4-26.9c1.8-0.3,3.6-0.4,5.4-0.4L215.7,381.8 M215.7,381.8c-2,0-4,0.2-6,0.5L38.4,409.1
			C17.5,412.4,3.2,432,6.4,452.9v0c3,18.9,19.3,32.4,37.8,32.4c2,0,4-0.2,6-0.5L221.6,458c20.9-3.3,35.2-22.9,31.9-43.8v0
			C250.6,395.3,234.3,381.8,215.7,381.8L215.7,381.8z"/>
	</g>
	<text transform="matrix(0.984 -0.1779 0.1779 0.984 27.7435 458.1096)" class="st11 st12">Shiny 3D texture!</text>
	<g>
		<path class="st0" d="M854.3,281.1v137h170v-137H854.3z M1017.8,411.6h-157v-124h157V411.6z"/>
		<path d="M851.8,278.6v142h175v-142H851.8z M1021.8,415.6h-165v-132h165V415.6z"/>
	</g>
	<g>
		<path class="st0" d="M848.3,503.6c-18.1,0-33.3-13-36.1-31c-1.5-9.7,0.8-19.3,6.6-27.2s14.3-13.1,23.9-14.6L1014,404
			c1.9-0.3,3.8-0.4,5.7-0.4c18.1,0,33.3,13,36.1,31c1.5,9.7-0.8,19.3-6.6,27.2s-14.3,13.1-23.9,14.6L854,503.2
			C852.1,503.5,850.2,503.6,848.3,503.6z"/>
		<path d="M1019.7,401.8v3.5c8.2,0,16.2,2.9,22.5,8.3c6.4,5.4,10.6,12.9,11.9,21.2c3,19-10.1,36.9-29.1,39.9l-171.4,26.9
			c-1.8,0.3-3.6,0.4-5.4,0.4c-8.2,0-16.2-2.9-22.5-8.3c-6.4-5.4-10.6-12.9-11.9-21.2c-1.4-9.2,0.8-18.4,6.3-26
			c5.5-7.5,13.6-12.5,22.8-13.9l171.4-26.9c1.8-0.3,3.6-0.4,5.4-0.4L1019.7,401.8 M1019.7,401.8c-2,0-4,0.2-6,0.5l-171.4,26.9
			c-20.9,3.3-35.2,22.9-31.9,43.8v0c3,18.9,19.3,32.4,37.8,32.4c2,0,4-0.2,6-0.5l171.4-26.9c20.9-3.3,35.2-22.9,31.9-43.8v0
			C1054.6,415.3,1038.3,401.8,1019.7,401.8L1019.7,401.8z"/>
	</g>
	<text transform="matrix(0.984 -0.1779 0.1779 0.984 830.5981 478.3167)" class="st11 st13">Clean and detailed</text>
</g>
</svg>
