<?xml version="1.0" encoding="utf-8"?>
<!-- Generator: Adobe Illustrator 26.5.0, SVG Export Plug-In . SVG Version: 6.00 Build 0)  -->
<svg version="1.1" id="Layer_1" xmlns="http://www.w3.org/2000/svg" xmlns:xlink="http://www.w3.org/1999/xlink" x="0px" y="0px"
	 viewBox="0 0 720 576" style="enable-background:new 0 0 720 576;" xml:space="preserve">
<style type="text/css">
	.st0{fill:#FFFFFF;}
	.st1{fill-rule:evenodd;clip-rule:evenodd;fill:#FFFFFF;}
</style>
<path class="st0" d="M360.6,155.2c34.5,0.3,68.7,14.1,93.7,37.9c31.4,29.9,47.2,75.3,41.2,118.3c-9,64-67.9,117.9-135.7,117.9
	c-35.1,0-69.8-14-95.1-38.4c-32.5-31.3-47.8-79.3-39.6-123.7c11.5-61.8,68.8-111.4,133.9-112C359.4,155.2,360,155.2,360.6,155.2
	L360.6,155.2z M358.9,168.2c-44.8,0.4-88.2,26.8-109,66.3c-17.9,33.9-18.8,76.2-2.4,110.9c23.2,48.9,80.4,79.4,135.7,68.8
	c38.1-7.3,72.1-33.7,88.7-68.8c16.4-34.6,15.5-77-2.4-110.9c-20.8-39.4-63.8-65.9-109-66.3C359.9,168.2,359.4,168.2,358.9,168.2
	L358.9,168.2z"/>
<path class="st1" d="M383.6,233.2H378v64l-9,27.2h-6.6v19.9l-1.8,19.7h-1.9l-1.8-19.7v-19.9h-6.6l-9-27.2v-64h-5.6V221h47.8V233.2
	L383.6,233.2z M383.6,187.6H378v32h-36.6v-32h-5.6v-12.2h47.8V187.6L383.6,187.6z M371.5,174h-23.6v-12.2h23.6V174L371.5,174z"/>
<path class="st1" d="M265.4,367.2l36.5-3.6l57.7,2.2l57.6-2.2l36.6,3.6c-0.6,0.7-1.1,1.4-1.7,2.1l-53.6-4.8l50.2,8.7
	c-0.6,0.7-1.2,1.3-1.8,2l-52.9-8.4l48.4,12.9c-0.8,0.7-1.5,1.4-2.3,2.1l-52.1-13.1l45.4,18.7c-0.8,0.7-1.7,1.3-2.5,1.9L381,370.1
	l39.2,26.4c-1.2,0.7-2.3,1.4-3.5,2l-43.9-27.4l24.2,36c-1.2,0.4-2.4,0.8-3.5,1.1l-29.4-36.6l-2,41.3c-1.6,0-3.3,0-4.9-0.1l-2-41.3
	l-29,36.2c-1.2-0.4-2.4-0.7-3.6-1.1l23.9-35.5L303,398.2c-1.2-0.6-2.4-1.3-3.6-2l38.8-26.1l-49.7,19c-0.9-0.6-1.7-1.3-2.6-1.9
	l45.1-18.6l-51.8,13.1c-0.8-0.7-1.6-1.4-2.3-2.1l48.1-12.9l-52.7,8.4c-0.6-0.6-1.2-1.3-1.8-2l50-8.7l-53.5,4.8
	C266.6,368.6,266,367.9,265.4,367.2L265.4,367.2z"/>
<g>
	<path class="st0" d="M245.6,159.2l-5.9-18.9l8.6-7.6l7,29.4l9.9,11.2l-8.1,7.1l-9.9-11.2L219,158.5l8.6-7.5L245.6,159.2z"/>
	<path class="st0" d="M306.6,127.5c1.7,3.7,2.4,7.3,2.3,10.8c-0.2,3.5-1.2,6.6-3.2,9.4c-2,2.7-4.7,4.9-8.1,6.4s-6.8,2.2-10.1,1.9
		c-3.3-0.3-6.3-1.5-9.1-3.6c-2.7-2.1-4.9-4.9-6.6-8.5l-1-2.1c-1.7-3.7-2.4-7.3-2.3-10.8c0.2-3.5,1.2-6.6,3.2-9.4
		c2-2.8,4.7-4.9,8.1-6.5c3.4-1.5,6.8-2.1,10.1-1.8c3.4,0.3,6.4,1.6,9.2,3.7c2.8,2.2,5,5.1,6.6,8.7L306.6,127.5z M296.1,130.4
		c-1.7-3.8-3.7-6.3-5.9-7.7c-2.2-1.4-4.6-1.5-7-0.3c-4.8,2.2-5.9,6.8-3,13.8l1.2,2.8c1.7,3.7,3.6,6.3,5.8,7.7
		c2.2,1.4,4.6,1.5,7.2,0.4c2.4-1.1,3.9-2.9,4.3-5.5s-0.2-5.7-1.8-9.4L296.1,130.4z"/>
	<path class="st0" d="M336.4,126.4l-3.7,5l1.4,10.9l-10.5,1.4l-5.3-41.3l10.5-1.4l2.4,18.2l3-5.7l7.7-14.2l13-1.7l-12.4,20.2
		l17.7,21.1l-12.5,1.6L336.4,126.4z"/>
	<path class="st0" d="M405.4,125.3c-0.6,4-2,7.4-4,10.3s-4.7,4.9-7.8,6.1c-3.2,1.2-6.6,1.5-10.3,1c-3.7-0.6-6.9-1.9-9.5-4
		c-2.6-2.1-4.5-4.7-5.6-8c-1.1-3.2-1.4-6.8-0.9-10.7l0.4-2.3c0.6-4,2-7.5,4-10.3c2-2.8,4.7-4.9,7.8-6.1c3.2-1.2,6.6-1.5,10.4-1
		c3.7,0.6,6.8,1.9,9.5,4c2.6,2.1,4.5,4.8,5.6,8.1c1.1,3.3,1.4,6.9,0.8,10.9L405.4,125.3z M395,122c0.6-4.1,0.4-7.3-0.7-9.7
		c-1.1-2.3-3-3.7-5.7-4.1c-5.3-0.8-8.6,2.5-10.1,9.9l-0.5,3c-0.6,4-0.4,7.2,0.7,9.6c1.1,2.4,3,3.8,5.8,4.2c2.6,0.4,4.9-0.3,6.6-2.2
		c1.8-1.9,3-4.9,3.6-8.8L395,122z"/>
	<path class="st0" d="M454.1,131.1l-12-5.5l-14.2,30.8l-9.6-4.5l14.2-30.8l-11.8-5.4l3.3-7l33.4,15.4L454.1,131.1z"/>
	<path class="st0" d="M467.6,174.7l-11-9.5l-7,4.2l-8.6-7.4l39.4-21l7.6,6.5l-14.8,42.2l-8.6-7.4L467.6,174.7z M463.6,161l7.2,6.2
		l5.8-14L463.6,161z"/>
</g>
<g>
	<path class="st0" d="M249.6,464.6h-7.9v5h9.3v3.9h-14.3v-20.8h14.4v3.9h-9.4v4.4h7.9V464.6z"/>
	<path class="st0" d="M270.5,473.5h-5l-7.4-13v13h-5v-20.8h5l7.4,13v-13h5V473.5z"/>
	<path class="st0" d="M290.7,470.9c-0.8,0.9-1.9,1.5-3.4,2.1s-3.1,0.8-4.9,0.8c-2.7,0-4.9-0.8-6.5-2.5c-1.6-1.7-2.5-4-2.6-7l0-1.8
		c0-2.1,0.4-3.8,1.1-5.4c0.7-1.5,1.8-2.7,3.1-3.5c1.3-0.8,2.9-1.2,4.7-1.2c2.6,0,4.6,0.6,6,1.8c1.4,1.2,2.3,3,2.5,5.3h-4.8
		c-0.2-1.2-0.5-2-1.1-2.5c-0.6-0.5-1.4-0.7-2.4-0.7c-1.3,0-2.2,0.5-2.9,1.6c-0.7,1.1-1,2.6-1,4.6v1.3c0,2.1,0.4,3.6,1.1,4.7
		c0.7,1,1.8,1.6,3.4,1.6c1.3,0,2.3-0.3,2.9-0.9v-3.2h-3.5v-3.4h8.5V470.9z"/>
	<path class="st0" d="M301.4,466.1h-2.7v7.4h-5v-20.8h8.2c2.5,0,4.4,0.5,5.8,1.6s2.1,2.6,2.1,4.6c0,1.4-0.3,2.6-0.9,3.6
		c-0.6,1-1.5,1.7-2.8,2.3l4.3,8.4v0.2H305L301.4,466.1z M298.6,462.2h3.2c1,0,1.7-0.3,2.2-0.8c0.5-0.5,0.7-1.2,0.7-2.1
		s-0.2-1.6-0.7-2.1s-1.2-0.8-2.1-0.8h-3.2V462.2z"/>
	<path class="st0" d="M324.6,469.6h-6.9l-1.2,3.9h-5.4l7.6-20.8h4.7l7.7,20.8h-5.4L324.6,469.6z M318.9,465.7h4.5l-2.2-7.2
		L318.9,465.7z"/>
	<path class="st0" d="M339.7,467.8l4.1-15.2h5.6l-7,20.8h-5.5l-7-20.8h5.6L339.7,467.8z"/>
	<path class="st0" d="M356.3,473.5h-5v-20.8h5V473.5z"/>
	<path class="st0" d="M377.2,473.5h-5l-7.4-13v13h-5v-20.8h5l7.4,13v-13h5V473.5z"/>
	<path class="st0" d="M397.4,470.9c-0.8,0.9-1.9,1.5-3.4,2.1c-1.5,0.5-3.1,0.8-4.9,0.8c-2.7,0-4.9-0.8-6.5-2.5c-1.6-1.7-2.5-4-2.6-7
		l0-1.8c0-2.1,0.4-3.8,1.1-5.4c0.7-1.5,1.8-2.7,3.1-3.5c1.3-0.8,2.9-1.2,4.7-1.2c2.6,0,4.6,0.6,6,1.8s2.3,3,2.5,5.3h-4.8
		c-0.2-1.2-0.5-2-1.1-2.5c-0.6-0.5-1.4-0.7-2.4-0.7c-1.3,0-2.2,0.5-2.9,1.6c-0.7,1.1-1,2.6-1,4.6v1.3c0,2.1,0.4,3.6,1.1,4.7
		c0.7,1,1.8,1.6,3.4,1.6c1.3,0,2.3-0.3,2.9-0.9v-3.2h-3.5v-3.4h8.5V470.9z"/>
	<path class="st0" d="M418.4,467.9c0-0.7-0.3-1.3-0.8-1.7c-0.5-0.4-1.4-0.8-2.7-1.3c-1.3-0.4-2.4-0.9-3.2-1.3c-2.7-1.3-4-3.1-4-5.5
		c0-1.2,0.3-2.2,1-3.1c0.7-0.9,1.6-1.6,2.9-2.1s2.6-0.7,4.1-0.7c1.5,0,2.8,0.3,4,0.8c1.2,0.5,2.1,1.3,2.8,2.3s1,2.1,1,3.4h-5
		c0-0.8-0.3-1.5-0.8-2c-0.5-0.5-1.2-0.7-2.1-0.7c-0.9,0-1.6,0.2-2.1,0.6s-0.8,0.9-0.8,1.5c0,0.5,0.3,1,0.9,1.5
		c0.6,0.4,1.6,0.9,3,1.3c1.4,0.5,2.6,1,3.5,1.5c2.3,1.3,3.4,3.1,3.4,5.4c0,1.8-0.7,3.3-2.1,4.3c-1.4,1-3.3,1.6-5.7,1.6
		c-1.7,0-3.2-0.3-4.6-0.9c-1.4-0.6-2.4-1.4-3.1-2.5c-0.7-1.1-1-2.3-1-3.6h5c0,1.1,0.3,1.9,0.9,2.5s1.5,0.8,2.8,0.8
		c0.8,0,1.5-0.2,2-0.5C418.1,469.1,418.4,468.6,418.4,467.9z"/>
	<path class="st0" d="M443.4,473.5h-5v-8.7H431v8.7h-5v-20.8h5v8.3h7.4v-8.3h5V473.5z"/>
	<path class="st0" d="M464.2,463.5c0,2-0.4,3.8-1.1,5.4c-0.8,1.6-1.8,2.8-3.2,3.6c-1.4,0.8-3,1.3-4.7,1.3c-1.8,0-3.3-0.4-4.7-1.2
		c-1.4-0.8-2.4-2-3.2-3.5c-0.8-1.5-1.2-3.3-1.2-5.2v-1.2c0-2,0.4-3.8,1.1-5.4c0.7-1.6,1.8-2.8,3.2-3.6c1.4-0.8,3-1.3,4.8-1.3
		c1.8,0,3.3,0.4,4.7,1.3c1.4,0.8,2.5,2,3.2,3.6c0.8,1.5,1.2,3.3,1.2,5.3V463.5z M459.1,462.6c0-2.1-0.3-3.6-1-4.7
		c-0.7-1.1-1.7-1.6-3-1.6c-2.5,0-3.8,1.9-4,5.7l0,1.5c0,2,0.3,3.6,1,4.7c0.7,1.1,1.7,1.6,3,1.6c1.3,0,2.2-0.5,2.9-1.6
		c0.7-1.1,1-2.6,1-4.6V462.6z"/>
	<path class="st0" d="M471.8,466.4v7.1h-5v-20.8h8.3c1.6,0,3,0.3,4.2,0.9s2.2,1.4,2.8,2.5c0.7,1.1,1,2.3,1,3.7c0,2-0.7,3.7-2.2,4.9
		s-3.5,1.8-6,1.8H471.8z M471.8,462.5h3.3c1,0,1.7-0.2,2.2-0.7c0.5-0.5,0.8-1.2,0.8-2.1c0-1-0.3-1.8-0.8-2.3
		c-0.5-0.6-1.2-0.9-2.1-0.9h-3.3V462.5z"/>
</g>
<g>
	<path class="st0" d="M205.6,505.1h4.4v1.9H203v-10.4h2.5V505.1z"/>
	<path class="st0" d="M217,505h-3.4L213,507h-2.7l3.8-10.4h2.4l3.8,10.4h-2.7L217,505z M214.2,503.1h2.2l-1.1-3.6L214.2,503.1z"/>
	<path class="st0" d="M226.5,504.2c0-0.4-0.1-0.7-0.4-0.9c-0.3-0.2-0.7-0.4-1.4-0.6c-0.7-0.2-1.2-0.4-1.6-0.6c-1.3-0.7-2-1.6-2-2.7
		c0-0.6,0.2-1.1,0.5-1.5c0.3-0.4,0.8-0.8,1.4-1c0.6-0.2,1.3-0.4,2.1-0.4c0.7,0,1.4,0.1,2,0.4c0.6,0.3,1.1,0.6,1.4,1.1
		c0.3,0.5,0.5,1.1,0.5,1.7h-2.5c0-0.4-0.1-0.8-0.4-1s-0.6-0.4-1.1-0.4c-0.4,0-0.8,0.1-1.1,0.3s-0.4,0.4-0.4,0.8
		c0,0.3,0.1,0.5,0.4,0.7c0.3,0.2,0.8,0.4,1.5,0.7c0.7,0.2,1.3,0.5,1.8,0.7c1.1,0.6,1.7,1.5,1.7,2.7c0,0.9-0.3,1.6-1,2.1
		s-1.6,0.8-2.8,0.8c-0.8,0-1.6-0.2-2.3-0.5c-0.7-0.3-1.2-0.7-1.5-1.2c-0.3-0.5-0.5-1.1-0.5-1.8h2.5c0,0.6,0.1,1,0.4,1.2
		s0.8,0.4,1.4,0.4c0.4,0,0.7-0.1,1-0.3S226.5,504.5,226.5,504.2z"/>
	<path class="st0" d="M236.7,502.6h-3.9v2.5h4.7v1.9h-7.2v-10.4h7.2v1.9h-4.7v2.2h3.9V502.6z"/>
	<path class="st0" d="M242.3,503.3H241v3.7h-2.5v-10.4h4.1c1.2,0,2.2,0.3,2.9,0.8s1,1.3,1,2.3c0,0.7-0.1,1.3-0.4,1.8
		c-0.3,0.5-0.8,0.9-1.4,1.2l2.2,4.2v0.1h-2.7L242.3,503.3z M241,501.4h1.6c0.5,0,0.8-0.1,1.1-0.4s0.4-0.6,0.4-1.1s-0.1-0.8-0.4-1.1
		s-0.6-0.4-1.1-0.4H241V501.4z"/>
	<path class="st0" d="M253.4,508.9h-1.3v-12.3h1.3V508.9z"/>
	<path class="st0" d="M262.4,496.6l2.3,7.2l2.3-7.2h3.3V507h-2.5v-2.4l0.2-5l-2.5,7.4h-1.7l-2.5-7.4l0.2,5v2.4h-2.5v-10.4H262.4z"/>
	<path class="st0" d="M278.4,502.6h-3.9v2.5h4.7v1.9h-7.2v-10.4h7.2v1.9h-4.7v2.2h3.9V502.6z"/>
	<path class="st0" d="M288.4,498.5h-3.1v8.5h-2.5v-8.5h-3.1v-1.9h8.7V498.5z"/>
	<path class="st0" d="M294.5,505h-3.4l-0.6,1.9h-2.7l3.8-10.4h2.4l3.8,10.4h-2.7L294.5,505z M291.7,503.1h2.2l-1.1-3.6L291.7,503.1z
		"/>
	<path class="st0" d="M301.1,505.1h4.4v1.9h-6.9v-10.4h2.5V505.1z"/>
	<path class="st0" d="M316.6,502.6h-3.9v2.5h4.7v1.9h-7.2v-10.4h7.2v1.9h-4.7v2.2h3.9V502.6z"/>
	<path class="st0" d="M326.7,498.5h-3.1v8.5h-2.5v-8.5H318v-1.9h8.7V498.5z"/>
	<path class="st0" d="M336,503.5c0,0.7-0.2,1.4-0.6,1.9c-0.4,0.6-0.9,1-1.5,1.3c-0.6,0.3-1.4,0.5-2.2,0.5c-1.4,0-2.4-0.4-3.2-1.3
		c-0.8-0.9-1.2-2.2-1.2-3.8v-0.5c0-1,0.2-1.9,0.5-2.7s0.9-1.4,1.5-1.8c0.7-0.4,1.4-0.6,2.3-0.6c1.3,0,2.3,0.3,3,1
		c0.8,0.7,1.2,1.6,1.3,2.8h-2.5c0-0.6-0.2-1.1-0.5-1.4s-0.8-0.4-1.4-0.4c-0.6,0-1.1,0.2-1.4,0.7c-0.3,0.5-0.4,1.2-0.5,2.2v0.7
		c0,1.1,0.1,1.9,0.4,2.4c0.3,0.5,0.8,0.7,1.4,0.7c0.6,0,1-0.1,1.3-0.4c0.3-0.3,0.5-0.7,0.5-1.3H336z"/>
	<path class="st0" d="M345.9,507h-2.5v-4.3h-3.7v4.3h-2.5v-10.4h2.5v4.1h3.7v-4.1h2.5V507z"/>
	<path class="st0" d="M352.9,508.9h-1.3v-12.3h1.3V508.9z"/>
	<path class="st0" d="M363.9,504.2c0-0.4-0.1-0.7-0.4-0.9c-0.3-0.2-0.7-0.4-1.4-0.6c-0.7-0.2-1.2-0.4-1.6-0.6c-1.3-0.7-2-1.6-2-2.7
		c0-0.6,0.2-1.1,0.5-1.5c0.3-0.4,0.8-0.8,1.4-1c0.6-0.2,1.3-0.4,2.1-0.4c0.7,0,1.4,0.1,2,0.4c0.6,0.3,1.1,0.6,1.4,1.1
		c0.3,0.5,0.5,1.1,0.5,1.7h-2.5c0-0.4-0.1-0.8-0.4-1c-0.3-0.2-0.6-0.4-1.1-0.4c-0.4,0-0.8,0.1-1.1,0.3s-0.4,0.4-0.4,0.8
		c0,0.3,0.1,0.5,0.4,0.7s0.8,0.4,1.5,0.7s1.3,0.5,1.8,0.7c1.1,0.6,1.7,1.5,1.7,2.7c0,0.9-0.3,1.6-1,2.1c-0.7,0.5-1.6,0.8-2.8,0.8
		c-0.8,0-1.6-0.2-2.3-0.5c-0.7-0.3-1.2-0.7-1.5-1.2c-0.3-0.5-0.5-1.1-0.5-1.8h2.5c0,0.6,0.1,1,0.4,1.2c0.3,0.3,0.8,0.4,1.4,0.4
		c0.4,0,0.7-0.1,1-0.3C363.7,504.8,363.9,504.5,363.9,504.2z"/>
	<path class="st0" d="M375.8,496.6v6.8c0,0.8-0.2,1.4-0.5,2c-0.3,0.6-0.8,1-1.4,1.3c-0.6,0.3-1.3,0.4-2.2,0.4c-1.3,0-2.3-0.3-3-1
		s-1.1-1.6-1.1-2.7v-6.9h2.5v6.9c0,1.1,0.6,1.7,1.6,1.7c0.5,0,0.9-0.1,1.2-0.4c0.3-0.3,0.4-0.8,0.4-1.4v-6.8H375.8z"/>
	<path class="st0" d="M377.4,507v-10.4h3.7c1.3,0,2.4,0.2,3.1,0.7c0.7,0.5,1,1.2,1,2.1c0,0.5-0.1,1-0.4,1.4
		c-0.2,0.4-0.6,0.7-1.1,0.8c0.5,0.1,1,0.4,1.3,0.8c0.3,0.4,0.4,0.9,0.4,1.4c0,1-0.3,1.8-1,2.3c-0.6,0.5-1.6,0.8-2.9,0.8H377.4z
		 M379.9,500.9h1.3c0.5,0,0.9-0.1,1.2-0.3s0.4-0.5,0.4-0.9c0-0.4-0.1-0.8-0.4-1c-0.3-0.2-0.7-0.3-1.2-0.3h-1.2V500.9z M379.9,502.6
		v2.5h1.6c0.5,0,0.8-0.1,1-0.3c0.2-0.2,0.4-0.5,0.4-0.9c0-0.9-0.4-1.3-1.3-1.3H379.9z"/>
	<path class="st0" d="M389.4,505.1h4.4v1.9h-6.9v-10.4h2.5V505.1z"/>
	<path class="st0" d="M397.5,507H395v-10.4h2.5V507z"/>
	<path class="st0" d="M402.5,496.6l2.3,7.2l2.3-7.2h3.3V507h-2.5v-2.4l0.2-5l-2.5,7.4H404l-2.5-7.4l0.2,5v2.4h-2.5v-10.4H402.5z"/>
	<path class="st0" d="M418.1,505h-3.4L414,507h-2.7l3.8-10.4h2.4l3.8,10.4h-2.7L418.1,505z M415.3,503.1h2.2l-1.1-3.6L415.3,503.1z"
		/>
	<path class="st0" d="M429.5,498.5h-3.1v8.5h-2.5v-8.5h-3.1v-1.9h8.7V498.5z"/>
	<path class="st0" d="M433.2,507h-2.5v-10.4h2.5V507z"/>
	<path class="st0" d="M443.8,502c0,1-0.2,1.9-0.6,2.7s-0.9,1.4-1.6,1.8c-0.7,0.4-1.5,0.6-2.4,0.6c-0.9,0-1.7-0.2-2.4-0.6
		c-0.7-0.4-1.2-1-1.6-1.7c-0.4-0.8-0.6-1.6-0.6-2.6v-0.6c0-1,0.2-1.9,0.6-2.7c0.4-0.8,0.9-1.4,1.6-1.8c0.7-0.4,1.5-0.6,2.4-0.6
		c0.9,0,1.7,0.2,2.4,0.6c0.7,0.4,1.2,1,1.6,1.8c0.4,0.8,0.6,1.7,0.6,2.7V502z M441.2,501.6c0-1-0.2-1.8-0.5-2.4
		c-0.3-0.5-0.8-0.8-1.5-0.8c-1.3,0-1.9,0.9-2,2.8l0,0.8c0,1,0.2,1.8,0.5,2.4c0.3,0.5,0.8,0.8,1.5,0.8c0.6,0,1.1-0.3,1.5-0.8
		c0.3-0.5,0.5-1.3,0.5-2.3V501.6z"/>
	<path class="st0" d="M453.8,507h-2.5l-3.7-6.5v6.5h-2.5v-10.4h2.5l3.7,6.5v-6.5h2.5V507z"/>
	<path class="st0" d="M460.8,508.9h-1.3v-12.3h1.3V508.9z"/>
	<path class="st0" d="M466.4,507v-10.4h3.4c0.9,0,1.7,0.2,2.5,0.6c0.7,0.4,1.3,1,1.7,1.8s0.6,1.6,0.6,2.6v0.5c0,1-0.2,1.8-0.6,2.6
		s-1,1.3-1.7,1.8c-0.7,0.4-1.5,0.6-2.5,0.6H466.4z M468.9,498.5v6.5h0.9c0.7,0,1.3-0.3,1.7-0.8c0.4-0.5,0.6-1.3,0.6-2.3v-0.5
		c0-1-0.2-1.8-0.6-2.3c-0.4-0.5-0.9-0.8-1.7-0.8H468.9z"/>
	<path class="st0" d="M482.3,502.6h-3.9v2.5h4.7v1.9h-7.2v-10.4h7.2v1.9h-4.7v2.2h3.9V502.6z"/>
	<path class="st0" d="M489.4,504.2c0-0.4-0.1-0.7-0.4-0.9c-0.3-0.2-0.7-0.4-1.4-0.6c-0.7-0.2-1.2-0.4-1.6-0.6c-1.3-0.7-2-1.6-2-2.7
		c0-0.6,0.2-1.1,0.5-1.5c0.3-0.4,0.8-0.8,1.4-1c0.6-0.2,1.3-0.4,2.1-0.4c0.7,0,1.4,0.1,2,0.4c0.6,0.3,1.1,0.6,1.4,1.1
		c0.3,0.5,0.5,1.1,0.5,1.7h-2.5c0-0.4-0.1-0.8-0.4-1c-0.3-0.2-0.6-0.4-1.1-0.4c-0.4,0-0.8,0.1-1.1,0.3c-0.3,0.2-0.4,0.4-0.4,0.8
		c0,0.3,0.1,0.5,0.4,0.7s0.8,0.4,1.5,0.7s1.3,0.5,1.8,0.7c1.1,0.6,1.7,1.5,1.7,2.7c0,0.9-0.3,1.6-1,2.1c-0.7,0.5-1.6,0.8-2.8,0.8
		c-0.8,0-1.6-0.2-2.3-0.5c-0.7-0.3-1.2-0.7-1.5-1.2s-0.5-1.1-0.5-1.8h2.5c0,0.6,0.1,1,0.4,1.2s0.8,0.4,1.4,0.4c0.4,0,0.7-0.1,1-0.3
		C489.3,504.8,489.4,504.5,489.4,504.2z"/>
	<path class="st0" d="M495.9,507h-2.5v-10.4h2.5V507z"/>
	<path class="st0" d="M506.2,505.7c-0.4,0.4-1,0.8-1.7,1c-0.7,0.3-1.6,0.4-2.4,0.4c-1.4,0-2.5-0.4-3.3-1.3c-0.8-0.8-1.3-2-1.3-3.5
		l0-0.9c0-1,0.2-1.9,0.5-2.7c0.4-0.8,0.9-1.4,1.6-1.8c0.7-0.4,1.5-0.6,2.3-0.6c1.3,0,2.3,0.3,3,0.9s1.1,1.5,1.3,2.7h-2.4
		c-0.1-0.6-0.3-1-0.6-1.2s-0.7-0.4-1.2-0.4c-0.6,0-1.1,0.3-1.5,0.8c-0.3,0.5-0.5,1.3-0.5,2.3v0.6c0,1,0.2,1.8,0.5,2.3
		s0.9,0.8,1.7,0.8c0.7,0,1.1-0.1,1.5-0.4v-1.6h-1.7v-1.7h4.3V505.7z"/>
	<path class="st0" d="M516.3,507h-2.5l-3.7-6.5v6.5h-2.5v-10.4h2.5l3.7,6.5v-6.5h2.5V507z"/>
</g>
</svg>
