<?xml version="1.0" encoding="utf-8"?>
<!-- Generator: Adobe Illustrator 27.4.0, SVG Export Plug-In . SVG Version: 6.00 Build 0)  -->
<svg version="1.1" id="Layer_1" xmlns="http://www.w3.org/2000/svg" xmlns:xlink="http://www.w3.org/1999/xlink" x="0px" y="0px"
	 viewBox="0 0 792 612" style="enable-background:new 0 0 792 612;" xml:space="preserve">
<style type="text/css">
	.st0{fill:none;stroke:#000000;stroke-width:2.6594;stroke-linecap:round;stroke-miterlimit:10;}
	.st1{fill:none;stroke:#000000;stroke-width:6.6475;stroke-miterlimit:10;}
</style>
<g>
	<path d="M409.9,120.7H405v-10.4h2.8v7.9h2.1V120.7z"/>
	<path d="M421.2,115.5c0,1.6-0.4,2.9-1.1,3.9c-0.7,1-1.7,1.5-2.8,1.5c-1,0-1.9-0.4-2.6-1.1c-0.9-1-1.4-2.4-1.4-4.3
		c0-1.8,0.5-3.3,1.4-4.2c0.7-0.7,1.6-1.1,2.5-1.1c1.2,0,2.2,0.5,2.9,1.5S421.2,113.8,421.2,115.5z M418.2,115.5c0-1.9-0.3-2.8-1-2.8
		c-0.3,0-0.6,0.2-0.8,0.7c-0.2,0.5-0.3,1.1-0.3,2c0,0.9,0.1,1.6,0.3,2s0.4,0.7,0.8,0.7c0.3,0,0.6-0.2,0.8-0.7
		C418.1,117,418.2,116.4,418.2,115.5z"/>
	<path d="M432.5,120.7h-3l-1.4-3.7c0-0.1,0-0.1-0.1-0.2c0-0.1-0.1-0.2-0.1-0.4l0,0.7v3.6h-2.8v-10.4h2.9c1.3,0,2.2,0.2,2.8,0.7
		c0.8,0.6,1.2,1.5,1.2,2.7c0,1.3-0.5,2.1-1.6,2.6L432.5,120.7z M427.9,115.1h0.2c0.3,0,0.6-0.1,0.8-0.4c0.2-0.2,0.3-0.6,0.3-0.9
		c0-0.8-0.4-1.2-1.2-1.2h-0.1V115.1z"/>
	<path d="M436.2,120.7v-10.4h5.2v2.5h-2.4v1.5h2.2v2.4h-2.2v1.6h2.4v2.5H436.2z"/>
	<path d="M456.2,120.7h-2.9l-0.2-4.8l-0.1-1.9c0,0.4-0.1,0.7-0.1,1c0,0.3-0.1,0.7-0.1,1l-0.9,4.6h-2.3l-0.8-4.7
		c0-0.3-0.1-0.7-0.2-1.4c0-0.1,0-0.3-0.1-0.6l-0.1,1.9l-0.2,4.7h-3l1.2-10.4h3.5l0.6,3.5c0,0.3,0.1,0.6,0.1,0.9
		c0,0.3,0.1,0.7,0.1,1.1c0.1-0.7,0.1-1.3,0.2-1.8l0.7-3.8h3.5L456.2,120.7z"/>
	<path d="M469.9,120.7h-2.8v-10.4h2.8V120.7z"/>
	<path d="M477,120.7h-2.8v-10.4h2.7c1.4,0,2.4,0.3,3,0.8c0.8,0.7,1.2,1.6,1.2,2.7c0,1.3-0.4,2.2-1.2,2.8c-0.6,0.4-1.4,0.6-2.4,0.6
		H477V120.7z M477,114.9l0.1,0c0.3,0,0.6-0.1,0.8-0.3c0.2-0.2,0.3-0.5,0.3-0.9c0-0.4-0.1-0.7-0.3-0.9c-0.2-0.2-0.5-0.3-0.8-0.3H477
		V114.9z"/>
	<path d="M484.6,120.4v-3.3c0.6,0.8,1.2,1.1,1.8,1.1c0.2,0,0.4-0.1,0.6-0.2c0.2-0.1,0.2-0.3,0.2-0.5c0-0.3-0.2-0.6-0.5-0.8l-0.5-0.4
		c-0.3-0.2-0.6-0.5-0.8-0.7c-0.2-0.2-0.4-0.5-0.5-0.7s-0.2-0.5-0.3-0.7c-0.1-0.3-0.1-0.5-0.1-0.8c0-0.5,0.1-1,0.3-1.5
		c0.1-0.2,0.2-0.5,0.4-0.7c0.1-0.2,0.3-0.4,0.5-0.5c0.5-0.5,1.2-0.7,1.9-0.7c0.7,0,1.3,0.2,2,0.5v3.2c-0.2-0.4-0.5-0.6-0.8-0.8
		c-0.3-0.2-0.6-0.3-0.9-0.3c-0.2,0-0.4,0.1-0.5,0.2c-0.1,0.1-0.2,0.3-0.2,0.4c0,0.3,0.2,0.6,0.6,0.8l0.4,0.3c0.6,0.4,1,0.9,1.3,1.3
		c0.3,0.5,0.4,1,0.4,1.6c0,1-0.3,1.9-0.9,2.5c-0.6,0.7-1.4,1-2.4,1C486.1,120.9,485.3,120.7,484.6,120.4z"/>
	<path d="M498.2,110.3h2.8v7.4c0,0.6-0.1,1.1-0.3,1.5c-0.2,0.4-0.5,0.8-0.9,1.1c-0.6,0.4-1.3,0.6-2.2,0.6c-1,0-1.8-0.2-2.4-0.7
		c-0.8-0.6-1.2-1.6-1.2-2.9v-7h2.8v6.7c0,0.5,0.1,0.8,0.2,1c0.1,0.2,0.3,0.3,0.6,0.3c0.3,0,0.5-0.1,0.6-0.3c0.1-0.2,0.2-0.5,0.2-1
		V110.3z"/>
	<path d="M515.9,120.7H513l-0.2-4.8l-0.1-1.9c0,0.4-0.1,0.7-0.1,1c0,0.3-0.1,0.7-0.1,1l-0.9,4.6h-2.3l-0.8-4.7
		c0-0.3-0.1-0.7-0.2-1.4c0-0.1,0-0.3-0.1-0.6l-0.1,1.9l-0.2,4.7h-3l1.2-10.4h3.5l0.6,3.5c0,0.3,0.1,0.6,0.1,0.9
		c0,0.3,0.1,0.7,0.1,1.1c0.1-0.7,0.1-1.3,0.2-1.8l0.7-3.8h3.5L515.9,120.7z"/>
	<path d="M526.9,120.7v-10.4h2.4c1.4,0,2.5,0.4,3.2,1.1c1,1,1.5,2.3,1.5,4.1c0,1.7-0.4,3.1-1.3,4c-0.7,0.8-1.8,1.2-3.3,1.2H526.9z
		 M529.7,118.2c1,0,1.5-0.9,1.5-2.6c0-0.8-0.1-1.5-0.4-2c-0.3-0.5-0.6-0.7-1-0.7h-0.1V118.2z"/>
	<path d="M545.7,115.5c0,1.6-0.4,2.9-1.1,3.9c-0.7,1-1.7,1.5-2.8,1.5c-1,0-1.9-0.4-2.6-1.1c-0.9-1-1.4-2.4-1.4-4.3
		c0-1.8,0.5-3.3,1.4-4.2c0.7-0.7,1.6-1.1,2.5-1.1c1.2,0,2.2,0.5,2.9,1.5S545.7,113.8,545.7,115.5z M542.8,115.5c0-1.9-0.3-2.8-1-2.8
		c-0.3,0-0.6,0.2-0.8,0.7c-0.2,0.5-0.3,1.1-0.3,2c0,0.9,0.1,1.6,0.3,2s0.4,0.7,0.8,0.7c0.3,0,0.6-0.2,0.8-0.7
		C542.7,117,542.8,116.4,542.8,115.5z"/>
	<path d="M554.6,120.7h-4.9v-10.4h2.8v7.9h2.1V120.7z"/>
	<path d="M565.8,115.5c0,1.6-0.4,2.9-1.1,3.9c-0.7,1-1.7,1.5-2.8,1.5c-1,0-1.9-0.4-2.6-1.1c-0.9-1-1.4-2.4-1.4-4.3
		c0-1.8,0.5-3.3,1.4-4.2c0.7-0.7,1.6-1.1,2.5-1.1c1.2,0,2.2,0.5,2.9,1.5S565.8,113.8,565.8,115.5z M562.9,115.5c0-1.9-0.3-2.8-1-2.8
		c-0.3,0-0.6,0.2-0.8,0.7c-0.2,0.5-0.3,1.1-0.3,2c0,0.9,0.1,1.6,0.3,2s0.4,0.7,0.8,0.7c0.3,0,0.6-0.2,0.8-0.7
		C562.8,117,562.9,116.4,562.9,115.5z"/>
	<path d="M577.2,120.7h-3l-1.4-3.7c0-0.1,0-0.1-0.1-0.2c0-0.1-0.1-0.2-0.1-0.4l0,0.7v3.6h-2.8v-10.4h2.9c1.3,0,2.2,0.2,2.8,0.7
		c0.8,0.6,1.2,1.5,1.2,2.7c0,1.3-0.5,2.1-1.6,2.6L577.2,120.7z M572.6,115.1h0.2c0.3,0,0.6-0.1,0.8-0.4c0.2-0.2,0.3-0.6,0.3-0.9
		c0-0.8-0.4-1.2-1.2-1.2h-0.1V115.1z"/>
	<path d="M587.6,120.4v-3.3c0.6,0.8,1.2,1.1,1.8,1.1c0.2,0,0.4-0.1,0.6-0.2c0.2-0.1,0.2-0.3,0.2-0.5c0-0.3-0.2-0.6-0.5-0.8l-0.5-0.4
		c-0.3-0.2-0.6-0.5-0.8-0.7c-0.2-0.2-0.4-0.5-0.5-0.7s-0.2-0.5-0.3-0.7c-0.1-0.3-0.1-0.5-0.1-0.8c0-0.5,0.1-1,0.3-1.5
		c0.1-0.2,0.2-0.5,0.4-0.7c0.1-0.2,0.3-0.4,0.5-0.5c0.5-0.5,1.2-0.7,1.9-0.7c0.7,0,1.3,0.2,2,0.5v3.2c-0.2-0.4-0.5-0.6-0.8-0.8
		c-0.3-0.2-0.6-0.3-0.9-0.3c-0.2,0-0.4,0.1-0.5,0.2c-0.1,0.1-0.2,0.3-0.2,0.4c0,0.3,0.2,0.6,0.6,0.8l0.4,0.3c0.6,0.4,1,0.9,1.3,1.3
		c0.3,0.5,0.4,1,0.4,1.6c0,1-0.3,1.9-0.9,2.5c-0.6,0.7-1.4,1-2.4,1C589.1,120.9,588.4,120.7,587.6,120.4z"/>
	<path d="M599.7,120.7h-2.8v-10.4h2.8V120.7z"/>
	<path d="M607.6,120.7h-2.8v-7.9h-1.6v-2.5h6v2.5h-1.6V120.7z"/>
	<path d="M627.1,120.7h-2.9l-0.2-1.3h-1.9l-0.2,1.3H619l2.5-10.4h3.4L627.1,120.7z M623.7,117.1l-0.2-1.2c0,0,0-0.1,0-0.2
		c0-0.1-0.1-0.5-0.1-1.2c0-0.1,0-0.2,0-0.3s0-0.3-0.1-0.5l-0.1-1c0,0.1,0,0.2,0,0.3s0,0.2-0.1,0.4c0,0.3-0.1,0.5-0.1,0.6
		c0,0.1,0,0.2,0,0.2l-0.2,1.3l-0.3,1.6H623.7z"/>
	<path d="M641.4,120.7h-2.9l-0.2-4.8l-0.1-1.9c0,0.4-0.1,0.7-0.1,1c0,0.3-0.1,0.7-0.1,1l-0.9,4.6h-2.3L634,116
		c0-0.3-0.1-0.7-0.2-1.4c0-0.1,0-0.3-0.1-0.6l-0.1,1.9l-0.2,4.7h-3l1.2-10.4h3.5l0.6,3.5c0,0.3,0.1,0.6,0.1,0.9
		c0,0.3,0.1,0.7,0.1,1.1c0.1-0.7,0.1-1.3,0.2-1.8l0.7-3.8h3.5L641.4,120.7z"/>
	<path d="M645.5,120.7v-10.4h5.2v2.5h-2.4v1.5h2.2v2.4h-2.2v1.6h2.4v2.5H645.5z"/>
	<path d="M658.3,120.7h-2.8v-7.9h-1.6v-2.5h6v2.5h-1.6V120.7z"/>
	<path d="M666.4,118.2l-1.8,5h-2.2l1.3-5H666.4z"/>
	<path d="M410.9,154.2l-0.2,3c-0.6,0.3-1.2,0.4-1.7,0.4c-1.2,0-2.1-0.4-2.9-1.3c-0.9-1-1.3-2.3-1.3-4.1c0-1.6,0.4-3,1.3-4
		c0.8-1,2-1.5,3.4-1.5c0.5,0,0.9,0.1,1.4,0.3v3c-0.4-0.4-0.8-0.6-1.3-0.6c-0.6,0-1,0.2-1.4,0.7c-0.3,0.5-0.5,1.2-0.5,2.1
		c0,0.4,0,0.8,0.1,1.1c0.1,0.3,0.2,0.6,0.3,0.8c0.2,0.2,0.3,0.4,0.6,0.5c0.2,0.1,0.5,0.2,0.8,0.2
		C409.9,154.9,410.4,154.6,410.9,154.2z"/>
	<path d="M422.4,152.2c0,1.6-0.4,2.9-1.1,3.9c-0.7,1-1.7,1.5-2.8,1.5c-1,0-1.9-0.4-2.6-1.1c-0.9-1-1.4-2.4-1.4-4.3
		c0-1.8,0.5-3.3,1.4-4.2c0.7-0.7,1.6-1.1,2.5-1.1c1.2,0,2.2,0.5,2.9,1.5S422.4,150.5,422.4,152.2z M419.5,152.2c0-1.9-0.3-2.8-1-2.8
		c-0.3,0-0.6,0.2-0.8,0.7c-0.2,0.5-0.3,1.1-0.3,2c0,0.9,0.1,1.6,0.3,2s0.4,0.7,0.8,0.7c0.3,0,0.6-0.2,0.8-0.7
		C419.4,153.7,419.5,153.1,419.5,152.2z"/>
	<path d="M426.4,157.4V147h2.7l1.4,3.7c0.1,0.2,0.2,0.5,0.3,0.7c0.1,0.3,0.2,0.6,0.3,1l0.3,0.9c-0.1-0.9-0.2-1.7-0.2-2.3
		c-0.1-0.6-0.1-1.2-0.1-1.6V147h2.7v10.4H431l-1.4-3.8c-0.1-0.4-0.3-0.8-0.4-1.2s-0.2-0.7-0.3-1c0.1,0.7,0.1,1.4,0.1,1.9
		c0,0.5,0,1,0,1.4v2.7H426.4z"/>
	<path d="M437.7,157.1v-3.3c0.6,0.8,1.2,1.1,1.8,1.1c0.2,0,0.4-0.1,0.6-0.2c0.2-0.1,0.2-0.3,0.2-0.5c0-0.3-0.2-0.6-0.5-0.8l-0.5-0.4
		c-0.3-0.2-0.6-0.5-0.8-0.7c-0.2-0.2-0.4-0.5-0.5-0.7s-0.2-0.5-0.3-0.7c-0.1-0.3-0.1-0.5-0.1-0.8c0-0.5,0.1-1,0.3-1.5
		c0.1-0.2,0.2-0.5,0.4-0.7c0.1-0.2,0.3-0.4,0.5-0.5c0.5-0.5,1.2-0.7,1.9-0.7c0.7,0,1.3,0.2,2,0.5v3.2c-0.2-0.4-0.5-0.6-0.8-0.8
		c-0.3-0.2-0.6-0.3-0.9-0.3c-0.2,0-0.4,0.1-0.5,0.2c-0.1,0.1-0.2,0.3-0.2,0.4c0,0.3,0.2,0.6,0.6,0.8l0.4,0.3c0.6,0.4,1,0.9,1.3,1.3
		c0.3,0.5,0.4,1,0.4,1.6c0,1-0.3,1.9-0.9,2.5c-0.6,0.7-1.4,1-2.4,1C439.2,157.6,438.5,157.4,437.7,157.1z"/>
	<path d="M447,157.4V147h5.2v2.5h-2.4v1.5h2.2v2.4h-2.2v1.6h2.4v2.5H447z"/>
	<path d="M462.1,154.2l-0.2,3c-0.6,0.3-1.2,0.4-1.7,0.4c-1.2,0-2.1-0.4-2.9-1.3c-0.9-1-1.3-2.3-1.3-4.1c0-1.6,0.4-3,1.3-4
		c0.8-1,2-1.5,3.4-1.5c0.5,0,0.9,0.1,1.4,0.3v3c-0.4-0.4-0.8-0.6-1.3-0.6c-0.6,0-1,0.2-1.4,0.7c-0.3,0.5-0.5,1.2-0.5,2.1
		c0,0.4,0,0.8,0.1,1.1c0.1,0.3,0.2,0.6,0.3,0.8c0.2,0.2,0.3,0.4,0.6,0.5c0.2,0.1,0.5,0.2,0.8,0.2
		C461.1,154.9,461.6,154.6,462.1,154.2z"/>
	<path d="M469.6,157.4h-2.8v-7.9h-1.6V147h6v2.5h-1.6V157.4z"/>
	<path d="M474.7,157.4V147h5.2v2.5h-2.4v1.5h2.2v2.4h-2.2v1.6h2.4v2.5H474.7z"/>
	<path d="M487.5,157.4h-2.8v-7.9h-1.6V147h6v2.5h-1.6V157.4z"/>
	<path d="M496.9,147h2.8v7.4c0,0.6-0.1,1.1-0.3,1.5c-0.2,0.4-0.5,0.8-0.9,1.1c-0.6,0.4-1.3,0.6-2.2,0.6c-1,0-1.8-0.2-2.4-0.7
		c-0.8-0.6-1.2-1.6-1.2-2.9v-7h2.8v6.7c0,0.5,0.1,0.8,0.2,1c0.1,0.2,0.3,0.3,0.6,0.3c0.3,0,0.5-0.1,0.6-0.3c0.1-0.2,0.2-0.5,0.2-1
		V147z"/>
	<path d="M503.9,157.4V147h5.2v2.5h-2.4v1.5h2.2v2.4h-2.2v1.6h2.4v2.5H503.9z"/>
	<path d="M520.5,157.4h-3l-1.4-3.7c0-0.1,0-0.1-0.1-0.2c0-0.1-0.1-0.2-0.1-0.4l0,0.7v3.6h-2.8V147h2.9c1.3,0,2.2,0.2,2.8,0.7
		c0.8,0.6,1.2,1.5,1.2,2.7c0,1.3-0.5,2.1-1.6,2.6L520.5,157.4z M515.9,151.8h0.2c0.3,0,0.6-0.1,0.8-0.4c0.2-0.2,0.3-0.6,0.3-0.9
		c0-0.8-0.4-1.2-1.2-1.2h-0.1V151.8z"/>
	<path d="M538.7,157.4h-2.9l-0.2-1.3h-1.9l-0.2,1.3h-2.9L533,147h3.4L538.7,157.4z M535.2,153.8l-0.2-1.2c0,0,0-0.1,0-0.2
		c0-0.1-0.1-0.5-0.1-1.2c0-0.1,0-0.2,0-0.3s0-0.3-0.1-0.5l-0.1-1c0,0.1,0,0.2,0,0.3s0,0.2-0.1,0.4c0,0.3-0.1,0.5-0.1,0.6
		c0,0.1,0,0.2,0,0.2l-0.2,1.3l-0.3,1.6H535.2z"/>
	<path d="M542.3,157.4V147h2.4c1.4,0,2.5,0.4,3.2,1.1c1,1,1.5,2.3,1.5,4.1c0,1.7-0.4,3.1-1.3,4c-0.7,0.8-1.8,1.2-3.3,1.2H542.3z
		 M545.1,154.9c1,0,1.5-0.9,1.5-2.6c0-0.8-0.1-1.5-0.4-2c-0.3-0.5-0.6-0.7-1-0.7h-0.1V154.9z"/>
	<path d="M556.2,157.4h-2.8V147h2.8V157.4z"/>
	<path d="M563.3,157.4h-2.8V147h2.7c1.4,0,2.4,0.3,3,0.8c0.8,0.7,1.2,1.6,1.2,2.7c0,1.3-0.4,2.2-1.2,2.8c-0.6,0.4-1.4,0.6-2.4,0.6
		h-0.4V157.4z M563.3,151.6l0.1,0c0.3,0,0.6-0.1,0.8-0.3c0.2-0.2,0.3-0.5,0.3-0.9c0-0.4-0.1-0.7-0.3-0.9c-0.2-0.2-0.5-0.3-0.8-0.3
		h-0.2V151.6z"/>
	<path d="M574,157.4h-2.8V147h2.8V157.4z"/>
	<path d="M578,157.1v-3.3c0.6,0.8,1.2,1.1,1.8,1.1c0.2,0,0.4-0.1,0.6-0.2c0.2-0.1,0.2-0.3,0.2-0.5c0-0.3-0.2-0.6-0.5-0.8l-0.5-0.4
		c-0.3-0.2-0.6-0.5-0.8-0.7c-0.2-0.2-0.4-0.5-0.5-0.7s-0.2-0.5-0.3-0.7c-0.1-0.3-0.1-0.5-0.1-0.8c0-0.5,0.1-1,0.3-1.5
		c0.1-0.2,0.2-0.5,0.4-0.7c0.1-0.2,0.3-0.4,0.5-0.5c0.5-0.5,1.2-0.7,1.9-0.7c0.7,0,1.3,0.2,2,0.5v3.2c-0.2-0.4-0.5-0.6-0.8-0.8
		c-0.3-0.2-0.6-0.3-0.9-0.3c-0.2,0-0.4,0.1-0.5,0.2c-0.1,0.1-0.2,0.3-0.2,0.4c0,0.3,0.2,0.6,0.6,0.8l0.4,0.3c0.6,0.4,1,0.9,1.3,1.3
		c0.3,0.5,0.4,1,0.4,1.6c0,1-0.3,1.9-0.9,2.5c-0.6,0.7-1.4,1-2.4,1C579.4,157.6,578.7,157.4,578,157.1z"/>
	<path d="M593.1,154.2l-0.2,3c-0.6,0.3-1.2,0.4-1.7,0.4c-1.2,0-2.1-0.4-2.9-1.3c-0.9-1-1.3-2.3-1.3-4.1c0-1.6,0.4-3,1.3-4
		c0.8-1,2-1.5,3.4-1.5c0.5,0,0.9,0.1,1.4,0.3v3c-0.4-0.4-0.8-0.6-1.3-0.6c-0.6,0-1,0.2-1.4,0.7c-0.3,0.5-0.5,1.2-0.5,2.1
		c0,0.4,0,0.8,0.1,1.1c0.1,0.3,0.2,0.6,0.3,0.8c0.2,0.2,0.3,0.4,0.6,0.5c0.2,0.1,0.5,0.2,0.8,0.2
		C592.1,154.9,592.6,154.6,593.1,154.2z"/>
	<path d="M599.8,157.4H597V147h2.8V157.4z"/>
	<path d="M604,157.4V147h2.7l1.4,3.7c0.1,0.2,0.2,0.5,0.3,0.7c0.1,0.3,0.2,0.6,0.3,1l0.3,0.9c-0.1-0.9-0.2-1.7-0.2-2.3
		c-0.1-0.6-0.1-1.2-0.1-1.6V147h2.7v10.4h-2.7l-1.4-3.8c-0.1-0.4-0.3-0.8-0.4-1.2s-0.2-0.7-0.3-1c0.1,0.7,0.1,1.4,0.1,1.9
		c0,0.5,0,1,0,1.4v2.7H604z"/>
	<path d="M619.3,151.4h3.9v0.4c0,2-0.3,3.5-0.9,4.3c-0.7,1-1.6,1.4-2.9,1.4c-1.3,0-2.2-0.5-3-1.4c-0.7-1-1.1-2.3-1.1-3.9
		c0-1.7,0.4-3,1.1-4c0.7-1,1.7-1.5,2.9-1.5c1.6,0,2.8,0.9,3.6,2.6l-2.7,1c0-0.3-0.1-0.6-0.3-0.8c-0.1-0.2-0.3-0.3-0.5-0.3
		c-0.8,0-1.2,1.1-1.2,3.2c0,0.9,0.1,1.6,0.3,2c0.2,0.4,0.4,0.6,0.8,0.6c0.1,0,0.3,0,0.4-0.1c0.1-0.1,0.2-0.2,0.3-0.3
		c0.1-0.1,0.1-0.3,0.2-0.5c0-0.2,0.1-0.4,0.1-0.6h-1V151.4z"/>
	<path d="M634.2,157.4V147h5.2v2.5H637v1.5h2.2v2.4H637v1.6h2.4v2.5H634.2z"/>
	<path d="M648.3,157.4h-4.9V147h2.8v7.9h2.1V157.4z"/>
	<path d="M654.7,157.4h-2.8V147h2.8V157.4z"/>
	<path d="M662.6,157.4h-2.8v-7.9h-1.6V147h6v2.5h-1.6V157.4z"/>
	<path d="M670.6,154.9l-1.8,5h-2.2l1.3-5H670.6z"/>
	<path d="M404.8,193.8v-3.3c0.6,0.8,1.2,1.1,1.8,1.1c0.2,0,0.4-0.1,0.6-0.2c0.2-0.1,0.2-0.3,0.2-0.5c0-0.3-0.2-0.6-0.5-0.8l-0.5-0.4
		c-0.3-0.2-0.6-0.5-0.8-0.7c-0.2-0.2-0.4-0.5-0.5-0.7s-0.2-0.5-0.3-0.7c-0.1-0.3-0.1-0.5-0.1-0.8c0-0.5,0.1-1,0.3-1.5
		c0.1-0.2,0.2-0.5,0.4-0.7c0.1-0.2,0.3-0.4,0.5-0.5c0.5-0.5,1.2-0.7,1.9-0.7c0.7,0,1.3,0.2,2,0.5v3.2c-0.2-0.4-0.5-0.6-0.8-0.8
		c-0.3-0.2-0.6-0.3-0.9-0.3c-0.2,0-0.4,0.1-0.5,0.2c-0.1,0.1-0.2,0.3-0.2,0.4c0,0.3,0.2,0.6,0.6,0.8l0.4,0.3c0.6,0.4,1,0.9,1.3,1.3
		c0.3,0.5,0.4,1,0.4,1.6c0,1-0.3,1.9-0.9,2.5c-0.6,0.7-1.4,1-2.4,1C406.2,194.3,405.5,194.1,404.8,193.8z"/>
	<path d="M414.1,194.1v-10.4h5.2v2.5h-2.4v1.5h2.2v2.4h-2.2v1.6h2.4v2.5H414.1z"/>
	<path d="M423.3,194.1v-10.4h2.4c1.4,0,2.5,0.4,3.2,1.1c1,1,1.5,2.3,1.5,4.1c0,1.7-0.4,3.1-1.3,4c-0.7,0.8-1.8,1.2-3.3,1.2H423.3z
		 M426.1,191.6c1,0,1.5-0.9,1.5-2.6c0-0.8-0.1-1.5-0.4-2c-0.3-0.5-0.6-0.7-1-0.7h-0.1V191.6z"/>
	<path d="M441.4,194.1v-10.4h2.4c1.4,0,2.5,0.4,3.2,1.1c1,1,1.5,2.3,1.5,4.1c0,1.7-0.4,3.1-1.3,4c-0.7,0.8-1.8,1.2-3.3,1.2H441.4z
		 M444.2,191.6c1,0,1.5-0.9,1.5-2.6c0-0.8-0.1-1.5-0.4-2c-0.3-0.5-0.6-0.7-1-0.7h-0.1V191.6z"/>
	<path d="M455.4,194.1h-2.8v-10.4h2.8V194.1z"/>
	<path d="M467.1,194.1h-2.9l-0.2-1.3h-1.9l-0.2,1.3H459l2.5-10.4h3.4L467.1,194.1z M463.7,190.5l-0.2-1.2c0,0,0-0.1,0-0.2
		c0-0.1-0.1-0.5-0.1-1.2c0-0.1,0-0.2,0-0.3s0-0.3-0.1-0.5l-0.1-1c0,0.1,0,0.2,0,0.3s0,0.2-0.1,0.4c0,0.3-0.1,0.5-0.1,0.6
		c0,0.1,0,0.2,0,0.2l-0.2,1.3l-0.3,1.6H463.7z"/>
	<path d="M481.4,194.1h-2.9l-0.2-4.8l-0.1-1.9c0,0.4-0.1,0.7-0.1,1c0,0.3-0.1,0.7-0.1,1l-0.9,4.6h-2.3l-0.8-4.7
		c0-0.3-0.1-0.7-0.2-1.4c0-0.1,0-0.3-0.1-0.6l-0.1,1.9l-0.2,4.7h-3l1.2-10.4h3.5l0.6,3.5c0,0.3,0.1,0.6,0.1,0.9
		c0,0.3,0.1,0.7,0.1,1.1c0.1-0.7,0.1-1.3,0.2-1.8l0.7-3.8h3.5L481.4,194.1z"/>
	<path d="M492.4,194.1v-10.4h2.7l1.4,3.7c0.1,0.2,0.2,0.5,0.3,0.7c0.1,0.3,0.2,0.6,0.3,1l0.3,0.9c-0.1-0.9-0.2-1.7-0.2-2.3
		c-0.1-0.6-0.1-1.2-0.1-1.6v-2.3h2.7v10.4H497l-1.4-3.8c-0.1-0.4-0.3-0.8-0.4-1.2s-0.2-0.7-0.3-1c0.1,0.7,0.1,1.4,0.1,1.9
		c0,0.5,0,1,0,1.4v2.7H492.4z"/>
	<path d="M511.7,188.9c0,1.6-0.4,2.9-1.1,3.9c-0.7,1-1.7,1.5-2.8,1.5c-1,0-1.9-0.4-2.6-1.1c-0.9-1-1.4-2.4-1.4-4.3
		c0-1.8,0.5-3.3,1.4-4.2c0.7-0.7,1.6-1.1,2.5-1.1c1.2,0,2.2,0.5,2.9,1.5S511.7,187.2,511.7,188.9z M508.8,188.9c0-1.9-0.3-2.8-1-2.8
		c-0.3,0-0.6,0.2-0.8,0.7c-0.2,0.5-0.3,1.1-0.3,2c0,0.9,0.1,1.6,0.3,2s0.4,0.7,0.8,0.7c0.3,0,0.6-0.2,0.8-0.7
		C508.7,190.4,508.8,189.8,508.8,188.9z"/>
	<path d="M515.7,194.1v-10.4h2.7l1.4,3.7c0.1,0.2,0.2,0.5,0.3,0.7c0.1,0.3,0.2,0.6,0.3,1l0.3,0.9c-0.1-0.9-0.2-1.7-0.2-2.3
		c-0.1-0.6-0.1-1.2-0.1-1.6v-2.3h2.7v10.4h-2.7l-1.4-3.8c-0.1-0.4-0.3-0.8-0.4-1.2s-0.2-0.7-0.3-1c0.1,0.7,0.1,1.4,0.1,1.9
		c0,0.5,0,1,0,1.4v2.7H515.7z"/>
	<path d="M531.5,183.7h2.8v7.4c0,0.6-0.1,1.1-0.3,1.5c-0.2,0.4-0.5,0.8-0.9,1.1c-0.6,0.4-1.3,0.6-2.2,0.6c-1,0-1.8-0.2-2.4-0.7
		c-0.8-0.6-1.2-1.6-1.2-2.9v-7h2.8v6.7c0,0.5,0.1,0.8,0.2,1c0.1,0.2,0.3,0.3,0.6,0.3c0.3,0,0.5-0.1,0.6-0.3c0.1-0.2,0.2-0.5,0.2-1
		V183.7z"/>
	<path d="M549.3,194.1h-2.9l-0.2-4.8l-0.1-1.9c0,0.4-0.1,0.7-0.1,1c0,0.3-0.1,0.7-0.1,1l-0.9,4.6h-2.3l-0.8-4.7
		c0-0.3-0.1-0.7-0.2-1.4c0-0.1,0-0.3-0.1-0.6l-0.1,1.9l-0.2,4.7h-3l1.2-10.4h3.5l0.6,3.5c0,0.3,0.1,0.6,0.1,0.9
		c0,0.3,0.1,0.7,0.1,1.1c0.1-0.7,0.1-1.3,0.2-1.8l0.7-3.8h3.5L549.3,194.1z"/>
	<path d="M564,194.1h-2.9l-0.2-4.8l-0.1-1.9c0,0.4-0.1,0.7-0.1,1c0,0.3-0.1,0.7-0.1,1l-0.9,4.6h-2.3l-0.8-4.7c0-0.3-0.1-0.7-0.2-1.4
		c0-0.1,0-0.3-0.1-0.6l-0.1,1.9l-0.2,4.7h-3l1.2-10.4h3.5l0.6,3.5c0,0.3,0.1,0.6,0.1,0.9c0,0.3,0.1,0.7,0.1,1.1
		c0.1-0.7,0.1-1.3,0.2-1.8l0.7-3.8h3.5L564,194.1z"/>
	<path d="M572.7,194.1h-2.8v-4.4l-2.6-6h2.9l0.5,1.5c0.1,0.3,0.2,0.6,0.3,0.9c0.1,0.3,0.2,0.5,0.2,0.8c0.1-0.4,0.2-0.7,0.3-1
		c0.1-0.3,0.1-0.5,0.2-0.7l0.5-1.6h2.9l-2.4,6V194.1z"/>
	<path d="M585.5,194.1v-10.4h2.7l1.4,3.7c0.1,0.2,0.2,0.5,0.3,0.7c0.1,0.3,0.2,0.6,0.3,1l0.3,0.9c-0.1-0.9-0.2-1.7-0.2-2.3
		c-0.1-0.6-0.1-1.2-0.1-1.6v-2.3h2.7v10.4h-2.7l-1.4-3.8c-0.1-0.4-0.3-0.8-0.4-1.2s-0.2-0.7-0.3-1c0.1,0.7,0.1,1.4,0.1,1.9
		c0,0.5,0,1,0,1.4v2.7H585.5z"/>
	<path d="M599.9,194.1h-2.8v-10.4h2.8V194.1z"/>
	<path d="M604.1,194.1v-10.4h3.3c1.2,0,2.1,0.3,2.7,0.8c0.6,0.6,0.9,1.3,0.9,2.1c0,1.3-0.6,2-1.9,2.1c0.7,0.1,1.3,0.4,1.6,0.7
		s0.5,0.9,0.5,1.6c0,0.9-0.3,1.6-0.9,2.2c-0.6,0.5-1.3,0.8-2.3,0.8H604.1z M606.9,187.7h0.2c0.3,0,0.6-0.1,0.8-0.2
		c0.2-0.2,0.3-0.4,0.3-0.7c0-0.6-0.3-0.9-1-0.9c0,0-0.1,0-0.1,0c0,0-0.1,0-0.2,0V187.7z M606.9,191.8c0.1,0,0.1,0,0.1,0
		c0,0,0.1,0,0.1,0c0.4,0,0.6-0.1,0.8-0.3s0.3-0.4,0.3-0.7s-0.1-0.6-0.3-0.7c-0.2-0.2-0.5-0.3-0.9-0.3h-0.2V191.8z"/>
	<path d="M622.2,194.1h-2.8v-4.2H618v4.2h-2.8v-10.4h2.8v3.7h1.3v-3.7h2.8V194.1z"/>
	<path d="M633.3,194.1v-10.4h5.2v2.5h-2.4v1.5h2.2v2.4h-2.2v1.6h2.4v2.5H633.3z"/>
	<path d="M646.8,183.7h2.8v7.4c0,0.6-0.1,1.1-0.3,1.5c-0.2,0.4-0.5,0.8-0.9,1.1c-0.6,0.4-1.3,0.6-2.2,0.6c-1,0-1.8-0.2-2.4-0.7
		c-0.8-0.6-1.2-1.6-1.2-2.9v-7h2.8v6.7c0,0.5,0.1,0.8,0.2,1c0.1,0.2,0.3,0.3,0.6,0.3c0.3,0,0.5-0.1,0.6-0.3c0.1-0.2,0.2-0.5,0.2-1
		V183.7z"/>
	<path d="M656.6,194.1h-2.8v-10.4h2.8V194.1z"/>
	<path d="M660.6,193.8v-3.3c0.6,0.8,1.2,1.1,1.8,1.1c0.2,0,0.4-0.1,0.6-0.2c0.2-0.1,0.2-0.3,0.2-0.5c0-0.3-0.2-0.6-0.5-0.8l-0.5-0.4
		c-0.3-0.2-0.6-0.5-0.8-0.7c-0.2-0.2-0.4-0.5-0.5-0.7s-0.2-0.5-0.3-0.7c-0.1-0.3-0.1-0.5-0.1-0.8c0-0.5,0.1-1,0.3-1.5
		c0.1-0.2,0.2-0.5,0.4-0.7c0.1-0.2,0.3-0.4,0.5-0.5c0.5-0.5,1.2-0.7,1.9-0.7c0.7,0,1.3,0.2,2,0.5v3.2c-0.2-0.4-0.5-0.6-0.8-0.8
		c-0.3-0.2-0.6-0.3-0.9-0.3c-0.2,0-0.4,0.1-0.5,0.2c-0.1,0.1-0.2,0.3-0.2,0.4c0,0.3,0.2,0.6,0.6,0.8l0.4,0.3c0.6,0.4,1,0.9,1.3,1.3
		c0.3,0.5,0.4,1,0.4,1.6c0,1-0.3,1.9-0.9,2.5c-0.6,0.7-1.4,1-2.4,1C662.1,194.3,661.4,194.1,660.6,193.8z"/>
	<path d="M672.6,191.4h-3.4v-2.1h3.4V191.4z"/>
	<path d="M415.7,230.8h-2.9l-0.2-4.8l-0.1-1.9c0,0.4-0.1,0.7-0.1,1c0,0.3-0.1,0.7-0.1,1l-0.9,4.6h-2.3l-0.8-4.7
		c0-0.3-0.1-0.7-0.2-1.4c0-0.1,0-0.3-0.1-0.6l-0.1,1.9l-0.2,4.7h-3l1.2-10.4h3.5l0.6,3.5c0,0.3,0.1,0.6,0.1,0.9
		c0,0.3,0.1,0.7,0.1,1.1c0.1-0.7,0.1-1.3,0.2-1.8l0.7-3.8h3.5L415.7,230.8z"/>
	<path d="M427.4,225.6c0,1.6-0.4,2.9-1.1,3.9c-0.7,1-1.7,1.5-2.8,1.5c-1,0-1.9-0.4-2.6-1.1c-0.9-1-1.4-2.4-1.4-4.3
		c0-1.8,0.5-3.3,1.4-4.2c0.7-0.7,1.6-1.1,2.5-1.1c1.2,0,2.2,0.5,2.9,1.5S427.4,223.9,427.4,225.6z M424.5,225.6c0-1.9-0.3-2.8-1-2.8
		c-0.3,0-0.6,0.2-0.8,0.7c-0.2,0.5-0.3,1.1-0.3,2c0,0.9,0.1,1.6,0.3,2s0.4,0.7,0.8,0.7c0.3,0,0.6-0.2,0.8-0.7
		C424.4,227.1,424.5,226.5,424.5,225.6z"/>
	<path d="M431.4,230.8v-10.4h2.4c1.4,0,2.5,0.4,3.2,1.1c1,1,1.5,2.3,1.5,4.1c0,1.7-0.4,3.1-1.3,4c-0.7,0.8-1.8,1.2-3.3,1.2H431.4z
		 M434.2,228.3c1,0,1.5-0.9,1.5-2.6c0-0.8-0.1-1.5-0.4-2c-0.3-0.5-0.6-0.7-1-0.7h-0.1V228.3z"/>
	<path d="M453.1,230.8h-2.8v-7.9h-1.6v-2.5h6v2.5h-1.6V230.8z"/>
	<path d="M461,230.8h-2.8v-10.4h2.8V230.8z"/>
	<path d="M465.3,230.8v-10.4h2.7l1.4,3.7c0.1,0.2,0.2,0.5,0.3,0.7c0.1,0.3,0.2,0.6,0.3,1l0.3,0.9c-0.1-0.9-0.2-1.7-0.2-2.3
		c-0.1-0.6-0.1-1.2-0.1-1.6v-2.3h2.7v10.4h-2.7l-1.4-3.8c-0.1-0.4-0.3-0.8-0.4-1.2s-0.2-0.7-0.3-1c0.1,0.7,0.1,1.4,0.1,1.9
		c0,0.5,0,1,0,1.4v2.7H465.3z"/>
	<path d="M482.8,227.6l-0.2,3c-0.6,0.3-1.2,0.4-1.7,0.4c-1.2,0-2.1-0.4-2.9-1.3c-0.9-1-1.3-2.3-1.3-4.1c0-1.6,0.4-3,1.3-4
		c0.8-1,2-1.5,3.4-1.5c0.5,0,0.9,0.1,1.4,0.3v3c-0.4-0.4-0.8-0.6-1.3-0.6c-0.6,0-1,0.2-1.4,0.7c-0.3,0.5-0.5,1.2-0.5,2.1
		c0,0.4,0,0.8,0.1,1.1c0.1,0.3,0.2,0.6,0.3,0.8c0.2,0.2,0.3,0.4,0.6,0.5c0.2,0.1,0.5,0.2,0.8,0.2C481.8,228.3,482.3,228,482.8,227.6
		z"/>
	<path d="M489.5,230.8h-2.8v-10.4h2.8V230.8z"/>
	<path d="M493.7,230.8v-10.4h2.4c1.4,0,2.5,0.4,3.2,1.1c1,1,1.5,2.3,1.5,4.1c0,1.7-0.4,3.1-1.3,4c-0.7,0.8-1.8,1.2-3.3,1.2H493.7z
		 M496.5,228.3c1,0,1.5-0.9,1.5-2.6c0-0.8-0.1-1.5-0.4-2c-0.3-0.5-0.6-0.7-1-0.7h-0.1V228.3z"/>
	<path d="M509.1,220.4h2.8v7.4c0,0.6-0.1,1.1-0.3,1.5c-0.2,0.4-0.5,0.8-0.9,1.1c-0.6,0.4-1.3,0.6-2.2,0.6c-1,0-1.8-0.2-2.4-0.7
		c-0.8-0.6-1.2-1.6-1.2-2.9v-7h2.8v6.7c0,0.5,0.1,0.8,0.2,1c0.1,0.2,0.3,0.3,0.6,0.3c0.3,0,0.5-0.1,0.6-0.3c0.1-0.2,0.2-0.5,0.2-1
		V220.4z"/>
	<path d="M516.2,230.8v-10.4h2.7l1.4,3.7c0.1,0.2,0.2,0.5,0.3,0.7c0.1,0.3,0.2,0.6,0.3,1l0.3,0.9c-0.1-0.9-0.2-1.7-0.2-2.3
		c-0.1-0.6-0.1-1.2-0.1-1.6v-2.3h2.7v10.4h-2.7l-1.4-3.8c-0.1-0.4-0.3-0.8-0.4-1.2s-0.2-0.7-0.3-1c0.1,0.7,0.1,1.4,0.1,1.9
		c0,0.5,0,1,0,1.4v2.7H516.2z"/>
	<path d="M531.4,230.8h-2.8v-7.9H527v-2.5h6v2.5h-1.6V230.8z"/>
	<path d="M547.6,220.4h2.8v7.4c0,0.6-0.1,1.1-0.3,1.5c-0.2,0.4-0.5,0.8-0.9,1.1c-0.6,0.4-1.3,0.6-2.2,0.6c-1,0-1.8-0.2-2.4-0.7
		c-0.8-0.6-1.2-1.6-1.2-2.9v-7h2.8v6.7c0,0.5,0.1,0.8,0.2,1c0.1,0.2,0.3,0.3,0.6,0.3c0.3,0,0.5-0.1,0.6-0.3c0.1-0.2,0.2-0.5,0.2-1
		V220.4z"/>
	<path d="M558.3,230.8h-2.8v-7.9H554v-2.5h6v2.5h-1.6V230.8z"/>
	<path d="M575.3,230.8h-4.9v-10.4h2.8v7.9h2.1V230.8z"/>
	<path d="M586.8,230.8h-2.9l-0.2-1.3h-1.9l-0.2,1.3h-2.9l2.5-10.4h3.4L586.8,230.8z M583.3,227.2l-0.2-1.2c0,0,0-0.1,0-0.2
		c0-0.1-0.1-0.5-0.1-1.2c0-0.1,0-0.2,0-0.3s0-0.3-0.1-0.5l-0.1-1c0,0.1,0,0.2,0,0.3s0,0.2-0.1,0.4c0,0.3-0.1,0.5-0.1,0.6
		c0,0.1,0,0.2,0,0.2l-0.2,1.3l-0.3,1.6H583.3z"/>
	<path d="M598,225.6c0,1.6-0.4,2.9-1.1,3.9c-0.7,1-1.7,1.5-2.8,1.5c-1,0-1.9-0.4-2.6-1.1c-0.9-1-1.4-2.4-1.4-4.3
		c0-1.8,0.5-3.3,1.4-4.2c0.7-0.7,1.6-1.1,2.5-1.1c1.2,0,2.2,0.5,2.9,1.5S598,223.9,598,225.6z M595.1,225.6c0-1.9-0.3-2.8-1-2.8
		c-0.3,0-0.6,0.2-0.8,0.7c-0.2,0.5-0.3,1.1-0.3,2c0,0.9,0.1,1.6,0.3,2s0.4,0.7,0.8,0.7c0.3,0,0.6-0.2,0.8-0.7
		C595,227.1,595.1,226.5,595.1,225.6z"/>
	<path d="M609.4,230.8h-3l-1.4-3.7c0-0.1,0-0.1-0.1-0.2c0-0.1-0.1-0.2-0.1-0.4l0,0.7v3.6H602v-10.4h2.9c1.3,0,2.2,0.2,2.8,0.7
		c0.8,0.6,1.2,1.5,1.2,2.7c0,1.3-0.5,2.1-1.6,2.6L609.4,230.8z M604.8,225.2h0.2c0.3,0,0.6-0.1,0.8-0.4c0.2-0.2,0.3-0.6,0.3-0.9
		c0-0.8-0.4-1.2-1.2-1.2h-0.1V225.2z"/>
	<path d="M613.1,230.8v-10.4h5.2v2.5h-2.4v1.5h2.2v2.4h-2.2v1.6h2.4v2.5H613.1z"/>
	<path d="M622.3,230.8v-10.4h5.2v2.5h-2.4v1.5h2.2v2.4h-2.2v1.6h2.4v2.5H622.3z"/>
	<path d="M635.1,230.8h-2.8v-7.9h-1.6v-2.5h6v2.5h-1.6V230.8z"/>
	<path d="M405,267.5v-10.4h2.4c1.4,0,2.5,0.4,3.2,1.1c1,1,1.5,2.3,1.5,4.1c0,1.7-0.4,3.1-1.3,4c-0.7,0.8-1.8,1.2-3.3,1.2H405z
		 M407.8,265c1,0,1.5-0.9,1.5-2.6c0-0.8-0.1-1.5-0.4-2c-0.3-0.5-0.6-0.7-1-0.7h-0.1V265z"/>
	<path d="M423.8,262.3c0,1.6-0.4,2.9-1.1,3.9c-0.7,1-1.7,1.5-2.8,1.5c-1,0-1.9-0.4-2.6-1.1c-0.9-1-1.4-2.4-1.4-4.3
		c0-1.8,0.5-3.3,1.4-4.2c0.7-0.7,1.6-1.1,2.5-1.1c1.2,0,2.2,0.5,2.9,1.5S423.8,260.6,423.8,262.3z M420.9,262.3c0-1.9-0.3-2.8-1-2.8
		c-0.3,0-0.6,0.2-0.8,0.7c-0.2,0.5-0.3,1.1-0.3,2c0,0.9,0.1,1.6,0.3,2s0.4,0.7,0.8,0.7c0.3,0,0.6-0.2,0.8-0.7
		C420.8,263.8,420.9,263.2,420.9,262.3z"/>
	<path d="M432.7,267.5h-4.9v-10.4h2.8v7.9h2.1V267.5z"/>
	<path d="M444,262.3c0,1.6-0.4,2.9-1.1,3.9c-0.7,1-1.7,1.5-2.8,1.5c-1,0-1.9-0.4-2.6-1.1c-0.9-1-1.4-2.4-1.4-4.3
		c0-1.8,0.5-3.3,1.4-4.2c0.7-0.7,1.6-1.1,2.5-1.1c1.2,0,2.2,0.5,2.9,1.5S444,260.6,444,262.3z M441,262.3c0-1.9-0.3-2.8-1-2.8
		c-0.3,0-0.6,0.2-0.8,0.7c-0.2,0.5-0.3,1.1-0.3,2c0,0.9,0.1,1.6,0.3,2s0.4,0.7,0.8,0.7c0.3,0,0.6-0.2,0.8-0.7
		C440.9,263.8,441,263.2,441,262.3z"/>
	<path d="M455.3,267.5h-3l-1.4-3.7c0-0.1,0-0.1-0.1-0.2c0-0.1-0.1-0.2-0.1-0.4l0,0.7v3.6h-2.8v-10.4h2.9c1.3,0,2.2,0.2,2.8,0.7
		c0.8,0.6,1.2,1.5,1.2,2.7c0,1.3-0.5,2.1-1.6,2.6L455.3,267.5z M450.7,261.9h0.2c0.3,0,0.6-0.1,0.8-0.4c0.2-0.2,0.3-0.6,0.3-0.9
		c0-0.8-0.4-1.2-1.2-1.2h-0.1V261.9z"/>
	<path d="M459,267.5v-10.4h5.2v2.5h-2.4v1.5h2.2v2.4h-2.2v1.6h2.4v2.5H459z"/>
	<path d="M485.9,267.5H483l-0.2-4.8l-0.1-1.9c0,0.4-0.1,0.7-0.1,1c0,0.3-0.1,0.7-0.1,1l-0.9,4.6h-2.3l-0.8-4.7
		c0-0.3-0.1-0.7-0.2-1.4c0-0.1,0-0.3-0.1-0.6l-0.1,1.9l-0.2,4.7h-3l1.2-10.4h3.5l0.6,3.5c0,0.3,0.1,0.6,0.1,0.9
		c0,0.3,0.1,0.7,0.1,1.1c0.1-0.7,0.1-1.3,0.2-1.8l0.7-3.8h3.5L485.9,267.5z"/>
	<path d="M497.4,267.5h-2.9l-0.2-1.3h-1.9l-0.2,1.3h-2.9l2.5-10.4h3.4L497.4,267.5z M494,263.9l-0.2-1.2c0,0,0-0.1,0-0.2
		c0-0.1-0.1-0.5-0.1-1.2c0-0.1,0-0.2,0-0.3s0-0.3-0.1-0.5l-0.1-1c0,0.1,0,0.2,0,0.3s0,0.2-0.1,0.4c0,0.3-0.1,0.5-0.1,0.6
		c0,0.1,0,0.2,0,0.2l-0.2,1.3l-0.3,1.6H494z"/>
	<path d="M504.6,261.5h3.9v0.4c0,2-0.3,3.5-0.9,4.3c-0.7,1-1.6,1.4-2.9,1.4c-1.3,0-2.2-0.5-3-1.4c-0.7-1-1.1-2.3-1.1-3.9
		c0-1.7,0.4-3,1.1-4c0.7-1,1.7-1.5,2.9-1.5c1.6,0,2.8,0.9,3.6,2.6l-2.7,1c0-0.3-0.1-0.6-0.3-0.8c-0.1-0.2-0.3-0.3-0.5-0.3
		c-0.8,0-1.2,1.1-1.2,3.2c0,0.9,0.1,1.6,0.3,2c0.2,0.4,0.4,0.6,0.8,0.6c0.1,0,0.3,0,0.4-0.1c0.1-0.1,0.2-0.2,0.3-0.3
		c0.1-0.1,0.1-0.3,0.2-0.5c0-0.2,0.1-0.4,0.1-0.6h-1V261.5z"/>
	<path d="M512.5,267.5v-10.4h2.7l1.4,3.7c0.1,0.2,0.2,0.5,0.3,0.7c0.1,0.3,0.2,0.6,0.3,1l0.3,0.9c-0.1-0.9-0.2-1.7-0.2-2.3
		c-0.1-0.6-0.1-1.2-0.1-1.6v-2.3h2.7v10.4h-2.7l-1.4-3.8c-0.1-0.4-0.3-0.8-0.4-1.2s-0.2-0.7-0.3-1c0.1,0.7,0.1,1.4,0.1,1.9
		c0,0.5,0,1,0,1.4v2.7H512.5z"/>
	<path d="M531.7,267.5h-2.9l-0.2-1.3h-1.9l-0.2,1.3h-2.9l2.5-10.4h3.4L531.7,267.5z M528.2,263.9l-0.2-1.2c0,0,0-0.1,0-0.2
		c0-0.1-0.1-0.5-0.1-1.2c0-0.1,0-0.2,0-0.3s0-0.3-0.1-0.5l-0.1-1c0,0.1,0,0.2,0,0.3s0,0.2-0.1,0.4c0,0.3-0.1,0.5-0.1,0.6
		c0,0.1,0,0.2,0,0.2l-0.2,1.3l-0.3,1.6H528.2z"/>
	<path d="M549.7,267.5h-2.9l-0.2-1.3h-1.9l-0.2,1.3h-2.9l2.5-10.4h3.4L549.7,267.5z M546.2,263.9l-0.2-1.2c0,0,0-0.1,0-0.2
		c0-0.1-0.1-0.5-0.1-1.2c0-0.1,0-0.2,0-0.3s0-0.3-0.1-0.5l-0.1-1c0,0.1,0,0.2,0,0.3s0,0.2-0.1,0.4c0,0.3-0.1,0.5-0.1,0.6
		c0,0.1,0,0.2,0,0.2l-0.2,1.3l-0.3,1.6H546.2z"/>
	<path d="M558.2,267.5h-4.9v-10.4h2.8v7.9h2.1V267.5z"/>
	<path d="M564.6,267.5h-2.8v-10.4h2.8V267.5z"/>
	<path d="M576.6,267.7l-2.3,1.2l-1-1.4c-0.3,0.1-0.6,0.1-0.8,0.1c-1.1,0-2-0.5-2.8-1.4c-0.8-1-1.2-2.3-1.2-4c0-1.7,0.4-3,1.1-3.9
		c0.7-1,1.7-1.5,2.9-1.5c1.2,0,2.1,0.5,2.9,1.5c0.7,1,1.1,2.2,1.1,3.8c0,1.8-0.4,3.2-1.2,4.1L576.6,267.7z M573.6,262.3
		c0-0.4,0-0.8-0.1-1.2c0-0.4-0.1-0.6-0.2-0.9c-0.1-0.2-0.2-0.4-0.3-0.6c-0.1-0.1-0.3-0.2-0.4-0.2c-0.3,0-0.6,0.3-0.8,0.8
		c-0.2,0.5-0.3,1.2-0.3,2c0,0.4,0,0.8,0.1,1.2c0,0.3,0.1,0.6,0.2,0.9c0.1,0.2,0.2,0.4,0.3,0.5c0.1,0.1,0.3,0.2,0.4,0.2
		c0.2,0,0.3-0.1,0.4-0.2c0.1-0.1,0.2-0.3,0.3-0.5c0.1-0.2,0.2-0.5,0.2-0.9S573.6,262.8,573.6,262.3z"/>
	<path d="M584.8,257.1h2.8v7.4c0,0.6-0.1,1.1-0.3,1.5c-0.2,0.4-0.5,0.8-0.9,1.1c-0.6,0.4-1.3,0.6-2.2,0.6c-1,0-1.8-0.2-2.4-0.7
		c-0.8-0.6-1.2-1.6-1.2-2.9v-7h2.8v6.7c0,0.5,0.1,0.8,0.2,1c0.1,0.2,0.3,0.3,0.6,0.3c0.3,0,0.5-0.1,0.6-0.3c0.1-0.2,0.2-0.5,0.2-1
		V257.1z"/>
	<path d="M599.3,267.5h-2.9l-0.2-1.3h-1.9l-0.2,1.3h-2.9l2.5-10.4h3.4L599.3,267.5z M595.8,263.9l-0.2-1.2c0,0,0-0.1,0-0.2
		c0-0.1-0.1-0.5-0.1-1.2c0-0.1,0-0.2,0-0.3s0-0.3-0.1-0.5l-0.1-1c0,0.1,0,0.2,0,0.3s0,0.2-0.1,0.4c0,0.3-0.1,0.5-0.1,0.6
		c0,0.1,0,0.2,0,0.2l-0.2,1.3l-0.3,1.6H595.8z"/>
	<path d="M613.6,267.5h-2.9l-0.2-4.8l-0.1-1.9c0,0.4-0.1,0.7-0.1,1c0,0.3-0.1,0.7-0.1,1l-0.9,4.6h-2.3l-0.8-4.7
		c0-0.3-0.1-0.7-0.2-1.4c0-0.1,0-0.3-0.1-0.6l-0.1,1.9l-0.2,4.7h-3l1.2-10.4h3.5l0.6,3.5c0,0.3,0.1,0.6,0.1,0.9
		c0,0.3,0.1,0.7,0.1,1.1c0.1-0.7,0.1-1.3,0.2-1.8l0.7-3.8h3.5L613.6,267.5z"/>
	<path d="M624.5,267.5v-10.4h5.2v2.5h-2.4v1.5h2.2v2.4h-2.2v1.6h2.4v2.5H624.5z"/>
	<path d="M641.1,267.5h-3l-1.4-3.7c0-0.1,0-0.1-0.1-0.2c0-0.1-0.1-0.2-0.1-0.4l0,0.7v3.6h-2.8v-10.4h2.9c1.3,0,2.2,0.2,2.8,0.7
		c0.8,0.6,1.2,1.5,1.2,2.7c0,1.3-0.5,2.1-1.6,2.6L641.1,267.5z M636.5,261.9h0.2c0.3,0,0.6-0.1,0.8-0.4c0.2-0.2,0.3-0.6,0.3-0.9
		c0-0.8-0.4-1.2-1.2-1.2h-0.1V261.9z"/>
	<path d="M652.3,267.5h-2.9l-0.2-1.3h-1.9l-0.2,1.3h-2.9l2.5-10.4h3.4L652.3,267.5z M648.9,263.9l-0.2-1.2c0,0,0-0.1,0-0.2
		c0-0.1-0.1-0.5-0.1-1.2c0-0.1,0-0.2,0-0.3s0-0.3-0.1-0.5l-0.1-1c0,0.1,0,0.2,0,0.3s0,0.2-0.1,0.4c0,0.3-0.1,0.5-0.1,0.6
		c0,0.1,0,0.2,0,0.2l-0.2,1.3l-0.3,1.6H648.9z"/>
	<path d="M659.6,267.5h-2.8v-7.9h-1.6v-2.5h6v2.5h-1.6V267.5z"/>
	<path d="M409.5,304.2h-2.9l-2.4-10.4h3l0.5,3c0.2,1.1,0.3,2.4,0.5,3.8c0-0.6,0.1-1.2,0.2-1.8c0.1-0.5,0.2-1.1,0.3-1.6l0.7-3.5h3.1
		L409.5,304.2z"/>
	<path d="M423.3,299c0,1.6-0.4,2.9-1.1,3.9c-0.7,1-1.7,1.5-2.8,1.5c-1,0-1.9-0.4-2.6-1.1c-0.9-1-1.4-2.4-1.4-4.3
		c0-1.8,0.5-3.3,1.4-4.2c0.7-0.7,1.6-1.1,2.5-1.1c1.2,0,2.2,0.5,2.9,1.5S423.3,297.3,423.3,299z M420.3,299c0-1.9-0.3-2.8-1-2.8
		c-0.3,0-0.6,0.2-0.8,0.7c-0.2,0.5-0.3,1.1-0.3,2c0,0.9,0.1,1.6,0.3,2s0.4,0.7,0.8,0.7c0.3,0,0.6-0.2,0.8-0.7
		C420.2,300.5,420.3,299.9,420.3,299z"/>
	<path d="M432.2,304.2h-4.9v-10.4h2.8v7.9h2.1V304.2z"/>
	<path d="M440,293.8h2.8v7.4c0,0.6-0.1,1.1-0.3,1.5c-0.2,0.4-0.5,0.8-0.9,1.1c-0.6,0.4-1.3,0.6-2.2,0.6c-1,0-1.8-0.2-2.4-0.7
		c-0.8-0.6-1.2-1.6-1.2-2.9v-7h2.8v6.7c0,0.5,0.1,0.8,0.2,1c0.1,0.2,0.3,0.3,0.6,0.3c0.3,0,0.5-0.1,0.6-0.3c0.1-0.2,0.2-0.5,0.2-1
		V293.8z"/>
	<path d="M450.7,304.2h-2.8v-7.9h-1.6v-2.5h6v2.5h-1.6V304.2z"/>
	<path d="M458.6,304.2h-2.8v-10.4h2.7c1.4,0,2.4,0.3,3,0.8c0.8,0.7,1.2,1.6,1.2,2.7c0,1.3-0.4,2.2-1.2,2.8c-0.6,0.4-1.4,0.6-2.4,0.6
		h-0.4V304.2z M458.6,298.4l0.1,0c0.3,0,0.6-0.1,0.8-0.3c0.2-0.2,0.3-0.5,0.3-0.9c0-0.4-0.1-0.7-0.3-0.9c-0.2-0.2-0.5-0.3-0.8-0.3
		h-0.2V298.4z"/>
	<path d="M473.5,304.2h-2.9l-0.2-1.3h-1.9l-0.2,1.3h-2.9l2.5-10.4h3.4L473.5,304.2z M470.1,300.6l-0.2-1.2c0,0,0-0.1,0-0.2
		c0-0.1-0.1-0.5-0.1-1.2c0-0.1,0-0.2,0-0.3s0-0.3-0.1-0.5l-0.1-1c0,0.1,0,0.2,0,0.3s0,0.2-0.1,0.4c0,0.3-0.1,0.5-0.1,0.6
		c0,0.1,0,0.2,0,0.2l-0.2,1.3l-0.3,1.6H470.1z"/>
	<path d="M480.8,304.2H478v-7.9h-1.6v-2.5h6v2.5h-1.6V304.2z"/>
	<path d="M488.5,302.8c0,0.4-0.2,0.8-0.5,1.1c-0.3,0.3-0.7,0.5-1.1,0.5c-0.4,0-0.8-0.2-1.1-0.5c-0.3-0.3-0.5-0.7-0.5-1.1
		c0-0.4,0.2-0.8,0.5-1.1c0.3-0.3,0.7-0.5,1.1-0.5c0.4,0,0.8,0.2,1.1,0.5C488.4,302,488.5,302.3,488.5,302.8z"/>
	<path d="M503.7,293.8h2.8v7.4c0,0.6-0.1,1.1-0.3,1.5c-0.2,0.4-0.5,0.8-0.9,1.1c-0.6,0.4-1.3,0.6-2.2,0.6c-1,0-1.8-0.2-2.4-0.7
		c-0.8-0.6-1.2-1.6-1.2-2.9v-7h2.8v6.7c0,0.5,0.1,0.8,0.2,1c0.1,0.2,0.3,0.3,0.6,0.3c0.3,0,0.5-0.1,0.6-0.3c0.1-0.2,0.2-0.5,0.2-1
		V293.8z"/>
	<path d="M514.4,304.2h-2.8v-7.9H510v-2.5h6v2.5h-1.6V304.2z"/>
	<path d="M535.3,304.2h-2.7l-0.6-3.7c-0.1-0.7-0.2-1.3-0.3-1.8c0-0.3-0.1-0.5-0.1-0.6c0-0.2,0-0.3,0-0.4c0,0.2-0.1,0.5-0.1,1
		c0,0.3,0,0.5-0.1,0.8c0,0.3-0.1,0.6-0.1,0.9l-0.5,3.8H528l-2.3-10.4h2.8l0.5,2.9c0.2,1.1,0.3,2,0.4,2.7l0.1,1l0.1-0.8
		c0.1-1,0.2-1.9,0.4-2.7l0.5-3h2.4l0.5,2.5c0.2,1.2,0.4,2.5,0.6,4.1c0-0.7,0.1-1.4,0.2-1.9c0.1-0.6,0.1-1.1,0.2-1.5l0.5-3.2h2.7
		L535.3,304.2z"/>
	<path d="M543.8,304.2H541v-10.4h2.8V304.2z"/>
	<path d="M547.8,303.9v-3.3c0.6,0.8,1.2,1.1,1.8,1.1c0.2,0,0.4-0.1,0.6-0.2c0.2-0.1,0.2-0.3,0.2-0.5c0-0.3-0.2-0.6-0.5-0.8l-0.5-0.4
		c-0.3-0.2-0.6-0.5-0.8-0.7c-0.2-0.2-0.4-0.5-0.5-0.7s-0.2-0.5-0.3-0.7c-0.1-0.3-0.1-0.5-0.1-0.8c0-0.5,0.1-1,0.3-1.5
		c0.1-0.2,0.2-0.5,0.4-0.7c0.1-0.2,0.3-0.4,0.5-0.5c0.5-0.5,1.2-0.7,1.9-0.7c0.7,0,1.3,0.2,2,0.5v3.2c-0.2-0.4-0.5-0.6-0.8-0.8
		c-0.3-0.2-0.6-0.3-0.9-0.3c-0.2,0-0.4,0.1-0.5,0.2c-0.1,0.1-0.2,0.3-0.2,0.4c0,0.3,0.2,0.6,0.6,0.8l0.4,0.3c0.6,0.4,1,0.9,1.3,1.3
		c0.3,0.5,0.4,1,0.4,1.6c0,1-0.3,1.9-0.9,2.5c-0.6,0.7-1.4,1-2.4,1C549.2,304.4,548.5,304.2,547.8,303.9z"/>
	<path d="M559.9,304.2h-2.8v-10.4h2.8V304.2z"/>
	<path d="M571,304.2v-10.4h5.2v2.5h-2.4v1.5h2.2v2.4h-2.2v1.6h2.4v2.5H571z"/>
	<path d="M580.2,304.2v-10.4h2.7l1.4,3.7c0.1,0.2,0.2,0.5,0.3,0.7c0.1,0.3,0.2,0.6,0.3,1l0.3,0.9c-0.1-0.9-0.2-1.7-0.2-2.3
		c-0.1-0.6-0.1-1.2-0.1-1.6v-2.3h2.7v10.4h-2.7l-1.4-3.8c-0.1-0.4-0.3-0.8-0.4-1.2s-0.2-0.7-0.3-1c0.1,0.7,0.1,1.4,0.1,1.9
		c0,0.5,0,1,0,1.4v2.7H580.2z"/>
	<path d="M594.6,304.2h-2.8v-10.4h2.8V304.2z"/>
	<path d="M609.6,304.2h-2.9l-0.2-4.8l-0.1-1.9c0,0.4-0.1,0.7-0.1,1c0,0.3-0.1,0.7-0.1,1l-0.9,4.6h-2.3l-0.8-4.7
		c0-0.3-0.1-0.7-0.2-1.4c0-0.1,0-0.3-0.1-0.6l-0.1,1.9l-0.2,4.7h-3l1.2-10.4h3.5l0.6,3.5c0,0.3,0.1,0.6,0.1,0.9
		c0,0.3,0.1,0.7,0.1,1.1c0.1-0.7,0.1-1.3,0.2-1.8l0.7-3.8h3.5L609.6,304.2z"/>
	<path d="M628,304.2h-2.9l-0.2-1.3H623l-0.2,1.3h-2.9l2.5-10.4h3.4L628,304.2z M624.6,300.6l-0.2-1.2c0,0,0-0.1,0-0.2
		c0-0.1-0.1-0.5-0.1-1.2c0-0.1,0-0.2,0-0.3s0-0.3-0.1-0.5l-0.1-1c0,0.1,0,0.2,0,0.3s0,0.2-0.1,0.4c0,0.3-0.1,0.5-0.1,0.6
		c0,0.1,0,0.2,0,0.2l-0.2,1.3l-0.3,1.6H624.6z"/>
	<path d="M631.6,304.2v-10.4h2.4c1.4,0,2.5,0.4,3.2,1.1c1,1,1.5,2.3,1.5,4.1c0,1.7-0.4,3.1-1.3,4c-0.7,0.8-1.8,1.2-3.3,1.2H631.6z
		 M634.4,301.7c1,0,1.5-0.9,1.5-2.6c0-0.8-0.1-1.5-0.4-2c-0.3-0.5-0.6-0.7-1-0.7h-0.1V301.7z"/>
	<path d="M415.7,340.9h-2.9l-0.2-4.8l-0.1-1.9c0,0.4-0.1,0.7-0.1,1c0,0.3-0.1,0.7-0.1,1l-0.9,4.6h-2.3l-0.8-4.7
		c0-0.3-0.1-0.7-0.2-1.4c0-0.1,0-0.3-0.1-0.6l-0.1,1.9l-0.2,4.7h-3l1.2-10.4h3.5l0.6,3.5c0,0.3,0.1,0.6,0.1,0.9
		c0,0.3,0.1,0.7,0.1,1.1c0.1-0.7,0.1-1.3,0.2-1.8l0.7-3.8h3.5L415.7,340.9z"/>
	<path d="M422.6,340.9h-2.8v-10.4h2.8V340.9z"/>
	<path d="M426.8,340.9v-10.4h2.7l1.4,3.7c0.1,0.2,0.2,0.5,0.3,0.7c0.1,0.3,0.2,0.6,0.3,1l0.3,0.9c-0.1-0.9-0.2-1.7-0.2-2.3
		c-0.1-0.6-0.1-1.2-0.1-1.6v-2.3h2.7v10.4h-2.7L430,337c-0.1-0.4-0.3-0.8-0.4-1.2c-0.1-0.4-0.2-0.7-0.3-1c0.1,0.7,0.1,1.4,0.1,1.9
		c0,0.5,0,1,0,1.4v2.7H426.8z"/>
	<path d="M441.2,340.9h-2.8v-10.4h2.8V340.9z"/>
	<path d="M456.1,340.9h-2.9l-0.2-4.8l-0.1-1.9c0,0.4-0.1,0.7-0.1,1c0,0.3-0.1,0.7-0.1,1l-0.9,4.6h-2.3l-0.8-4.7
		c0-0.3-0.1-0.7-0.2-1.4c0-0.1,0-0.3-0.1-0.6l-0.1,1.9l-0.2,4.7h-3l1.2-10.4h3.5l0.6,3.5c0,0.3,0.1,0.6,0.1,0.9
		c0,0.3,0.1,0.7,0.1,1.1c0.1-0.7,0.1-1.3,0.2-1.8l0.7-3.8h3.5L456.1,340.9z"/>
	<path d="M471.6,340.9h-2.9l-2.4-10.4h3l0.5,3c0.2,1.1,0.3,2.4,0.5,3.8c0-0.6,0.1-1.2,0.2-1.8c0.1-0.5,0.2-1.1,0.3-1.6l0.7-3.5h3.1
		L471.6,340.9z"/>
	<path d="M477.9,340.9v-10.4h5.2v2.5h-2.4v1.5h2.2v2.4h-2.2v1.6h2.4v2.5H477.9z"/>
	<path d="M487.1,340.9v-10.4h2.7l1.4,3.7c0.1,0.2,0.2,0.5,0.3,0.7c0.1,0.3,0.2,0.6,0.3,1l0.3,0.9c-0.1-0.9-0.2-1.7-0.2-2.3
		c-0.1-0.6-0.1-1.2-0.1-1.6v-2.3h2.7v10.4h-2.7l-1.4-3.8c-0.1-0.4-0.3-0.8-0.4-1.2c-0.1-0.4-0.2-0.7-0.3-1c0.1,0.7,0.1,1.4,0.1,1.9
		c0,0.5,0,1,0,1.4v2.7H487.1z"/>
	<path d="M501.5,340.9h-2.8v-10.4h2.8V340.9z"/>
	<path d="M513.2,340.9h-2.9l-0.2-1.3h-1.9l-0.2,1.3h-2.9l2.5-10.4h3.4L513.2,340.9z M509.8,337.3l-0.2-1.2c0,0,0-0.1,0-0.2
		c0-0.1-0.1-0.5-0.1-1.2c0-0.1,0-0.2,0-0.3s0-0.3-0.1-0.5l-0.1-1c0,0.1,0,0.2,0,0.3c0,0.1,0,0.2-0.1,0.4c0,0.3-0.1,0.5-0.1,0.6
		c0,0.1,0,0.2,0,0.2l-0.2,1.3l-0.3,1.6H509.8z"/>
	<path d="M527.6,340.9h-2.9l-0.2-4.8l-0.1-1.9c0,0.4-0.1,0.7-0.1,1c0,0.3-0.1,0.7-0.1,1l-0.9,4.6h-2.3l-0.8-4.7
		c0-0.3-0.1-0.7-0.2-1.4c0-0.1,0-0.3-0.1-0.6l-0.1,1.9l-0.2,4.7h-3l1.2-10.4h3.5l0.6,3.5c0,0.3,0.1,0.6,0.1,0.9
		c0,0.3,0.1,0.7,0.1,1.1c0.1-0.7,0.1-1.3,0.2-1.8l0.7-3.8h3.5L527.6,340.9z"/>
	<path d="M534.8,338.4l-1.8,5h-2.2l1.3-5H534.8z"/>
	<path d="M553.2,341.1l-2.3,1.2l-1-1.4c-0.3,0.1-0.6,0.1-0.8,0.1c-1.1,0-2-0.5-2.8-1.4c-0.8-1-1.2-2.3-1.2-4c0-1.7,0.4-3,1.1-3.9
		c0.7-1,1.7-1.5,2.9-1.5c1.2,0,2.1,0.5,2.9,1.5c0.7,1,1.1,2.2,1.1,3.8c0,1.8-0.4,3.2-1.2,4.1L553.2,341.1z M550.2,335.7
		c0-0.4,0-0.8-0.1-1.2c0-0.4-0.1-0.6-0.2-0.9c-0.1-0.2-0.2-0.4-0.3-0.6c-0.1-0.1-0.3-0.2-0.4-0.2c-0.3,0-0.6,0.3-0.8,0.8
		c-0.2,0.5-0.3,1.2-0.3,2c0,0.4,0,0.8,0.1,1.2c0,0.3,0.1,0.6,0.2,0.9c0.1,0.2,0.2,0.4,0.3,0.5c0.1,0.1,0.3,0.2,0.4,0.2
		c0.2,0,0.3-0.1,0.4-0.2c0.1-0.1,0.2-0.3,0.3-0.5c0.1-0.2,0.2-0.5,0.2-0.9S550.2,336.2,550.2,335.7z"/>
	<path d="M561.4,330.5h2.8v7.4c0,0.6-0.1,1.1-0.3,1.5c-0.2,0.4-0.5,0.8-0.9,1.1c-0.6,0.4-1.3,0.6-2.2,0.6c-1,0-1.8-0.2-2.4-0.7
		c-0.8-0.6-1.2-1.6-1.2-2.9v-7h2.8v6.7c0,0.5,0.1,0.8,0.2,1c0.1,0.2,0.3,0.3,0.6,0.3c0.3,0,0.5-0.1,0.6-0.3c0.1-0.2,0.2-0.5,0.2-1
		V330.5z"/>
	<path d="M571.3,340.9h-2.8v-10.4h2.8V340.9z"/>
	<path d="M575.3,340.6v-3.3c0.6,0.8,1.2,1.1,1.8,1.1c0.2,0,0.4-0.1,0.6-0.2c0.2-0.1,0.2-0.3,0.2-0.5c0-0.3-0.2-0.6-0.5-0.8l-0.5-0.4
		c-0.3-0.2-0.6-0.5-0.8-0.7c-0.2-0.2-0.4-0.5-0.5-0.7s-0.2-0.5-0.3-0.7c-0.1-0.3-0.1-0.5-0.1-0.8c0-0.5,0.1-1,0.3-1.5
		c0.1-0.2,0.2-0.5,0.4-0.7c0.1-0.2,0.3-0.4,0.5-0.5c0.5-0.5,1.2-0.7,1.9-0.7c0.7,0,1.3,0.2,2,0.5v3.2c-0.2-0.4-0.5-0.6-0.8-0.8
		c-0.3-0.2-0.6-0.3-0.9-0.3c-0.2,0-0.4,0.1-0.5,0.2c-0.1,0.1-0.2,0.3-0.2,0.4c0,0.3,0.2,0.6,0.6,0.8l0.4,0.3c0.6,0.4,1,0.9,1.3,1.3
		c0.3,0.5,0.4,1,0.4,1.6c0,1-0.3,1.9-0.9,2.5c-0.6,0.7-1.4,1-2.4,1C576.7,341.1,576,340.9,575.3,340.6z"/>
	<path d="M591.5,340.9v-10.4h2.7l1.4,3.7c0.1,0.2,0.2,0.5,0.3,0.7c0.1,0.3,0.2,0.6,0.3,1l0.3,0.9c-0.1-0.9-0.2-1.7-0.2-2.3
		c-0.1-0.6-0.1-1.2-0.1-1.6v-2.3h2.7v10.4h-2.7l-1.4-3.8c-0.1-0.4-0.3-0.8-0.4-1.2c-0.1-0.4-0.2-0.7-0.3-1c0.1,0.7,0.1,1.4,0.1,1.9
		c0,0.5,0,1,0,1.4v2.7H591.5z"/>
	<path d="M610.8,335.7c0,1.6-0.4,2.9-1.1,3.9c-0.7,1-1.7,1.5-2.8,1.5c-1,0-1.9-0.4-2.6-1.1c-0.9-1-1.4-2.4-1.4-4.3
		c0-1.8,0.5-3.3,1.4-4.2c0.7-0.7,1.6-1.1,2.5-1.1c1.2,0,2.2,0.5,2.9,1.5S610.8,334,610.8,335.7z M607.9,335.7c0-1.9-0.3-2.8-1-2.8
		c-0.3,0-0.6,0.2-0.8,0.7c-0.2,0.5-0.3,1.1-0.3,2c0,0.9,0.1,1.6,0.3,2c0.2,0.5,0.4,0.7,0.8,0.7c0.3,0,0.6-0.2,0.8-0.7
		C607.8,337.2,607.9,336.6,607.9,335.7z"/>
	<path d="M614.6,340.6v-3.3c0.6,0.8,1.2,1.1,1.8,1.1c0.2,0,0.4-0.1,0.6-0.2c0.2-0.1,0.2-0.3,0.2-0.5c0-0.3-0.2-0.6-0.5-0.8l-0.5-0.4
		c-0.3-0.2-0.6-0.5-0.8-0.7c-0.2-0.2-0.4-0.5-0.5-0.7s-0.2-0.5-0.3-0.7c-0.1-0.3-0.1-0.5-0.1-0.8c0-0.5,0.1-1,0.3-1.5
		c0.1-0.2,0.2-0.5,0.4-0.7c0.1-0.2,0.3-0.4,0.5-0.5c0.5-0.5,1.2-0.7,1.9-0.7c0.7,0,1.3,0.2,2,0.5v3.2c-0.2-0.4-0.5-0.6-0.8-0.8
		c-0.3-0.2-0.6-0.3-0.9-0.3c-0.2,0-0.4,0.1-0.5,0.2c-0.1,0.1-0.2,0.3-0.2,0.4c0,0.3,0.2,0.6,0.6,0.8l0.4,0.3c0.6,0.4,1,0.9,1.3,1.3
		c0.3,0.5,0.4,1,0.4,1.6c0,1-0.3,1.9-0.9,2.5c-0.6,0.7-1.4,1-2.4,1C616.1,341.1,615.4,340.9,614.6,340.6z"/>
	<path d="M627.7,340.9h-2.8V333h-1.6v-2.5h6v2.5h-1.6V340.9z"/>
	<path d="M640.2,340.9h-3l-1.4-3.7c0-0.1,0-0.1-0.1-0.2c0-0.1-0.1-0.2-0.1-0.4l0,0.7v3.6h-2.8v-10.4h2.9c1.3,0,2.2,0.2,2.8,0.8
		c0.8,0.6,1.2,1.5,1.2,2.7c0,1.3-0.5,2.1-1.6,2.6L640.2,340.9z M635.6,335.3h0.2c0.3,0,0.6-0.1,0.8-0.4c0.2-0.2,0.3-0.6,0.3-0.9
		c0-0.8-0.4-1.2-1.2-1.2h-0.1V335.3z"/>
	<path d="M648.1,330.5h2.8v7.4c0,0.6-0.1,1.1-0.3,1.5c-0.2,0.4-0.5,0.8-0.9,1.1c-0.6,0.4-1.3,0.6-2.2,0.6c-1,0-1.8-0.2-2.4-0.7
		c-0.8-0.6-1.2-1.6-1.2-2.9v-7h2.8v6.7c0,0.5,0.1,0.8,0.2,1c0.1,0.2,0.3,0.3,0.6,0.3c0.3,0,0.5-0.1,0.6-0.3c0.1-0.2,0.2-0.5,0.2-1
		V330.5z"/>
	<path d="M655.1,340.9v-10.4h2.4c1.4,0,2.5,0.4,3.2,1.1c1,1,1.5,2.3,1.5,4.1c0,1.7-0.4,3.1-1.3,4c-0.7,0.8-1.8,1.2-3.3,1.2H655.1z
		 M657.9,338.4c1,0,1.5-0.9,1.5-2.6c0-0.8-0.1-1.5-0.4-2c-0.3-0.5-0.6-0.7-1-0.7h-0.1V338.4z"/>
	<path d="M405,377.6v-10.4h5.2v2.5h-2.4v1.5h2.2v2.4h-2.2v1.6h2.4v2.5H405z"/>
	<path d="M421.6,377.6h-3.1l-0.5-1.5c-0.2-0.5-0.3-0.9-0.4-1.3c-0.1,0.4-0.2,0.9-0.4,1.4l-0.5,1.4h-3.1l2.5-5.4l-2.4-5h3.1l0.5,1.4
		c0,0.1,0.1,0.3,0.1,0.5c0,0.2,0.1,0.4,0.1,0.6c0.1-0.5,0.2-0.8,0.3-1l0.4-1.4h3.2l-2.4,5L421.6,377.6z"/>
	<path d="M425.1,377.6v-10.4h5.2v2.5h-2.4v1.5h2.2v2.4h-2.2v1.6h2.4v2.5H425.1z"/>
	<path d="M441.7,377.6h-3l-1.4-3.7c0-0.1,0-0.1-0.1-0.2c0-0.1-0.1-0.2-0.1-0.4l0,0.7v3.6h-2.8v-10.4h2.9c1.3,0,2.2,0.2,2.8,0.8
		c0.8,0.6,1.2,1.5,1.2,2.7c0,1.3-0.5,2.1-1.6,2.6L441.7,377.6z M437.1,372h0.2c0.3,0,0.6-0.1,0.8-0.4c0.2-0.2,0.3-0.6,0.3-0.9
		c0-0.8-0.4-1.2-1.2-1.2h-0.1V372z"/>
	<path d="M451.1,374.4l-0.2,3c-0.6,0.3-1.2,0.4-1.7,0.4c-1.2,0-2.1-0.4-2.9-1.3c-0.9-1-1.3-2.3-1.3-4.1c0-1.6,0.4-3,1.3-4
		c0.8-1,2-1.5,3.4-1.5c0.5,0,0.9,0.1,1.4,0.3v3c-0.4-0.4-0.8-0.6-1.3-0.6c-0.6,0-1,0.2-1.4,0.7c-0.3,0.5-0.5,1.2-0.5,2.1
		c0,0.4,0,0.8,0.1,1.1s0.2,0.6,0.3,0.8c0.2,0.2,0.3,0.4,0.6,0.5c0.2,0.1,0.5,0.2,0.8,0.2C450.1,375.1,450.6,374.8,451.1,374.4z"/>
	<path d="M457.8,377.6h-2.8v-10.4h2.8V377.6z"/>
	<path d="M472.5,377.6h-2.8v-7.9h-1.6v-2.5h6v2.5h-1.6V377.6z"/>
	<path d="M484.9,377.6H482l-0.2-1.3h-1.9l-0.2,1.3h-2.9l2.5-10.4h3.4L484.9,377.6z M481.5,374l-0.2-1.2c0,0,0-0.1,0-0.2
		c0-0.1-0.1-0.5-0.1-1.2c0-0.1,0-0.2,0-0.3s0-0.3-0.1-0.5l-0.1-1c0,0.1,0,0.2,0,0.3c0,0.1,0,0.2-0.1,0.4c0,0.3-0.1,0.5-0.1,0.6
		c0,0.1,0,0.2,0,0.2l-0.2,1.3l-0.3,1.6H481.5z"/>
	<path d="M492.1,377.6h-2.8v-7.9h-1.6v-2.5h6v2.5h-1.6V377.6z"/>
	<path d="M500.1,377.6h-2.8v-10.4h2.8V377.6z"/>
	<path d="M511.9,372.4c0,1.6-0.4,2.9-1.1,3.9c-0.7,1-1.7,1.5-2.8,1.5c-1,0-1.9-0.4-2.6-1.1c-0.9-1-1.4-2.4-1.4-4.3
		c0-1.8,0.5-3.3,1.4-4.2c0.7-0.7,1.6-1.1,2.5-1.1c1.2,0,2.2,0.5,2.9,1.5S511.9,370.7,511.9,372.4z M509,372.4c0-1.9-0.3-2.8-1-2.8
		c-0.3,0-0.6,0.2-0.8,0.7c-0.2,0.5-0.3,1.1-0.3,2c0,0.9,0.1,1.6,0.3,2c0.2,0.5,0.4,0.7,0.8,0.7c0.3,0,0.6-0.2,0.8-0.7
		C508.9,373.9,509,373.3,509,372.4z"/>
	<path d="M515.9,377.6v-10.4h2.7l1.4,3.7c0.1,0.2,0.2,0.5,0.3,0.7c0.1,0.3,0.2,0.6,0.3,1l0.3,0.9c-0.1-0.9-0.2-1.7-0.2-2.3
		c-0.1-0.6-0.1-1.2-0.1-1.6v-2.3h2.7v10.4h-2.7l-1.4-3.8c-0.1-0.4-0.3-0.8-0.4-1.2c-0.1-0.4-0.2-0.7-0.3-1c0.1,0.7,0.1,1.4,0.1,1.9
		c0,0.5,0,1,0,1.4v2.7H515.9z"/>
	<path d="M538.7,367.2h2.8v7.4c0,0.6-0.1,1.1-0.3,1.5c-0.2,0.4-0.5,0.8-0.9,1.1c-0.6,0.4-1.3,0.6-2.2,0.6c-1,0-1.8-0.2-2.4-0.7
		c-0.8-0.6-1.2-1.6-1.2-2.9v-7h2.8v6.7c0,0.5,0.1,0.8,0.2,1c0.1,0.2,0.3,0.3,0.6,0.3c0.3,0,0.5-0.1,0.6-0.3c0.1-0.2,0.2-0.5,0.2-1
		V367.2z"/>
	<path d="M550.6,377.6h-4.9v-10.4h2.8v7.9h2.1V377.6z"/>
	<path d="M559.2,377.6h-4.9v-10.4h2.8v7.9h2.1V377.6z"/>
	<path d="M570.6,377.6h-2.9l-0.2-1.3h-1.9l-0.2,1.3h-2.9l2.5-10.4h3.4L570.6,377.6z M567.2,374l-0.2-1.2c0,0,0-0.1,0-0.2
		c0-0.1-0.1-0.5-0.1-1.2c0-0.1,0-0.2,0-0.3s0-0.3-0.1-0.5l-0.1-1c0,0.1,0,0.2,0,0.3c0,0.1,0,0.2-0.1,0.4c0,0.3-0.1,0.5-0.1,0.6
		c0,0.1,0,0.2,0,0.2l-0.2,1.3L566,374H567.2z"/>
	<path d="M585,377.6H582l-0.2-4.8l-0.1-1.9c0,0.4-0.1,0.7-0.1,1c0,0.3-0.1,0.7-0.1,1l-0.9,4.6h-2.3l-0.8-4.7c0-0.3-0.1-0.7-0.2-1.4
		c0-0.1,0-0.3-0.1-0.6l-0.1,1.9l-0.2,4.7h-3l1.2-10.4h3.5l0.6,3.5c0,0.3,0.1,0.6,0.1,0.9c0,0.3,0.1,0.7,0.1,1.1
		c0.1-0.7,0.1-1.3,0.2-1.8l0.7-3.8h3.5L585,377.6z"/>
	<path d="M594.8,374.4l-0.2,3c-0.6,0.3-1.2,0.4-1.7,0.4c-1.2,0-2.1-0.4-2.9-1.3c-0.9-1-1.3-2.3-1.3-4.1c0-1.6,0.4-3,1.3-4
		c0.8-1,2-1.5,3.4-1.5c0.5,0,0.9,0.1,1.4,0.3v3c-0.4-0.4-0.8-0.6-1.3-0.6c-0.6,0-1,0.2-1.4,0.7c-0.3,0.5-0.5,1.2-0.5,2.1
		c0,0.4,0,0.8,0.1,1.1s0.2,0.6,0.3,0.8c0.2,0.2,0.3,0.4,0.6,0.5c0.2,0.1,0.5,0.2,0.8,0.2C593.8,375.1,594.3,374.8,594.8,374.4z"/>
	<path d="M606.4,372.4c0,1.6-0.4,2.9-1.1,3.9c-0.7,1-1.7,1.5-2.8,1.5c-1,0-1.9-0.4-2.6-1.1c-0.9-1-1.4-2.4-1.4-4.3
		c0-1.8,0.5-3.3,1.4-4.2c0.7-0.7,1.6-1.1,2.5-1.1c1.2,0,2.2,0.5,2.9,1.5S606.4,370.7,606.4,372.4z M603.4,372.4c0-1.9-0.3-2.8-1-2.8
		c-0.3,0-0.6,0.2-0.8,0.7c-0.2,0.5-0.3,1.1-0.3,2c0,0.9,0.1,1.6,0.3,2c0.2,0.5,0.4,0.7,0.8,0.7c0.3,0,0.6-0.2,0.8-0.7
		C603.3,373.9,603.4,373.3,603.4,372.4z"/>
	<path d="M617.7,377.6h-3l-1.4-3.7c0-0.1,0-0.1-0.1-0.2c0-0.1-0.1-0.2-0.1-0.4l0,0.7v3.6h-2.8v-10.4h2.9c1.3,0,2.2,0.2,2.8,0.8
		c0.8,0.6,1.2,1.5,1.2,2.7c0,1.3-0.5,2.1-1.6,2.6L617.7,377.6z M613.1,372h0.2c0.3,0,0.6-0.1,0.8-0.4c0.2-0.2,0.3-0.6,0.3-0.9
		c0-0.8-0.4-1.2-1.2-1.2h-0.1V372z"/>
	<path d="M624.3,377.6h-2.8v-10.4h2.7c1.4,0,2.4,0.3,3,0.8c0.8,0.7,1.2,1.6,1.2,2.7c0,1.3-0.4,2.2-1.2,2.8c-0.6,0.4-1.4,0.6-2.4,0.6
		h-0.4V377.6z M624.3,371.8l0.1,0c0.3,0,0.6-0.1,0.8-0.3c0.2-0.2,0.3-0.5,0.3-0.9c0-0.4-0.1-0.7-0.3-0.9c-0.2-0.2-0.5-0.3-0.8-0.3
		h-0.2V371.8z"/>
	<path d="M632.1,377.6v-10.4h5.2v2.5h-2.4v1.5h2.2v2.4h-2.2v1.6h2.4v2.5H632.1z"/>
	<path d="M648.7,377.6h-3l-1.4-3.7c0-0.1,0-0.1-0.1-0.2c0-0.1-0.1-0.2-0.1-0.4l0,0.7v3.6h-2.8v-10.4h2.9c1.3,0,2.2,0.2,2.8,0.8
		c0.8,0.6,1.2,1.5,1.2,2.7c0,1.3-0.5,2.1-1.6,2.6L648.7,377.6z M644.1,372h0.2c0.3,0,0.6-0.1,0.8-0.4c0.2-0.2,0.3-0.6,0.3-0.9
		c0-0.8-0.4-1.2-1.2-1.2h-0.1V372z"/>
	<path d="M404.8,414v-3.3c0.6,0.8,1.2,1.1,1.8,1.1c0.2,0,0.4-0.1,0.6-0.2c0.2-0.1,0.2-0.3,0.2-0.5c0-0.3-0.2-0.6-0.5-0.8l-0.5-0.4
		c-0.3-0.2-0.6-0.5-0.8-0.7c-0.2-0.2-0.4-0.5-0.5-0.7s-0.2-0.5-0.3-0.7c-0.1-0.3-0.1-0.5-0.1-0.8c0-0.5,0.1-1,0.3-1.5
		c0.1-0.2,0.2-0.5,0.4-0.7c0.1-0.2,0.3-0.4,0.5-0.5c0.5-0.5,1.2-0.7,1.9-0.7c0.7,0,1.3,0.2,2,0.5v3.2c-0.2-0.4-0.5-0.6-0.8-0.8
		c-0.3-0.2-0.6-0.3-0.9-0.3c-0.2,0-0.4,0.1-0.5,0.2c-0.1,0.1-0.2,0.3-0.2,0.4c0,0.3,0.2,0.6,0.6,0.8l0.4,0.3c0.6,0.4,1,0.9,1.3,1.3
		c0.3,0.5,0.4,1,0.4,1.6c0,1-0.3,1.9-0.9,2.5c-0.6,0.7-1.4,1-2.4,1C406.2,414.5,405.5,414.3,404.8,414z"/>
	<path d="M418.3,403.9h2.8v7.4c0,0.6-0.1,1.1-0.3,1.5c-0.2,0.4-0.5,0.8-0.9,1.1c-0.6,0.4-1.3,0.6-2.2,0.6c-1,0-1.8-0.2-2.4-0.7
		c-0.8-0.6-1.2-1.6-1.2-2.9v-7h2.8v6.7c0,0.5,0.1,0.8,0.2,1c0.1,0.2,0.3,0.3,0.6,0.3c0.3,0,0.5-0.1,0.6-0.3c0.1-0.2,0.2-0.5,0.2-1
		V403.9z"/>
	<path d="M425.2,414v-3.3c0.6,0.8,1.2,1.1,1.8,1.1c0.2,0,0.4-0.1,0.6-0.2c0.2-0.1,0.2-0.3,0.2-0.5c0-0.3-0.2-0.6-0.5-0.8l-0.5-0.4
		c-0.3-0.2-0.6-0.5-0.8-0.7c-0.2-0.2-0.4-0.5-0.5-0.7s-0.2-0.5-0.3-0.7c-0.1-0.3-0.1-0.5-0.1-0.8c0-0.5,0.1-1,0.3-1.5
		c0.1-0.2,0.2-0.5,0.4-0.7c0.1-0.2,0.3-0.4,0.5-0.5c0.5-0.5,1.2-0.7,1.9-0.7c0.7,0,1.3,0.2,2,0.5v3.2c-0.2-0.4-0.5-0.6-0.8-0.8
		c-0.3-0.2-0.6-0.3-0.9-0.3c-0.2,0-0.4,0.1-0.5,0.2c-0.1,0.1-0.2,0.3-0.2,0.4c0,0.3,0.2,0.6,0.6,0.8l0.4,0.3c0.6,0.4,1,0.9,1.3,1.3
		c0.3,0.5,0.4,1,0.4,1.6c0,1-0.3,1.9-0.9,2.5c-0.6,0.7-1.4,1-2.4,1C426.6,414.5,425.9,414.3,425.2,414z"/>
	<path d="M440.3,411.1l-0.2,3c-0.6,0.3-1.2,0.4-1.7,0.4c-1.2,0-2.1-0.4-2.9-1.3c-0.9-1-1.3-2.3-1.3-4.1c0-1.6,0.4-3,1.3-4
		c0.8-1,2-1.5,3.4-1.5c0.5,0,0.9,0.1,1.4,0.3v3c-0.4-0.4-0.8-0.6-1.3-0.6c-0.6,0-1,0.2-1.4,0.7c-0.3,0.5-0.5,1.2-0.5,2.1
		c0,0.4,0,0.8,0.1,1.1s0.2,0.6,0.3,0.8c0.2,0.2,0.3,0.4,0.6,0.5c0.2,0.1,0.5,0.2,0.8,0.2C439.4,411.8,439.8,411.5,440.3,411.1z"/>
	<path d="M447,414.3h-2.8v-10.4h2.8V414.3z"/>
	<path d="M454.1,414.3h-2.8v-10.4h2.7c1.4,0,2.4,0.3,3,0.8c0.8,0.7,1.2,1.6,1.2,2.7c0,1.3-0.4,2.2-1.2,2.8c-0.6,0.4-1.4,0.6-2.4,0.6
		h-0.4V414.3z M454.1,408.5l0.1,0c0.3,0,0.6-0.1,0.8-0.3c0.2-0.2,0.3-0.5,0.3-0.9c0-0.4-0.1-0.7-0.3-0.9c-0.2-0.2-0.5-0.3-0.8-0.3
		h-0.2V408.5z"/>
	<path d="M464.7,414.3h-2.8v-10.4h2.8V414.3z"/>
	<path d="M472.6,414.3h-2.8v-7.9h-1.6v-2.5h6v2.5h-1.6V414.3z"/>
	<path d="M489.5,414.3h-4.9v-10.4h2.8v7.9h2.1V414.3z"/>
	<path d="M500.8,409.1c0,1.6-0.4,2.9-1.1,3.9c-0.7,1-1.7,1.5-2.8,1.5c-1,0-1.9-0.4-2.6-1.1c-0.9-1-1.4-2.4-1.4-4.3
		c0-1.8,0.5-3.3,1.4-4.2c0.7-0.7,1.6-1.1,2.5-1.1c1.2,0,2.2,0.5,2.9,1.5S500.8,407.4,500.8,409.1z M497.8,409.1c0-1.9-0.3-2.8-1-2.8
		c-0.3,0-0.6,0.2-0.8,0.7c-0.2,0.5-0.3,1.1-0.3,2c0,0.9,0.1,1.6,0.3,2c0.2,0.5,0.4,0.7,0.8,0.7c0.3,0,0.6-0.2,0.8-0.7
		C497.8,410.6,497.8,410,497.8,409.1z"/>
	<path d="M504.7,414.3v-10.4h3.3c1.2,0,2.1,0.3,2.7,0.8c0.6,0.6,0.9,1.3,0.9,2.1c0,1.3-0.6,2-1.9,2.1c0.7,0.1,1.3,0.4,1.6,0.7
		c0.3,0.4,0.5,0.9,0.5,1.6c0,0.9-0.3,1.6-0.9,2.2c-0.6,0.5-1.3,0.8-2.3,0.8H504.7z M507.6,407.9h0.2c0.3,0,0.6-0.1,0.8-0.2
		c0.2-0.2,0.3-0.4,0.3-0.7c0-0.6-0.3-0.9-1-0.9c0,0-0.1,0-0.1,0c0,0-0.1,0-0.2,0V407.9z M507.6,412c0.1,0,0.1,0,0.1,0
		c0,0,0.1,0,0.1,0c0.4,0,0.6-0.1,0.8-0.3s0.3-0.4,0.3-0.7s-0.1-0.6-0.3-0.7c-0.2-0.2-0.5-0.3-0.9-0.3h-0.2V412z"/>
	<path d="M523.4,409.1c0,1.6-0.4,2.9-1.1,3.9c-0.7,1-1.7,1.5-2.8,1.5c-1,0-1.9-0.4-2.6-1.1c-0.9-1-1.4-2.4-1.4-4.3
		c0-1.8,0.5-3.3,1.4-4.2c0.7-0.7,1.6-1.1,2.5-1.1c1.2,0,2.2,0.5,2.9,1.5S523.4,407.4,523.4,409.1z M520.5,409.1c0-1.9-0.3-2.8-1-2.8
		c-0.3,0-0.6,0.2-0.8,0.7c-0.2,0.5-0.3,1.1-0.3,2c0,0.9,0.1,1.6,0.3,2c0.2,0.5,0.4,0.7,0.8,0.7c0.3,0,0.6-0.2,0.8-0.7
		C520.4,410.6,520.5,410,520.5,409.1z"/>
	<path d="M534.8,414.3h-3l-1.4-3.7c0-0.1,0-0.1-0.1-0.2c0-0.1-0.1-0.2-0.1-0.4l0,0.7v3.6h-2.8v-10.4h2.9c1.3,0,2.2,0.2,2.8,0.8
		c0.8,0.6,1.2,1.5,1.2,2.7c0,1.3-0.5,2.1-1.6,2.6L534.8,414.3z M530.2,408.7h0.2c0.3,0,0.6-0.1,0.8-0.4c0.2-0.2,0.3-0.6,0.3-0.9
		c0-0.8-0.4-1.2-1.2-1.2h-0.1V408.7z"/>
	<path d="M542.2,414.3h-2.8v-7.9h-1.6v-2.5h6v2.5h-1.6V414.3z"/>
	<path d="M550.2,414.3h-2.8v-10.4h2.8V414.3z"/>
	<path d="M554.2,414v-3.3c0.6,0.8,1.2,1.1,1.8,1.1c0.2,0,0.4-0.1,0.6-0.2c0.2-0.1,0.2-0.3,0.2-0.5c0-0.3-0.2-0.6-0.5-0.8l-0.5-0.4
		c-0.3-0.2-0.6-0.5-0.8-0.7c-0.2-0.2-0.4-0.5-0.5-0.7s-0.2-0.5-0.3-0.7c-0.1-0.3-0.1-0.5-0.1-0.8c0-0.5,0.1-1,0.3-1.5
		c0.1-0.2,0.2-0.5,0.4-0.7c0.1-0.2,0.3-0.4,0.5-0.5c0.5-0.5,1.2-0.7,1.9-0.7c0.7,0,1.3,0.2,2,0.5v3.2c-0.2-0.4-0.5-0.6-0.8-0.8
		c-0.3-0.2-0.6-0.3-0.9-0.3c-0.2,0-0.4,0.1-0.5,0.2c-0.1,0.1-0.2,0.3-0.2,0.4c0,0.3,0.2,0.6,0.6,0.8l0.4,0.3c0.6,0.4,1,0.9,1.3,1.3
		c0.3,0.5,0.4,1,0.4,1.6c0,1-0.3,1.9-0.9,2.5c-0.6,0.7-1.4,1-2.4,1C555.6,414.5,554.9,414.3,554.2,414z"/>
	<path d="M570.4,414.3v-10.4h2.7l1.4,3.7c0.1,0.2,0.2,0.5,0.3,0.7c0.1,0.3,0.2,0.6,0.3,1l0.3,0.9c-0.1-0.9-0.2-1.7-0.2-2.3
		c-0.1-0.6-0.1-1.2-0.1-1.6v-2.3h2.7v10.4H575l-1.4-3.8c-0.1-0.4-0.3-0.8-0.4-1.2c-0.1-0.4-0.2-0.7-0.3-1c0.1,0.7,0.1,1.4,0.1,1.9
		c0,0.5,0,1,0,1.4v2.7H570.4z"/>
	<path d="M584.8,414.3H582v-10.4h2.8V414.3z"/>
	<path d="M588.8,414v-3.3c0.6,0.8,1.2,1.1,1.8,1.1c0.2,0,0.4-0.1,0.6-0.2c0.2-0.1,0.2-0.3,0.2-0.5c0-0.3-0.2-0.6-0.5-0.8l-0.5-0.4
		c-0.3-0.2-0.6-0.5-0.8-0.7c-0.2-0.2-0.4-0.5-0.5-0.7s-0.2-0.5-0.3-0.7c-0.1-0.3-0.1-0.5-0.1-0.8c0-0.5,0.1-1,0.3-1.5
		c0.1-0.2,0.2-0.5,0.4-0.7c0.1-0.2,0.3-0.4,0.5-0.5c0.5-0.5,1.2-0.7,1.9-0.7c0.7,0,1.3,0.2,2,0.5v3.2c-0.2-0.4-0.5-0.6-0.8-0.8
		c-0.3-0.2-0.6-0.3-0.9-0.3c-0.2,0-0.4,0.1-0.5,0.2c-0.1,0.1-0.2,0.3-0.2,0.4c0,0.3,0.2,0.6,0.6,0.8l0.4,0.3c0.6,0.4,1,0.9,1.3,1.3
		c0.3,0.5,0.4,1,0.4,1.6c0,1-0.3,1.9-0.9,2.5c-0.6,0.7-1.4,1-2.4,1C590.2,414.5,589.5,414.3,588.8,414z"/>
	<path d="M603,414.3h-4.9v-10.4h2.8v7.9h2.1V414.3z"/>
	<path d="M617.8,403.9h2.8v7.4c0,0.6-0.1,1.1-0.3,1.5c-0.2,0.4-0.5,0.8-0.9,1.1c-0.6,0.4-1.3,0.6-2.2,0.6c-1,0-1.8-0.2-2.4-0.7
		c-0.8-0.6-1.2-1.6-1.2-2.9v-7h2.8v6.7c0,0.5,0.1,0.8,0.2,1c0.1,0.2,0.3,0.3,0.6,0.3c0.3,0,0.5-0.1,0.6-0.3c0.1-0.2,0.2-0.5,0.2-1
		V403.9z"/>
	<path d="M628.5,414.3h-2.8v-7.9h-1.6v-2.5h6v2.5h-1.6V414.3z"/>
</g>
<line class="st0" x1="393.5" y1="115.3" x2="354.4" y2="115.3"/>
<line class="st0" x1="393.5" y1="153.6" x2="354.4" y2="153.6"/>
<line class="st0" x1="393.5" y1="189.5" x2="354.4" y2="189.5"/>
<line class="st0" x1="393.5" y1="225.8" x2="354.4" y2="225.8"/>
<line class="st0" x1="393.5" y1="263.6" x2="354.4" y2="263.6"/>
<line class="st0" x1="393.5" y1="301.5" x2="354.4" y2="301.5"/>
<line class="st0" x1="393.5" y1="335.7" x2="354.4" y2="335.7"/>
<line class="st0" x1="393.5" y1="374.2" x2="354.4" y2="374.2"/>
<line class="st0" x1="393.5" y1="409.9" x2="354.4" y2="409.9"/>
<g>
	<path d="M329.3,119v1.6H328v-1.3c-0.5,0-0.9-0.1-1.2-0.1c-0.1,0-0.3-0.1-0.4-0.1s-0.4-0.1-0.6-0.2v-3.3c0.5,0.8,1.1,1.2,1.8,1.2
		c0.5,0,0.8-0.2,0.8-0.7c0-0.3-0.2-0.6-0.6-0.9l-0.5-0.4c-0.5-0.4-0.9-0.9-1.2-1.3c-0.2-0.4-0.4-0.9-0.4-1.5c0-1.6,0.8-2.7,2.3-3.3
		v-1.5h1.3v1.4c0.6,0.1,1.1,0.2,1.7,0.5v3.2c-0.6-0.7-1.1-1.1-1.7-1.1c-0.2,0-0.4,0.1-0.5,0.2s-0.2,0.3-0.2,0.4
		c0,0.2,0.2,0.5,0.7,0.9l0.5,0.4c0.3,0.2,0.5,0.4,0.7,0.6c0.2,0.2,0.3,0.4,0.5,0.6s0.2,0.5,0.3,0.7c0.1,0.2,0.1,0.5,0.1,0.8
		C331.3,117.3,330.6,118.4,329.3,119z"/>
	<path d="M336.1,116h2.7c0,0.6,0.2,0.9,0.7,0.9c0.2,0,0.4-0.1,0.6-0.3s0.2-0.4,0.2-0.7c0-0.7-0.4-1.1-1.1-1.1c-0.1,0-0.1,0-0.2,0
		s-0.2,0-0.3,0v-2.2c0.1,0,0.1,0,0.2,0c0.1,0,0.1,0,0.1,0c0.8,0,1.2-0.4,1.2-1.1c0-0.6-0.2-0.9-0.6-0.9c-0.3,0-0.5,0.2-0.5,0.7
		l0,0.1h-2.7c0.1-1,0.4-1.7,1-2.3c0.6-0.6,1.4-0.9,2.4-0.9c0.9,0,1.7,0.3,2.3,0.9c0.6,0.6,0.9,1.3,0.9,2.2c0,1-0.4,1.7-1.3,2.2
		c0.9,0.5,1.4,1.3,1.4,2.4c0,0.9-0.3,1.7-1,2.3c-0.7,0.6-1.5,0.9-2.5,0.9c-1,0-1.8-0.3-2.5-0.9c-0.6-0.6-1-1.3-1-2.2V116z"/>
</g>
<g>
	<path d="M329.3,157.3v1.6H328v-1.3c-0.5,0-0.9-0.1-1.2-0.1c-0.1,0-0.3-0.1-0.4-0.1s-0.4-0.1-0.6-0.2v-3.3c0.5,0.8,1.1,1.2,1.8,1.2
		c0.5,0,0.8-0.2,0.8-0.7c0-0.3-0.2-0.6-0.6-0.9l-0.5-0.4c-0.5-0.4-0.9-0.9-1.2-1.3c-0.2-0.4-0.4-0.9-0.4-1.5c0-1.6,0.8-2.7,2.3-3.3
		v-1.5h1.3v1.4c0.6,0.1,1.1,0.2,1.7,0.5v3.2c-0.6-0.7-1.1-1.1-1.7-1.1c-0.2,0-0.4,0.1-0.5,0.2s-0.2,0.3-0.2,0.4
		c0,0.2,0.2,0.5,0.7,0.9l0.5,0.4c0.3,0.2,0.5,0.4,0.7,0.6c0.2,0.2,0.3,0.4,0.5,0.6s0.2,0.5,0.3,0.7c0.1,0.2,0.1,0.5,0.1,0.8
		C331.3,155.6,330.6,156.7,329.3,157.3z"/>
	<path d="M336.1,154.4h2.7c0,0.6,0.2,0.9,0.7,0.9c0.2,0,0.4-0.1,0.6-0.3s0.2-0.4,0.2-0.7c0-0.7-0.4-1.1-1.1-1.1c-0.1,0-0.1,0-0.2,0
		s-0.2,0-0.3,0v-2.2c0.1,0,0.1,0,0.2,0c0.1,0,0.1,0,0.1,0c0.8,0,1.2-0.4,1.2-1.1c0-0.6-0.2-0.9-0.6-0.9c-0.3,0-0.5,0.2-0.5,0.7
		l0,0.1h-2.7c0.1-1,0.4-1.7,1-2.3c0.6-0.6,1.4-0.9,2.4-0.9c0.9,0,1.7,0.3,2.3,0.9c0.6,0.6,0.9,1.3,0.9,2.2c0,1-0.4,1.7-1.3,2.2
		c0.9,0.5,1.4,1.3,1.4,2.4c0,0.9-0.3,1.7-1,2.3c-0.7,0.6-1.5,0.9-2.5,0.9c-1,0-1.8-0.3-2.5-0.9c-0.6-0.6-1-1.3-1-2.2V154.4z"/>
</g>
<g>
	<path d="M329.3,193.2v1.6H328v-1.3c-0.5,0-0.9-0.1-1.2-0.1c-0.1,0-0.3-0.1-0.4-0.1s-0.4-0.1-0.6-0.2v-3.3c0.5,0.8,1.1,1.2,1.8,1.2
		c0.5,0,0.8-0.2,0.8-0.7c0-0.3-0.2-0.6-0.6-0.9l-0.5-0.4c-0.5-0.4-0.9-0.9-1.2-1.3c-0.2-0.4-0.4-0.9-0.4-1.5c0-1.6,0.8-2.7,2.3-3.3
		v-1.5h1.3v1.4c0.6,0.1,1.1,0.2,1.7,0.5v3.2c-0.6-0.7-1.1-1.1-1.7-1.1c-0.2,0-0.4,0.1-0.5,0.2s-0.2,0.3-0.2,0.4
		c0,0.2,0.2,0.5,0.7,0.9l0.5,0.4c0.3,0.2,0.5,0.4,0.7,0.6c0.2,0.2,0.3,0.4,0.5,0.6s0.2,0.5,0.3,0.7c0.1,0.2,0.1,0.5,0.1,0.8
		C331.3,191.5,330.6,192.5,329.3,193.2z"/>
	<path d="M336.1,190.2h2.7c0,0.6,0.2,0.9,0.7,0.9c0.2,0,0.4-0.1,0.6-0.3s0.2-0.4,0.2-0.7c0-0.7-0.4-1.1-1.1-1.1c-0.1,0-0.1,0-0.2,0
		s-0.2,0-0.3,0v-2.2c0.1,0,0.1,0,0.2,0c0.1,0,0.1,0,0.1,0c0.8,0,1.2-0.4,1.2-1.1c0-0.6-0.2-0.9-0.6-0.9c-0.3,0-0.5,0.2-0.5,0.7
		l0,0.1h-2.7c0.1-1,0.4-1.7,1-2.3c0.6-0.6,1.4-0.9,2.4-0.9c0.9,0,1.7,0.3,2.3,0.9c0.6,0.6,0.9,1.3,0.9,2.2c0,1-0.4,1.7-1.3,2.2
		c0.9,0.5,1.4,1.3,1.4,2.4c0,0.9-0.3,1.7-1,2.3c-0.7,0.6-1.5,0.9-2.5,0.9c-1,0-1.8-0.3-2.5-0.9c-0.6-0.6-1-1.3-1-2.2V190.2z"/>
</g>
<g>
	<path d="M329.3,229.5v1.6H328v-1.3c-0.5,0-0.9-0.1-1.2-0.1c-0.1,0-0.3-0.1-0.4-0.1s-0.4-0.1-0.6-0.2v-3.3c0.5,0.8,1.1,1.2,1.8,1.2
		c0.5,0,0.8-0.2,0.8-0.7c0-0.3-0.2-0.6-0.6-0.9l-0.5-0.4c-0.5-0.4-0.9-0.9-1.2-1.3c-0.2-0.4-0.4-0.9-0.4-1.5c0-1.6,0.8-2.7,2.3-3.3
		v-1.5h1.3v1.4c0.6,0.1,1.1,0.2,1.7,0.5v3.2c-0.6-0.7-1.1-1.1-1.7-1.1c-0.2,0-0.4,0.1-0.5,0.2s-0.2,0.3-0.2,0.4
		c0,0.2,0.2,0.5,0.7,0.9l0.5,0.4c0.3,0.2,0.5,0.4,0.7,0.6c0.2,0.2,0.3,0.4,0.5,0.6s0.2,0.5,0.3,0.7c0.1,0.2,0.1,0.5,0.1,0.8
		C331.3,227.8,330.6,228.9,329.3,229.5z"/>
	<path d="M336.1,226.6h2.7c0,0.6,0.2,0.9,0.7,0.9c0.2,0,0.4-0.1,0.6-0.3s0.2-0.4,0.2-0.7c0-0.7-0.4-1.1-1.1-1.1c-0.1,0-0.1,0-0.2,0
		s-0.2,0-0.3,0v-2.2c0.1,0,0.1,0,0.2,0c0.1,0,0.1,0,0.1,0c0.8,0,1.2-0.4,1.2-1.1c0-0.6-0.2-0.9-0.6-0.9c-0.3,0-0.5,0.2-0.5,0.7
		l0,0.1h-2.7c0.1-1,0.4-1.7,1-2.3c0.6-0.6,1.4-0.9,2.4-0.9c0.9,0,1.7,0.3,2.3,0.9c0.6,0.6,0.9,1.3,0.9,2.2c0,1-0.4,1.7-1.3,2.2
		c0.9,0.5,1.4,1.3,1.4,2.4c0,0.9-0.3,1.7-1,2.3c-0.7,0.6-1.5,0.9-2.5,0.9c-1,0-1.8-0.3-2.5-0.9c-0.6-0.6-1-1.3-1-2.2V226.6z"/>
</g>
<g>
	<path d="M329.3,267.4v1.6H328v-1.3c-0.5,0-0.9-0.1-1.2-0.1c-0.1,0-0.3-0.1-0.4-0.1s-0.4-0.1-0.6-0.2v-3.3c0.5,0.8,1.1,1.2,1.8,1.2
		c0.5,0,0.8-0.2,0.8-0.7c0-0.3-0.2-0.6-0.6-0.9l-0.5-0.4c-0.5-0.4-0.9-0.9-1.2-1.3c-0.2-0.4-0.4-0.9-0.4-1.5c0-1.6,0.8-2.7,2.3-3.3
		v-1.5h1.3v1.4c0.6,0.1,1.1,0.2,1.7,0.5v3.2c-0.6-0.7-1.1-1.1-1.7-1.1c-0.2,0-0.4,0.1-0.5,0.2s-0.2,0.3-0.2,0.4
		c0,0.2,0.2,0.5,0.7,0.9l0.5,0.4c0.3,0.2,0.5,0.4,0.7,0.6c0.2,0.2,0.3,0.4,0.5,0.6s0.2,0.5,0.3,0.7c0.1,0.2,0.1,0.5,0.1,0.8
		C331.3,265.6,330.6,266.7,329.3,267.4z"/>
	<path d="M336.1,264.4h2.7c0,0.6,0.2,0.9,0.7,0.9c0.2,0,0.4-0.1,0.6-0.3s0.2-0.4,0.2-0.7c0-0.7-0.4-1.1-1.1-1.1c-0.1,0-0.1,0-0.2,0
		s-0.2,0-0.3,0v-2.2c0.1,0,0.1,0,0.2,0c0.1,0,0.1,0,0.1,0c0.8,0,1.2-0.4,1.2-1.1c0-0.6-0.2-0.9-0.6-0.9c-0.3,0-0.5,0.2-0.5,0.7
		l0,0.1h-2.7c0.1-1,0.4-1.7,1-2.3c0.6-0.6,1.4-0.9,2.4-0.9c0.9,0,1.7,0.3,2.3,0.9c0.6,0.6,0.9,1.3,0.9,2.2c0,1-0.4,1.7-1.3,2.2
		c0.9,0.5,1.4,1.3,1.4,2.4c0,0.9-0.3,1.7-1,2.3c-0.7,0.6-1.5,0.9-2.5,0.9c-1,0-1.8-0.3-2.5-0.9c-0.6-0.6-1-1.3-1-2.2V264.4z"/>
</g>
<g>
	<path d="M329.3,305.2v1.6H328v-1.3c-0.5,0-0.9-0.1-1.2-0.1c-0.1,0-0.3-0.1-0.4-0.1s-0.4-0.1-0.6-0.2v-3.3c0.5,0.8,1.1,1.2,1.8,1.2
		c0.5,0,0.8-0.2,0.8-0.7c0-0.3-0.2-0.6-0.6-0.9l-0.5-0.4c-0.5-0.4-0.9-0.9-1.2-1.3c-0.2-0.4-0.4-0.9-0.4-1.5c0-1.6,0.8-2.7,2.3-3.3
		v-1.5h1.3v1.4c0.6,0.1,1.1,0.2,1.7,0.5v3.2c-0.6-0.7-1.1-1.1-1.7-1.1c-0.2,0-0.4,0.1-0.5,0.2s-0.2,0.3-0.2,0.4
		c0,0.2,0.2,0.5,0.7,0.9l0.5,0.4c0.3,0.2,0.5,0.4,0.7,0.6c0.2,0.2,0.3,0.4,0.5,0.6s0.2,0.5,0.3,0.7c0.1,0.2,0.1,0.5,0.1,0.8
		C331.3,303.5,330.6,304.6,329.3,305.2z"/>
	<path d="M336.1,302.3h2.7c0,0.6,0.2,0.9,0.7,0.9c0.2,0,0.4-0.1,0.6-0.3s0.2-0.4,0.2-0.7c0-0.7-0.4-1.1-1.1-1.1c-0.1,0-0.1,0-0.2,0
		s-0.2,0-0.3,0V299c0.1,0,0.1,0,0.2,0c0.1,0,0.1,0,0.1,0c0.8,0,1.2-0.4,1.2-1.1c0-0.6-0.2-0.9-0.6-0.9c-0.3,0-0.5,0.2-0.5,0.7l0,0.1
		h-2.7c0.1-1,0.4-1.7,1-2.3c0.6-0.6,1.4-0.9,2.4-0.9c0.9,0,1.7,0.3,2.3,0.9c0.6,0.6,0.9,1.3,0.9,2.2c0,1-0.4,1.7-1.3,2.2
		c0.9,0.5,1.4,1.3,1.4,2.4c0,0.9-0.3,1.7-1,2.3c-0.7,0.6-1.5,0.9-2.5,0.9c-1,0-1.8-0.3-2.5-0.9c-0.6-0.6-1-1.3-1-2.2V302.3z"/>
</g>
<g>
	<path d="M329.3,339.5v1.6H328v-1.3c-0.5,0-0.9-0.1-1.2-0.1c-0.1,0-0.3-0.1-0.4-0.1s-0.4-0.1-0.6-0.2V336c0.5,0.8,1.1,1.2,1.8,1.2
		c0.5,0,0.8-0.2,0.8-0.7c0-0.3-0.2-0.6-0.6-0.9l-0.5-0.4c-0.5-0.4-0.9-0.9-1.2-1.3c-0.2-0.4-0.4-0.9-0.4-1.5c0-1.6,0.8-2.7,2.3-3.3
		v-1.5h1.3v1.4c0.6,0.1,1.1,0.2,1.7,0.5v3.2c-0.6-0.7-1.1-1.1-1.7-1.1c-0.2,0-0.4,0.1-0.5,0.2c-0.1,0.1-0.2,0.3-0.2,0.4
		c0,0.2,0.2,0.5,0.7,0.9l0.5,0.4c0.3,0.2,0.5,0.4,0.7,0.6s0.3,0.4,0.5,0.6s0.2,0.5,0.3,0.7c0.1,0.2,0.1,0.5,0.1,0.8
		C331.3,337.7,330.6,338.8,329.3,339.5z"/>
	<path d="M336.1,336.5h2.7c0,0.6,0.2,0.9,0.7,0.9c0.2,0,0.4-0.1,0.6-0.3s0.2-0.4,0.2-0.7c0-0.7-0.4-1.1-1.1-1.1c-0.1,0-0.1,0-0.2,0
		c-0.1,0-0.2,0-0.3,0v-2.2c0.1,0,0.1,0,0.2,0c0.1,0,0.1,0,0.1,0c0.8,0,1.2-0.4,1.2-1.1c0-0.6-0.2-0.9-0.6-0.9
		c-0.3,0-0.5,0.2-0.5,0.7l0,0.1h-2.7c0.1-1,0.4-1.7,1-2.3c0.6-0.6,1.4-0.9,2.4-0.9c0.9,0,1.7,0.3,2.3,0.9c0.6,0.6,0.9,1.3,0.9,2.2
		c0,1-0.4,1.7-1.3,2.2c0.9,0.5,1.4,1.3,1.4,2.4c0,0.9-0.3,1.7-1,2.3c-0.7,0.6-1.5,0.9-2.5,0.9c-1,0-1.8-0.3-2.5-0.9
		c-0.6-0.6-1-1.3-1-2.2V336.5z"/>
</g>
<g>
	<path d="M329.3,377.9v1.6H328v-1.3c-0.5,0-0.9-0.1-1.2-0.1c-0.1,0-0.3-0.1-0.4-0.1s-0.4-0.1-0.6-0.2v-3.3c0.5,0.8,1.1,1.2,1.8,1.2
		c0.5,0,0.8-0.2,0.8-0.7c0-0.3-0.2-0.6-0.6-0.9l-0.5-0.4c-0.5-0.4-0.9-0.9-1.2-1.3c-0.2-0.4-0.4-0.9-0.4-1.5c0-1.6,0.8-2.7,2.3-3.3
		v-1.5h1.3v1.4c0.6,0.1,1.1,0.2,1.7,0.5v3.2c-0.6-0.7-1.1-1.1-1.7-1.1c-0.2,0-0.4,0.1-0.5,0.2c-0.1,0.1-0.2,0.3-0.2,0.4
		c0,0.2,0.2,0.5,0.7,0.9l0.5,0.4c0.3,0.2,0.5,0.4,0.7,0.6s0.3,0.4,0.5,0.6s0.2,0.5,0.3,0.7c0.1,0.2,0.1,0.5,0.1,0.8
		C331.3,376.2,330.6,377.3,329.3,377.9z"/>
	<path d="M336.1,375h2.7c0,0.6,0.2,0.9,0.7,0.9c0.2,0,0.4-0.1,0.6-0.3s0.2-0.4,0.2-0.7c0-0.7-0.4-1.1-1.1-1.1c-0.1,0-0.1,0-0.2,0
		c-0.1,0-0.2,0-0.3,0v-2.2c0.1,0,0.1,0,0.2,0c0.1,0,0.1,0,0.1,0c0.8,0,1.2-0.4,1.2-1.1c0-0.6-0.2-0.9-0.6-0.9
		c-0.3,0-0.5,0.2-0.5,0.7l0,0.1h-2.7c0.1-1,0.4-1.7,1-2.3c0.6-0.6,1.4-0.9,2.4-0.9c0.9,0,1.7,0.3,2.3,0.9c0.6,0.6,0.9,1.3,0.9,2.2
		c0,1-0.4,1.7-1.3,2.2c0.9,0.5,1.4,1.3,1.4,2.4c0,0.9-0.3,1.7-1,2.3c-0.7,0.6-1.5,0.9-2.5,0.9c-1,0-1.8-0.3-2.5-0.9
		c-0.6-0.6-1-1.3-1-2.2V375z"/>
</g>
<g>
	<path d="M329.3,413.6v1.6H328v-1.3c-0.5,0-0.9-0.1-1.2-0.1c-0.1,0-0.3-0.1-0.4-0.1s-0.4-0.1-0.6-0.2v-3.3c0.5,0.8,1.1,1.2,1.8,1.2
		c0.5,0,0.8-0.2,0.8-0.7c0-0.3-0.2-0.6-0.6-0.9l-0.5-0.4c-0.5-0.4-0.9-0.9-1.2-1.3c-0.2-0.4-0.4-0.9-0.4-1.5c0-1.6,0.8-2.7,2.3-3.3
		v-1.5h1.3v1.4c0.6,0.1,1.1,0.2,1.7,0.5v3.2c-0.6-0.7-1.1-1.1-1.7-1.1c-0.2,0-0.4,0.1-0.5,0.2c-0.1,0.1-0.2,0.3-0.2,0.4
		c0,0.2,0.2,0.5,0.7,0.9l0.5,0.4c0.3,0.2,0.5,0.4,0.7,0.6s0.3,0.4,0.5,0.6s0.2,0.5,0.3,0.7c0.1,0.2,0.1,0.5,0.1,0.8
		C331.3,411.9,330.6,413,329.3,413.6z"/>
	<path d="M336.1,410.7h2.7c0,0.6,0.2,0.9,0.7,0.9c0.2,0,0.4-0.1,0.6-0.3s0.2-0.4,0.2-0.7c0-0.7-0.4-1.1-1.1-1.1c-0.1,0-0.1,0-0.2,0
		c-0.1,0-0.2,0-0.3,0v-2.2c0.1,0,0.1,0,0.2,0c0.1,0,0.1,0,0.1,0c0.8,0,1.2-0.4,1.2-1.1c0-0.6-0.2-0.9-0.6-0.9
		c-0.3,0-0.5,0.2-0.5,0.7l0,0.1h-2.7c0.1-1,0.4-1.7,1-2.3c0.6-0.6,1.4-0.9,2.4-0.9c0.9,0,1.7,0.3,2.3,0.9c0.6,0.6,0.9,1.3,0.9,2.2
		c0,1-0.4,1.7-1.3,2.2c0.9,0.5,1.4,1.3,1.4,2.4c0,0.9-0.3,1.7-1,2.3c-0.7,0.6-1.5,0.9-2.5,0.9c-1,0-1.8-0.3-2.5-0.9
		c-0.6-0.6-1-1.3-1-2.2V410.7z"/>
</g>
<g>
	<path class="st1" d="M300.6,308.2l-45.2,78.3l-45.2-78.3h31.6V139.9c0-7.5,6.1-13.6,13.6-13.6s13.6,6.1,13.6,13.6v168.3H300.6z"/>
</g>
<path d="M121.9,130.1h-9.7v-27.4h-5.4V94h20.7v8.6h-5.6V130.1z"/>
<path d="M163.7,130.1H154v-14.5h-4.7v14.5h-9.7V94h9.7v12.8h4.7V94h9.7V130.1z"/>
<path d="M178.4,130.1V94h18.1v8.5h-8.4v5.3h7.5v8.2h-7.5v5.5h8.4v8.7H178.4z"/>
<path d="M121.9,183.3h-9.7v-27.4h-5.4v-8.6h20.7v8.6h-5.6V183.3z"/>
<path d="M139.6,183.3v-36.1h18.1v8.5h-8.4v5.3h7.5v8.2h-7.5v5.5h8.4v8.7H139.6z"/>
<path d="M196.9,183.3h-10.8l-1.8-5.1c-0.6-1.6-1-3.1-1.4-4.5c-0.3,1.4-0.9,3.1-1.5,4.9l-1.8,4.7h-10.6l8.8-18.7l-8.3-17.4h10.8
	l1.6,4.9c0.2,0.5,0.3,1,0.5,1.6c0.2,0.6,0.3,1.3,0.5,2.1c0.4-1.6,0.7-2.8,1-3.6l1.5-4.9h10.9l-8.2,17.4L196.9,183.3z"/>
<path d="M221.6,183.3h-9.7v-27.4h-5.4v-8.6h20.7v8.6h-5.6V183.3z"/>
<path d="M124.9,233h-9.7v-36.1h9.7V233z"/>
<path d="M138.8,232.1v-11.3c1.9,2.6,4,3.9,6.2,3.9c0.8,0,1.5-0.2,2.1-0.7c0.5-0.4,0.8-1,0.8-1.7c0-1-0.6-1.9-1.7-2.8l-1.6-1.2
	c-1.1-0.8-2-1.6-2.7-2.4c-0.7-0.8-1.4-1.6-1.8-2.4c-0.5-0.8-0.8-1.7-1-2.6s-0.3-1.8-0.3-2.8c0-1.7,0.4-3.4,1.2-5.3
	c0.4-0.9,0.8-1.6,1.4-2.3s1.1-1.3,1.8-1.9c1.8-1.6,4.1-2.3,6.7-2.3c2.3,0,4.7,0.6,7,1.8v11c-0.8-1.2-1.7-2.2-2.7-2.9s-2-1.1-3-1.1
	c-0.7,0-1.4,0.2-1.8,0.7c-0.5,0.4-0.7,0.9-0.7,1.5c0,1,0.7,1.9,2,2.9l1.5,1.1c2.1,1.5,3.5,3,4.4,4.6c0.9,1.6,1.4,3.4,1.4,5.5
	c0,3.6-1.1,6.5-3.2,8.8c-2.2,2.3-4.9,3.5-8.2,3.5C143.9,233.6,141.4,233.1,138.8,232.1z"/>
<path d="M151.1,281.4l-9.4,4.5c-1.8-1.5-3.1-3-3.9-4.5c-1.9-3.6-2.2-7.2-0.9-11.1c1.5-4.3,4.9-7.9,10.2-10.8c5-2.7,9.7-3.6,14.1-2.7
	c4.4,0.9,7.7,3.5,10,7.8c0.7,1.4,1.2,2.9,1.5,4.7l-9.1,4.9c0.6-2,0.5-3.6-0.2-5c-0.9-1.8-2.4-2.7-4.5-2.9c-2-0.2-4.4,0.5-7.1,1.9
	c-1.3,0.7-2.4,1.4-3.3,2.2c-0.9,0.8-1.5,1.6-2,2.4c-0.5,0.8-0.7,1.7-0.7,2.6c0,0.9,0.2,1.7,0.7,2.6
	C147.4,279.5,148.9,280.6,151.1,281.4z"/>
<path d="M176,313.3c-4.8,2.6-9.4,3.6-13.6,3.1c-4.2-0.6-7.3-2.6-9.2-6.1c-1.7-3.1-2-6.4-0.9-9.9c1.4-4.4,5.1-8.2,10.9-11.3
	c5.6-3,10.7-3.9,15.3-2.6c3.4,1,5.9,3,7.5,6c2,3.7,2.1,7.4,0.2,11.2C184.5,307.3,181.1,310.5,176,313.3z M171.1,304.4
	c5.7-3.1,8.1-5.7,7-7.7c-0.5-1-1.7-1.4-3.6-1.2c-1.7,0.2-3.9,1-6.6,2.4c-2.7,1.4-4.6,2.8-5.8,4.2c-1.2,1.4-1.5,2.5-1,3.5
	c0.5,1,1.7,1.4,3.4,1.2C166.4,306.6,168.6,305.8,171.1,304.4z"/>
<path d="M205.5,329.7l4.6,8.6l-22.5,12.1c-1.9,1-3.6,1.5-5,1.6c-1.5,0.1-3.2-0.3-4.9-1.1c-2.3-1.1-4.1-2.9-5.5-5.5
	c-1.6-2.9-2.2-5.8-1.8-8.6c0.5-3.5,2.8-6.4,6.8-8.6l21.3-11.5l4.6,8.6l-20.5,11.1c-1.4,0.7-2.3,1.4-2.7,2.1
	c-0.4,0.6-0.4,1.4,0.1,2.2c0.4,0.8,1,1.2,1.7,1.3c0.7,0,1.8-0.4,3.2-1.1L205.5,329.7z"/>
<path d="M185.3,368.3l31.8-17.1l4.4,8.2l-8.8,10.3c-0.5,0.6-1.1,1.3-1.8,2c-0.7,0.8-1.5,1.6-2.4,2.6l-2.3,2.4
	c2.6-1.8,4.8-3.3,6.7-4.5c1.9-1.2,3.5-2.2,4.8-2.9l7.1-3.9l4.4,8.2l-31.8,17.1l-4.4-8.2l9.4-10.6c1-1.1,2-2.2,2.8-3.1
	c0.9-1,1.8-1.8,2.6-2.6c-2.1,1.4-4,2.6-5.6,3.5c-1.6,1-3,1.8-4.3,2.5l-8.1,4.4L185.3,368.3z"/>
<path d="M210.3,414.6l-4.6-8.6l24.2-13l-2.6-4.7l7.6-4.1l9.8,18.2l-7.6,4.1l-2.7-4.9L210.3,414.6z"/>
<path d="M218.7,430.1l31.8-17.1l8.6,15.9l-7.5,4l-4-7.4l-4.6,2.5l3.6,6.6l-7.2,3.9l-3.6-6.6l-4.9,2.6l4,7.4l-7.6,4.1L218.7,430.1z"
	/>
<path d="M233.8,458.2l31.8-17.1l4,7.4c2.3,4.2,2.9,8.1,1.9,11.7c-1.3,4.7-4.6,8.5-10,11.4c-5.3,2.8-10,3.7-14.3,2.7
	c-3.6-0.9-6.7-3.6-9.1-8L233.8,458.2z M246.1,462.6c1.8,3,5.3,3.1,10.4,0.3c2.5-1.4,4.3-2.8,5.4-4.4c1.1-1.6,1.2-3,0.5-4.4l-0.1-0.3
	L246.1,462.6z"/>
<path d="M309.4,516h-9.9l-8.3-36.1h10.2l1.8,10.3c0.7,3.9,1.2,8.4,1.6,13.2c0.2-2.2,0.4-4.2,0.6-6.1c0.2-1.9,0.5-3.7,0.9-5.5
	l2.3-11.9h10.6L309.4,516z"/>
<path d="M331.3,516v-36.1h18.1v8.5h-8.4v5.3h7.5v8.2h-7.5v5.5h8.4v8.7H331.3z"/>
<path d="M388.9,516h-10.5l-4.8-12.9c0-0.2-0.1-0.5-0.2-0.9c-0.1-0.4-0.3-0.8-0.4-1.3l0.1,2.4V516h-9.7v-36.1h10
	c4.4,0,7.7,0.9,9.9,2.6c2.8,2.2,4.2,5.4,4.2,9.4c0,4.4-1.9,7.4-5.6,9L388.9,516z M372.9,496.6h0.7c1.1,0,2.1-0.4,2.8-1.3
	c0.7-0.9,1.1-1.9,1.1-3.3c0-2.7-1.4-4-4.2-4h-0.4V496.6z"/>
<path d="M414.6,516h-9.7v-27.4h-5.4v-8.6h20.7v8.6h-5.6V516z"/>
<path d="M442,516h-9.7v-36.1h9.7V516z"/>
<path d="M476.9,504.9l-0.6,10.4c-2.2,0.9-4.1,1.3-5.8,1.3c-4,0-7.4-1.5-10.2-4.4c-3.1-3.3-4.6-8-4.6-14.1c0-5.7,1.4-10.3,4.3-13.7
	c2.9-3.4,6.8-5.1,11.6-5.1c1.6,0,3.2,0.3,4.8,0.9v10.3c-1.4-1.4-2.9-2.2-4.5-2.2c-2,0-3.6,0.8-4.7,2.5c-1.1,1.7-1.7,4.1-1.7,7.1
	c0,1.5,0.1,2.8,0.4,3.9c0.3,1.2,0.7,2.1,1.2,2.9c0.5,0.8,1.2,1.4,1.9,1.8c0.8,0.4,1.6,0.6,2.6,0.6
	C473.5,507.2,475.2,506.5,476.9,504.9z"/>
<path d="M516.8,516h-10.1l-0.7-4.6h-6.6l-0.8,4.6h-10.1l8.7-36.1h11.9L516.8,516z M504.9,503.7l-0.6-4.2c0,0,0-0.2-0.1-0.6
	c0-0.3-0.2-1.7-0.5-4.1c0-0.3-0.1-0.6-0.1-1.1s-0.1-1-0.2-1.7l-0.3-3.4c0,0.3-0.1,0.7-0.1,1.1c-0.1,0.4-0.1,0.8-0.2,1.3
	c-0.1,1-0.2,1.6-0.2,2c0,0.4-0.1,0.6-0.1,0.7l-0.7,4.4l-1,5.7H504.9z"/>
<path d="M546.3,516h-17.1v-36.1h9.7v27.4h7.3V516z"/>
<path d="M575.8,516h-17.1v-36.1h9.7v27.4h7.3V516z"/>
<path d="M602.3,516h-9.7v-15.3l-9-20.8h10.2l1.8,5.4c0.3,1,0.7,2,0.9,3c0.3,1,0.5,1.9,0.7,2.8c0.4-1.3,0.7-2.5,0.9-3.4
	c0.3-1,0.5-1.7,0.7-2.3l1.8-5.4h10.1l-8.4,20.8V516z"/>
</svg>
