<?xml version="1.0" encoding="utf-8"?>
<!-- Generator: Adobe Illustrator 27.4.0, SVG Export Plug-In . SVG Version: 6.00 Build 0)  -->
<svg version="1.1" id="Layer_1" xmlns="http://www.w3.org/2000/svg" xmlns:xlink="http://www.w3.org/1999/xlink" x="0px" y="0px"
	 viewBox="0 0 871 612" style="enable-background:new 0 0 871 612;" xml:space="preserve">
<style type="text/css">
	.st0{fill:#F16554;}
	.st1{fill:#E9B4AB;}
	.st2{fill:#F9C0B6;}
	.st3{fill:#404040;}
	.st4{fill:none;stroke:#000000;stroke-width:3.8279;stroke-linecap:round;stroke-miterlimit:10;}
	.st5{enable-background:new    ;}
	.st6{fill:none;stroke:#000000;stroke-width:2.5519;stroke-linecap:round;stroke-miterlimit:10;}
	.st7{fill:#FFFFFF;}
	.st8{fill:#FFFFFF;stroke:#000000;stroke-width:3.7088;stroke-miterlimit:10;}
	.st9{fill:none;stroke:#000000;stroke-width:3.4724;stroke-miterlimit:10;}
	.st10{fill:none;stroke:#000000;stroke-width:1.8487;stroke-miterlimit:10;}
	.st11{fill:none;stroke:#000000;stroke-width:2.5957;stroke-linecap:round;stroke-miterlimit:10;}
	.st12{fill:none;stroke:#000000;stroke-width:1.9468;stroke-miterlimit:10;}
	.st13{fill:none;stroke:#000000;stroke-width:3;stroke-linecap:round;stroke-linejoin:round;stroke-miterlimit:10;}
	.st14{font-family:'Futura-Bold';}
	.st15{font-size:91.3613px;}
</style>
<g>
	<path d="M1.6,176.9c-2.7-30.5,16.3-48.9,37-50.7c15.5-1.4,30.3,4.7,36.1,15.7c-13.6-2.8-21.2,5.2-20.4,13.9
		c0.6,6.9,5.1,12.8,17.2,16.2c-11.8,3.7-24.8,16.2-23.5,31.3c0.5,5.3,2.9,11.1,7.7,16.9C26.7,222.7,4.1,206.2,1.6,176.9z"/>
	<path d="M92.4,169c-2.7-30.5,17.6-49,38.3-50.8c18.8-1.6,27.3,0.7,34.1,6.9c-11,0.8-20.9,8.2-20.2,16.4c0.7,8.1,6.1,12.6,19.7,16
		c-12.8,6.6-18.3,12.8-17.6,21c1.1,12.5,17.8,16.4,32.2,11.4c-4.8,11.7-11.8,20.5-39.8,22.9C117.5,214.7,94.9,198.2,92.4,169z"/>
	<path d="M189.6,160.5c-2.7-30.5,17.6-49,38.3-50.8c18.8-1.6,27.3,0.7,34.1,6.9c-11,0.8-20.9,8.2-20.2,16.4
		c0.7,8.1,6.1,12.6,19.7,16c-12.8,6.6-18.3,12.8-17.6,21c1.1,12.5,17.8,16.4,32.2,11.4c-4.8,11.7-11.8,20.5-39.8,22.9
		C214.7,206.2,192.1,189.7,189.6,160.5z"/>
	<path d="M288.2,168.5c19.5,7.5,31.7,1.6,30.9-7.3c-0.9-10.7-24.3-14.4-25.7-30.7c-1.3-15.3,7.7-27.3,26.6-28.9
		c20.5-1.8,33.5,9.3,33.5,19.8c-11.8-4.3-20.7-1.2-20,7c0.9,10,28.9,12.1,31,35.7c1.2,14.1-10.9,30-35.2,32.1
		C305.6,198.3,290.4,186.4,288.2,168.5z"/>
</g>
<g>
	<path d="M112.8,99.9c-1.6,0.1-2.9-0.2-3.8-1c-1-0.8-1.5-2-1.7-3.7l-0.5-6.2l2.6-0.2l0.5,6.2c0.1,1.1,0.4,1.8,0.9,2.2
		c0.5,0.4,1.1,0.6,1.9,0.6c0.8-0.1,1.4-0.4,1.8-0.9s0.5-1.3,0.5-2.3l-0.5-6.2l2.5-0.2l0.5,6.2c0.1,1.6-0.2,3-1,3.9
		C115.6,99.2,114.4,99.8,112.8,99.9z"/>
	<path d="M123.6,98.8l-1-11.2l2.1-0.2l7.3,7.5l-1,0.1l-0.7-8l2.6-0.2l1,11.2l-2.1,0.2l-7.3-7.5l1-0.1l0.7,8L123.6,98.8z"/>
	<path d="M139.6,97.4l-1-11.2l5.1-0.4c1.2-0.1,2.3,0,3.3,0.4c1,0.4,1.7,1,2.3,1.8c0.6,0.8,0.9,1.7,1,2.9c0.1,1.1-0.1,2.1-0.5,3
		c-0.4,0.9-1.1,1.6-2,2.1c-0.9,0.5-1.9,0.9-3.1,1L139.6,97.4z M142.1,95l2.3-0.2c0.7-0.1,1.4-0.3,1.9-0.6c0.5-0.3,0.9-0.8,1.2-1.3
		c0.3-0.6,0.4-1.2,0.3-1.9c-0.1-0.7-0.3-1.3-0.6-1.8c-0.3-0.5-0.8-0.9-1.4-1.1c-0.6-0.2-1.2-0.3-2-0.3l-2.3,0.2L142.1,95z"/>
	<path d="M158.4,93.6l6.1-0.5l0.2,2.1l-8.6,0.8l-1-11.2l8.4-0.7l0.2,2.1l-5.9,0.5L158.4,93.6z M157.8,89l5.4-0.5l0.2,2l-5.4,0.5
		L157.8,89z"/>
	<path d="M169.9,94.7l-1-11.2l4.8-0.4c1-0.1,1.9,0,2.6,0.3c0.8,0.3,1.3,0.7,1.8,1.2c0.4,0.6,0.7,1.3,0.8,2.1
		c0.1,0.8-0.1,1.6-0.4,2.2c-0.3,0.6-0.9,1.1-1.6,1.5c-0.7,0.4-1.5,0.6-2.5,0.7l-3.4,0.3l1.1-1.2l0.4,4.2L169.9,94.7z M172.1,90.5
		l-1.3-1.1l3.3-0.3c0.8-0.1,1.4-0.3,1.7-0.7c0.4-0.4,0.5-0.9,0.5-1.5c-0.1-0.6-0.3-1.1-0.7-1.4s-1-0.4-1.8-0.3l-3.3,0.3l1.1-1.3
		L172.1,90.5z M177,94.1l-3.2-3.8l2.8-0.2l3.2,3.8L177,94.1z"/>
	<path d="M188.5,93.3c-0.9,0.1-1.8,0-2.6-0.1s-1.5-0.4-2.1-0.8l0.7-2c0.5,0.3,1.1,0.5,1.8,0.7c0.7,0.2,1.4,0.2,2,0.2
		c0.5,0,0.9-0.1,1.2-0.3c0.3-0.1,0.5-0.3,0.7-0.5c0.1-0.2,0.2-0.4,0.2-0.6c0-0.3-0.2-0.5-0.4-0.7c-0.2-0.2-0.6-0.3-1-0.4
		c-0.4-0.1-0.8-0.1-1.3-0.2s-0.9-0.1-1.4-0.2c-0.5-0.1-0.9-0.3-1.3-0.5c-0.4-0.2-0.7-0.5-1-0.9c-0.3-0.4-0.4-0.8-0.5-1.4
		c-0.1-0.6,0.1-1.2,0.4-1.8c0.3-0.6,0.8-1,1.4-1.4c0.7-0.4,1.5-0.6,2.6-0.7c0.7-0.1,1.4,0,2.1,0.1c0.7,0.1,1.3,0.3,1.9,0.6l-0.6,2
		c-0.5-0.2-1.1-0.4-1.6-0.5c-0.5-0.1-1.1-0.1-1.6-0.1c-0.5,0-0.9,0.1-1.2,0.3c-0.3,0.1-0.5,0.3-0.6,0.5S186,85,186,85.2
		c0,0.3,0.2,0.5,0.4,0.7c0.2,0.2,0.6,0.3,1,0.3c0.4,0.1,0.8,0.1,1.3,0.2c0.5,0.1,1,0.1,1.4,0.3c0.5,0.1,0.9,0.3,1.3,0.5
		c0.4,0.2,0.7,0.5,1,0.8c0.3,0.4,0.4,0.8,0.5,1.4c0.1,0.6-0.1,1.2-0.4,1.8c-0.3,0.6-0.8,1-1.5,1.4C190.4,93,189.6,93.2,188.5,93.3z"
		/>
	<path d="M200.3,92.1l-0.8-9.1l-3.6,0.3l-0.2-2.1l9.7-0.9l0.2,2.1l-3.6,0.3l0.8,9.1L200.3,92.1z"/>
	<path d="M211,91.1l-1-11.2l2.1-0.2l7.3,7.5l-1,0.1l-0.7-8l2.6-0.2l1,11.2l-2.1,0.2l-7.3-7.5l1-0.1l0.7,8L211,91.1z"/>
	<path d="M225.7,89.8l4-11.6l2.6-0.2l6,10.7l-2.7,0.2l-5-9.5l1-0.1l-3.2,10.2L225.7,89.8z M228,87.2l0.5-2l5.8-0.5l0.8,1.9L228,87.2
		z"/>
	<path d="M242.5,88.4l-1-11.2l5.1-0.4c1.2-0.1,2.3,0,3.3,0.4c1,0.4,1.7,1,2.3,1.8c0.6,0.8,0.9,1.7,1,2.9c0.1,1.1-0.1,2.1-0.5,3
		c-0.4,0.9-1.1,1.6-2,2.1c-0.9,0.5-1.9,0.9-3.1,1L242.5,88.4z M244.9,86l2.3-0.2c0.7-0.1,1.4-0.3,1.9-0.6c0.5-0.3,0.9-0.8,1.2-1.3
		c0.3-0.6,0.4-1.2,0.3-1.9c-0.1-0.7-0.3-1.3-0.6-1.8c-0.3-0.5-0.8-0.9-1.4-1.1c-0.6-0.2-1.2-0.3-2-0.3l-2.3,0.2L244.9,86z"/>
	<path d="M258.9,86.9l-1-11.2l2.6-0.2l1,11.2L258.9,86.9z"/>
	<path d="M267.3,86.2l-1-11.2l2.1-0.2l7.3,7.5l-1,0.1l-0.7-8l2.6-0.2l1,11.2l-2.1,0.2l-7.3-7.5l1-0.1l0.7,8L267.3,86.2z"/>
	<path d="M288.8,84.5c-0.9,0.1-1.7,0-2.5-0.2c-0.8-0.2-1.4-0.6-2-1c-0.6-0.5-1.1-1-1.4-1.7c-0.4-0.7-0.6-1.4-0.7-2.3
		c-0.1-0.8,0-1.6,0.3-2.4c0.2-0.7,0.6-1.4,1.1-1.9c0.5-0.6,1.1-1,1.8-1.4c0.7-0.3,1.5-0.6,2.4-0.6c1-0.1,1.9,0,2.7,0.3
		c0.8,0.3,1.5,0.7,2.1,1.3l-1.5,1.7c-0.5-0.4-0.9-0.7-1.4-0.8c-0.5-0.2-1-0.2-1.6-0.2c-0.5,0-1,0.2-1.4,0.4
		c-0.4,0.2-0.8,0.5-1.1,0.8c-0.3,0.3-0.5,0.7-0.7,1.2c-0.1,0.5-0.2,0.9-0.1,1.5c0,0.5,0.2,1,0.4,1.4c0.2,0.4,0.5,0.8,0.9,1.1
		c0.4,0.3,0.8,0.5,1.2,0.6s1,0.2,1.5,0.1c0.5,0,1-0.2,1.5-0.4c0.5-0.2,0.9-0.5,1.3-1l1.6,1.7c-0.6,0.5-1.3,0.9-2,1.2
		C290.4,84.2,289.6,84.4,288.8,84.5z M290.8,82.6l-0.4-4.2l2.4-0.2l0.4,4.5L290.8,82.6z"/>
	<path d="M308.9,82.6l-0.8-9.1l-3.6,0.3l-0.2-2.1l9.7-0.9l0.2,2.1l-3.6,0.3l0.8,9.1L308.9,82.6z"/>
	<path d="M322.2,81.4l-2.6,0.2l-1-11.2l2.6-0.2L322.2,81.4z M327.1,76.4l-5.5,0.5l-0.2-2.2l5.5-0.5L327.1,76.4z M326.3,69.8l2.6-0.2
		l1,11.2l-2.6,0.2L326.3,69.8z"/>
	<path d="M338.1,77.9l6.1-0.5l0.2,2.1l-8.6,0.8l-1-11.2l8.4-0.7l0.2,2.1l-5.9,0.5L338.1,77.9z M337.5,73.3l5.4-0.5l0.2,2l-5.4,0.5
		L337.5,73.3z"/>
</g>
<g>
	<path d="M50.4,252.7c-1,0.1-1.9,0-2.8-0.3c-0.8-0.3-1.5-0.7-2-1.2c-0.5-0.5-0.8-1.2-0.9-1.9c-0.1-0.7,0-1.3,0.3-1.9
		c0.3-0.6,0.7-1.1,1.3-1.7c0.6-0.5,1.4-1.1,2.4-1.6c0.7-0.4,1.3-0.8,1.7-1.1c0.4-0.3,0.7-0.6,0.8-0.8c0.2-0.3,0.2-0.5,0.2-0.8
		c0-0.3-0.2-0.6-0.4-0.8c-0.3-0.2-0.6-0.3-1.1-0.2c-0.5,0-0.8,0.2-1.1,0.5s-0.4,0.6-0.3,1c0,0.2,0.1,0.4,0.2,0.6
		c0.1,0.2,0.3,0.4,0.5,0.6c0.2,0.2,0.6,0.5,1,0.9l8,6.2l-1.5,2.1l-8.8-6.9c-0.5-0.4-0.9-0.7-1.2-1.1c-0.3-0.3-0.6-0.7-0.7-1.1
		c-0.2-0.4-0.3-0.7-0.3-1.1c-0.1-0.7,0.1-1.3,0.4-1.9c0.3-0.6,0.8-1,1.4-1.3c0.6-0.3,1.4-0.6,2.2-0.6c0.8-0.1,1.5,0,2.2,0.2
		c0.6,0.2,1.1,0.5,1.5,1s0.6,1,0.7,1.7c0,0.6-0.1,1.1-0.3,1.6c-0.2,0.5-0.7,1-1.3,1.5c-0.6,0.5-1.4,1-2.3,1.5
		c-0.6,0.4-1.1,0.7-1.5,1c-0.4,0.3-0.6,0.6-0.8,0.9c-0.1,0.3-0.2,0.6-0.2,1c0,0.3,0.2,0.6,0.4,0.9c0.2,0.3,0.5,0.4,0.9,0.5
		c0.4,0.1,0.8,0.1,1.4,0.1c0.8-0.1,1.5-0.3,2.2-0.8c0.6-0.4,1.2-1.1,1.6-1.8c0.4-0.8,0.7-1.7,0.8-2.8l2.6,0.5
		c-0.1,1.4-0.5,2.6-1.2,3.7c-0.6,1.1-1.5,1.9-2.5,2.6C52.8,252.2,51.7,252.6,50.4,252.7z"/>
	<path d="M81,250.1c-1.1,0.1-2.1,0-3.1-0.3c-1-0.3-1.8-0.7-2.5-1.3s-1.3-1.3-1.8-2.2c-0.5-0.8-0.7-1.8-0.8-2.9c-0.1-1.1,0-2,0.3-3
		c0.3-0.9,0.8-1.7,1.4-2.4c0.6-0.7,1.4-1.3,2.3-1.7c0.9-0.4,1.9-0.7,3-0.8c1.2-0.1,2.3,0,3.4,0.3c1,0.3,1.9,0.9,2.6,1.6l-1.9,2.1
		c-0.5-0.5-1.1-0.9-1.7-1.1c-0.6-0.2-1.3-0.3-2-0.3c-0.7,0.1-1.2,0.2-1.8,0.5c-0.5,0.3-1,0.6-1.3,1.1c-0.4,0.4-0.6,0.9-0.8,1.5
		c-0.2,0.6-0.2,1.2-0.2,1.8c0.1,0.7,0.2,1.3,0.5,1.8c0.3,0.5,0.6,1,1.1,1.3c0.4,0.4,0.9,0.6,1.5,0.8s1.2,0.2,1.8,0.2
		c0.7-0.1,1.3-0.3,1.9-0.6c0.6-0.3,1.1-0.8,1.5-1.4l2.3,1.7c-0.6,0.9-1.4,1.6-2.3,2.1S82.2,250,81,250.1z"/>
	<path d="M96.2,248.5l-3.3,0.3l-1.2-14l3.3-0.3L96.2,248.5z M102.2,242.2l-6.8,0.6l-0.2-2.7l6.8-0.6L102.2,242.2z M101.3,233.9
		l3.2-0.3l1.2,14l-3.2,0.3L101.3,233.9z"/>
	<path d="M111.2,247.2l5-14.6l3.2-0.3l7.5,13.5l-3.4,0.3l-6.2-11.9l1.3-0.1l-4.1,12.8L111.2,247.2z M114.1,243.9l0.6-2.5l7.2-0.6
		l1.1,2.4L114.1,243.9z"/>
	<path d="M132.4,245.3l-1.2-14l6.1-0.5c1.3-0.1,2.4,0,3.3,0.3c0.9,0.3,1.7,0.9,2.3,1.6c0.6,0.7,0.9,1.6,1,2.6c0.1,1.1-0.1,2-0.5,2.8
		c-0.4,0.8-1.1,1.4-2,1.9c-0.9,0.5-1.9,0.8-3.2,0.9l-4.3,0.4l1.4-1.5l0.5,5.3L132.4,245.3z M135.2,240.1l-1.6-1.4l4.1-0.4
		c1-0.1,1.7-0.4,2.2-0.8c0.5-0.5,0.7-1.1,0.6-1.9c-0.1-0.8-0.4-1.3-0.9-1.7c-0.5-0.4-1.3-0.5-2.3-0.4l-4.1,0.4l1.3-1.7L135.2,240.1z
		 M141.3,244.5l-4-4.8l3.5-0.3l4,4.8L141.3,244.5z"/>
	<path d="M157.9,243.3c-1.1,0.1-2.1,0-3.1-0.3c-1-0.3-1.8-0.7-2.6-1.3c-0.7-0.6-1.3-1.3-1.8-2.2c-0.5-0.8-0.7-1.8-0.8-2.9
		c-0.1-1.1,0-2,0.3-3c0.3-0.9,0.8-1.7,1.4-2.4c0.6-0.7,1.4-1.3,2.3-1.7c0.9-0.4,1.9-0.7,3-0.8c1.2-0.1,2.4,0,3.4,0.3
		c1,0.3,1.9,0.9,2.7,1.6l-1.9,2.1c-0.6-0.5-1.2-0.9-1.8-1.1c-0.6-0.2-1.3-0.3-2-0.2c-0.7,0.1-1.3,0.2-1.8,0.5
		c-0.5,0.3-1,0.6-1.4,1.1c-0.4,0.4-0.6,0.9-0.8,1.5c-0.2,0.6-0.2,1.2-0.2,1.8c0.1,0.6,0.2,1.2,0.5,1.8c0.3,0.5,0.6,1,1.1,1.4
		c0.4,0.4,1,0.6,1.5,0.8c0.6,0.2,1.2,0.2,1.9,0.2c0.6-0.1,1.3-0.2,1.8-0.5c0.6-0.3,1.1-0.7,1.7-1.2l2,2.2c-0.7,0.7-1.6,1.2-2.5,1.6
		C159.9,243,158.9,243.2,157.9,243.3z M160.4,240.9l-0.5-5.3l3-0.3l0.5,5.7L160.4,240.9z"/>
	<path d="M173.6,239.1l7.6-0.7l0.2,2.6l-10.9,0.9l-1.2-14l10.6-0.9l0.2,2.6l-7.4,0.6L173.6,239.1z M172.8,233.3l6.7-0.6l0.2,2.5
		l-6.7,0.6L172.8,233.3z"/>
	<path d="M192.7,240.3c-1.1,0.1-2.2,0-3.3-0.2c-1.1-0.2-1.9-0.5-2.6-1l0.9-2.5c0.6,0.4,1.4,0.7,2.2,0.9c0.9,0.2,1.7,0.3,2.5,0.2
		c0.6-0.1,1.2-0.2,1.5-0.3s0.7-0.4,0.8-0.6c0.2-0.2,0.2-0.5,0.2-0.8c0-0.4-0.2-0.7-0.5-0.9c-0.3-0.2-0.7-0.3-1.2-0.4
		c-0.5-0.1-1-0.2-1.6-0.3c-0.6-0.1-1.2-0.2-1.8-0.3s-1.2-0.3-1.7-0.6c-0.5-0.3-0.9-0.6-1.3-1.1c-0.3-0.5-0.5-1.1-0.6-1.8
		c-0.1-0.8,0.1-1.5,0.4-2.2c0.4-0.7,1-1.3,1.8-1.8c0.8-0.5,1.9-0.8,3.2-0.9c0.9-0.1,1.8,0,2.6,0.1c0.9,0.1,1.7,0.4,2.3,0.7l-0.8,2.5
		c-0.7-0.3-1.3-0.5-2-0.6c-0.7-0.1-1.3-0.2-1.9-0.1c-0.6,0.1-1.1,0.2-1.5,0.3c-0.4,0.2-0.6,0.4-0.8,0.6c-0.2,0.3-0.2,0.5-0.2,0.8
		c0,0.4,0.2,0.7,0.5,0.9c0.3,0.2,0.7,0.3,1.2,0.4s1,0.2,1.6,0.2c0.6,0.1,1.2,0.2,1.8,0.3c0.6,0.1,1.1,0.3,1.6,0.6
		c0.5,0.2,0.9,0.6,1.3,1.1c0.3,0.5,0.5,1.1,0.6,1.8c0.1,0.8-0.1,1.5-0.5,2.2c-0.4,0.7-1,1.3-1.8,1.8S194,240.2,192.7,240.3z"/>
</g>
<g>
	<path class="st0" d="M255.1,398.3c0,0.1,0,0.2,0,0.3C255.1,398.5,255.1,398.4,255.1,398.3C255.1,398.3,255.1,398.3,255.1,398.3z"/>
	<path class="st0" d="M275.2,398.4c-0.9-0.1-1.9,0-2.9,0.3C273.3,398.3,274.3,398.2,275.2,398.4z"/>
	<path class="st1" d="M349.3,321.4c-0.1,0-0.3,0-0.4-0.1h0c0,0,0,0,0,0C349.1,321.4,349.2,321.4,349.3,321.4z"/>
	<path d="M217.7,435.8c-0.5-0.3-1.1-0.5-1.7-0.7c-2-0.5-4-1-6-1.4c-11.4-2.5-21-8.2-29.1-16.5c-5.4-5.6-9-12.2-11.3-19.6
		c-1.6-5.1-2.4-10.4-2.8-15.8c-0.3-3.7-0.4-7.4-0.2-11.1c0.1-1.3,0.1-2.6,0.2-3.9c0.2-1.9,0.4-3.8,0.7-5.7c0.2-1.1,0.4-2.3,0.6-3.4
		c0.1-0.8,0.3-1.7,0.5-2.6c0.2-1,0.4-2,0.7-3c0,0,0,0,0-0.1c0,0,0-0.1,0-0.1c0.4-1.7,0.9-3.3,1.4-4.9c0.3-1,0.6-2,1-2.9
		c0-0.1,0.1-0.3,0.1-0.4c0.4-1.1,0.8-2.2,1.2-3.3c0.5-1.2,1.1-2.5,1.7-3.7c0.5-1.1,1.1-2.2,1.7-3.2c0.3-0.6,0.7-1.2,1-1.8
		c0-0.1,0.1-0.1,0.1-0.2c0.3-0.5,0.6-0.9,0.9-1.4c6.5-10.3,15.3-17.7,26.3-22.4c1.2-0.5,2.3-1,3.6-1.4c0.9-1.6,1.9-3.1,3-4.6
		c-1.4,0.4-2.8,0.9-4.1,1.4c-2.1,0.8-4.2,1.7-6.3,2.7c-0.8,0.4-1.6,0.8-2.3,1.2c-0.1,0.1-0.3,0.1-0.4,0.2c-2.4,1.3-4.7,2.8-6.8,4.4
		c-0.7,0.5-1.4,1.1-2.1,1.6c-4.6,3.7-8.5,8.2-12,13.2c-0.4,0.6-0.9,1.3-1.3,1.9c-0.3,0.4-0.5,0.8-0.8,1.2c-1.3,2.1-2.4,4.2-3.5,6.4
		c-0.2,0.4-0.4,0.8-0.5,1.2l0,0.1c-0.5,1.2-1,2.3-1.5,3.5c-0.2,0.4-0.3,0.8-0.5,1.3c-0.5,1.2-0.9,2.4-1.3,3.7c0,0,0,0,0,0
		c-0.3,0.8-0.5,1.6-0.7,2.4c-0.4,1.5-0.8,2.9-1.2,4.4c-2.1,8.5-2.9,17.2-2.6,26c0.2,7,1.2,14,3.3,20.7c2.8,8.7,7.3,16.4,14,22.7
		c7.6,7.2,16.4,12.3,26.5,15.1c0.5,0.1,1.1,0.3,1.6,0.3h0c0.4,0.1,0.9,0.2,1.4,0.2c0.4,0,0.9,0.1,1.3,0.2c1.4,0.1,2.8,0.1,4.2,0.1
		c0.6,0,1.2-0.1,1.7-0.4c0.3-0.1,0.6-0.5,0.6-0.7C218.1,436.4,217.9,436,217.7,435.8z M386.2,316.8c-1.7-3.7-4.2-6.2-8.2-8.6
		c-0.6-2.5-2-4.7-4.2-6.2c-2.1-1.5-4.5-2.1-7.2-1.6c-3.5-3.4-7.6-5.3-12.8-4.6c-0.1-0.5-0.2-1-0.2-1.5c-0.1-2.9-0.6-5.7-1.5-8.4
		c-0.3-1-0.8-2.1-1.4-3c-1.4-2.2-3.4-3.1-5.9-2.8c-2.5,0.3-4.4,1.6-5.4,3.9c-0.4,0.9-0.6,1.8-0.7,2.8c-0.1,1.7-0.2,3.5-0.1,5.2
		c0.1,4.3,0.7,8.6,1.4,12.9c0.1,0.2,0.1,0.5,0.1,0.9c-0.5,0.2-0.9,0.3-1.4,0.5c-0.4,0.1-0.8,0.3-1.2,0.4c-7.7,3-9.1,10.8-5.3,16.8
		c1.4,2.2,3.2,4.1,5.5,5.5c0.4,0.3,0.9,0.5,1.3,0.8c-0.3,7.9-0.3,15.8-0.8,23.6c-0.6,8.4-1.4,16.7-3.5,24.9c-1,3.9-2.3,7.8-4.1,11.4
		c-1.6,3.3-3.5,6.3-6.2,9.3c0-0.7-0.1-1.1,0-1.5c1.4-4.5,2.3-9.1,2.8-13.7c0.3-2.7,0.5-5.4,0.5-8c0-8.4-1-16.6-3.6-24.5
		c-2.7-8.3-7.1-15.7-12.9-22.3c-4.1-4.7-8.6-8.7-13.5-12.3c-0.7-0.5-1.4-1-2.1-1.5c-0.3,0.8-1,2.3-1.6,3.4c0,0,0,0,0,0
		c0.7,0.5,1.4,1,2.1,1.5c0.2,0.1,0.4,0.3,0.6,0.4c0.1,0.1,0.2,0.2,0.3,0.3c0.9,0.7,1.8,1.4,2.7,2.2c0.1,0.1,0.2,0.1,0.3,0.2l0,0
		c1.4,1.2,2.7,2.4,4,3.6c0.1,0,0.1,0.1,0.2,0.1c5.5,5.3,10.1,11.2,13.4,18.1c2.5,5.2,4.1,10.6,5.2,16.3c1.2,6.5,1.5,13.1,1,19.6
		c-0.8,9.4-2.9,18.6-7.6,27c-2,3.5-3.8,7.2-6.4,10.4c-1.7,2.2-3.6,4.2-6.1,5.6c-1.1,0.6-2,1.4-2.5,3c0.8,0,1.4,0.1,1.8,0
		c2.6-0.7,5.1-1.7,7-3.7c2.1-2.2,4.1-4.5,5.6-7.1c1.4-2.4,2.8-4.8,4.1-7.2c0.5-0.9,1.1-1.7,2.1-2.3c1.6-1,2.8-2.3,4.1-3.6
		c5.2-5.3,9-11.5,11.2-18.7c0.9-2.8,1.6-5.6,2.3-8.5c1.1-5,1.6-10.1,2.2-15.1c0.8-7.3,1.1-14.7,1.1-22c0-2.4,0.1-4.8-0.5-7.2
		c-0.1-0.3-0.2-0.6-0.1-0.8c0.6-1.7-0.4-2.6-1.5-3.5c-1.2-1-2.3-2.1-3.4-3.2c-1.5-1.5-2.6-3.2-3.1-5.3c-0.7-3.2,0.4-6.1,3.2-7.8
		c1.3-0.9,2.8-1.4,4.4-1.6c2.9-0.3,5.9-0.3,8.7,0.5c1.4,0.4,2.8,1,4,1.9c1.4,1,1.8,2.4,1,4.1c-0.8,1.9-2.4,3.1-4.6,3.3
		c-0.7,0-1.4,0-2.1,0.1c-0.6,0.1-1.2,0.2-1.7,0.4c-0.2,0.1-0.4,0.3-0.6,0.4c-0.1,0.6,0.3,0.9,0.7,1c0.5,0.1,1,0.3,1.5,0.3
		c0.2,0.1,0.5,0.1,0.7,0.2h0c0.1,0,0.3,0,0.4,0.1c0.1,0,0.3,0,0.4,0.1c0.8,0.1,1.5,0,2.3,0c1.6,2,3.8,2.8,6.1,3.2
		c0.8,0.2,1.5,0.4,1.9,1.1c1.7,2.4,4.2,3.2,7.1,2.9c0.3,0,0.7-0.1,1.4-0.1c0.3,0.3,0.6,0.9,1,1.3c1.3,1.3,2.8,2.1,4.5,1.9
		c0.1,0,0.3,0,0.4-0.1c0.2-0.1,0.5-0.1,0.7-0.2c2.4-0.9,3.7-2.8,4-5.3c0.1-0.8,0.2-1.7-0.7-2.5c-0.3,0.4-0.5,0.7-0.7,1
		c-0.5,1.2-1.1,2.3-2,3.3c-1.5,1.6-3.4,1.4-4.5-0.6c-0.4-0.7-0.6-1.4-0.9-2.1c-0.3-0.7-0.5-1.5-0.8-2.2c-0.4-0.9-1-1.3-1.5-1.2
		c-0.8,0.2-0.9,1-1,1.7c-0.1,0.4,0,0.8,0,1.3c0,0.3,0.1,0.7,0.1,1c-0.6,0.7-1.3,0.4-2,0.2c-0.9-0.3-1.8-0.7-2.3-1.6
		c-0.4-0.6-0.7-1.2-1-1.8c-0.4-0.7-0.8-1.4-1.2-2c-0.3-0.4-0.7-0.8-1.3-0.7c-0.6,0.1-0.8,0.6-1,1.1c0,0.3-0.1,0.5-0.2,0.9
		c-1.2-0.4-2.3-0.7-3.2-2c0.6-0.4,1.2-0.8,1.6-1.3c1-1,1.6-2.2,1.8-3.7c0.4-2.4-0.2-4.5-2.2-6c-1.1-0.8-2.2-1.4-3.3-2
		c-0.6-0.3-1.3-0.5-2-0.8c0.2-1.6,0.7-3,1.3-4.5c0.5-1.3,1.5-2.1,2.9-2.3c0.7-0.1,1.5-0.3,2.3-0.2c2.3,0.3,4.5,1,6.8,2.4
		c-0.5,0.4-1,0.7-1.3,1.1c-0.7,0.8-0.8,1.6-0.4,2.1c0.5,0.6,1.2,0.6,1.9,0.4c0.8-0.3,1.5-0.4,2.2-0.8c2.4-1.1,4.6-0.4,6.5,1.1
		c0.7,0.5,1.3,1.1,2.1,1.8c-0.4,0.4-0.6,0.6-0.8,0.9c-0.9,1-0.8,1.5,0.4,2.1c2.7,1.2,4.7,3.1,6.6,5.3c0.2,0.2,0.4,0.5,0.6,0.7
		c0.2,0.2,0.3,0.5,0.5,0.7c0.5,0.7,0.9,1.5,1.2,2.3c0.1,0.2,0.2,0.4,0.2,0.7c0,0.1,0.1,0.2,0.1,0.3c0.1,0.2,0.1,0.4,0.2,0.6
		c0.1,0.3,0.1,0.6,0.2,0.8c0,0.1,0,0.1,0,0.2c0,0.1,0,0.2,0.1,0.3c0,0,0,0.1,0,0.1c0,0.1,0,0.2,0,0.2c0,0.1,0,0.3,0,0.4
		c0,0,0,0.1,0,0.1c0,0.3,0,0.6,0,0.9c0,0.3,0,0.5,0,0.8c0,0.2,0,0.4-0.1,0.6c0,0.2,0,0.3-0.1,0.5c-0.1,0.6-0.2,1.3-0.4,1.9
		c-0.5,1.7-1.1,3.4-1.8,5.1c-0.7,1.6-1.7,3-3.2,4c-1.2,0.8-1.9,2-2,3.4c-0.2,2.9-0.6,5.9-0.7,8.8c-0.3,6.5-0.4,13-0.8,19.4
		c-0.4,5.9-1,11.9-1.8,17.8c-0.7,5-1.5,9.9-2.7,14.8c-4.3,16.9-13.2,31-26.3,42.6c-4.5,4-9.4,7.6-14.3,11.2c-2.2,1.6-4.2,3.2-6.3,5
		c-1,0.8-1.7,1.7-2.2,2.8c-0.2,0.4-0.3,0.8,0.1,1.2c0.1,0,0.1,0.1,0.2,0.1c0.3,0.2,0.8,0.3,1.3,0.1c0.3-0.2,0.6-0.3,0.9-0.5
		c4.5-3.1,8.9-6.2,13.4-9.4c4.2-2.9,8.1-6.2,11.9-9.7c14.3-13.4,23.1-29.8,26.7-49c1.2-6.5,2-13.1,2.7-19.8
		c0.8-8.4,1.1-16.8,1.4-25.1c0.1-2.5,0.1-5-0.3-7.5c-0.2-1.2-0.1-2.4-0.2-3.5c0.2-0.2,0.3-0.4,0.4-0.5c2.2-0.8,3.7-2.5,4.8-4.5
		c1.6-3,2.7-6.2,3-9.6C388.1,322.2,387.4,319.4,386.2,316.8z M351.2,296.8c0,0.1,0,0.2-0.1,0.3c-0.2,0.1-0.3,0.3-0.4,0.4
		c-0.1,0.1-0.3,0.3-0.4,0.4c-0.4,0.4-0.7,0.9-1,1.4c-0.1,0.1-0.1,0.2-0.2,0.4c-0.1,0.1-0.1,0.2-0.2,0.4c-0.1,0.2-0.2,0.4-0.2,0.5
		c-0.1,0.1-0.1,0.3-0.2,0.4c-0.1,0.1-0.1,0.3-0.1,0.4c-0.1,0.4-0.2,0.8-0.3,1.2c0,0.2-0.1,0.5-0.1,0.7c0,0,0,0,0,0.1c0,0,0,0,0,0
		c-0.1,0.4-0.1,0.9-0.1,1.4c0,0.2,0,0.4,0,0.6v0h-4.5v0c-0.1-0.3-0.1-0.6-0.1-0.8c0,0,0,0,0-0.1c-0.1-0.3-0.1-0.6-0.1-0.8
		c0-0.3-0.1-0.5-0.1-0.8c-0.2-1.9-0.3-3.8-0.5-5.7c-0.2-1.9-0.3-3.8-0.5-5.7c0-0.2,0-0.4-0.1-0.7c0-0.6,0-1.1,0-1.7
		c0-0.2,0-0.5,0.1-0.7c0-0.2,0-0.4,0.1-0.5c0-0.2,0.1-0.5,0.1-0.7c0.1-0.3,0.1-0.6,0.1-0.8l0-0.2c0,0,0-0.1,0-0.1c0,0,0,0,0,0v0
		c0-0.1,0.1-0.2,0.1-0.3v0c0.1-0.4,0.3-0.7,0.4-1c0.5-0.7,1.1-1.1,2-1.3c1.2-0.2,2.1,0,2.8,0.8l0.2,0.3h0c0,0,0,0,0,0
		c0.1,0.1,0.2,0.2,0.2,0.3c0.1,0.2,0.3,0.5,0.4,0.8c0.1,0.2,0.2,0.4,0.3,0.5c0.1,0.2,0.1,0.4,0.2,0.6c0,0,0,0.1,0,0.1l0,0
		c0.7,2.7,1.3,5.4,1.9,8.1c0.1,0.4,0.2,0.8,0.3,1.2c0,0,0,0.1,0,0.1c0,0,0,0.1,0,0.1C351.2,296.5,351.2,296.7,351.2,296.8z"/>
	<path d="M283.9,400.2c-0.7,2.9-2.1,5.5-4.2,7.6c-3.8,3.8-8.5,5.5-13.9,5.1c-4.9-0.3-9-2.3-12.1-6.2c-4.2-5.2-5.5-11.2-4.5-17.8
		c0.4-2.8,1.4-5.3,2.9-7.7c0.7-1.1,1.6-2.1,2.8-2.7c0.5-0.3,1.1-0.4,1.7-0.4c0.1,0,0.2,0,0.3,0c0.1,0,0.2,0.1,0.3,0.1
		c0.5,0.3,0.7,0.9,0.4,1.5c-0.5,0.8-1.1,1.5-1.7,2.3c-1.3,1.7-2.4,3.6-3,5.7c-0.1,0.6-0.3,1.2-0.4,1.8c0,0.3-0.1,0.6-0.1,0.9
		c0,0.3,0,0.6-0.1,0.9c0,0.4-0.1,0.7,0,1.1c0,0.1,0,0.2,0,0.3c0,0.4,0,0.7,0,1.1c0,0.3,0,0.7,0.1,1c0,0.3,0,0.7,0.1,1
		c0,0.3,0.1,0.7,0.2,1v0c0.1,0.4,0.1,0.7,0.3,1.1c0.1,0.4,0.3,0.8,0.4,1.3c0.1,0.3,0.2,0.6,0.3,0.8c0.1,0.3,0.2,0.5,0.3,0.8
		c0,0,0,0,0,0c0.3,0.5,0.5,1.1,0.9,1.7c2.9,5.1,7.3,7.7,13.3,7.3c5.5-0.4,9.3-3.3,11.7-8.1c-0.4-0.6-0.7-1-1.1-1.5
		c-0.2-0.2-0.3-0.3-0.5-0.5c-0.2-0.1-0.3-0.3-0.5-0.4c-0.4-0.3-0.7-0.5-1.1-0.7c-0.3-0.1-0.5-0.2-0.7-0.3c-0.3-0.1-0.5-0.1-0.8-0.2
		c-0.9-0.1-1.9,0-2.9,0.3c-0.2,0.1-0.4,0.1-0.6,0.2c-0.2,0.1-0.4,0.2-0.6,0.3c-0.4,0.2-0.7,0.4-1.1,0.6c-0.2,0.1-0.4,0.3-0.7,0.4
		c0.2,0.6,0.4,1.2,0.6,1.9c0.2,0.7,0.4,1.5-0.4,2.3c-0.2-0.4-0.4-0.7-0.5-1c-1.8-3.2-4.4-5-8.2-4.7c-0.9,0.1-1.9,0.3-2.8,0.5
		c-0.7,0.1-1.3,0.3-2,0.4c-0.3,0-0.7-0.3-0.8-0.5c0-0.1-0.1-0.3-0.1-0.5c0-0.1,0-0.2,0-0.3c0,0,0,0,0,0c0-0.1,0-0.1,0.1-0.2
		c0.5-0.5,1-1,1.6-1.3c3.7-1.5,7.2-1.7,10.5,1c0.2,0.1,0.4,0.2,0.5,0.2c1.1-0.7,2-1.4,3-1.7c3.2-1.1,6.1-0.5,8.7,1.6
		c0.4,0.3,0.9,0.7,1.4,1.1c0.1-0.4,0.2-0.8,0.2-1.1c0.1-0.5,0.2-0.9,0.2-1.4c0.6-5.4-0.5-10.3-3.8-14.7c-3.1-4.2-9.6-6.8-15.3-4.9
		c-0.9,0.3-1.8,0.7-2.7,1c-0.5,0.2-1,0.4-1.5-0.1c0-0.1,0.1-0.3,0.1-0.4c0-0.1,0.1-0.2,0.1-0.2c1.8-2.1,4.1-3.1,6.8-3.3
		c6.3-0.3,11.5,2,15.2,7.2C284.5,386.9,285.6,393.4,283.9,400.2z"/>
	<path d="M206.1,439.7c-0.6,0.6-1.3,1.1-2.1,1.5c-1.9,1.1-3.9,2.2-5.8,3.4c-5.8,3.5-9.8,8.6-12.6,14.7c-1.3,2.7-2.2,5.6-3.1,8.5
		c-2.4,8.4-3.4,16.9-3.5,25.6c-0.1,3.8,0.1,7.6,0.1,11.4c0.3,5,0.6,10,0.3,15c0,0.3,0,0.6-0.1,0.9c0,0.2-0.1,0.5-0.1,0.7
		c0,0,0,0.1,0,0.2c-0.1,0.5-0.5,0.9-1.1,0.9c-0.6,0-1-0.4-1.1-0.9c-0.1-0.4-0.3-0.8-0.3-1.3c-0.3-2.1-0.8-4.3-0.9-6.4
		c-0.2-5.7-0.3-11.4-0.4-17.1c-0.1-6.9,0.4-13.8,1.6-20.6c1.1-6.2,2.7-12.1,5.2-17.9c3.8-8.8,10.2-15,18.8-19.1
		c0.9-0.4,1.9-0.8,2.9-1.1c0.5-0.2,1-0.2,1.5-0.2c0.4,0,0.9,0.3,1,0.6C206.4,438.8,206.3,439.5,206.1,439.7z"/>
	<path d="M328.2,520.2c-0.1,0.5-0.4,1-1,1c-0.6,0.1-1-0.2-1.2-0.8c0,0,0-0.1,0-0.1c-0.3-0.7-0.4-1.5-0.6-2.3
		c-1.4-6.1-2.2-12.2-3-18.4c-1-6.7-1.7-13.5-2.5-20.3c-0.3-2.8-0.4-5.5-0.6-8.6c0.1-1.1,0.3-2.6,0.5-4.1c0-0.1,0.1-0.2,0.2-0.3
		c0.1-0.1,0.1-0.1,0.1-0.1c0.1-0.1,0.1-0.1,0.2-0.1c0.1,0,0.1-0.1,0.2-0.1c0.1,0,0.2,0.1,0.4,0.1c0.3,0.1,0.6,0.3,0.7,0.4
		c0.3,1,0.5,2,0.7,3c0.4,3.1,0.7,6.2,1.1,9.3c0.9,6.9,1.9,13.9,2.9,20.8c0.9,5.8,1.8,11.6,2.2,17.5
		C328.2,518.1,328.2,519.2,328.2,520.2z"/>
	<path d="M222.8,520.1c0,0.1-0.1,0.3-0.1,0.4c0,0.1-0.1,0.1-0.1,0.2c0,0.1-0.1,0.1-0.2,0.2c-0.1,0.1-0.2,0.1-0.3,0.2
		c-0.1,0-0.2,0.1-0.3,0.1c-0.2,0-0.4,0-0.6,0c-0.2,0-0.5-0.1-0.7-0.3c-0.4-0.4-0.9-0.9-1.1-1.4c-0.3-0.6-0.5-1.3-0.6-2
		c-0.7-5.2-1.4-10.4-2.1-15.7c-0.5-4.3-0.9-8.6-1.4-12.9c-0.3-3.5-0.6-7-0.9-10.6h0.1c0-1.4,0-2.8,0-4.2c0-0.7,0.2-1.4,0.4-2
		c0.1-0.4,0.5-0.8,1-0.7c0.3,0.1,0.7,0.3,0.7,0.6c0.1,0.5,0.3,1.1,0.3,1.6c0.1,0.4,0.1,0.8,0.2,1.2c0.3,3.1,0.6,6.2,0.9,9.3
		c0.3,2.8,0.7,5.6,1.1,8.5c0.6,4.5,1.3,9,1.9,13.6c0.5,3.8,1.2,7.5,1.7,11.2C223,518.4,223,519.2,222.8,520.1z"/>
	<path d="M246,360c-0.6,2.1-2.6,2.7-4.2,1.3c-1.2-1.1-1.8-2.5-1.9-4.1c0.1-1.3,0.5-2.4,1.7-3c0.7-0.4,1.3-0.4,2,0
		C245.3,355.2,246.5,358,246,360z"/>
	<path d="M292.6,354.6c-0.7,1.4-2.5,1.7-3.7,0.6c-1-1.1-1.6-2.4-1.6-4c0-0.2,0-0.4,0.1-0.7c0.4-2,2.3-2.7,3.9-1.5
		C292.8,350.1,293.4,352.8,292.6,354.6z"/>
	<path class="st2" d="M342.3,286.4c-0.2,0.9-0.3,1.9-0.4,2.8C342,288.3,342.1,287.3,342.3,286.4c0-0.2,0.1-0.4,0.1-0.6
		C342.4,286,342.3,286.2,342.3,286.4z"/>
	<path class="st2" d="M342,291.6c0.2,1.9,0.3,3.8,0.5,5.7C342.3,295.4,342.1,293.5,342,291.6c0-0.2-0.1-0.4-0.1-0.7
		C341.9,291.1,341.9,291.3,342,291.6z"/>
	<path class="st2" d="M342.4,285.8c0.1-0.4,0.3-0.7,0.4-1C342.7,285.1,342.6,285.4,342.4,285.8z"/>
	<path class="st2" d="M349,286.8c-0.1-0.4-0.3-0.8-0.5-1.1c-0.3-0.6-0.6-1-0.9-1.4c0.3,0.3,0.6,0.8,0.9,1.4
		C348.7,286.1,348.9,286.4,349,286.8z"/>
	<path class="st1" d="M347.9,304.8c0.1-2,0.5-3.8,1.5-5.4C348.4,301,348,302.8,347.9,304.8z"/>
	<path class="st1" d="M349.3,299.3c0.3-0.5,0.6-1,1-1.4C349.9,298.4,349.6,298.8,349.3,299.3z"/>
	<path class="st1" d="M351.2,297.1c0-0.1,0-0.2,0.1-0.3C351.2,296.9,351.2,297,351.2,297.1c-0.3,0.3-0.6,0.6-0.8,0.9
		C350.6,297.6,350.8,297.3,351.2,297.1z"/>
	<path class="st1" d="M351.2,296.4c0-0.1,0-0.1,0-0.2c-0.1-0.4-0.2-0.8-0.3-1.2c0.1,0.4,0.2,0.8,0.3,1.2
		C351.2,296.3,351.2,296.3,351.2,296.4z"/>
	<path d="M178.4,331.5l-0.2,0c-0.3,0-0.6,0.1-0.9,0.1c-0.2,0-0.4,0.1-0.6,0.1l-0.3-2.1l-0.1-0.4c0.3,0,0.5-0.1,0.8-0.1
		c0.2,0,0.4-0.1,0.6-0.1l0.2,0l0.2,1.3L178.4,331.5z"/>
	<polygon points="171.2,338.6 170.7,338.4 171.5,336 172,336.1 	"/>
	<path d="M299.9,323.1c0.1,0,0.1,0.1,0.2,0.1L299.9,323.1L299.9,323.1z"/>
	<path d="M301.2,320.8l-1.3,2.2c-0.1-0.1-0.2-0.1-0.3-0.1c-1.5-0.6-3.6-0.7-5.1-1.1c-0.1,0-0.2-0.1-0.3-0.1
		c-5.8-1.6-12.1-0.9-18.1-0.8c-5.9,0.1-12.9,0.4-19.9,1.4c-14.6,2.2-29.6,7.7-45.6,17c-14.2,8.2-27.6,18.3-40.5,28
		c-1.3,1-2.7,2-3.6,3.3c-0.1,0.1-0.1,0.2-0.2,0.2l-2.1-1.4c0.7-1,1.6-1.9,2.5-2.7c0.6-0.5,1.3-1,1.9-1.4c10.6-8,21.6-16.3,33.1-23.6
		c0.8-0.5,1.6-1,2.4-1.5c1.7-1.1,3.5-2.1,5.3-3.1c16.3-9.4,31.5-15,46.5-17.3c7.1-1.1,14.2-1.3,20.2-1.5c5.7-0.1,11.6-0.1,17.2,1.2
		c0.9,0.2,1.7,0.4,2.6,0.7c0.2,0.1,0.5,0.1,0.7,0.2c0.1,0,0.2,0.1,0.4,0.1C298.2,320.8,300.1,320.3,301.2,320.8z"/>
	<path d="M201.7,341.8c-11.5,7.3-22.5,15.5-33.1,23.6c-0.6,0.4-1.2,0.9-1.9,1.4c0.2-1.9,0.4-3.8,0.7-5.7c0.2-1.1,0.4-2.3,0.6-3.4
		c0.1-0.8,0.3-1.7,0.5-2.6c0.2-1,0.4-2,0.7-3c0,0,0,0,0-0.1c0,0,0-0.1,0-0.1c0.4-1.7,0.9-3.3,1.4-4.9c0.3-1,0.6-2,1-2.9
		c0-0.1,0.1-0.3,0.1-0.4c0.4-1.1,0.8-2.2,1.2-3.3c0.5-1.2,1.1-2.5,1.7-3.7c0.5-1.1,1.1-2.2,1.7-3.2c0.3-0.6,0.7-1.2,1-1.8
		c0-0.1,0.1-0.1,0.1-0.2c0.3,0,0.6-0.1,0.9-0.1l0.2,0l-0.2-1.3c6.5-10.3,15.3-17.7,26.3-22.4C199.7,318.7,200.8,331.4,201.7,341.8z"
		/>
	<path class="st3" d="M295.5,315.2c-0.3,0.8-1,2.3-1.6,3.4c-0.3,0.5-0.5,1-0.6,1.1c-5.6-1.3-11.5-1.3-17.2-1.2
		c-6,0.1-13.1,0.4-20.2,1.5c-15,2.2-30.2,7.9-46.5,17.3c-1.8,1-3.5,2.1-5.3,3.1c-0.9-10.4-1.7-22.9,3.5-33c0.2-0.3,0.3-0.6,0.5-0.9
		c0.9-1.6,1.9-3.1,3-4.6c3.5-4.5,7.8-8.1,11.5-11c15.9-12.3,31.6-18.8,46.7-19.3c5.6-0.2,10,0.6,13.6,2.3
		c6.4,3.1,11.3,10.3,13.5,19.7C298.2,301.3,297.8,308.9,295.5,315.2z"/>
	<path d="M295.9,321.3c0,0.1-0.2,0.2-0.4,0.4C295.6,321.5,295.7,321.3,295.9,321.3z"/>
	<path d="M297.6,316.7c-0.5,1.2-0.4,2.3-1,3.4c0,0.1,0.3,0.4,0.4,0.5c0,0,0,0,0,0.1c0,0-0.1,0.1-0.1,0.1c-0.3,0.4-0.7,0.4-1,0.5
		c0.1-0.2-0.8,0.3-0.8,0.3l-2.1-1.5c0.3-0.5,0,0,0.3-0.5c0.1-0.1,0.3-0.5,0.6-1.1c0.5-1.1,1.3-2.6,1.6-3.4c2.4-6.3,2.8-13.9,1-21.6
		c-2.1-9.4-7-16.5-13.5-19.7c-3.6-1.7-8-2.5-13.6-2.3c-15.1,0.5-30.8,7-46.7,19.3c-3.7,2.9-8.1,6.5-11.5,11c-1.1,1.4-2.2,3-3,4.6
		c-0.2,0.3-0.3,0.6-0.5,0.9c-5.2,10.2-4.4,22.6-3.5,33c0.1,0.5,0.1,1.1,0.2,1.6l-2.5,0.2c0-0.1,0-0.2,0-0.3c-0.9-10.4-2-23.1,2.8-34
		c0.3-0.6,0.5-1.1,0.8-1.7c0.5-1,1.1-2,1.7-2.9c3.9-6.1,9.5-10.8,14.1-14.4c16.3-12.6,32.5-19.3,48.2-19.8c6-0.2,10.9,0.6,14.8,2.6
		c7.1,3.5,12.5,11.3,14.8,21.4C300.9,301.5,300.4,309.8,297.6,316.7z"/>
	<path d="M198,307.3c-2.4,1.3-4.7,2.8-6.8,4.4c-0.2-0.6-0.5-1.6-0.4-1.9c0.2-0.7,0.7-1.4,1.4-1.8c1.4-0.8,3.3-0.8,4.9-0.8
		C197.5,307.2,197.8,307.3,198,307.3z"/>
	<path d="M201.5,307.4l-2.5,0.4c0-0.1-0.3-0.3-0.9-0.4c-0.2-0.1-0.5-0.1-0.9-0.1c-1.7,0-3.5,0-4.9,0.8c-0.7,0.4-1.2,1.1-1.4,1.8
		c-0.1,0.3,0.2,1.3,0.4,1.9c0.1,0.1,0.1,0.2,0.1,0.3l-2.2,1.3c0,0,0,0,0,0c-0.5-0.9-1.1-3-0.8-4.1c0.4-1.4,1.3-2.7,2.6-3.4
		c2-1.1,4.3-1.1,6.2-1.1c1.6,0,2.9,0.5,3.6,1.2C201.2,306.3,201.4,306.8,201.5,307.4z"/>
	<g>
		<path class="st4" d="M211.3,437.9c31.8,5.3,60.6,4.1,89.7-10.8"/>
		<path class="st4" d="M177.6,503.1c13,0,25.9,0,38.9,0"/>
		<path class="st4" d="M331.3,415.5c6.6,10.5,9.5,23.1,8.1,35.4"/>
		<g>
			<path d="M274.3,465.6c-4.7,0.8-7.9,5.2-7.2,9.9c0.8,4.7,5.2,7.9,9.9,7.2s7.9-5.2,7.2-9.9S279,464.9,274.3,465.6z M277,482.4
				c-4.6,0.7-8.9-2.4-9.6-7c-0.4-2.6,0.4-5.2,2.1-7c0.3-0.4,0.7-0.7,1.1-1c1.1-0.8,2.3-1.4,3.7-1.6c1-0.2,2-0.1,3,0.1
				c1.1,0.2,2.2,0.7,3.1,1.3l0,0c0.6,0.4,1.1,0.9,1.6,1.4l0,0c1,1.1,1.6,2.5,1.9,4.1c0.2,1.2,0.1,2.4-0.2,3.5c0,0,0,0,0,0
				C282.9,479.4,280.3,481.9,277,482.4z"/>
		</g>
		<g>
			<path d="M281.1,476.5c-0.1,0.2,0.1,0.3,0.1,0.5c0,0.2-0.1,0.6-0.2,0.7c-0.2,0.2-0.6,0.6-0.7,0.8c-0.1,0.2-0.4,1-0.5,1.1
				c-0.1,0.1-0.3,0.2-0.5,0.2c-0.2,0-0.1,0.2-0.1,0.4c0,0.2-0.4,0.3-0.5,0.4c-0.1,0.1-0.4,0.2-0.4,0.4c0,0.1,0.1,0.4,0,0.5
				c-0.1,0.1-0.2,0-0.2,0.1c0,0.1,0.2,0.1,0.3,0.1s0,0.1-0.1,0.2c0,0-0.6,0-0.7,0c-0.2,0-0.2-0.7-0.3-0.8s0.1-0.5,0.2-0.7
				c0.1-0.2-0.1-1.1-0.2-1.5c-0.4,0.1-1.7-1.1-1.8-1.2c-0.1-0.1-0.1-0.2-0.1-0.3s-0.1-0.5-0.1-0.6c0-0.2,0.3-0.3,0.3-0.4
				c0-0.1-0.1-0.6-0.2-0.7c-0.1-0.1-0.2,0.2-0.4,0.2c-0.2,0.1-0.5-0.2-0.6-0.2c-0.1,0-0.4-0.3-0.5-0.4c-0.1-0.1-0.3,0.1-0.4,0.1
				c-0.1,0-0.1-0.2-0.3-0.2s-1.2-0.2-1.3-0.2c-0.1,0-0.3-0.2-0.4-0.4c0-0.2-0.2-0.5-0.2-0.6c-0.1-0.1-0.4-0.3-0.4-0.2
				s0.1,0.3,0.2,0.4c0.1,0.1,0.2,0.3,0,0.2c-0.2,0-0.5-0.7-0.5-0.7l-0.3-0.8l-0.2-0.3l-0.2-1l0.5-0.9l-0.1-0.7l0-0.9l-0.8-0.3
				l-0.1,0l1.1-1.1c0,0,0,0,0.1,0.1c0.1,0.1,0.3,0.2,0.5,0.3c0.3,0.2,0.3,0.3,0.4,0.3c0.1,0,0.3,0,0.5,0.1c0.2,0.1,0.1,0,0.1-0.2
				c0-0.2,0-0.3,0-0.4c0-0.1,0.4,0,0.4,0c0.1,0,0.4,0,0.4,0.1c0,0.1-0.2,0.2-0.2,0.3c0,0.1,0,0,0.3-0.1s0.1-0.2,0.2-0.2
				c0.2,0,0.4,0.1,0.5,0.3c0.2,0.2,0.1,0.3,0.1,0.4s-0.6,0-0.8,0c-0.3,0-0.1,0.4,0.1,0.6c0.1,0.2,0.4,0.1,0.6,0.1
				c0.2,0,0.2,0.3,0.4,0.4c0.2,0.1,0.2-0.1,0.2-0.2c0-0.1-0.1-0.4-0.1-0.5c-0.1-0.2-0.2-0.3,0.1-0.5c0,0,0,0,0.1-0.1
				c0.2-0.1,0.5,0.1,0.7,0.1c0.2,0,0.1-0.2,0.2-0.2c0.1,0,0.1,0.2,0.3,0.3c0.1,0.1,0.4,0.1,0.7,0.2c0.2,0.1,0.2,0.2,0.4,0.2
				c0.2,0,0.4,0.3,0.3,0.4s-0.5,0.1-0.5,0.1s-0.1-0.3-0.2-0.4c-0.2-0.1-0.2,0.2-0.4,0.3c-0.1,0.2,0,0.4,0.1,0.5s0.4-0.2,0.3-0.1
				s-0.2,0.4-0.3,0.5c-0.1,0.1-0.3,0.1-0.5,0.2c-0.1,0.1,0,0.3,0.1,0.4s-0.2,0.1-0.3,0.1s-0.6,1.2-0.6,1.4c0,0.2,0.3,0.9,0.3,0.9
				c0,0.1-0.5-0.3-0.6-0.4s-0.4-0.3-0.7-0.2c-0.2,0-0.1,0.3-0.2,0.3c-0.1,0.1-0.2-0.1-0.4-0.1s-0.4,0.4-0.5,0.6
				c0,0.2,0.2,0.6,0.3,0.8c0,0.2,0.5,0.1,0.6,0c0.1-0.1,0.1-0.2,0.1-0.3c0-0.2,0.3-0.2,0.4-0.1c0.1,0.1,0,0.7,0.1,0.7
				c0.1,0,0.3-0.1,0.5,0c0.1,0.1,0.2,0.7,0.4,0.7s0.6-0.1,0.8-0.1c0.2,0,0.4-0.5,0.5-0.6c0.1-0.1,0.9,0,1.1-0.1s0.3-0.3,0.5-0.3
				c0.2,0,0.1,0.3,0.4,0.4s0.5,0.1,0.8,0.1c0.3-0.1,0.3,0.1,0.5,0.2s0.2,0.2,0.3,0.3c0.1,0.1,0.4,0.1,0.6,0c0.1,0,0.3,0,0.5,0
				c0.2,0,0.5-0.1,0.7,0s0,0.3,0.1,0.5C281.5,475.9,281.2,476.3,281.1,476.5z"/>
		</g>
		<g>
			<path d="M276.3,467c0,0-0.1,0.4-0.1,0.7c-0.1,0.2-0.2,0.3-0.4,0.3s-0.8-0.7-1-0.7c-0.2,0-0.6-0.1-0.7-0.1s-0.2,0.2-0.2,0.3
				c0,0.1,0.4,0.1,0.5,0.1c0.2,0,0.3,0.1,0.4,0.2c0.1,0,0,0.3,0.1,0.4s-0.2,0-0.1,0.3c0.1,0.2-0.4,0.1-0.7-0.1
				c-0.1,0-0.1-0.1-0.1-0.1c-0.1-0.2,0.1-0.3-0.1-0.5c-0.2-0.2-0.2,0.1-0.4,0.1s-0.3-0.1-0.1-0.2c0.1-0.1,0.3-0.2,0.1-0.2
				s-0.6-0.1-0.9-0.1c0,0,0.5-0.2,0.8-0.3s0.5-0.4,0.8-0.5c0.2-0.2,1.5,0.1,1.7,0.1C276.1,466.6,276.3,466.9,276.3,467z"/>
		</g>
		<g>
			<path d="M284.1,473.1l0,2.1l-0.3,1.4c0,0,0-0.2,0-0.4c0,0,0,0,0,0c0-0.8-0.1-2.7-0.2-2.9c0-0.3-0.1-0.8-0.2-1s0,0.2-0.5,0.2
				c-0.5-0.1-1.5-1.5-1.6-1.8s-0.4-1.2-0.4-1.4c0-0.2-0.3-0.5-0.4-0.6c0-0.1-0.4,0-0.5,0s-0.2-0.4-0.2-0.6c0-0.2-0.3-0.3-0.3-0.3
				s-0.3-0.5-0.3-0.6c0-0.1-0.6-0.3-0.6-0.4s-0.5-0.1-0.5-0.1c0,0-0.3,0.1-0.4,0.1c-0.1,0-0.9-0.4-0.9-0.4s-0.7-0.7-0.8-0.7l1.2,0.1
				l0.6,0.1l2.1,0.9l0.4,0.4l0,0l1.6,1.4l0,0l0.5,0.4l1.1,2.1L284.1,473.1z"/>
		</g>
		<g>
			<path d="M267.7,469.7c-1,1.4-1,2.8-1,2.8l-18.8,1l-3.7-2.4L267.7,469.7L267.7,469.7z"/>
		</g>
		<g>
			<path d="M252.5,474.4l4.6,2.2l9.6-0.4c-0.1-0.4-0.2-2.4-0.2-2.7L252.5,474.4L252.5,474.4L252.5,474.4z"/>
		</g>
		<g>
			<path d="M260.7,477.4l4.4,2.3l3,0c0,0-1.1-1.4-1.2-2.4L260.7,477.4L260.7,477.4L260.7,477.4z"/>
		</g>
		<g>
			<path d="M281.9,467.6c1.4,1,1.8,2.4,1.8,2.4l18.1-5l2.8-3.4L281.9,467.6L281.9,467.6L281.9,467.6z"/>
		</g>
		<g>
			<path d="M297.8,467.2l-3.7,3.6l-9.2,2.7c0-0.4-0.5-2.4-0.6-2.6L297.8,467.2L297.8,467.2L297.8,467.2z"/>
		</g>
		<g>
			<path d="M290.9,472.6l-3.5,3.5l-2.8,0.9c0,0,0.6-1.7,0.4-2.6L290.9,472.6L290.9,472.6L290.9,472.6z"/>
		</g>
		<g transform="translate(188.31 128.16)">
			<g class="st5">
				<path d="M73.9,332.3l-0.4,0.1l-0.7,3.4l0.4-0.1l0.2-0.9l1.3-0.2l0.4,0.8l0.4-0.1L73.9,332.3z M73.5,334.5l0.3-1.6l0.8,1.4
					L73.5,334.5z"/>
				<path d="M76,332l0.5,3.2l0.4-0.1l-0.5-3.2L76,332z"/>
				<path d="M79.5,333.3c0.2-0.1,0.3-0.2,0.4-0.4c0.1-0.2,0.1-0.3,0.1-0.5c-0.1-0.3-0.2-0.5-0.4-0.7c-0.2-0.1-0.5-0.2-0.9-0.1
					l-1,0.2l0.5,3.2l0.4-0.1l-0.2-1.3l0.7-0.1l0.9,1.2l0.4-0.1l0,0L79.5,333.3z M79,333.1l-0.6,0.1l-0.2-1.2l0.6-0.1
					c0.2,0,0.4,0,0.5,0.1c0.1,0.1,0.2,0.2,0.2,0.4c0,0.2,0,0.3-0.1,0.5C79.3,333,79.2,333.1,79,333.1z"/>
				<path d="M84.4,331l-0.1-0.3l-2,0.3l0.5,3.2l0.4-0.1l-0.2-1.4l1.3-0.2l-0.1-0.3l-1.3,0.2l-0.2-1.1L84.4,331z"/>
				<path d="M87.7,330.8c-0.1-0.2-0.3-0.4-0.5-0.5c-0.2-0.1-0.4-0.1-0.7-0.1c-0.2,0-0.5,0.1-0.6,0.3c-0.2,0.2-0.3,0.4-0.4,0.6
					c-0.1,0.3-0.1,0.5,0,0.8l0,0.2c0.1,0.3,0.1,0.6,0.3,0.8c0.1,0.2,0.3,0.4,0.5,0.5c0.2,0.1,0.4,0.1,0.7,0.1c0.3,0,0.5-0.1,0.6-0.3
					c0.2-0.2,0.3-0.4,0.4-0.6c0.1-0.2,0.1-0.5,0-0.8l0-0.2C87.9,331.3,87.8,331,87.7,330.8z M87.6,331.9c0.1,0.4,0,0.7-0.1,0.9
					c-0.1,0.2-0.3,0.4-0.6,0.4c-0.3,0-0.5,0-0.7-0.2c-0.2-0.2-0.3-0.5-0.4-0.8l0-0.2c-0.1-0.4,0-0.6,0.1-0.9
					c0.1-0.2,0.3-0.4,0.6-0.4c0.3,0,0.5,0,0.7,0.2c0.2,0.2,0.3,0.5,0.4,0.8L87.6,331.9z"/>
				<path d="M90.6,331.5c0.2-0.1,0.3-0.2,0.4-0.4c0.1-0.2,0.1-0.3,0.1-0.5c-0.1-0.3-0.2-0.5-0.4-0.7c-0.2-0.1-0.5-0.2-0.9-0.1
					l-1,0.2l0.5,3.2l0.4-0.1l-0.2-1.3l0.7-0.1l0.9,1.2l0.4-0.1l0,0L90.6,331.5z M90.1,331.3l-0.6,0.1l-0.2-1.2l0.6-0.1
					c0.2,0,0.4,0,0.5,0.1c0.1,0.1,0.2,0.2,0.2,0.4c0,0.2,0,0.3-0.1,0.5C90.5,331.2,90.3,331.3,90.1,331.3z"/>
				<path d="M94.1,331.9c-0.1,0.1-0.3,0.2-0.5,0.2c-0.3,0-0.5,0-0.7-0.2c-0.2-0.2-0.3-0.4-0.3-0.8l0-0.3c-0.1-0.4,0-0.7,0.1-0.9
					c0.1-0.2,0.3-0.4,0.6-0.4c0.2,0,0.4,0,0.5,0.1c0.1,0.1,0.2,0.3,0.3,0.5l0.4-0.1c-0.1-0.3-0.2-0.6-0.5-0.7
					c-0.2-0.2-0.5-0.2-0.9-0.2c-0.3,0-0.5,0.1-0.6,0.3c-0.2,0.2-0.3,0.3-0.4,0.6c-0.1,0.2-0.1,0.5,0,0.8l0,0.3
					c0.1,0.4,0.2,0.8,0.5,1c0.3,0.2,0.6,0.3,1,0.3c0.3-0.1,0.6-0.2,0.8-0.4c0.2-0.2,0.3-0.5,0.2-0.8l-0.4,0.1
					C94.2,331.6,94.2,331.8,94.1,331.9z"/>
				<path d="M96.2,331.7l-0.2-1.1l1.4-0.2l-0.1-0.3l-1.4,0.2l-0.2-1l1.6-0.3l-0.1-0.3l-2,0.3l0.5,3.2l2-0.3l-0.1-0.3L96.2,331.7z"/>
			</g>
		</g>
		<g>
			<path d="M254.1,492.2l-0.7,0.1l-1,5l0.9-0.1l0.2-1.2l1.8-0.3l0.6,1l0.9-0.1L254.1,492.2z M253.6,495.4l0.4-2.1l1,1.9L253.6,495.4
				z"/>
			<path d="M259.4,494.2c0.3-0.2,0.4-0.4,0.6-0.6c0.1-0.2,0.2-0.5,0.1-0.8c-0.1-0.5-0.3-0.8-0.6-1c-0.3-0.2-0.8-0.3-1.3-0.2
				l-1.7,0.3l0.8,4.7l0.8-0.1l-0.3-1.8l0.9-0.1l1.2,1.7l0.9-0.1l0,0L259.4,494.2z M258.5,493.8l-0.8,0.1l-0.3-1.6l0.9-0.1
				c0.3,0,0.5,0,0.7,0.1c0.2,0.1,0.3,0.3,0.3,0.6c0,0.2,0,0.4-0.1,0.6C259,493.7,258.8,493.8,258.5,493.8z"/>
			<polygon points="260.1,491.3 263.9,490.7 264,491.3 262.5,491.6 263.2,495.6 262.4,495.8 261.7,491.7 260.2,491.9 			"/>
			<path d="M268.1,492.9c0.1,0.2,0.2,0.4,0.3,0.6c0.1,0.4,0,0.7-0.3,1c-0.3,0.3-0.7,0.5-1.2,0.5c-0.3,0.1-0.7,0-1,0
				c-0.3-0.1-0.6-0.2-0.8-0.4c-0.2-0.2-0.3-0.4-0.4-0.7l0.8-0.1c0,0.3,0.2,0.5,0.4,0.6c0.2,0.1,0.5,0.2,0.8,0.1
				c0.3,0,0.5-0.1,0.6-0.3s0.2-0.3,0.1-0.5c0-0.2-0.1-0.4-0.3-0.4s-0.4-0.2-0.8-0.2s-0.7-0.1-1-0.2c-0.5-0.2-0.7-0.5-0.8-1
				c-0.1-0.4,0-0.7,0.3-1c0.3-0.3,0.7-0.5,1.2-0.6c0.3-0.1,0.6,0,0.9,0c0.3,0.1,0.5,0.2,0.7,0.4c0.2,0.2,0.3,0.4,0.3,0.7l-0.8,0.1
				c0-0.2-0.1-0.4-0.3-0.5s-0.4-0.1-0.7-0.1c-0.3,0-0.5,0.1-0.6,0.3c-0.1,0.1-0.2,0.3-0.1,0.5c0,0.2,0.1,0.3,0.3,0.4
				c0.2,0.1,0.5,0.2,0.8,0.2c0.4,0.1,0.7,0.1,1,0.2C267.8,492.6,267.9,492.8,268.1,492.9z"/>
			<path d="M273.8,493.1c0.2-0.4,0.3-0.9,0.2-1.5l-0.7,0.1c0.1,0.3,0,0.6-0.1,0.9l-1.1-0.9l0.3-0.3c0.2-0.2,0.3-0.4,0.4-0.6
				c0.1-0.2,0.1-0.4,0.1-0.6c0-0.3-0.2-0.5-0.5-0.7c-0.3-0.2-0.6-0.2-0.9-0.2c-0.4,0.1-0.7,0.2-0.9,0.5c-0.2,0.3-0.3,0.6-0.2,0.9
				c0,0.2,0.1,0.3,0.2,0.5c0.1,0.2,0.3,0.3,0.5,0.5c-0.3,0.3-0.5,0.6-0.6,0.8c-0.1,0.2-0.1,0.4-0.1,0.6c0.1,0.4,0.3,0.7,0.6,0.9
				c0.3,0.2,0.7,0.3,1.2,0.2s0.9-0.3,1.2-0.6l0.3,0.3l0.9-0.1L273.8,493.1z M271.3,490.2c0.1-0.1,0.2-0.2,0.3-0.2
				c0.1,0,0.3,0,0.4,0.1c0.1,0.1,0.2,0.2,0.2,0.3c0,0.2,0,0.4-0.1,0.5l-0.1,0.1l-0.3,0.3c-0.3-0.2-0.4-0.5-0.4-0.6
				C271.2,490.5,271.3,490.3,271.3,490.2z M272.2,493.6c-0.2,0-0.4,0-0.6-0.1c-0.2-0.1-0.3-0.3-0.3-0.5c0-0.3,0.1-0.5,0.3-0.7
				l0.1-0.1l1.2,1.1C272.7,493.4,272.5,493.6,272.2,493.6z"/>
			<path d="M277.1,490.7l0.1,0.4c0.1,0.5,0.2,0.9,0.5,1.1c0.2,0.2,0.5,0.3,0.9,0.3c0.3-0.1,0.6-0.2,0.7-0.3c0.1-0.2,0.2-0.4,0.2-0.8
				l0.8-0.1c0,0.5-0.1,0.9-0.4,1.3c-0.3,0.3-0.7,0.5-1.2,0.6c-0.4,0.1-0.7,0-1-0.1c-0.3-0.1-0.6-0.4-0.8-0.7
				c-0.2-0.3-0.4-0.7-0.4-1.1l-0.1-0.4c-0.1-0.4-0.1-0.9,0-1.2c0.1-0.4,0.3-0.7,0.6-0.9c0.3-0.2,0.6-0.4,1-0.4c0.5-0.1,1,0,1.3,0.2
				c0.4,0.2,0.6,0.6,0.8,1.1l-0.8,0.1c-0.1-0.3-0.2-0.6-0.4-0.7c-0.2-0.1-0.4-0.2-0.7-0.1c-0.4,0.1-0.6,0.2-0.8,0.5
				C277.1,489.8,277,490.2,277.1,490.7z"/>
			<path d="M283.4,490.3c0.3-0.2,0.4-0.4,0.6-0.6c0.1-0.2,0.2-0.5,0.1-0.8c-0.1-0.5-0.3-0.8-0.6-1c-0.3-0.2-0.8-0.3-1.3-0.2
				l-1.7,0.3l0.8,4.7l0.8-0.1l-0.3-1.8l0.9-0.1l1.2,1.7l0.9-0.1l0,0L283.4,490.3z M282.5,490l-0.8,0.1l-0.3-1.6l0.9-0.1
				c0.3,0,0.5,0,0.7,0.1c0.2,0.1,0.3,0.3,0.3,0.6c0,0.2,0,0.4-0.1,0.6S282.8,489.9,282.5,490z"/>
			<path d="M286.7,487l-0.7,0.1l-1,5l0.9-0.1l0.2-1.2l1.8-0.3l0.6,1l0.9-0.1L286.7,487z M286.1,490.1l0.4-2.1l1,1.9L286.1,490.1z"/>
			<polygon points="289,486.6 292.1,486.1 292.2,486.8 290,487.1 290.2,488.6 292.1,488.2 292.2,488.9 290.3,489.2 290.6,491.2 
				289.8,491.4 			"/>
			<polygon points="292.4,486.1 296.2,485.5 296.3,486.1 294.8,486.4 295.5,490.4 294.7,490.6 294,486.5 292.6,486.7 			"/>
			<path d="M300.6,488.4c0.1,0.4,0,0.7-0.3,1c-0.3,0.3-0.7,0.5-1.2,0.5c-0.3,0.1-0.7,0-1,0s-0.6-0.2-0.8-0.4
				c-0.2-0.2-0.3-0.4-0.4-0.7l0.8-0.1c0,0.3,0.2,0.5,0.4,0.6c0.2,0.1,0.5,0.2,0.8,0.1c0.3,0,0.5-0.1,0.6-0.3s0.2-0.3,0.1-0.5
				c0-0.2-0.1-0.4-0.3-0.4c-0.2-0.1-0.4-0.2-0.8-0.2s-0.7-0.1-1-0.2c-0.5-0.2-0.8-0.5-0.8-1c-0.1-0.4,0-0.7,0.3-1
				c0.3-0.3,0.7-0.5,1.2-0.6c0.3-0.1,0.6,0,0.9,0c0.3,0.1,0.5,0.2,0.7,0.4c0.2,0.2,0.3,0.4,0.3,0.7l-0.8,0.1c0-0.2-0.1-0.4-0.3-0.5
				c-0.2-0.1-0.4-0.1-0.7-0.1c-0.3,0-0.5,0.1-0.6,0.3c-0.1,0.1-0.2,0.3-0.1,0.5c0,0.2,0.1,0.3,0.3,0.4c0.2,0.1,0.5,0.2,0.9,0.2
				c0.4,0.1,0.7,0.1,1,0.2c0.2,0.1,0.4,0.2,0.6,0.4C300.5,487.9,300.6,488.1,300.6,488.4z"/>
		</g>
		<g class="st5">
			<path d="M254.1,492.2l-0.7,0.1l-1,5l0.9-0.1l0.2-1.2l1.8-0.3l0.6,1l0.9-0.1L254.1,492.2z M253.6,495.4l0.4-2.1l1,1.9L253.6,495.4
				z"/>
			<path d="M259.4,494.2c0.3-0.2,0.4-0.4,0.6-0.6c0.1-0.2,0.2-0.5,0.1-0.8c-0.1-0.5-0.3-0.8-0.6-1c-0.3-0.2-0.8-0.3-1.3-0.2
				l-1.7,0.3l0.8,4.7l0.8-0.1l-0.3-1.8l0.9-0.1l1.2,1.7l0.9-0.1l0,0L259.4,494.2z M258.5,493.8l-0.8,0.1l-0.3-1.6l0.9-0.1
				c0.3,0,0.5,0,0.7,0.1c0.2,0.1,0.3,0.3,0.3,0.6c0,0.2,0,0.4-0.1,0.6C259,493.7,258.8,493.8,258.5,493.8z"/>
			<path d="M260.1,491.3l0.1,0.7l1.5-0.2l0.7,4.1l0.8-0.1l-0.7-4.1l1.5-0.2l-0.1-0.7L260.1,491.3z"/>
			<path d="M268.1,492.9c-0.1-0.2-0.3-0.3-0.6-0.4c-0.2-0.1-0.6-0.2-1-0.2c-0.4,0-0.7-0.1-0.8-0.2c-0.2-0.1-0.3-0.2-0.3-0.4
				c0-0.2,0-0.4,0.1-0.5c0.1-0.1,0.3-0.2,0.6-0.3c0.3,0,0.5,0,0.7,0.1s0.3,0.3,0.3,0.5l0.8-0.1c0-0.3-0.2-0.5-0.3-0.7
				c-0.2-0.2-0.4-0.3-0.7-0.4c-0.3-0.1-0.6-0.1-0.9,0c-0.5,0.1-0.9,0.3-1.2,0.6c-0.3,0.3-0.4,0.6-0.3,1c0.1,0.4,0.3,0.8,0.8,1
				c0.2,0.1,0.6,0.2,1,0.2s0.7,0.1,0.8,0.2s0.3,0.2,0.3,0.4c0,0.2,0,0.4-0.1,0.5s-0.3,0.2-0.6,0.3c-0.3,0.1-0.6,0-0.8-0.1
				c-0.2-0.1-0.3-0.3-0.4-0.6l-0.8,0.1c0,0.3,0.2,0.5,0.4,0.7c0.2,0.2,0.4,0.3,0.8,0.4c0.3,0.1,0.6,0.1,1,0c0.5-0.1,0.9-0.3,1.2-0.5
				c0.3-0.3,0.4-0.6,0.3-1C268.3,493.3,268.2,493.1,268.1,492.9z"/>
			<path d="M273.8,493.1c0.2-0.4,0.3-0.9,0.2-1.5l-0.7,0.1c0.1,0.3,0,0.6-0.1,0.9l-1.1-0.9l0.3-0.3c0.2-0.2,0.3-0.4,0.4-0.6
				c0.1-0.2,0.1-0.4,0.1-0.6c0-0.3-0.2-0.5-0.5-0.7c-0.3-0.2-0.6-0.2-0.9-0.2c-0.4,0.1-0.7,0.2-0.9,0.5c-0.2,0.3-0.3,0.6-0.2,0.9
				c0,0.2,0.1,0.3,0.2,0.5c0.1,0.2,0.3,0.3,0.5,0.5c-0.3,0.3-0.5,0.6-0.6,0.8c-0.1,0.2-0.1,0.4-0.1,0.6c0.1,0.4,0.3,0.7,0.6,0.9
				c0.3,0.2,0.7,0.3,1.2,0.2s0.9-0.3,1.2-0.6l0.3,0.3l0.9-0.1L273.8,493.1z M271.3,490.2c0.1-0.1,0.2-0.2,0.3-0.2
				c0.1,0,0.3,0,0.4,0.1c0.1,0.1,0.2,0.2,0.2,0.3c0,0.2,0,0.4-0.1,0.5l-0.1,0.1l-0.3,0.3c-0.3-0.2-0.4-0.5-0.4-0.6
				C271.2,490.5,271.3,490.3,271.3,490.2z M272.2,493.6c-0.2,0-0.4,0-0.6-0.1c-0.2-0.1-0.3-0.3-0.3-0.5c0-0.3,0.1-0.5,0.3-0.7
				l0.1-0.1l1.2,1.1C272.7,493.4,272.5,493.6,272.2,493.6z"/>
			<path d="M279.2,492.2c-0.1,0.2-0.4,0.3-0.7,0.3c-0.4,0.1-0.6,0-0.9-0.3c-0.2-0.2-0.4-0.6-0.5-1.1l-0.1-0.4
				c-0.1-0.5,0-0.9,0.1-1.2c0.2-0.3,0.4-0.5,0.8-0.5c0.3,0,0.6,0,0.7,0.1c0.2,0.1,0.3,0.4,0.4,0.7l0.8-0.1c-0.1-0.5-0.4-0.9-0.8-1.1
				c-0.4-0.2-0.8-0.3-1.3-0.2c-0.4,0.1-0.7,0.2-1,0.4c-0.3,0.2-0.5,0.5-0.6,0.9c-0.1,0.4-0.1,0.8,0,1.2l0.1,0.4
				c0.1,0.4,0.2,0.8,0.4,1.1c0.2,0.3,0.5,0.5,0.8,0.7c0.3,0.1,0.7,0.2,1,0.1c0.5-0.1,1-0.3,1.2-0.6c0.3-0.3,0.4-0.8,0.4-1.3
				l-0.8,0.1C279.4,491.8,279.3,492.1,279.2,492.2z"/>
			<path d="M283.4,490.3c0.3-0.2,0.4-0.4,0.6-0.6c0.1-0.2,0.2-0.5,0.1-0.8c-0.1-0.5-0.3-0.8-0.6-1c-0.3-0.2-0.8-0.3-1.3-0.2
				l-1.7,0.3l0.8,4.7l0.8-0.1l-0.3-1.8l0.9-0.1l1.2,1.7l0.9-0.1l0,0L283.4,490.3z M282.5,490l-0.8,0.1l-0.3-1.6l0.9-0.1
				c0.3,0,0.5,0,0.7,0.1c0.2,0.1,0.3,0.3,0.3,0.6c0,0.2,0,0.4-0.1,0.6S282.8,489.9,282.5,490z"/>
			<path d="M286.7,487l-0.7,0.1l-1,5l0.9-0.1l0.2-1.2l1.8-0.3l0.6,1l0.9-0.1L286.7,487z M286.1,490.1l0.4-2.1l1,1.9L286.1,490.1z"/>
			<path d="M292.2,486.8l-0.1-0.7l-3,0.5l0.8,4.7l0.8-0.1l-0.3-2l1.9-0.3l-0.1-0.7l-1.9,0.3l-0.2-1.4L292.2,486.8z"/>
			<path d="M292.4,486.1l0.1,0.7l1.5-0.2l0.7,4.1l0.8-0.1l-0.7-4.1l1.5-0.2l-0.1-0.7L292.4,486.1z"/>
			<path d="M300.4,487.7c-0.1-0.2-0.3-0.3-0.6-0.4c-0.2-0.1-0.6-0.2-1-0.2c-0.4,0-0.7-0.1-0.9-0.2c-0.2-0.1-0.3-0.2-0.3-0.4
				c0-0.2,0-0.4,0.1-0.5c0.1-0.1,0.3-0.2,0.6-0.3c0.3,0,0.5,0,0.7,0.1c0.2,0.1,0.3,0.3,0.3,0.5l0.8-0.1c0-0.3-0.2-0.5-0.3-0.7
				c-0.2-0.2-0.4-0.3-0.7-0.4c-0.3-0.1-0.6-0.1-0.9,0c-0.5,0.1-0.9,0.3-1.2,0.6c-0.3,0.3-0.4,0.6-0.3,1c0.1,0.4,0.3,0.8,0.8,1
				c0.2,0.1,0.6,0.2,1,0.2s0.7,0.1,0.8,0.2c0.2,0.1,0.3,0.2,0.3,0.4c0,0.2,0,0.4-0.1,0.5s-0.3,0.2-0.6,0.3c-0.3,0.1-0.6,0-0.8-0.1
				c-0.2-0.1-0.3-0.3-0.4-0.6l-0.8,0.1c0,0.3,0.2,0.5,0.4,0.7c0.2,0.2,0.4,0.3,0.8,0.4s0.6,0.1,1,0c0.5-0.1,0.9-0.3,1.2-0.5
				c0.3-0.3,0.4-0.6,0.3-1C300.6,488.1,300.5,487.9,300.4,487.7z"/>
		</g>
	</g>
	<circle class="st6" cx="241.8" cy="362.5" r="16.6"/>
	<circle class="st6" cx="288.8" cy="358.3" r="16.6"/>
	<path class="st6" d="M259.1,357.7c1.9-1.1,3.8-2.2,5.9-2.9c2.1-0.7,4.4-0.9,6.5-0.3"/>
	<path class="st6" d="M165.5,387.8c18.4-7.6,36.9-15.2,55.3-22.8"/>
	<path class="st6" d="M304.5,349.5c3.9-1.9,7.9-3.7,11.8-5.6"/>
	<path class="st6" d="M178,385.8c-1.3-0.3-2.7-0.6-4-0.5c-1.4,0.1-2.7,0.7-3.5,1.8c-2.2,3.1-1.8,9.6-0.3,12.8
		c2.7,5.7,10.3,9.2,16.2,10"/>
	<path class="st6" d="M179,391.9c-0.2-0.3-0.7-0.2-0.9,0.1s-0.2,0.7-0.2,1c0,1.2,0,2.3,0,3.5c0,0.6,0,1.2,0.2,1.7
		c1,2.7,4.6,3.5,7,2.7"/>
</g>
<g>
	<path class="st7" d="M72.6,99C72.6,99,72.6,99,72.6,99L72.6,99z"/>
	<path class="st7" d="M72.6,99C72.6,99,72.6,99.1,72.6,99C72.6,99.1,72.6,99.1,72.6,99C72.6,99.1,72.6,99,72.6,99
		C72.6,99,72.6,99,72.6,99z"/>
	<path d="M80.9,74.8c-0.3-0.5-0.6-0.9-1-1.4c-0.4-0.5-1-0.9-1.6-1c0,0-0.1,0-0.1,0c-0.2,0-0.5,0-0.7,0.1c-0.3,0.1-0.4,0.5-0.2,0.8
		c0.2,0.2,0.3,0.4,0.5,0.6c0.8,0.6,1.4,1.4,1.8,2.3c0.4,0.9,0.9,1.8,1.1,2.7c0.9,3.4,0.6,6.6-1.3,9.5c-1.4,2.2-3.3,3.9-5.7,5.1
		c-0.2,0.1-0.3,0.1-0.5,0.2c-0.2-0.6,0-1.2,0-1.8c0.1-0.9,0.2-1.9,0.2-2.8c0-0.8-0.3-1.4-1-1.8c-0.8,0.3-1.1,1.1-1.8,1.6
		c-0.1-0.2-0.2-0.4-0.3-0.6c-0.1-0.2-0.2-0.5-0.3-0.7c-0.1-0.2-0.4-0.4-0.7-0.2c-0.4,0.3-0.8,0.6-1.2,1c-0.3,0.2-0.5,0.5-0.8,0.8
		c-0.2-0.4-0.3-0.7-0.5-1c-0.1-0.2-0.2-0.5-0.3-0.7c-0.2-0.4-0.7-0.5-1-0.2c-0.3,0.3-0.6,0.7-0.9,1.1c-0.2,0.2-0.3,0.5-0.7,0.6
		c-0.5-0.3-0.7-0.9-1-1.3c-0.2-0.2-0.3-0.5-0.6-0.7c-0.4-0.3-0.9-0.2-1.1,0.3c-0.1,0.2-0.1,0.3-0.1,0.5c-0.3,1.1-0.3,2.2-0.2,3.3
		c0.1,1,0.2,2,0.4,3.1c0,0.2,0,0.4-0.1,0.6c-3.6-1-7.4-5.2-7.6-10.2c-0.1-2.5,0.6-4.8,1.9-7c2.7-4.7,6.8-7.2,12.3-7.1
		c0.6,0,1.1,0,1.7,0c1.7,0.1,3.3,0.5,4.8,1.2c0.3,0.2,0.7,0.3,1.1,0.5c0.4,0.2,0.7,0.3,1.2,0c0-0.2-0.1-0.3-0.2-0.4
		c-0.2-0.4-0.5-0.7-0.8-1c-0.9-0.7-2-1.2-3.1-1.5c-2.3-0.6-4.6-0.8-6.9-0.5c-3.1,0.3-5.8,1.5-8.2,3.5c-2.2,1.9-3.8,4.3-4.8,7.1
		c-0.8,2.2-1.1,4.5-0.7,6.9c0.8,4.6,3.4,7.9,7.6,9.9c0.3,0.1,0.6,0.3,0.9,0.4c0,1.6,0.2,2,1.4,3.2c0,0.2,0,0.5,0,0.7
		c0.1,0.9,0.5,1.5,1.2,2c0.3,0.2,0.6,0.3,0.9,0.5c0.4,0.2,0.8,0.3,1,0.7l1.8,0.9c1.4,0.1,2.6-0.3,3.3-1.6c0.2-0.4,0.5-0.7,0.9-0.9
		c1.1-0.6,1.7-1.5,1.6-2.8c0.5-0.7,1-1.1,1.2-1.7c0.2-0.6,0.1-1.3,0.2-2c0.4-0.2,0.7-0.4,1.1-0.6c1.2-0.6,2.3-1.4,3.3-2.3
		c3-2.8,4.7-6.1,4.7-10.2C82.9,79.5,82.2,77.1,80.9,74.8z M62.5,89.4c0.2,0.1,0.3,0.2,0.4,0.4c0.9,1.1,1.7,0.8,2.3-0.2
		c0.2-0.3,0.4-0.6,0.7-1c0.1,0.3,0.2,0.5,0.3,0.8c0.1,0.2,0.2,0.5,0.3,0.7c0.3,0.6,0.8,0.7,1.3,0.3c0.2-0.2,0.4-0.4,0.6-0.6
		c0.2-0.2,0.5-0.5,0.8-0.8c0.1,0.3,0.2,0.6,0.2,0.8c0.4,0.8,1,1,1.6,0.4c0.3-0.3,0.6-0.6,1.1-1c-0.2,1.9-0.4,3.6-0.5,5.4
		c-2.9,1.2-5.9,1.5-8.9,0.8C62.6,94,62.4,90.3,62.5,89.4z M70.6,100.1c-0.4,0.3-0.8,0.6-1.3,0.8c-1.3,0.5-2.6,0.7-3.9,0.6
		c-0.5,0-0.9-0.2-1.4-0.3c-0.5-0.2-0.9-0.5-1-1.2c0.9,0.1,1.7,0.2,2.6,0.2c0.8,0,1.7,0,2.6-0.1s1.7-0.2,2.6-0.3
		C70.9,99.9,70.7,100,70.6,100.1z M71.4,97.5c-0.5,0.3-1.1,0.5-1.7,0.6c-1,0.2-2,0.2-3,0.3c-0.9,0-1.7,0-2.6,0
		c-0.5,0-0.9-0.1-1.4-0.3c-0.6-0.2-0.9-0.6-1-1.3c1.8,0.4,3.6,0.6,5.3,0.5c1.7-0.2,3.4-0.6,5.1-1.2C72.3,96.9,71.9,97.3,71.4,97.5z"
		/>
	<path d="M86.6,98.8c-0.1,0.1-0.2,0.3-0.3,0.3c-0.1,0.1-0.4,0.1-0.5,0c-0.9-0.5-1.7-1.1-2-2.1c-0.1-0.3,0.1-0.5,0.4-0.5
		c0.1,0,0.3,0,0.4,0.1c0.9,0.4,1.5,1.1,2,1.8C86.6,98.4,86.6,98.6,86.6,98.8z"/>
	<path d="M48.7,72.1c-0.1,0.1-0.1,0.2-0.2,0.3c-0.1,0-0.2,0.1-0.2,0.1c-0.8-0.2-1.5-0.5-2.1-1.1c-0.1-0.1-0.1-0.1-0.1-0.2
		c-0.2-0.3-0.2-0.6,0-0.8c0.2-0.2,0.5-0.3,0.8-0.1c0.6,0.5,1.2,1,1.8,1.6C48.7,71.9,48.7,72,48.7,72.1z"/>
	<path d="M48.2,68.4c0.2,0,0.3,0,0.4,0.1c0.5,0.5,1,0.9,1.5,1.4c0.2,0.2,0,0.7-0.3,0.7c-0.7,0.1-1.8-0.4-2-1.4c0-0.2,0-0.4,0.1-0.5
		C48,68.5,48.1,68.4,48.2,68.4z"/>
	<path d="M69.6,59c0.1,0.4,0.2,0.8,0.3,1.2c-0.1,0.6-0.2,1.1-0.3,1.6c0,0.1-0.2,0.2-0.3,0.2C69.2,62,69,62,69,61.8
		c-0.5-0.8-0.4-1.7-0.1-2.6"/>
	<path d="M67.2,59.3c0.1,0.1,0.1,0.2,0.1,0.4c0.1,0.8,0.1,1.6,0.2,2.3c0,0.3,0,0.5,0,0.6c-0.1,0.2-0.2,0.4-0.3,0.5
		c-0.1,0.1-0.4-0.1-0.5-0.5c-0.3-1-0.2-2-0.2-3.1c0-0.1,0.1-0.2,0.1-0.3"/>
	<path d="M87.8,96.8c-0.5,0-0.9-0.2-1.3-0.5c-0.2-0.2-0.5-0.5-0.7-0.8c-0.1-0.2-0.2-0.4,0-0.6c0.1-0.1,0.4-0.2,0.6-0.1
		c0.6,0.3,1.1,0.6,1.7,1c0.2,0.1,0.3,0.4,0.2,0.7C88.2,96.6,88,96.7,87.8,96.8z"/>
	<path d="M87.7,71.2c0-0.1-0.2-0.2-0.2-0.3c0.2-0.9,0.6-1.6,1.5-1.9c0.1,0,0.3,0,0.4,0c0.2,0,0.5,0.4,0.4,0.6
		c-0.4,0.8-1,1.3-1.8,1.7C87.9,71.3,87.9,71.2,87.7,71.2z"/>
	<path d="M47.3,100.1c-0.3,0-0.4-0.4-0.3-0.6c0.5-0.8,1.2-1.2,2.1-1.3c0.1,0,0.3,0.1,0.3,0.2c0.1,0.1,0.1,0.4,0,0.5
		c-0.5,0.7-1.2,1.1-2,1.2C47.4,100.1,47.4,100.1,47.3,100.1z"/>
	<path d="M91.4,71.6c-0.1,0.2-0.1,0.4-0.2,0.5c-0.6,0.5-1.2,0.8-1.9,1c-0.1,0-0.3,0-0.3-0.1c0-0.1-0.1-0.4,0-0.5
		c0.5-0.4,1-0.8,1.5-1.2c0.1-0.1,0.3-0.1,0.5-0.1C91.1,71.3,91.2,71.5,91.4,71.6z"/>
	<path d="M49.3,101.7c-0.1-0.1-0.3-0.3-0.3-0.5c0-0.1,0-0.4,0.1-0.5c0.3-0.3,0.6-0.6,0.9-0.9c0.1-0.1,0.3-0.2,0.5,0
		c0.1,0.1,0.1,0.2,0.1,0.3c-0.1,0.6-0.4,1-0.8,1.4C49.7,101.7,49.5,101.7,49.3,101.7z"/>
</g>
<g>
	<g>
		<path class="st8" d="M396.5,404.3c-18.5,2-37.3-0.4-55.3-7c12.4-6.7,24-16.1,34.4-27.6c5.2-5.8,10.1-12.1,14.7-18.9
			c5.2-7.8,6.2-10.9,6.2-21.5c0-58.4,0-116.7,0-175.1c0-26.1,15-47.2,33.4-47.2h403.7c18.4,0,33.4,21.1,33.4,47.2v261.8
			c0,26.1-15,47.2-33.4,47.2H429.9c-18.4,0-33.4-21.1-33.4-47.2L396.5,404.3z"/>
		<g>
			<path d="M457.6,199.2c-1.1-13,18.1-18.4,24.6-7.1c-5.6-1.1-9.1,2-8.8,5.3c0.3,3.3,5.6,4.6,9.6,4.8c2.2-3.4,3.4-7.9,2.9-13.6
				c-0.7-8.5-11.3-13.9-24.4-9.3c2-5,8.7-8.7,17-9.4c14.9-1.3,23.8,8.3,24.7,18.8c0.8,9.2-3,22.2-24.3,24
				C466.6,213.8,458.5,209.7,457.6,199.2z"/>
			<path d="M563.8,184.5c0.8,9.2-3.7,18-17.2,23c6.7-15.2,0.9-31.7-12.2-29.4c0.2,12.2-2.3,24-7.5,31.1c-14.7-12.4-17.2-51-4.7-69.8
				c6.2,7,10.1,17.7,11.6,29.1c2.3-2.2,5.8-4.1,10.4-4.5C552.1,163.4,562.6,170.6,563.8,184.5z"/>
			<path d="M644.1,177.5c0.8,9.2-3.7,18-17.2,23c6.7-15.2,0.9-31.7-12.2-29.4c0.2,12.2-2.3,24-7.5,31.1c-14.7-12.4-17.2-51-4.7-69.8
				c6.2,7,10.1,17.7,11.6,29.1c2.3-2.2,5.8-4.1,10.4-4.5C632.3,156.4,642.8,163.6,644.1,177.5z"/>
			<path d="M687.2,186.2c-1.3,4.1-7.4,8.9-12.8,9.4c-9.3,0.8-20.4-4.9-21.5-17.5c-1.2-13.9,5.5-22.7,16.8-26.6
				c-7.8,19.3-0.2,34,14.9,27.6c-3.6-10.9-2.4-23.4,3.9-29.8c7.7,4.6,13.4,14.4,14.4,24.7c0.6,6.9-1,14.1-5.6,20.2
				C693.3,192.8,689.9,190.1,687.2,186.2z"/>
			<path d="M715.4,169.2c-0.7-7.7,1.2-16.3,6-24.1c4.1,1.4,7.7,4.4,10.2,8.5c3.3-4.4,7.5-6.6,11.7-6.9c4.9-0.4,9.8,1.5,13.8,6.4
				c3.9-5.9,8.4-8.4,12.9-8.7c9.6-0.8,18.8,8.5,19.7,18.9c0.9,10.7-4.7,18.7-17,23.9c6-17.5,0-31.7-11.8-28.3
				c5.3,11.6,1.9,24.4-12.7,30.5c3.4-16.7-2-30.6-13.4-28.3c3.4,11.1,1.4,23.8-4.7,30.2C721.6,188,716.3,179.3,715.4,169.2z"/>
		</g>
		<g>
			<path d="M441.1,263.1l3.8-8.4h1.9l3.8,8.4h-2.1l-3.1-7.5h0.8l-3.1,7.5H441.1z M443,261.3l0.5-1.5h4.4l0.5,1.5H443z"/>
			<path d="M453.9,263.1v-8.4h2v6.9h4.2v1.6H453.9z"/>
			<path d="M463.6,263.1v-8.4h2v6.9h4.2v1.6H463.6z"/>
			<path d="M480.9,263.1v-6.9h-2.7v-1.6h7.4v1.6h-2.7v6.9H480.9z"/>
			<path d="M490.9,261.5h4.6v1.6H489v-8.4h6.4v1.6h-4.4V261.5z M490.8,258h4.1v1.5h-4.1V258z"/>
			<path d="M498.5,263.1l3.6-5v1.4l-3.5-4.9h2.2l2.4,3.4l-0.9,0l2.4-3.4h2.1l-3.4,4.8V258l3.7,5.1h-2.3l-2.5-3.6h0.9l-2.4,3.6H498.5
				z"/>
			<path d="M511.8,263.1v-6.9h-2.7v-1.6h7.4v1.6h-2.7v6.9H511.8z"/>
			<path d="M525.8,263.1v-8.4h2v6.9h4.2v1.6H525.8z"/>
			<path d="M535.5,263.1v-8.4h2v8.4H535.5z"/>
			<path d="M541.8,263.1v-8.4h1.6l5,6.1h-0.8v-6.1h1.9v8.4H548l-5-6.1h0.8v6.1H541.8z"/>
			<path d="M555.9,261.5h4.6v1.6H554v-8.4h6.4v1.6h-4.4V261.5z M555.8,258h4.1v1.5h-4.1V258z"/>
			<path d="M567.3,263.2c-0.7,0-1.3-0.1-1.9-0.3c-0.6-0.2-1.1-0.4-1.5-0.7l0.7-1.5c0.4,0.3,0.8,0.5,1.3,0.6c0.5,0.2,1,0.2,1.5,0.2
				c0.4,0,0.7,0,0.9-0.1c0.2-0.1,0.4-0.2,0.5-0.3c0.1-0.1,0.2-0.3,0.2-0.5c0-0.2-0.1-0.4-0.3-0.5c-0.2-0.1-0.4-0.2-0.7-0.3
				c-0.3-0.1-0.6-0.2-1-0.2c-0.3-0.1-0.7-0.2-1-0.3c-0.4-0.1-0.7-0.3-1-0.4c-0.3-0.2-0.5-0.4-0.7-0.7c-0.2-0.3-0.3-0.7-0.3-1.1
				c0-0.5,0.1-0.9,0.4-1.3c0.3-0.4,0.6-0.7,1.2-1c0.5-0.2,1.2-0.4,2-0.4c0.5,0,1.1,0.1,1.6,0.2c0.5,0.1,1,0.3,1.4,0.6l-0.6,1.5
				c-0.4-0.2-0.8-0.4-1.2-0.5c-0.4-0.1-0.8-0.2-1.2-0.2c-0.4,0-0.7,0-0.9,0.1c-0.2,0.1-0.4,0.2-0.5,0.3c-0.1,0.1-0.2,0.3-0.2,0.5
				c0,0.2,0.1,0.4,0.3,0.5c0.2,0.1,0.4,0.2,0.7,0.3c0.3,0.1,0.6,0.2,1,0.2c0.4,0.1,0.7,0.2,1,0.3c0.3,0.1,0.7,0.3,1,0.4
				c0.3,0.2,0.5,0.4,0.7,0.7c0.2,0.3,0.3,0.7,0.3,1.1c0,0.5-0.1,0.9-0.4,1.3s-0.7,0.7-1.2,1C568.7,263.1,568.1,263.2,567.3,263.2z"
				/>
			<path d="M622.6,265.4c-0.5-0.7-0.9-1.6-1.1-2.5c-0.3-1-0.4-2-0.4-3.1c0-1.1,0.1-2.1,0.4-3.1c0.3-1,0.6-1.8,1.1-2.5h1.8
				c-0.5,0.9-0.9,1.8-1.1,2.7c-0.2,0.9-0.4,1.9-0.4,2.9c0,1,0.1,2,0.4,2.9c0.2,0.9,0.6,1.8,1.1,2.7H622.6z"/>
			<path d="M627.9,263.1v-8.4h3.7c0.8,0,1.4,0.1,2,0.4c0.5,0.2,1,0.6,1.3,1.1c0.3,0.5,0.4,1,0.4,1.6c0,0.6-0.1,1.2-0.4,1.6
				s-0.7,0.8-1.3,1.1c-0.5,0.2-1.2,0.4-2,0.4H629l0.9-0.9v3.2H627.9z M629.9,260.1l-0.9-0.9h2.5c0.6,0,1-0.1,1.4-0.4
				c0.3-0.3,0.5-0.6,0.5-1.1c0-0.5-0.2-0.8-0.5-1.1c-0.3-0.3-0.8-0.4-1.4-0.4H629l0.9-0.9V260.1z"/>
			<path d="M641,261.5h4.6v1.6h-6.5v-8.4h6.4v1.6H641V261.5z M640.8,258h4.1v1.5h-4.1V258z"/>
			<path d="M649.6,263.1v-8.4h3.7c0.8,0,1.4,0.1,2,0.4c0.5,0.2,1,0.6,1.3,1.1c0.3,0.5,0.4,1,0.4,1.6c0,0.6-0.1,1.2-0.4,1.6
				s-0.7,0.8-1.3,1c-0.5,0.2-1.2,0.4-2,0.4h-2.6l0.9-0.8v3.2H649.6z M651.5,260.1l-0.9-0.9h2.5c0.6,0,1-0.1,1.4-0.4
				c0.3-0.3,0.5-0.6,0.5-1.1c0-0.5-0.2-0.8-0.5-1.1c-0.3-0.3-0.8-0.4-1.4-0.4h-2.5l0.9-0.9V260.1z M654.9,263.1l-2.1-3.1h2.1
				l2.1,3.1H654.9z"/>
			<path d="M669.2,263.1l-3.7-8.4h2.1l3.2,7.5h-1.2l3.2-7.5h1.9l-3.7,8.4H669.2z"/>
			<path d="M679.8,261.5h4.6v1.6h-6.5v-8.4h6.4v1.6h-4.4V261.5z M679.7,258h4.1v1.5h-4.1V258z"/>
			<path d="M688.4,263.1v-8.4h3.7c0.8,0,1.4,0.1,2,0.4c0.5,0.2,1,0.6,1.3,1.1c0.3,0.5,0.4,1,0.4,1.6c0,0.6-0.1,1.2-0.4,1.6
				s-0.7,0.8-1.3,1c-0.5,0.2-1.2,0.4-2,0.4h-2.6l0.9-0.8v3.2H688.4z M690.4,260.1l-0.9-0.9h2.5c0.6,0,1-0.1,1.4-0.4
				c0.3-0.3,0.5-0.6,0.5-1.1c0-0.5-0.2-0.8-0.5-1.1c-0.3-0.3-0.8-0.4-1.4-0.4h-2.5l0.9-0.9V260.1z M693.8,263.1l-2.1-3.1h2.1
				l2.1,3.1H693.8z"/>
			<path d="M701.3,263.1v-6.9h-2.7v-1.6h7.4v1.6h-2.7v6.9H701.3z"/>
			<path d="M709.4,263.1v-8.4h2v8.4H709.4z"/>
			<path d="M719.8,263.2c-0.7,0-1.3-0.1-1.8-0.3c-0.6-0.2-1-0.5-1.5-0.9c-0.4-0.4-0.7-0.9-1-1.4c-0.2-0.5-0.3-1.1-0.3-1.7
				c0-0.6,0.1-1.2,0.3-1.7c0.2-0.5,0.6-1,1-1.4c0.4-0.4,0.9-0.7,1.5-0.9c0.6-0.2,1.2-0.3,1.8-0.3c0.7,0,1.4,0.1,2,0.4
				c0.6,0.3,1.1,0.6,1.5,1.1l-1.3,1.2c-0.3-0.3-0.6-0.6-1-0.7c-0.4-0.2-0.7-0.3-1.2-0.3c-0.4,0-0.8,0.1-1.1,0.2
				c-0.3,0.1-0.6,0.3-0.9,0.6c-0.2,0.2-0.4,0.5-0.6,0.9c-0.1,0.3-0.2,0.7-0.2,1.1c0,0.4,0.1,0.8,0.2,1.1c0.1,0.3,0.3,0.6,0.6,0.9
				c0.2,0.2,0.5,0.4,0.9,0.6c0.3,0.1,0.7,0.2,1.1,0.2c0.4,0,0.8-0.1,1.2-0.3s0.7-0.4,1-0.8l1.3,1.2c-0.4,0.5-0.9,0.9-1.5,1.1
				C721.2,263.1,720.6,263.2,719.8,263.2z"/>
			<path d="M725.8,263.1l3.8-8.4h1.9l3.8,8.4h-2l-3.1-7.5h0.8l-3.1,7.5H725.8z M727.7,261.3l0.5-1.5h4.4l0.5,1.5H727.7z"/>
			<path d="M738.5,263.1v-8.4h2v6.9h4.2v1.6H738.5z"/>
			<path d="M754.1,263.1v-8.4h2v6.9h4.2v1.6H754.1z"/>
			<path d="M763.7,263.1v-8.4h2v8.4H763.7z"/>
			<path d="M770.1,263.1v-8.4h1.6l5,6.1h-0.8v-6.1h1.9v8.4h-1.6l-5-6.1h0.8v6.1H770.1z"/>
			<path d="M784.2,261.5h4.6v1.6h-6.5v-8.4h6.4v1.6h-4.4V261.5z M784.1,258h4.1v1.5h-4.1V258z"/>
			<path d="M793.7,265.4h-1.8c0.5-0.9,0.9-1.8,1.1-2.7c0.2-0.9,0.3-1.9,0.3-2.9c0-1-0.1-2-0.3-2.9c-0.2-0.9-0.6-1.8-1.1-2.7h1.8
				c0.5,0.7,0.9,1.6,1.1,2.5c0.3,1,0.4,2,0.4,3.1c0,1.1-0.1,2.1-0.4,3.1C794.6,263.8,794.2,264.7,793.7,265.4z"/>
		</g>
		<g>
			<path d="M441.1,318.5l3.8-8.4h1.9l3.8,8.4h-2.1l-3.1-7.5h0.8l-3.1,7.5H441.1z M443,316.7l0.5-1.5h4.4l0.5,1.5H443z"/>
			<path d="M453.9,318.5v-8.4h2v6.9h4.2v1.6H453.9z"/>
			<path d="M463.6,318.5v-8.4h2v6.9h4.2v1.6H463.6z"/>
			<path d="M479.1,318.5v-8.4h2v8.4H479.1z"/>
			<path d="M485.5,318.5v-8.4h1.6l3.6,6h-0.9l3.5-6h1.6v8.4h-1.8l0-5.6h0.4l-2.8,4.7h-0.9l-2.9-4.7h0.4v5.6H485.5z"/>
			<path d="M498.3,318.5l3.8-8.4h1.9l3.8,8.4h-2l-3.1-7.5h0.8l-3.1,7.5H498.3z M500.2,316.7l0.5-1.5h4.4l0.5,1.5H500.2z"/>
			<path d="M515,318.7c-0.7,0-1.3-0.1-1.8-0.3c-0.6-0.2-1-0.5-1.5-0.9c-0.4-0.4-0.7-0.9-1-1.4c-0.2-0.5-0.3-1.1-0.3-1.7
				c0-0.6,0.1-1.2,0.3-1.7c0.2-0.5,0.6-1,1-1.4c0.4-0.4,0.9-0.7,1.5-0.9c0.6-0.2,1.2-0.3,1.9-0.3c0.7,0,1.4,0.1,2,0.4
				c0.6,0.2,1.1,0.6,1.5,1.1l-1.2,1.2c-0.3-0.3-0.7-0.6-1-0.7c-0.4-0.2-0.8-0.2-1.2-0.2c-0.4,0-0.8,0.1-1.1,0.2
				c-0.3,0.1-0.6,0.3-0.9,0.6c-0.2,0.2-0.4,0.5-0.6,0.9c-0.1,0.3-0.2,0.7-0.2,1.1c0,0.4,0.1,0.7,0.2,1.1c0.1,0.3,0.3,0.6,0.6,0.9
				c0.2,0.2,0.5,0.4,0.9,0.6c0.3,0.1,0.7,0.2,1.1,0.2c0.4,0,0.8-0.1,1.1-0.2c0.4-0.1,0.7-0.3,1.1-0.6l1.1,1.4
				c-0.5,0.4-1,0.6-1.6,0.8C516.2,318.6,515.6,318.7,515,318.7z M516.7,317.4v-3.2h1.8v3.4L516.7,317.4z"/>
			<path d="M524.6,317h4.6v1.6h-6.5v-8.4h6.4v1.6h-4.4V317z M524.5,313.5h4.1v1.5h-4.1V313.5z"/>
			<path d="M540.9,317h4.6v1.6H539v-8.4h6.4v1.6h-4.4V317z M540.8,313.5h4.1v1.5h-4.1V313.5z"/>
			<path d="M549.5,318.5v-8.4h1.6l5,6.1h-0.8v-6.1h1.9v8.4h-1.6l-5-6.1h0.8v6.1H549.5z"/>
			<path d="M565.7,318.7c-0.7,0-1.3-0.1-1.8-0.3c-0.6-0.2-1-0.5-1.5-0.9c-0.4-0.4-0.7-0.9-1-1.4c-0.2-0.5-0.3-1.1-0.3-1.7
				c0-0.6,0.1-1.2,0.3-1.7c0.2-0.5,0.6-1,1-1.4s0.9-0.7,1.5-0.9c0.6-0.2,1.2-0.3,1.9-0.3c0.7,0,1.4,0.1,2,0.4
				c0.6,0.2,1.1,0.6,1.5,1.1l-1.2,1.2c-0.3-0.3-0.7-0.6-1-0.7c-0.4-0.2-0.8-0.2-1.2-0.2c-0.4,0-0.8,0.1-1.1,0.2
				c-0.3,0.1-0.6,0.3-0.9,0.6c-0.2,0.2-0.4,0.5-0.6,0.9c-0.1,0.3-0.2,0.7-0.2,1.1c0,0.4,0.1,0.7,0.2,1.1c0.1,0.3,0.3,0.6,0.6,0.9
				c0.2,0.2,0.5,0.4,0.9,0.6c0.3,0.1,0.7,0.2,1.1,0.2c0.4,0,0.8-0.1,1.1-0.2c0.4-0.1,0.7-0.3,1.1-0.6l1.1,1.4
				c-0.5,0.4-1,0.6-1.6,0.8C566.9,318.6,566.3,318.7,565.7,318.7z M567.4,317.4v-3.2h1.8v3.4L567.4,317.4z"/>
			<path d="M573.4,318.5v-8.4h3.7c0.8,0,1.4,0.1,2,0.4c0.5,0.2,1,0.6,1.3,1.1s0.4,1,0.4,1.6c0,0.6-0.1,1.2-0.4,1.6s-0.7,0.8-1.3,1
				c-0.5,0.2-1.2,0.4-2,0.4h-2.6l0.9-0.8v3.2H573.4z M575.3,315.6l-0.9-0.9h2.5c0.6,0,1-0.1,1.4-0.4c0.3-0.3,0.5-0.6,0.5-1.1
				c0-0.5-0.2-0.8-0.5-1.1c-0.3-0.3-0.8-0.4-1.4-0.4h-2.5l0.9-0.9V315.6z M578.8,318.5l-2.1-3.1h2.1l2.1,3.1H578.8z"/>
			<path d="M583.5,318.5l3.8-8.4h1.9l3.8,8.4h-2l-3.1-7.5h0.8l-3.1,7.5H583.5z M585.4,316.7l0.5-1.5h4.4l0.5,1.5H585.4z"/>
			<path d="M598.4,318.5l-3.7-8.4h2.1l3.2,7.5h-1.2l3.2-7.5h1.9l-3.7,8.4H598.4z"/>
			<path d="M607.1,318.5v-8.4h2v8.4H607.1z"/>
			<path d="M613.4,318.5v-8.4h1.6l5,6.1h-0.8v-6.1h1.9v8.4h-1.6l-5-6.1h0.8v6.1H613.4z"/>
			<path d="M629.7,318.7c-0.7,0-1.3-0.1-1.8-0.3c-0.6-0.2-1-0.5-1.5-0.9c-0.4-0.4-0.7-0.9-1-1.4c-0.2-0.5-0.3-1.1-0.3-1.7
				c0-0.6,0.1-1.2,0.3-1.7c0.2-0.5,0.6-1,1-1.4s0.9-0.7,1.5-0.9c0.6-0.2,1.2-0.3,1.9-0.3c0.7,0,1.4,0.1,2,0.4
				c0.6,0.2,1.1,0.6,1.5,1.1l-1.2,1.2c-0.3-0.3-0.7-0.6-1-0.7c-0.4-0.2-0.8-0.2-1.2-0.2c-0.4,0-0.8,0.1-1.1,0.2
				c-0.3,0.1-0.6,0.3-0.9,0.6c-0.2,0.2-0.4,0.5-0.6,0.9c-0.1,0.3-0.2,0.7-0.2,1.1c0,0.4,0.1,0.7,0.2,1.1c0.1,0.3,0.3,0.6,0.6,0.9
				c0.2,0.2,0.5,0.4,0.9,0.6c0.3,0.1,0.7,0.2,1.1,0.2c0.4,0,0.8-0.1,1.1-0.2c0.4-0.1,0.7-0.3,1.1-0.6l1.1,1.4
				c-0.5,0.4-1,0.6-1.6,0.8C630.9,318.6,630.3,318.7,629.7,318.7z M631.3,317.4v-3.2h1.8v3.4L631.3,317.4z"/>
			<path d="M640.1,318.7c-0.7,0-1.3-0.1-1.9-0.3c-0.6-0.2-1.1-0.4-1.5-0.7l0.7-1.5c0.4,0.3,0.8,0.5,1.3,0.6c0.5,0.2,1,0.2,1.5,0.2
				c0.4,0,0.7,0,0.9-0.1c0.2-0.1,0.4-0.2,0.5-0.3c0.1-0.1,0.2-0.3,0.2-0.5c0-0.2-0.1-0.4-0.3-0.5c-0.2-0.1-0.4-0.2-0.7-0.3
				c-0.3-0.1-0.6-0.2-1-0.2c-0.3-0.1-0.7-0.2-1-0.3c-0.4-0.1-0.7-0.3-1-0.4c-0.3-0.2-0.5-0.4-0.7-0.7c-0.2-0.3-0.3-0.7-0.3-1.1
				c0-0.5,0.1-0.9,0.4-1.3c0.3-0.4,0.6-0.7,1.2-1c0.5-0.2,1.2-0.4,2-0.4c0.5,0,1.1,0.1,1.6,0.2c0.5,0.1,1,0.3,1.4,0.6l-0.6,1.5
				c-0.4-0.2-0.8-0.4-1.2-0.5c-0.4-0.1-0.8-0.2-1.2-0.2c-0.4,0-0.7,0-0.9,0.1c-0.2,0.1-0.4,0.2-0.5,0.3c-0.1,0.1-0.2,0.3-0.2,0.5
				c0,0.2,0.1,0.4,0.3,0.5c0.2,0.1,0.4,0.2,0.7,0.3c0.3,0.1,0.6,0.2,1,0.2c0.4,0.1,0.7,0.2,1,0.3c0.3,0.1,0.7,0.3,1,0.4
				c0.3,0.2,0.5,0.4,0.7,0.7c0.2,0.3,0.3,0.7,0.3,1.1c0,0.5-0.1,0.9-0.4,1.3c-0.3,0.4-0.7,0.7-1.2,1
				C641.6,318.6,640.9,318.7,640.1,318.7z"/>
			<path d="M736.2,320.9c-0.5-0.7-0.9-1.6-1.1-2.5c-0.3-1-0.4-2-0.4-3.1c0-1.1,0.1-2.1,0.4-3.1c0.3-1,0.6-1.8,1.1-2.5h1.8
				c-0.5,0.9-0.9,1.8-1.1,2.7c-0.2,0.9-0.4,1.9-0.4,2.9c0,1,0.1,2,0.4,2.9c0.2,0.9,0.6,1.8,1.1,2.7H736.2z"/>
			<path d="M741.5,318.5v-8.4h3.7c0.8,0,1.4,0.1,2,0.4c0.5,0.2,1,0.6,1.3,1.1s0.4,1,0.4,1.6c0,0.6-0.1,1.2-0.4,1.6s-0.7,0.8-1.3,1.1
				c-0.5,0.2-1.2,0.4-2,0.4h-2.6l0.9-0.9v3.2H741.5z M743.5,315.6l-0.9-0.9h2.5c0.6,0,1-0.1,1.4-0.4c0.3-0.3,0.5-0.6,0.5-1.1
				c0-0.5-0.2-0.8-0.5-1.1c-0.3-0.3-0.8-0.4-1.4-0.4h-2.5l0.9-0.9V315.6z"/>
			<path d="M754.6,317h4.6v1.6h-6.5v-8.4h6.4v1.6h-4.4V317z M754.4,313.5h4.1v1.5h-4.1V313.5z"/>
			<path d="M763.2,318.5v-8.4h3.7c0.8,0,1.4,0.1,2,0.4c0.5,0.2,1,0.6,1.3,1.1s0.4,1,0.4,1.6c0,0.6-0.1,1.2-0.4,1.6s-0.7,0.8-1.3,1
				c-0.5,0.2-1.2,0.4-2,0.4h-2.6l0.9-0.8v3.2H763.2z M765.1,315.6l-0.9-0.9h2.5c0.6,0,1-0.1,1.4-0.4c0.3-0.3,0.5-0.6,0.5-1.1
				c0-0.5-0.2-0.8-0.5-1.1c-0.3-0.3-0.8-0.4-1.4-0.4h-2.5l0.9-0.9V315.6z M768.5,318.5l-2.1-3.1h2.1l2.1,3.1H768.5z"/>
			<path d="M783,318.7c-0.7,0-1.3-0.1-1.9-0.3c-0.6-0.2-1.1-0.4-1.5-0.7l0.7-1.5c0.4,0.3,0.8,0.5,1.3,0.6c0.5,0.2,1,0.2,1.5,0.2
				c0.4,0,0.7,0,0.9-0.1c0.2-0.1,0.4-0.2,0.5-0.3c0.1-0.1,0.2-0.3,0.2-0.5c0-0.2-0.1-0.4-0.3-0.5c-0.2-0.1-0.4-0.2-0.7-0.3
				c-0.3-0.1-0.6-0.2-1-0.2c-0.3-0.1-0.7-0.2-1-0.3c-0.4-0.1-0.7-0.3-1-0.4c-0.3-0.2-0.5-0.4-0.7-0.7c-0.2-0.3-0.3-0.7-0.3-1.1
				c0-0.5,0.1-0.9,0.4-1.3c0.3-0.4,0.6-0.7,1.2-1c0.5-0.2,1.2-0.4,2-0.4c0.5,0,1.1,0.1,1.6,0.2c0.5,0.1,1,0.3,1.4,0.6l-0.6,1.5
				c-0.4-0.2-0.8-0.4-1.2-0.5c-0.4-0.1-0.8-0.2-1.2-0.2c-0.4,0-0.7,0-0.9,0.1c-0.2,0.1-0.4,0.2-0.5,0.3c-0.1,0.1-0.2,0.3-0.2,0.5
				c0,0.2,0.1,0.4,0.3,0.5c0.2,0.1,0.4,0.2,0.7,0.3c0.3,0.1,0.6,0.2,1,0.2c0.4,0.1,0.7,0.2,1,0.3c0.3,0.1,0.7,0.3,1,0.4
				c0.3,0.2,0.5,0.4,0.7,0.7c0.2,0.3,0.3,0.7,0.3,1.1c0,0.5-0.1,0.9-0.4,1.3c-0.3,0.4-0.7,0.7-1.2,1
				C784.5,318.6,783.8,318.7,783,318.7z"/>
			<path d="M794.5,318.7c-0.7,0-1.3-0.1-1.8-0.3c-0.6-0.2-1.1-0.5-1.5-0.9s-0.7-0.9-1-1.4c-0.2-0.5-0.3-1.1-0.3-1.7
				c0-0.6,0.1-1.2,0.3-1.7c0.2-0.5,0.6-1,1-1.4s0.9-0.7,1.5-0.9c0.6-0.2,1.2-0.3,1.8-0.3c0.7,0,1.3,0.1,1.8,0.3
				c0.6,0.2,1,0.5,1.5,0.9s0.7,0.9,1,1.4c0.2,0.5,0.3,1.1,0.3,1.7c0,0.6-0.1,1.2-0.3,1.7c-0.2,0.5-0.6,1-1,1.4s-0.9,0.7-1.5,0.9
				C795.7,318.6,795.1,318.7,794.5,318.7z M794.5,317c0.4,0,0.7-0.1,1-0.2c0.3-0.1,0.6-0.3,0.8-0.6c0.2-0.2,0.4-0.5,0.6-0.9
				c0.1-0.3,0.2-0.7,0.2-1.1c0-0.4-0.1-0.8-0.2-1.1c-0.1-0.3-0.3-0.6-0.6-0.9c-0.2-0.2-0.5-0.4-0.8-0.6c-0.3-0.1-0.7-0.2-1-0.2
				c-0.4,0-0.7,0.1-1,0.2c-0.3,0.1-0.6,0.3-0.8,0.6c-0.2,0.2-0.4,0.5-0.6,0.9c-0.1,0.3-0.2,0.7-0.2,1.1c0,0.4,0.1,0.8,0.2,1.1
				c0.1,0.3,0.3,0.6,0.6,0.9c0.2,0.2,0.5,0.4,0.8,0.6C793.7,317,794.1,317,794.5,317z M797.2,320.5c-0.3,0-0.6,0-0.9-0.1
				c-0.3-0.1-0.6-0.2-0.9-0.4c-0.3-0.2-0.6-0.4-0.9-0.6c-0.3-0.3-0.6-0.6-1-1l2.1-0.5c0.2,0.3,0.4,0.5,0.6,0.7
				c0.2,0.2,0.4,0.3,0.5,0.4c0.2,0.1,0.4,0.1,0.5,0.1c0.5,0,1-0.2,1.4-0.6l0.9,1C798.9,320.1,798.2,320.5,797.2,320.5z"/>
			<path d="M808.8,318.5v-8.4h2v8.4H808.8z"/>
			<path d="M815.2,318.5v-8.4h1.6l5,6.1H821v-6.1h1.9v8.4h-1.6l-5-6.1h0.8v6.1H815.2z"/>
			<path d="M831.4,318.7c-0.7,0-1.3-0.1-1.8-0.3c-0.6-0.2-1-0.5-1.5-0.9c-0.4-0.4-0.7-0.9-1-1.4c-0.2-0.5-0.3-1.1-0.3-1.7
				c0-0.6,0.1-1.2,0.3-1.7c0.2-0.5,0.6-1,1-1.4c0.4-0.4,0.9-0.7,1.5-0.9c0.6-0.2,1.2-0.3,1.8-0.3c0.7,0,1.4,0.1,2,0.4
				c0.6,0.3,1.1,0.6,1.5,1.1l-1.3,1.2c-0.3-0.3-0.6-0.6-1-0.7c-0.4-0.2-0.7-0.3-1.2-0.3c-0.4,0-0.8,0.1-1.1,0.2
				c-0.3,0.1-0.6,0.3-0.9,0.6c-0.2,0.2-0.4,0.5-0.6,0.9c-0.1,0.3-0.2,0.7-0.2,1.1c0,0.4,0.1,0.8,0.2,1.1c0.1,0.3,0.3,0.6,0.6,0.9
				c0.2,0.2,0.5,0.4,0.9,0.6c0.3,0.1,0.7,0.2,1.1,0.2c0.4,0,0.8-0.1,1.2-0.3c0.4-0.2,0.7-0.4,1-0.8l1.3,1.2
				c-0.4,0.5-0.9,0.9-1.5,1.1S832.1,318.7,831.4,318.7z"/>
			<path d="M840.5,318.5h-2v-8.4h2V318.5z M844.5,315.1h-4.1v-1.7h4.1V315.1z M844.4,310.1h2v8.4h-2V310.1z"/>
			<path d="M851.6,320.9h-1.8c0.5-0.9,0.9-1.8,1.1-2.7c0.2-0.9,0.3-1.9,0.3-2.9c0-1-0.1-2-0.3-2.9c-0.2-0.9-0.6-1.8-1.1-2.7h1.8
				c0.5,0.7,0.9,1.6,1.1,2.5c0.3,1,0.4,2,0.4,3.1c0,1.1-0.1,2.1-0.4,3.1C852.5,319.3,852.1,320.2,851.6,320.9z"/>
		</g>
		<g>
			<path d="M446.3,365.3c-0.7,0-1.3-0.1-1.8-0.3c-0.6-0.2-1-0.5-1.5-0.9c-0.4-0.4-0.7-0.9-1-1.4c-0.2-0.5-0.3-1.1-0.3-1.7
				c0-0.6,0.1-1.2,0.3-1.7c0.2-0.5,0.6-1,1-1.4c0.4-0.4,0.9-0.7,1.5-0.9c0.6-0.2,1.2-0.3,1.8-0.3c0.7,0,1.4,0.1,2,0.4
				c0.6,0.3,1.1,0.6,1.5,1.1l-1.3,1.2c-0.3-0.3-0.6-0.6-1-0.7c-0.4-0.2-0.7-0.3-1.2-0.3c-0.4,0-0.8,0.1-1.1,0.2
				c-0.3,0.1-0.6,0.3-0.9,0.6c-0.2,0.2-0.4,0.5-0.6,0.9c-0.1,0.3-0.2,0.7-0.2,1.1c0,0.4,0.1,0.8,0.2,1.1c0.1,0.3,0.3,0.6,0.6,0.9
				c0.2,0.2,0.5,0.4,0.9,0.6c0.3,0.1,0.7,0.2,1.1,0.2c0.4,0,0.8-0.1,1.2-0.3c0.4-0.2,0.7-0.4,1-0.8l1.3,1.2
				c-0.4,0.5-0.9,0.9-1.5,1.1S447,365.3,446.3,365.3z"/>
			<path d="M457.2,365.3c-1.2,0-2.1-0.3-2.8-1c-0.7-0.7-1-1.6-1-2.9v-4.7h2v4.7c0,0.8,0.2,1.4,0.5,1.7s0.8,0.5,1.4,0.5
				c0.6,0,1.1-0.2,1.4-0.5s0.5-0.9,0.5-1.7v-4.7h1.9v4.7c0,1.2-0.3,2.2-1,2.9C459.3,365,458.4,365.3,457.2,365.3z"/>
			<path d="M468.2,365.3c-0.7,0-1.3-0.1-1.9-0.3s-1.1-0.4-1.5-0.7l0.7-1.5c0.4,0.3,0.8,0.5,1.3,0.6c0.5,0.2,1,0.2,1.5,0.2
				c0.4,0,0.7,0,0.9-0.1c0.2-0.1,0.4-0.2,0.5-0.3c0.1-0.1,0.2-0.3,0.2-0.5c0-0.2-0.1-0.4-0.3-0.5c-0.2-0.1-0.4-0.2-0.7-0.3
				c-0.3-0.1-0.6-0.2-1-0.2c-0.3-0.1-0.7-0.2-1-0.3c-0.4-0.1-0.7-0.3-1-0.4c-0.3-0.2-0.5-0.4-0.7-0.7c-0.2-0.3-0.3-0.7-0.3-1.1
				c0-0.5,0.1-0.9,0.4-1.3c0.3-0.4,0.6-0.7,1.2-1c0.5-0.2,1.2-0.4,2-0.4c0.5,0,1.1,0.1,1.6,0.2c0.5,0.1,1,0.3,1.4,0.6l-0.6,1.5
				c-0.4-0.2-0.8-0.4-1.2-0.5c-0.4-0.1-0.8-0.2-1.2-0.2c-0.4,0-0.7,0-0.9,0.1c-0.2,0.1-0.4,0.2-0.5,0.3c-0.1,0.1-0.2,0.3-0.2,0.5
				c0,0.2,0.1,0.4,0.3,0.5c0.2,0.1,0.4,0.2,0.7,0.3c0.3,0.1,0.6,0.2,1,0.2c0.4,0.1,0.7,0.2,1,0.3c0.3,0.1,0.7,0.3,1,0.4
				c0.3,0.2,0.5,0.4,0.7,0.7c0.2,0.3,0.3,0.7,0.3,1.1c0,0.5-0.1,0.9-0.4,1.3c-0.3,0.4-0.7,0.7-1.2,1
				C469.6,365.2,469,365.3,468.2,365.3z"/>
			<path d="M477.1,365.2v-6.9h-2.7v-1.6h7.4v1.6h-2.7v6.9H477.1z"/>
			<path d="M489.2,365.3c-0.7,0-1.3-0.1-1.8-0.3c-0.6-0.2-1.1-0.5-1.5-0.9c-0.4-0.4-0.7-0.9-1-1.4c-0.2-0.5-0.3-1.1-0.3-1.7
				c0-0.6,0.1-1.2,0.3-1.7c0.2-0.5,0.6-1,1-1.4c0.4-0.4,0.9-0.7,1.5-0.9c0.6-0.2,1.2-0.3,1.8-0.3c0.7,0,1.3,0.1,1.8,0.3
				c0.6,0.2,1,0.5,1.5,0.9c0.4,0.4,0.7,0.9,1,1.4c0.2,0.5,0.3,1.1,0.3,1.7c0,0.6-0.1,1.2-0.3,1.7c-0.2,0.5-0.6,1-1,1.4
				c-0.4,0.4-0.9,0.7-1.5,0.9C490.5,365.2,489.9,365.3,489.2,365.3z M489.2,363.7c0.4,0,0.7-0.1,1-0.2c0.3-0.1,0.6-0.3,0.8-0.6
				c0.2-0.2,0.4-0.5,0.6-0.9c0.1-0.3,0.2-0.7,0.2-1.1c0-0.4-0.1-0.8-0.2-1.1c-0.1-0.3-0.3-0.6-0.6-0.9c-0.2-0.2-0.5-0.4-0.8-0.6
				c-0.3-0.1-0.7-0.2-1-0.2s-0.7,0.1-1,0.2c-0.3,0.1-0.6,0.3-0.8,0.6c-0.2,0.2-0.4,0.5-0.6,0.9c-0.1,0.3-0.2,0.7-0.2,1.1
				c0,0.4,0.1,0.8,0.2,1.1c0.1,0.3,0.3,0.6,0.6,0.9s0.5,0.4,0.8,0.6C488.5,363.6,488.8,363.7,489.2,363.7z"/>
			<path d="M497.7,365.2v-8.4h1.6l3.6,6h-0.9l3.5-6h1.6v8.4h-1.8l0-5.6h0.4l-2.8,4.7H502l-2.9-4.7h0.4v5.6H497.7z"/>
			<path d="M520,365.2l-3.7-8.4h2.1l3.2,7.5h-1.2l3.2-7.5h1.9l-3.7,8.4H520z"/>
			<path d="M530.6,363.6h4.6v1.6h-6.5v-8.4h6.4v1.6h-4.4V363.6z M530.5,360.1h4.1v1.5h-4.1V360.1z"/>
			<path d="M543.2,365.3c-0.7,0-1.3-0.1-1.8-0.3c-0.6-0.2-1-0.5-1.5-0.9c-0.4-0.4-0.7-0.9-1-1.4c-0.2-0.5-0.3-1.1-0.3-1.7
				c0-0.6,0.1-1.2,0.3-1.7c0.2-0.5,0.6-1,1-1.4c0.4-0.4,0.9-0.7,1.5-0.9c0.6-0.2,1.2-0.3,1.8-0.3c0.7,0,1.4,0.1,2,0.4
				c0.6,0.3,1.1,0.6,1.5,1.1l-1.3,1.2c-0.3-0.3-0.6-0.6-1-0.7c-0.4-0.2-0.7-0.3-1.2-0.3c-0.4,0-0.8,0.1-1.1,0.2
				c-0.3,0.1-0.6,0.3-0.9,0.6c-0.2,0.2-0.4,0.5-0.6,0.9c-0.1,0.3-0.2,0.7-0.2,1.1c0,0.4,0.1,0.8,0.2,1.1c0.1,0.3,0.3,0.6,0.6,0.9
				c0.2,0.2,0.5,0.4,0.9,0.6c0.3,0.1,0.7,0.2,1.1,0.2c0.4,0,0.8-0.1,1.2-0.3c0.4-0.2,0.7-0.4,1-0.8l1.3,1.2
				c-0.4,0.5-0.9,0.9-1.5,1.1S544,365.3,543.2,365.3z"/>
			<path d="M552.1,365.2v-6.9h-2.7v-1.6h7.4v1.6h-2.7v6.9H552.1z"/>
			<path d="M564.2,365.3c-0.7,0-1.3-0.1-1.8-0.3c-0.6-0.2-1.1-0.5-1.5-0.9c-0.4-0.4-0.7-0.9-1-1.4c-0.2-0.5-0.3-1.1-0.3-1.7
				c0-0.6,0.1-1.2,0.3-1.7c0.2-0.5,0.6-1,1-1.4s0.9-0.7,1.5-0.9c0.6-0.2,1.2-0.3,1.8-0.3c0.7,0,1.3,0.1,1.8,0.3
				c0.6,0.2,1,0.5,1.5,0.9c0.4,0.4,0.7,0.9,1,1.4c0.2,0.5,0.3,1.1,0.3,1.7c0,0.6-0.1,1.2-0.3,1.7c-0.2,0.5-0.6,1-1,1.4
				c-0.4,0.4-0.9,0.7-1.5,0.9C565.5,365.2,564.9,365.3,564.2,365.3z M564.2,363.7c0.4,0,0.7-0.1,1-0.2c0.3-0.1,0.6-0.3,0.8-0.6
				s0.4-0.5,0.6-0.9c0.1-0.3,0.2-0.7,0.2-1.1c0-0.4-0.1-0.8-0.2-1.1c-0.1-0.3-0.3-0.6-0.6-0.9c-0.2-0.2-0.5-0.4-0.8-0.6
				c-0.3-0.1-0.7-0.2-1-0.2c-0.4,0-0.7,0.1-1,0.2c-0.3,0.1-0.6,0.3-0.8,0.6c-0.2,0.2-0.4,0.5-0.6,0.9c-0.1,0.3-0.2,0.7-0.2,1.1
				c0,0.4,0.1,0.8,0.2,1.1c0.1,0.3,0.3,0.6,0.6,0.9c0.2,0.2,0.5,0.4,0.8,0.6C563.5,363.6,563.8,363.7,564.2,363.7z"/>
			<path d="M572.7,365.2v-8.4h3.7c0.8,0,1.4,0.1,2,0.4c0.5,0.2,1,0.6,1.3,1.1c0.3,0.5,0.4,1,0.4,1.6c0,0.6-0.1,1.2-0.4,1.6
				c-0.3,0.5-0.7,0.8-1.3,1c-0.5,0.2-1.2,0.4-2,0.4h-2.6l0.9-0.8v3.2H572.7z M574.7,362.2l-0.9-0.9h2.5c0.6,0,1-0.1,1.4-0.4
				c0.3-0.3,0.5-0.6,0.5-1.1c0-0.5-0.2-0.8-0.5-1.1c-0.3-0.3-0.8-0.4-1.4-0.4h-2.5l0.9-0.9V362.2z M578.1,365.2l-2.1-3.1h2.1
				l2.1,3.1H578.1z"/>
			<path d="M593.8,365.3c-0.7,0-1.3-0.1-1.8-0.3c-0.6-0.2-1-0.5-1.5-0.9c-0.4-0.4-0.7-0.9-1-1.4c-0.2-0.5-0.3-1.1-0.3-1.7
				c0-0.6,0.1-1.2,0.3-1.7c0.2-0.5,0.6-1,1-1.4c0.4-0.4,0.9-0.7,1.5-0.9c0.6-0.2,1.2-0.3,1.8-0.3c0.7,0,1.4,0.1,2,0.4
				c0.6,0.3,1.1,0.6,1.5,1.1l-1.3,1.2c-0.3-0.3-0.6-0.6-1-0.7c-0.4-0.2-0.7-0.3-1.2-0.3c-0.4,0-0.8,0.1-1.1,0.2
				c-0.3,0.1-0.6,0.3-0.9,0.6s-0.4,0.5-0.6,0.9c-0.1,0.3-0.2,0.7-0.2,1.1c0,0.4,0.1,0.8,0.2,1.1c0.1,0.3,0.3,0.6,0.6,0.9
				c0.2,0.2,0.5,0.4,0.9,0.6c0.3,0.1,0.7,0.2,1.1,0.2c0.4,0,0.8-0.1,1.2-0.3c0.4-0.2,0.7-0.4,1-0.8l1.3,1.2
				c-0.4,0.5-0.9,0.9-1.5,1.1C595.3,365.2,594.6,365.3,593.8,365.3z"/>
			<path d="M601.1,365.2v-8.4h3.7c0.8,0,1.4,0.1,2,0.4c0.5,0.2,1,0.6,1.3,1.1c0.3,0.5,0.4,1,0.4,1.6c0,0.6-0.1,1.2-0.4,1.6
				c-0.3,0.5-0.7,0.8-1.3,1c-0.5,0.2-1.2,0.4-2,0.4h-2.6l0.9-0.8v3.2H601.1z M603,362.2l-0.9-0.9h2.5c0.6,0,1-0.1,1.4-0.4
				c0.3-0.3,0.5-0.6,0.5-1.1c0-0.5-0.2-0.8-0.5-1.1c-0.3-0.3-0.8-0.4-1.4-0.4h-2.5l0.9-0.9V362.2z M606.4,365.2l-2.1-3.1h2.1
				l2.1,3.1H606.4z"/>
			<path d="M614.3,363.6h4.6v1.6h-6.5v-8.4h6.4v1.6h-4.4V363.6z M614.1,360.1h4.1v1.5h-4.1V360.1z"/>
			<path d="M621.7,365.2l3.8-8.4h1.9l3.8,8.4h-2l-3.1-7.5h0.8l-3.1,7.5H621.7z M623.6,363.4l0.5-1.5h4.4l0.5,1.5H623.6z"/>
			<path d="M635.8,365.2v-6.9h-2.7v-1.6h7.4v1.6h-2.7v6.9H635.8z"/>
			<path d="M643.9,365.2v-8.4h2v8.4H643.9z"/>
			<path d="M654.4,365.3c-0.7,0-1.3-0.1-1.8-0.3s-1.1-0.5-1.5-0.9c-0.4-0.4-0.7-0.9-1-1.4c-0.2-0.5-0.3-1.1-0.3-1.7
				c0-0.6,0.1-1.2,0.3-1.7c0.2-0.5,0.6-1,1-1.4s0.9-0.7,1.5-0.9c0.6-0.2,1.2-0.3,1.8-0.3c0.7,0,1.3,0.1,1.8,0.3
				c0.6,0.2,1,0.5,1.5,0.9c0.4,0.4,0.7,0.9,1,1.4c0.2,0.5,0.3,1.1,0.3,1.7c0,0.6-0.1,1.2-0.3,1.7c-0.2,0.5-0.6,1-1,1.4
				c-0.4,0.4-0.9,0.7-1.5,0.9C655.7,365.2,655.1,365.3,654.4,365.3z M654.4,363.7c0.4,0,0.7-0.1,1-0.2c0.3-0.1,0.6-0.3,0.8-0.6
				c0.2-0.2,0.4-0.5,0.6-0.9c0.1-0.3,0.2-0.7,0.2-1.1c0-0.4-0.1-0.8-0.2-1.1c-0.1-0.3-0.3-0.6-0.6-0.9c-0.2-0.2-0.5-0.4-0.8-0.6
				c-0.3-0.1-0.7-0.2-1-0.2c-0.4,0-0.7,0.1-1,0.2c-0.3,0.1-0.6,0.3-0.8,0.6c-0.2,0.2-0.4,0.5-0.6,0.9c-0.1,0.3-0.2,0.7-0.2,1.1
				c0,0.4,0.1,0.8,0.2,1.1c0.1,0.3,0.3,0.6,0.6,0.9c0.2,0.2,0.5,0.4,0.8,0.6C653.7,363.6,654,363.7,654.4,363.7z"/>
			<path d="M662.9,365.2v-8.4h1.6l5,6.1h-0.8v-6.1h1.9v8.4H669l-5-6.1h0.8v6.1H662.9z"/>
		</g>
		<g>
			<path d="M430.2,431.6v-8.9h3.8c0.8,0,1.5,0.1,2.1,0.4s1,0.6,1.3,1.1c0.3,0.5,0.5,1.1,0.5,1.7c0,0.7-0.2,1.2-0.5,1.7
				c-0.3,0.5-0.8,0.8-1.3,1.1c-0.6,0.3-1.3,0.4-2.1,0.4h-2.7l0.9-0.9v3.4H430.2z M432.3,428.5l-0.9-1h2.6c0.6,0,1.1-0.1,1.4-0.4
				c0.3-0.3,0.5-0.6,0.5-1.1c0-0.5-0.2-0.9-0.5-1.1c-0.3-0.3-0.8-0.4-1.4-0.4h-2.6l0.9-1V428.5z M435.9,431.6l-2.2-3.2h2.2l2.2,3.2
				H435.9z"/>
			<path d="M444.1,430h4.8v1.6h-6.9v-8.9h6.7v1.6h-4.7V430z M443.9,426.3h4.3v1.6h-4.3V426.3z"/>
			<path d="M454.9,431.6v-7.2h-2.8v-1.7h7.7v1.7H457v7.2H454.9z"/>
			<path d="M461.8,431.6l3.9-8.9h2l4,8.9h-2.2l-3.3-7.8h0.8l-3.3,7.8H461.8z M463.8,429.7l0.5-1.6h4.6l0.5,1.6H463.8z"/>
			<path d="M475.2,431.6v-8.9h2.1v8.9H475.2z"/>
			<path d="M481.9,431.6v-8.9h2.1v7.2h4.4v1.7H481.9z"/>
			<path d="M498.2,431.6v-8.9h2.1v8.9H498.2z"/>
			<path d="M506.8,431.6v-7.2h-2.8v-1.7h7.7v1.7h-2.8v7.2H506.8z"/>
			<path d="M517.3,430h4.8v1.6h-6.9v-8.9h6.7v1.6h-4.7V430z M517.2,426.3h4.3v1.6h-4.3V426.3z"/>
			<path d="M526.3,431.6v-8.9h1.7l3.8,6.3h-0.9l3.7-6.3h1.7v8.9h-1.9l0-5.9h0.4l-3,5h-0.9l-3-5h0.4v5.9H526.3z"/>
			<path d="M543.9,431.8c-0.7,0-1.4-0.1-2-0.3c-0.7-0.2-1.2-0.4-1.6-0.7l0.7-1.5c0.4,0.3,0.8,0.5,1.3,0.7c0.5,0.2,1.1,0.3,1.6,0.3
				c0.4,0,0.7,0,1-0.1c0.2-0.1,0.4-0.2,0.6-0.3c0.1-0.1,0.2-0.3,0.2-0.5c0-0.2-0.1-0.4-0.3-0.6c-0.2-0.1-0.4-0.3-0.7-0.3
				c-0.3-0.1-0.6-0.2-1-0.3c-0.4-0.1-0.7-0.2-1.1-0.3c-0.4-0.1-0.7-0.3-1-0.5s-0.6-0.4-0.7-0.7c-0.2-0.3-0.3-0.7-0.3-1.2
				c0-0.5,0.1-1,0.4-1.4c0.3-0.4,0.7-0.8,1.2-1c0.6-0.2,1.2-0.4,2.1-0.4c0.6,0,1.1,0.1,1.7,0.2c0.5,0.1,1,0.3,1.4,0.6l-0.6,1.5
				c-0.4-0.2-0.8-0.4-1.2-0.5c-0.4-0.1-0.8-0.2-1.2-0.2c-0.4,0-0.7,0-1,0.1c-0.2,0.1-0.4,0.2-0.5,0.4c-0.1,0.2-0.2,0.3-0.2,0.5
				c0,0.2,0.1,0.4,0.3,0.6c0.2,0.1,0.4,0.3,0.7,0.3c0.3,0.1,0.6,0.2,1,0.2c0.4,0.1,0.7,0.2,1.1,0.3c0.4,0.1,0.7,0.3,1,0.4
				c0.3,0.2,0.5,0.4,0.7,0.7c0.2,0.3,0.3,0.7,0.3,1.1c0,0.5-0.1,1-0.4,1.4c-0.3,0.4-0.7,0.7-1.2,1
				C545.4,431.7,544.7,431.8,543.9,431.8z"/>
			<path d="M558.2,431.6v-13.2h6c1.4,0,2.7,0.3,3.8,0.8c1.1,0.5,1.9,1.3,2.6,2.3c0.6,1,0.9,2.1,0.9,3.5c0,1.3-0.3,2.5-0.9,3.5
				c-0.6,1-1.5,1.7-2.6,2.3c-1.1,0.5-2.4,0.8-3.8,0.8H558.2z M561.3,429.1h2.8c0.9,0,1.6-0.2,2.3-0.5c0.6-0.3,1.1-0.8,1.5-1.4
				c0.4-0.6,0.5-1.3,0.5-2.2c0-0.8-0.2-1.6-0.5-2.2c-0.4-0.6-0.9-1.1-1.5-1.4c-0.6-0.3-1.4-0.5-2.3-0.5h-2.8V429.1z"/>
			<path d="M583.5,431.9c-1,0-1.9-0.2-2.8-0.5c-0.8-0.3-1.6-0.8-2.2-1.4c-0.6-0.6-1.1-1.3-1.5-2.1c-0.3-0.8-0.5-1.7-0.5-2.6
				c0-0.9,0.2-1.8,0.5-2.6c0.3-0.8,0.8-1.5,1.5-2.1s1.4-1,2.2-1.4c0.8-0.3,1.8-0.5,2.8-0.5c1,0,1.9,0.2,2.8,0.5
				c0.8,0.3,1.6,0.8,2.2,1.4c0.6,0.6,1.1,1.3,1.5,2.1c0.3,0.8,0.5,1.7,0.5,2.6c0,0.9-0.2,1.8-0.5,2.6c-0.3,0.8-0.8,1.5-1.5,2.1
				c-0.6,0.6-1.4,1-2.2,1.4C585.4,431.7,584.5,431.9,583.5,431.9z M583.5,429.4c0.6,0,1.1-0.1,1.6-0.3c0.5-0.2,0.9-0.5,1.3-0.8
				c0.4-0.4,0.6-0.8,0.8-1.3c0.2-0.5,0.3-1,0.3-1.6c0-0.6-0.1-1.1-0.3-1.6c-0.2-0.5-0.5-0.9-0.8-1.3c-0.4-0.4-0.8-0.6-1.3-0.8
				c-0.5-0.2-1-0.3-1.6-0.3c-0.6,0-1.1,0.1-1.6,0.3c-0.5,0.2-0.9,0.5-1.3,0.8c-0.4,0.4-0.6,0.8-0.8,1.3c-0.2,0.5-0.3,1-0.3,1.6
				c0,0.6,0.1,1.1,0.3,1.6c0.2,0.5,0.5,0.9,0.8,1.3c0.4,0.4,0.8,0.6,1.3,0.8C582.4,429.3,582.9,429.4,583.5,429.4z"/>
			<path d="M596.1,431.6v-11.3h2.2l6.7,8.2h-1.1v-8.2h2.6v11.3h-2.2l-6.7-8.2h1.1v8.2H596.1z"/>
			<path d="M611.7,425.3l1-3.7l0.3,1.4c-0.4,0-0.8-0.1-1.1-0.4c-0.3-0.3-0.4-0.6-0.4-1.1c0-0.5,0.1-0.8,0.4-1.1
				c0.3-0.3,0.6-0.4,1.1-0.4c0.4,0,0.8,0.1,1.1,0.4c0.3,0.3,0.4,0.6,0.4,1.1c0,0.1,0,0.3,0,0.4c0,0.1-0.1,0.3-0.1,0.5
				c-0.1,0.2-0.2,0.4-0.3,0.7l-0.9,2.2H611.7z"/>
			<path d="M622.7,431.6v-11h-4.4V418h11.9v2.6h-4.4v11H622.7z"/>
			<path d="M641.3,431.6v-8.9h2.1v8.9H641.3z"/>
			<path d="M648,431.6v-8.9h1.7l5.2,6.4h-0.8v-6.4h2v8.9h-1.7l-5.2-6.4h0.8v6.4H648z"/>
			<path d="M665,431.8c-0.7,0-1.3-0.1-1.9-0.3c-0.6-0.2-1.1-0.5-1.5-1c-0.4-0.4-0.8-0.9-1-1.5c-0.2-0.6-0.4-1.2-0.4-1.8
				c0-0.7,0.1-1.3,0.4-1.8c0.2-0.6,0.6-1,1-1.5c0.4-0.4,0.9-0.7,1.5-1c0.6-0.2,1.2-0.3,1.9-0.3c0.8,0,1.5,0.1,2.1,0.4
				c0.6,0.3,1.1,0.7,1.6,1.2l-1.3,1.2c-0.3-0.3-0.6-0.6-1-0.8c-0.4-0.2-0.8-0.3-1.2-0.3c-0.4,0-0.8,0.1-1.1,0.2
				c-0.3,0.1-0.6,0.3-0.9,0.6c-0.3,0.3-0.5,0.6-0.6,0.9c-0.1,0.3-0.2,0.7-0.2,1.2s0.1,0.8,0.2,1.2s0.3,0.6,0.6,0.9
				c0.3,0.3,0.6,0.4,0.9,0.6c0.3,0.1,0.7,0.2,1.1,0.2c0.4,0,0.8-0.1,1.2-0.3c0.4-0.2,0.7-0.4,1-0.8l1.3,1.2
				c-0.4,0.5-0.9,0.9-1.6,1.2C666.5,431.6,665.8,431.8,665,431.8z"/>
			<path d="M672.6,431.6v-8.9h2.1v7.2h4.4v1.7H672.6z"/>
			<path d="M686.6,431.8c-1.3,0-2.2-0.4-3-1.1c-0.7-0.7-1.1-1.7-1.1-3v-5h2.1v4.9c0,0.8,0.2,1.4,0.5,1.8c0.3,0.4,0.8,0.6,1.4,0.6
				c0.6,0,1.1-0.2,1.5-0.6c0.3-0.4,0.5-1,0.5-1.8v-4.9h2v5c0,1.3-0.4,2.3-1.1,3C688.8,431.4,687.9,431.8,686.6,431.8z"/>
			<path d="M695.2,431.6v-8.9h4c1,0,1.8,0.2,2.5,0.6c0.7,0.4,1.3,0.9,1.7,1.5c0.4,0.7,0.6,1.4,0.6,2.3s-0.2,1.7-0.6,2.3
				c-0.4,0.7-1,1.2-1.7,1.5c-0.7,0.4-1.6,0.6-2.5,0.6H695.2z M697.3,430h1.9c0.6,0,1.1-0.1,1.5-0.3c0.4-0.2,0.8-0.5,1-1
				c0.2-0.4,0.4-0.9,0.4-1.5c0-0.6-0.1-1.1-0.4-1.5c-0.2-0.4-0.6-0.7-1-1c-0.4-0.2-0.9-0.3-1.5-0.3h-1.9V430z"/>
			<path d="M710.2,430h4.8v1.6h-6.9v-8.9h6.7v1.6h-4.7V430z M710.1,426.3h4.3v1.6h-4.3V426.3z"/>
			<path d="M727.4,430h4.8v1.6h-6.9v-8.9h6.7v1.6h-4.7V430z M727.2,426.3h4.3v1.6h-4.3V426.3z"/>
			<path d="M736.4,431.6v-8.9h1.7l5.2,6.4h-0.8v-6.4h2v8.9h-1.7l-5.2-6.4h0.8v6.4H736.4z"/>
			<path d="M753.4,431.8c-0.7,0-1.3-0.1-1.9-0.3c-0.6-0.2-1.1-0.5-1.5-1c-0.4-0.4-0.8-0.9-1-1.5c-0.2-0.6-0.4-1.2-0.4-1.8
				c0-0.7,0.1-1.3,0.4-1.8c0.2-0.6,0.6-1,1-1.5c0.4-0.4,1-0.7,1.5-1c0.6-0.2,1.2-0.3,2-0.3c0.8,0,1.5,0.1,2.1,0.4
				c0.6,0.3,1.2,0.6,1.6,1.1l-1.3,1.2c-0.3-0.3-0.7-0.6-1.1-0.8c-0.4-0.2-0.8-0.2-1.3-0.2c-0.4,0-0.8,0.1-1.2,0.2
				c-0.4,0.1-0.7,0.3-0.9,0.6c-0.3,0.3-0.5,0.6-0.6,0.9c-0.1,0.3-0.2,0.7-0.2,1.2c0,0.4,0.1,0.8,0.2,1.1c0.1,0.4,0.3,0.7,0.6,0.9
				c0.3,0.3,0.6,0.5,0.9,0.6s0.7,0.2,1.2,0.2c0.4,0,0.8-0.1,1.2-0.2c0.4-0.1,0.8-0.4,1.1-0.7l1.2,1.5c-0.5,0.4-1.1,0.7-1.7,0.8
				C754.7,431.7,754.1,431.8,753.4,431.8z M755.1,430.4v-3.3h1.9v3.6L755.1,430.4z"/>
			<path d="M761.4,431.6v-8.9h3.8c0.8,0,1.5,0.1,2.1,0.4c0.6,0.3,1,0.6,1.3,1.1c0.3,0.5,0.5,1.1,0.5,1.7c0,0.7-0.2,1.2-0.5,1.7
				c-0.3,0.5-0.8,0.8-1.3,1.1c-0.6,0.3-1.3,0.4-2.1,0.4h-2.7l0.9-0.9v3.4H761.4z M763.5,428.5l-0.9-1h2.6c0.6,0,1.1-0.1,1.4-0.4
				c0.3-0.3,0.5-0.6,0.5-1.1c0-0.5-0.2-0.9-0.5-1.1c-0.3-0.3-0.8-0.4-1.4-0.4h-2.6l0.9-1V428.5z M767.1,431.6l-2.2-3.2h2.2l2.2,3.2
				H767.1z"/>
			<path d="M772.1,431.6l3.9-8.9h2l4,8.9h-2.2l-3.3-7.8h0.8l-3.3,7.8H772.1z M774.1,429.7l0.5-1.6h4.6l0.5,1.6H774.1z"/>
			<path d="M787.7,431.6l-3.8-8.9h2.2l3.3,7.9h-1.3l3.4-7.9h2l-3.8,8.9H787.7z"/>
			<path d="M796.8,431.6v-8.9h2.1v8.9H796.8z"/>
			<path d="M803.5,431.6v-8.9h1.7l5.2,6.4h-0.8v-6.4h2v8.9H810l-5.2-6.4h0.8v6.4H803.5z"/>
			<path d="M820.6,431.8c-0.7,0-1.3-0.1-1.9-0.3c-0.6-0.2-1.1-0.5-1.5-1c-0.4-0.4-0.8-0.9-1-1.5c-0.2-0.6-0.4-1.2-0.4-1.8
				c0-0.7,0.1-1.3,0.4-1.8c0.2-0.6,0.6-1,1-1.5c0.4-0.4,1-0.7,1.5-1c0.6-0.2,1.2-0.3,2-0.3c0.8,0,1.5,0.1,2.1,0.4
				c0.6,0.3,1.2,0.6,1.6,1.1l-1.3,1.2c-0.3-0.3-0.7-0.6-1.1-0.8c-0.4-0.2-0.8-0.2-1.3-0.2c-0.4,0-0.8,0.1-1.2,0.2
				c-0.4,0.1-0.7,0.3-0.9,0.6c-0.3,0.3-0.5,0.6-0.6,0.9c-0.1,0.3-0.2,0.7-0.2,1.2c0,0.4,0.1,0.8,0.2,1.1c0.1,0.4,0.3,0.7,0.6,0.9
				c0.3,0.3,0.6,0.5,0.9,0.6s0.7,0.2,1.2,0.2c0.4,0,0.8-0.1,1.2-0.2c0.4-0.1,0.8-0.4,1.1-0.7l1.2,1.5c-0.5,0.4-1.1,0.7-1.7,0.8
				C821.8,431.7,821.2,431.8,820.6,431.8z M822.3,430.4v-3.3h1.9v3.6L822.3,430.4z"/>
		</g>
		<g>
			<path class="st9" d="M759.7,385.8h-54.5c-7.1,0-12.9-5.8-12.9-12.9v-23.9c0-7.1,5.8-12.9,12.9-12.9h54.5
				c7.1,0,12.9,5.8,12.9,12.9V373C772.5,380.1,766.8,385.8,759.7,385.8z"/>
			<g>
				<path d="M705.9,361.8c-1,0-2-0.1-3-0.4c-1-0.3-1.7-0.6-2.3-1.1l1-2.3c0.5,0.4,1.2,0.7,2,1c0.8,0.3,1.5,0.4,2.3,0.4
					c0.6,0,1.1-0.1,1.4-0.2c0.4-0.1,0.6-0.3,0.8-0.5c0.2-0.2,0.3-0.4,0.3-0.7c0-0.3-0.1-0.6-0.4-0.8c-0.3-0.2-0.6-0.4-1.1-0.5
					c-0.4-0.1-0.9-0.3-1.5-0.4c-0.5-0.1-1.1-0.3-1.6-0.4c-0.5-0.2-1-0.4-1.5-0.7c-0.4-0.3-0.8-0.6-1.1-1.1s-0.4-1-0.4-1.7
					c0-0.7,0.2-1.4,0.6-2c0.4-0.6,1-1.1,1.8-1.5c0.8-0.4,1.8-0.5,3-0.5c0.8,0,1.6,0.1,2.4,0.3c0.8,0.2,1.5,0.5,2.1,0.8l-0.9,2.3
					c-0.6-0.3-1.2-0.6-1.8-0.7c-0.6-0.2-1.2-0.2-1.8-0.2c-0.6,0-1.1,0.1-1.4,0.2c-0.4,0.1-0.6,0.3-0.8,0.5c-0.2,0.2-0.2,0.5-0.2,0.7
					c0,0.3,0.1,0.6,0.4,0.8c0.3,0.2,0.6,0.4,1.1,0.5c0.4,0.1,0.9,0.2,1.5,0.4c0.5,0.1,1.1,0.3,1.6,0.4c0.5,0.2,1,0.4,1.5,0.7
					c0.4,0.3,0.8,0.6,1.1,1.1c0.3,0.4,0.4,1,0.4,1.7c0,0.7-0.2,1.4-0.6,2c-0.4,0.6-1,1.1-1.8,1.5
					C708.1,361.6,707.1,361.8,705.9,361.8z M705.2,363.8v-17.3h1.9v17.3H705.2z"/>
				<path d="M718.5,373v-3.4l8.7-8.3c0.7-0.6,1.2-1.2,1.5-1.7s0.6-0.9,0.7-1.4c0.1-0.4,0.2-0.8,0.2-1.2c0-0.9-0.3-1.6-0.9-2.1
					c-0.6-0.5-1.5-0.7-2.7-0.7c-1,0-1.9,0.2-2.7,0.6c-0.8,0.4-1.5,1-2,1.7l-3.8-2.5c0.8-1.3,2-2.3,3.6-3.1c1.6-0.8,3.3-1.1,5.4-1.1
					c1.7,0,3.2,0.3,4.4,0.8c1.3,0.5,2.3,1.3,3,2.3c0.7,1,1.1,2.2,1.1,3.6c0,0.7-0.1,1.4-0.3,2.2c-0.2,0.7-0.6,1.5-1.1,2.3
					c-0.5,0.8-1.3,1.7-2.4,2.7l-7.3,6.8l-1-1.9h12.8v4.3H718.5z"/>
				<path d="M752,373.4c-1.6,0-3.1-0.2-4.7-0.6c-1.5-0.4-2.9-1-4-1.8l2.1-4c0.8,0.6,1.8,1.1,3,1.5c1.1,0.4,2.3,0.6,3.5,0.6
					c1.3,0,2.4-0.3,3.1-0.8c0.8-0.5,1.1-1.3,1.1-2.2c0-0.6-0.2-1.1-0.5-1.6c-0.3-0.4-0.9-0.8-1.6-1c-0.8-0.2-1.8-0.4-3.2-0.4H745
					l1.1-12.8H760v4.2h-12l2.7-2.4l-0.8,9.1l-2.7-2.4h4.8c2.2,0,4,0.3,5.4,0.9c1.4,0.6,2.4,1.4,3,2.5s1,2.3,1,3.6
					c0,1.3-0.3,2.5-1,3.7c-0.7,1.1-1.7,2.1-3.1,2.8C755.9,373,754.1,373.4,752,373.4z"/>
			</g>
		</g>
		<g>
			<path d="M780.1,222.3c0,2.7-1,5-3,7c-1.9,1.9-4.3,2.9-7.1,2.9c-2.8,0-5.2-1-7.2-2.9c-2-2-3-4.4-3-7.2c0-2.8,1-5.1,2.9-7.1
				c2-2,4.3-2.9,7.1-2.9c2.9,0,5.3,1,7.3,3C779.1,216.9,780.1,219.4,780.1,222.3z"/>
			<path d="M806.8,222.3c0,2.7-1,5-3,7c-1.9,1.9-4.3,2.9-7.1,2.9c-2.8,0-5.2-1-7.2-2.9c-2-2-3-4.4-3-7.2c0-2.8,1-5.1,2.9-7.1
				c2-2,4.3-2.9,7.1-2.9c2.9,0,5.3,1,7.3,3C805.8,216.9,806.8,219.4,806.8,222.3z"/>
			<path d="M833.5,222.3c0,2.7-1,5-3,7c-1.9,1.9-4.3,2.9-7.1,2.9c-2.8,0-5.2-1-7.2-2.9c-2-2-3-4.4-3-7.2c0-2.8,1-5.1,2.9-7.1
				c2-2,4.3-2.9,7.1-2.9c2.9,0,5.3,1,7.3,3C832.5,216.9,833.5,219.4,833.5,222.3z"/>
		</g>
		<g>
			<path class="st10" d="M579.2,271.5c12.3,0,24.6,0,36.9,0"/>
			<path class="st10" d="M584.4,280.6c8.8,0,17.6,0,26.4,0"/>
			<path class="st10" d="M591,290.3c4.4,0,8.8,0,13.2,0"/>
		</g>
		<path d="M582.8,251.3c-1,0-1.9-0.1-2.9-0.4c-0.9-0.3-1.6-0.6-2.2-1l1-2.2c0.5,0.4,1.1,0.7,1.9,0.9c0.7,0.2,1.5,0.4,2.2,0.4
			c0.6,0,1-0.1,1.4-0.2c0.3-0.1,0.6-0.3,0.8-0.5c0.2-0.2,0.2-0.4,0.2-0.7c0-0.3-0.1-0.6-0.4-0.8c-0.3-0.2-0.6-0.4-1-0.5
			c-0.4-0.1-0.9-0.2-1.4-0.4c-0.5-0.1-1-0.2-1.5-0.4c-0.5-0.2-1-0.4-1.4-0.6c-0.4-0.3-0.8-0.6-1-1c-0.3-0.4-0.4-1-0.4-1.6
			c0-0.7,0.2-1.4,0.6-1.9c0.4-0.6,1-1,1.7-1.4c0.8-0.3,1.7-0.5,2.9-0.5c0.8,0,1.5,0.1,2.3,0.3c0.8,0.2,1.4,0.5,2,0.8l-0.9,2.2
			c-0.6-0.3-1.1-0.6-1.7-0.7c-0.6-0.2-1.2-0.2-1.7-0.2c-0.6,0-1,0.1-1.4,0.2c-0.3,0.1-0.6,0.3-0.8,0.5c-0.2,0.2-0.2,0.4-0.2,0.7
			c0,0.3,0.1,0.6,0.4,0.8c0.3,0.2,0.6,0.4,1,0.5c0.4,0.1,0.9,0.2,1.4,0.3c0.5,0.1,1,0.3,1.5,0.4c0.5,0.2,1,0.4,1.4,0.6
			c0.4,0.3,0.8,0.6,1,1c0.3,0.4,0.4,1,0.4,1.6c0,0.7-0.2,1.3-0.6,1.9c-0.4,0.6-1,1-1.7,1.4C585,251.1,584,251.3,582.8,251.3z
			 M582.2,253.2v-16.6h1.8v16.6H582.2z"/>
		<path d="M601.2,265.9c-1.7,0-3.4-0.2-5.1-0.7c-1.7-0.5-3.1-1.1-4.3-2l2.2-4.4c0.9,0.7,2,1.2,3.3,1.7c1.2,0.4,2.5,0.6,3.8,0.6
			c1.4,0,2.6-0.3,3.4-0.9c0.8-0.6,1.2-1.4,1.2-2.4c0-0.9-0.4-1.7-1.1-2.2c-0.7-0.5-1.9-0.8-3.6-0.8h-2.6V251l6.9-7.9l0.6,2.1H593
			v-4.6h17.4v3.7l-6.9,7.9l-2.9-1.7h1.7c3.1,0,5.4,0.7,7,2.1c1.6,1.4,2.4,3.1,2.4,5.3c0,1.4-0.4,2.8-1.1,4c-0.7,1.2-1.9,2.2-3.4,3
			C605.6,265.5,603.6,265.9,601.2,265.9z"/>
		<g>
			<path d="M659.9,311.6c-0.7,0-1.4-0.1-2.1-0.3c-0.7-0.2-1.2-0.4-1.6-0.7l0.7-1.6c0.4,0.3,0.8,0.5,1.3,0.7c0.5,0.2,1.1,0.3,1.6,0.3
				c0.4,0,0.7,0,1-0.1c0.3-0.1,0.4-0.2,0.6-0.3c0.1-0.1,0.2-0.3,0.2-0.5c0-0.2-0.1-0.4-0.3-0.6c-0.2-0.1-0.4-0.3-0.7-0.3
				c-0.3-0.1-0.6-0.2-1-0.3c-0.4-0.1-0.7-0.2-1.1-0.3c-0.4-0.1-0.7-0.3-1-0.5c-0.3-0.2-0.6-0.4-0.7-0.8c-0.2-0.3-0.3-0.7-0.3-1.2
				c0-0.5,0.1-1,0.4-1.4c0.3-0.4,0.7-0.8,1.2-1c0.6-0.3,1.3-0.4,2.1-0.4c0.6,0,1.1,0.1,1.7,0.2c0.5,0.1,1,0.3,1.4,0.6l-0.6,1.6
				c-0.4-0.2-0.8-0.4-1.2-0.5c-0.4-0.1-0.8-0.2-1.2-0.2c-0.4,0-0.7,0-1,0.1c-0.2,0.1-0.4,0.2-0.5,0.4c-0.1,0.2-0.2,0.3-0.2,0.5
				c0,0.2,0.1,0.4,0.3,0.6c0.2,0.1,0.4,0.3,0.7,0.3c0.3,0.1,0.6,0.2,1,0.2c0.4,0.1,0.7,0.2,1.1,0.3c0.4,0.1,0.7,0.3,1,0.5
				c0.3,0.2,0.6,0.4,0.7,0.7c0.2,0.3,0.3,0.7,0.3,1.2c0,0.5-0.1,1-0.4,1.4c-0.3,0.4-0.7,0.8-1.3,1
				C661.5,311.5,660.8,311.6,659.9,311.6z M659.5,313v-12h1.3v12H659.5z"/>
			<path d="M671.1,321.3v-15.1l1.7,1.7h-5v-3.1h7.1v16.5H671.1z"/>
			<path d="M684.7,321.5c-0.6,0-1.2-0.2-1.6-0.7c-0.4-0.4-0.7-1-0.7-1.6c0-0.7,0.2-1.3,0.7-1.7c0.4-0.4,1-0.6,1.6-0.6
				c0.6,0,1.2,0.2,1.6,0.6c0.4,0.4,0.7,1,0.7,1.7c0,0.7-0.2,1.2-0.7,1.6C685.9,321.2,685.3,321.5,684.7,321.5z"/>
			<path d="M695.6,321.3v-15.1l1.7,1.7h-5v-3.1h7.1v16.5H695.6z"/>
			<path d="M714.1,321.5c-1.4,0-2.6-0.3-3.6-1c-1.1-0.7-1.9-1.6-2.5-2.9c-0.6-1.3-0.9-2.8-0.9-4.6s0.3-3.4,0.9-4.6
				c0.6-1.3,1.5-2.2,2.5-2.9c1.1-0.7,2.3-1,3.6-1c1.4,0,2.6,0.3,3.7,1c1.1,0.7,1.9,1.6,2.5,2.9c0.6,1.3,0.9,2.8,0.9,4.6
				s-0.3,3.4-0.9,4.6c-0.6,1.3-1.5,2.2-2.5,2.9C716.7,321.2,715.5,321.5,714.1,321.5z M714.1,318.3c0.6,0,1.2-0.2,1.7-0.6
				c0.5-0.4,0.9-0.9,1.1-1.7c0.3-0.8,0.4-1.8,0.4-3c0-1.2-0.1-2.3-0.4-3c-0.3-0.8-0.7-1.4-1.1-1.7c-0.5-0.4-1-0.6-1.7-0.6
				c-0.6,0-1.2,0.2-1.7,0.6c-0.5,0.4-0.9,0.9-1.2,1.7c-0.3,0.8-0.4,1.8-0.4,3c0,1.2,0.1,2.3,0.4,3c0.3,0.8,0.7,1.4,1.2,1.7
				C713,318.1,713.5,318.3,714.1,318.3z"/>
		</g>
		<g>
			<path class="st11" d="M651.9,298.8c-0.7-0.9-1.4-1.7-2.3-2.4"/>
			<path class="st11" d="M670.2,295c-0.7-2.4-1.6-4.8-2.7-7.1"/>
		</g>
		<path class="st11" d="M687.5,294c0-4.2,0-8.4,0-12.6c0-0.1,0-0.2-0.1-0.3c-0.1,0-0.2,0.2-0.1,0.2"/>
		<g>
			<path class="st11" d="M721.2,298.8c0.7-0.9,1.4-1.7,2.3-2.4"/>
			<path class="st11" d="M702.9,295c0.7-2.4,1.6-4.8,2.7-7.1"/>
		</g>
	</g>
	<line class="st12" x1="565" y1="442.4" x2="819.6" y2="442"/>
</g>
<g>
	<path d="M95.4,564.5H86l9.3-34.7h9.4L95.4,564.5z"/>
	<path d="M131.5,544.4h13.1l-0.4,1.4c-1.8,6.7-4.1,11.5-6.9,14.4c-3,3.2-6.7,4.8-10.9,4.8c-4.2,0-7-1.6-8.6-4.7
		c-1.5-3.2-1.5-7.5,0-13.1c1.5-5.6,3.9-10,7.1-13.3c3.2-3.2,6.9-4.9,11.1-4.9c5.5,0,8.7,2.9,9.6,8.6l-10,3.3c0.2-1.1,0.1-2-0.2-2.6
		c-0.3-0.6-0.8-1-1.6-1c-2.6,0-4.8,3.5-6.7,10.6c-0.8,3-1.1,5.2-0.9,6.6c0.2,1.4,0.9,2,2.2,2c0.5,0,1-0.1,1.4-0.4
		c0.5-0.2,0.9-0.6,1.3-1c0.4-0.4,0.8-1,1.1-1.6c0.3-0.6,0.6-1.3,0.8-2.1h-3.5L131.5,544.4z"/>
	<path d="M143.2,564.5l9.3-34.7h17.4l-2.2,8.2h-8l-1.4,5.1h7.2l-2.1,7.8h-7.2l-1.4,5.3h8l-2.2,8.3H143.2z"/>
	<path d="M176.7,564.5h-9.4l7.1-26.4h-5.2l2.2-8.3h19.9l-2.2,8.3h-5.4L176.7,564.5z"/>
	<path d="M210.5,564.5h-9.4l7.1-26.4H203l2.2-8.3h19.9l-2.2,8.3h-5.4L210.5,564.5z"/>
	<path d="M241.5,564.5h-9.4l3.7-14h-4.5l-3.7,14h-9.4l9.3-34.7h9.4l-3.3,12.3h4.5l3.3-12.3h9.4L241.5,564.5z"/>
	<path d="M246.3,564.5l9.3-34.7H273l-2.2,8.2h-8l-1.4,5.1h7.2l-2.1,7.8h-7.2l-1.4,5.3h8l-2.2,8.3H246.3z"/>
	<path d="M307.3,565.1l-8.6,4.1l-2-4.7c-1.2,0.3-2.1,0.4-2.9,0.4c-3.7,0-6.4-1.5-8.1-4.5c-1.8-3.2-1.9-7.7-0.4-13.3
		c1.5-5.5,3.8-9.9,7.1-13.1c3.3-3.3,6.9-4.9,10.9-4.9c3.9,0,6.7,1.6,8.2,4.9c1.6,3.2,1.7,7.5,0.3,12.7c-1.6,5.9-4.1,10.5-7.6,13.7
		L307.3,565.1z M302,547.3c0.4-1.5,0.7-2.8,0.8-4c0.1-1.2,0.2-2.2,0.1-3c-0.1-0.8-0.3-1.4-0.6-1.8c-0.3-0.4-0.8-0.6-1.3-0.6
		c-1,0-2.1,0.8-3.2,2.5c-1.1,1.8-2,4.1-2.7,6.8c-0.4,1.4-0.7,2.7-0.8,3.9c-0.1,1.1-0.2,2.1-0.1,2.9c0.1,0.8,0.3,1.4,0.6,1.8
		c0.3,0.4,0.8,0.6,1.3,0.6c0.6,0,1.1-0.2,1.6-0.6c0.5-0.4,1.1-1,1.6-1.8c0.5-0.8,1-1.7,1.5-2.8C301.2,550,301.6,548.7,302,547.3z"/>
	<path d="M334.9,529.8h9.4l-6.6,24.5c-0.6,2.1-1.3,3.7-2.3,5c-1,1.3-2.4,2.5-4.1,3.6c-2.4,1.4-5,2.2-7.8,2.2c-3.2,0-5.7-0.8-7.4-2.4
		c-2.2-2-2.7-5.3-1.5-9.7l6.2-23.2h9.4l-6,22.4c-0.4,1.5-0.5,2.6-0.3,3.2c0.2,0.6,0.7,0.9,1.6,0.9c0.9,0,1.6-0.3,2.1-0.9
		c0.5-0.6,1-1.7,1.4-3.3L334.9,529.8z"/>
	<path d="M339.9,564.5l9.3-34.7h17.4l-2.2,8.2h-8L355,543h7.2l-2.1,7.8h-7.2l-1.4,5.3h8l-2.2,8.3H339.9z"/>
	<path d="M360.8,563.6l2.9-10.9c1.2,2.5,2.8,3.8,5,3.8c0.8,0,1.5-0.2,2.1-0.6c0.6-0.4,1-1,1.2-1.6c0.2-0.9-0.1-1.8-0.9-2.7l-1.2-1.2
		c-0.8-0.8-1.5-1.5-2-2.3c-0.5-0.8-0.9-1.5-1.1-2.3c-0.2-0.8-0.3-1.6-0.3-2.5c0-0.9,0.2-1.8,0.4-2.7c0.4-1.6,1.3-3.3,2.5-5.1
		c0.6-0.8,1.2-1.6,1.9-2.3c0.7-0.7,1.4-1.3,2.2-1.8c2.2-1.5,4.5-2.2,7-2.2c2.2,0,4.3,0.6,6.3,1.8l-2.8,10.6
		c-0.4-1.2-1.1-2.1-1.9-2.8c-0.8-0.7-1.7-1-2.6-1c-0.7,0-1.4,0.2-1.9,0.6c-0.6,0.4-1,0.9-1.1,1.5c-0.2,0.9,0.1,1.9,1.2,2.8l1.2,1.1
		c1.6,1.4,2.6,2.9,3.1,4.4c0.5,1.5,0.4,3.2-0.1,5.3c-0.9,3.4-2.7,6.2-5.4,8.4c-2.7,2.2-5.6,3.3-8.8,3.3
		C365.2,565.1,363,564.6,360.8,563.6z"/>
	<path d="M394.9,564.5h-9.4l7.1-26.4h-5.2l2.2-8.3h19.9l-2.2,8.3h-5.4L394.9,564.5z"/>
	<path d="M412,564.5h-9.4l9.3-34.7h9.4L412,564.5z"/>
	<path d="M447,547.2c-1.4,5.3-3.8,9.6-7.1,12.9c-3.3,3.3-6.8,4.9-10.7,4.9c-3.4,0-6-1.3-7.8-3.8c-2.2-3.2-2.5-8-0.7-14.4
		c1.6-6.1,4.5-10.8,8.6-14.1c3-2.4,6.2-3.6,9.4-3.6c4,0,6.7,1.6,8.2,4.9C448.5,537.3,448.5,541.7,447,547.2z M437.3,547.3
		c1.7-6.3,1.4-9.4-0.8-9.4c-1.1,0-2.2,0.8-3.3,2.5c-1.1,1.5-2,3.8-2.8,6.7c-0.8,2.9-1.1,5.2-0.9,6.8c0.2,1.6,0.8,2.4,1.9,2.4
		c1.1,0,2.2-0.8,3.2-2.4C435.6,552.3,436.5,550.1,437.3,547.3z"/>
	<path d="M446.4,564.5l9.3-34.7h8.9l1.4,12.2c0.1,0.7,0.1,1.5,0.2,2.5c0.1,0.9,0.1,2,0.2,3.2l0.1,3.1c0.5-3,0.9-5.6,1.3-7.7
		c0.4-2.1,0.8-3.9,1.2-5.4l2.1-7.8h8.9l-9.3,34.7h-8.9l-1.3-12.8c-0.1-1.4-0.2-2.6-0.3-3.8c-0.1-1.2-0.1-2.3-0.1-3.4
		c-0.5,2.4-0.9,4.6-1.3,6.4c-0.4,1.8-0.8,3.4-1.1,4.8l-2.4,8.9H446.4z"/>
	<path d="M514.5,564.5h-9.7l0.5-4.4H499l-1.9,4.4h-9.7l17.6-34.7h11.5L514.5,564.5z M506.2,552.6l0.5-4c0,0,0-0.2,0.1-0.6
		c0.1-0.3,0.2-1.6,0.6-3.9c0-0.3,0.1-0.6,0.2-1c0.1-0.4,0.2-1,0.3-1.7l0.6-3.3c-0.1,0.3-0.2,0.7-0.4,1.1c-0.2,0.4-0.3,0.8-0.5,1.3
		c-0.4,0.9-0.6,1.6-0.7,1.9c-0.1,0.4-0.2,0.6-0.3,0.7l-1.8,4.2l-2.4,5.4H506.2z"/>
	<path d="M547.4,564.5H531l9.3-34.7h9.4l-7.1,26.4h7L547.4,564.5z"/>
	<path d="M580.2,547.2c-1.4,5.3-3.8,9.6-7.1,12.9c-3.3,3.3-6.8,4.9-10.7,4.9c-3.4,0-6-1.3-7.8-3.8c-2.2-3.2-2.5-8-0.7-14.4
		c1.6-6.1,4.5-10.8,8.6-14.1c3-2.4,6.2-3.6,9.4-3.6c4,0,6.7,1.6,8.2,4.9C581.7,537.3,581.7,541.7,580.2,547.2z M570.5,547.3
		c1.7-6.3,1.4-9.4-0.8-9.4c-1.1,0-2.2,0.8-3.3,2.5c-1.1,1.5-2,3.8-2.8,6.7c-0.8,2.9-1.1,5.2-0.9,6.8c0.2,1.6,0.8,2.4,1.9,2.4
		c1.1,0,2.2-0.8,3.2-2.4C568.8,552.3,569.7,550.1,570.5,547.3z"/>
	<path d="M592,564.5h-9.4l7.1-26.4h-5.2l2.2-8.3h19.9l-2.2,8.3h-5.4L592,564.5z"/>
</g>
<g>
	<text transform="matrix(0.9851 0 -0.172 0.9851 21.6395 366.9334)" class="st13 st14 st15">$$</text>
</g>
<g>
	<text transform="matrix(0.9851 0 -0.172 0.9851 668.6395 568.9333)" class="st13 st14 st15">$$</text>
</g>
</svg>
