<?xml version="1.0" encoding="utf-8"?>
<!-- Generator: Adobe Illustrator 27.4.0, SVG Export Plug-In . SVG Version: 6.00 Build 0)  -->
<svg version="1.1" id="Layer_1" xmlns="http://www.w3.org/2000/svg" xmlns:xlink="http://www.w3.org/1999/xlink" x="0px" y="0px"
	 viewBox="0 0 792 612" style="enable-background:new 0 0 792 612;" xml:space="preserve">
<style type="text/css">
	.st0{stroke:#000000;stroke-width:7.3657;stroke-miterlimit:10;}
	.st1{fill:none;stroke:#000000;stroke-width:1.2666;stroke-miterlimit:10;}
	.st2{fill:#FFFFFF;stroke:#000000;stroke-width:1.2666;stroke-miterlimit:10;}
</style>
<polygon points="393.7,392.3 409,392.8 401.3,405.9 "/>
<polygon points="415.7,381.6 411.2,389.2 391.6,388.7 387.2,380.8 "/>
<polygon points="423,369.2 417.8,378.1 385.1,377.1 380,368 "/>
<polygon points="461.6,304 425.1,365.6 377.9,364.3 343.2,302.7 "/>
<rect x="388.8" y="228" transform="matrix(6.878030e-03 -1 1 6.878030e-03 113.105 688.2968)" width="28.5" height="118.5"/>
<path class="st0" d="M481.1,268.2L481.1,268.2l-156.1-1l0,0c0.3-43.1,35.5-77.8,78.6-77.5C446.7,189.9,481.4,225,481.1,268.2z"/>
<path d="M402.6,406.2c0,0-0.6,67.3-1.3,67.3c-0.7,0-1.3-67.1-1.3-67.1l1.2,2.2L402.6,406.2z"/>
<path d="M407.8,478.5v0.1h-12.9v-0.1c0-3.6,2.9-6.5,6.5-6.5C404.9,472.1,407.8,475,407.8,478.5z"/>
<polygon points="385.9,477.2 393.6,478.5 393.6,475.9 "/>
<polygon points="391,466.5 395.5,472.9 397.4,471.1 "/>
<polygon points="416.9,477.2 409.1,478.5 409.1,475.9 "/>
<polygon points="411.7,466.5 407.2,472.9 405.3,471.1 "/>
<path d="M447.5,454.1l-10.5-4.7l-18,7.4l6.6,3.2l-11.1,10.9l25.8-9.1l-4.7-2.7L447.5,454.1z M423.2,465.5l6.2-6.2l-5-2.4l12.5-5.1
	l5,2.2l-11.2,4.8l4.3,2.5L423.2,465.5z"/>
<path d="M419.6,439.4l-3.2-5.1l-1.7,6.4l-1.7-2.2l-2.8,13.9l4.8-6.5l2.1,3.2L419.6,439.4z M412.3,447.6l1.2-6.4l1.6,2l1.6-6.1
	l1.5,2.4l-1.7,6.8l-1.6-2.4L412.3,447.6z"/>
<path d="M441.6,431.6l-2.1-3.4l-1.1,4.3l-1.2-1.5l-1.8,9.3l3.2-4.3l1.4,2.1L441.6,431.6z M436.8,437.1l0.8-4.3l1.1,1.4l1.1-4l1,1.6
	l-1.1,4.5l-1-1.6L436.8,437.1z"/>
<path d="M347.2,454.1l10.5-4.7l18,7.4l-6.6,3.2l11.1,10.9l-25.8-9.1l4.7-2.7L347.2,454.1z M371.5,465.5l-6.2-6.2l5-2.4l-12.5-5.1
	l-5,2.2l11.2,4.8l-4.3,2.5L371.5,465.5z"/>
<path d="M384.1,445.4l3.2-5.1l1.7,6.4l1.7-2.2l2.8,13.9l-4.8-6.5l-2.1,3.2L384.1,445.4z M391.4,453.6l-1.2-6.4l-1.6,2l-1.6-6.1
	l-1.5,2.4l1.7,6.8l1.6-2.4L391.4,453.6z"/>
<path d="M368.1,426.6l2.1-3.4l1.1,4.3l1.2-1.5l1.8,9.3l-3.2-4.3l-1.4,2.1L368.1,426.6z M372.9,432.1l-0.8-4.3l-1.1,1.4l-1.1-4
	l-1,1.6l1.1,4.5l1-1.6L372.9,432.1z"/>
<path d="M396.7,200.7l-8.7-12.4l6.2-4.4c9.6-6.8,14.1-13.6,13.7-20.9c-0.9-16.5-25.4-33.5-34.7-38.7l-4.6-2.5
	c-1.2-0.6-1.9-1.6-1.2-2.7l3-2.4l0.1-3.5l3.2-1.5l0.3-2.8c0.6-1.2,1.9-0.5,3,0.1l3.5,1.9c4.2,2.3,41.1,23.4,42.6,51.1
	c0.7,12.8-6.1,24.3-20.2,34.2L396.7,200.7z"/>
<path class="st1" d="M368.5,119c0,0-4.6-4.9-7.9-5.2"/>
<path class="st2" d="M370,118.3c0,0-4.5-6.3-5.6-9.1"/>
<path class="st2" d="M372.8,113.9c-2.2-4.6-7.7-7.8-7.7-7.8"/>
<path class="st2" d="M374.7,112.6c-1.3-4-4.9-9.3-4.9-9.3"/>
<path class="st1" d="M371,116.1c-1.3-2.2-3.6-5.9-3.6-5.9"/>
</svg>
