<?xml version="1.0" encoding="utf-8"?>
<!-- Generator: Adobe Illustrator 27.4.0, SVG Export Plug-In . SVG Version: 6.00 Build 0)  -->
<svg version="1.1" id="Layer_1" xmlns="http://www.w3.org/2000/svg" xmlns:xlink="http://www.w3.org/1999/xlink" x="0px" y="0px"
	 viewBox="0 0 792 612" style="enable-background:new 0 0 792 612;" xml:space="preserve">
<style type="text/css">
	.st0{fill:none;}
	.st1{stroke:#000000;stroke-width:7.3657;stroke-miterlimit:10;}
	.st2{fill:none;stroke:#000000;stroke-width:9.1419;stroke-miterlimit:10;}
	.st3{fill:none;stroke:#000000;stroke-width:2.5834;stroke-miterlimit:10;}
	.st4{fill:none;stroke:#000000;stroke-width:1.1507;stroke-linecap:round;stroke-miterlimit:10;}
	.st5{fill:none;stroke:#000000;stroke-width:1.4829;stroke-linecap:round;stroke-miterlimit:10;}
	.st6{fill:none;stroke:#000000;stroke-width:1.5265;stroke-linecap:round;stroke-miterlimit:10;}
	.st7{fill:none;stroke:#000000;stroke-width:1.4341;stroke-linecap:round;stroke-miterlimit:10;}
	.st8{fill:none;stroke:#000000;stroke-width:1.2666;stroke-miterlimit:10;}
	.st9{fill:#FFFFFF;stroke:#000000;stroke-width:1.2666;stroke-miterlimit:10;}
</style>
<line class="st0" x1="144.4" y1="403.3" x2="131.5" y2="403.3"/>
<path d="M572.9,275.2l-32,69.8c-2.8,6-8.8,9.8-15.5,9.6l-25.9-0.7c-6.4-0.2-12.1-4-14.6-9.9l-30.5-70.1L572.9,275.2z"/>
<rect x="500" y="199.2" transform="matrix(6.878030e-03 -1 1 6.878030e-03 252.3493 770.8995)" width="28.5" height="118.5"/>
<path class="st1" d="M592.3,239.4L592.3,239.4l-156.1-1l0,0c0.3-43.1,35.5-77.8,78.6-77.5C557.9,161.1,592.6,196.2,592.3,239.4z"/>
<path d="M516,399.3h-4.8c-0.8,0-1.5-0.7-1.5-1.5v-43.5c0-0.8,0.7-1.5,1.5-1.5h4.8c0.8,0,1.5,0.7,1.5,1.5v43.5
	C517.5,398.7,516.9,399.3,516,399.3z"/>
<polygon points="513.6,381.3 538,334.8 489.3,334.8 "/>
<path d="M513.6,396.4c0.5,0.6,0.7,1.1,0.6,1.9v1.9c0,0.6,0,2.2,0,2.8c-0.2,0.3-0.4,0.6-0.6,0.9c-0.3-0.3-0.4-0.6-0.6-0.9
	c0-0.6,0-2.2,0-2.8v-1.9C512.9,397.5,513.1,396.9,513.6,396.4L513.6,396.4z"/>
<path class="st2" d="M707.7,577.6H81.6c-13.3,0-24.1-10.8-24.1-24.1V429.9c0-13.3,10.8-24.1,24.1-24.1h626.1
	c13.3,0,24.1,10.8,24.1,24.1v123.6C731.8,566.8,721,577.6,707.7,577.6z"/>
<path d="M175.7,485.3h-17.6v-65h31v15.3h-13.5v9.5h12.5v14.7h-12.5v25.5H175.7z"/>
<path d="M213.6,485.3H196v-65h17.6V485.3z"/>
<path d="M222.7,485.3v-65h20.4c7.6,0,13.3,1.7,17,5.1c3.7,3.5,5.6,7.9,5.6,13.4c0,8.1-4,12.5-12.1,13.2c4.6,0.7,8,2.2,10.1,4.5
	c2.1,2.4,3.2,5.8,3.2,10.2c0,5.6-1.8,10.1-5.4,13.5s-8.3,5.1-14.2,5.1L222.7,485.3L222.7,485.3z M240.2,445.6h1.2
	c2.1,0,3.8-0.5,5-1.5s1.8-2.4,1.8-4.1c0-3.8-2.1-5.6-6.2-5.6c-0.2,0-0.4,0-0.7,0s-0.7,0-1.1,0.1V445.6z M240.2,471.2
	c0.3,0,0.6,0.1,0.9,0.1c0.3,0,0.5,0,0.6,0c2.2,0,3.9-0.6,5.2-1.7c1.3-1.2,2-2.7,2-4.6s-0.7-3.5-2-4.5c-1.3-1.1-3.1-1.6-5.4-1.6h-1.4
	L240.2,471.2L240.2,471.2z"/>
<path d="M274.4,485.3v-65H307v15.3h-15.1v9.5h13.5v14.7h-13.5v9.9H307v15.6H274.4z"/>
<path d="M360.7,485.3h-19l-8.7-23.2c-0.1-0.4-0.2-0.9-0.4-1.6s-0.5-1.4-0.8-2.3l0.1,4.3v22.7h-17.5v-65h18c7.9,0,13.8,1.6,17.8,4.7
	c5,4,7.5,9.7,7.5,17c0,7.9-3.4,13.3-10.1,16.3L360.7,485.3z M332.1,450.4h1.2c2,0,3.7-0.8,5.1-2.3c1.3-1.5,2-3.5,2-5.9
	c0-4.9-2.5-7.3-7.6-7.3h-0.6v15.5H332.1z"/>
<path d="M423.2,485.3h-30.7v-65h17.6v49.4h13.2v15.6H423.2z"/>
<path d="M477.6,485.3h-18.1l-1.3-8.3h-11.8l-1.4,8.3h-18.1l15.6-65H464L477.6,485.3z M456.1,463.1l-1.1-7.6c0,0-0.1-0.4-0.2-1.1
	c-0.1-0.6-0.4-3.1-0.9-7.3c-0.1-0.5-0.1-1.1-0.2-2c-0.1-0.8-0.2-1.9-0.3-3.1l-0.5-6.1c-0.1,0.6-0.1,1.3-0.2,2s-0.2,1.5-0.3,2.4
	c-0.2,1.7-0.3,2.9-0.4,3.6s-0.1,1.1-0.2,1.2l-1.2,7.9l-1.8,10.2h7.3V463.1z"/>
<path d="M481.3,483.7v-20.4c3.5,4.7,7.2,7.1,11.2,7.1c1.5,0,2.7-0.4,3.7-1.2c1-0.8,1.4-1.8,1.4-3c0-1.7-1-3.4-3.1-5.1l-2.9-2.2
	c-1.9-1.4-3.5-2.9-4.9-4.3c-1.3-1.4-2.4-2.9-3.3-4.4c-0.8-1.5-1.5-3.1-1.9-4.7s-0.6-3.3-0.6-5.1c0-3,0.7-6.2,2.1-9.5
	c0.7-1.5,1.5-3,2.4-4.2c0.9-1.3,2-2.4,3.2-3.4c3.3-2.8,7.3-4.2,12-4.2c4.2,0,8.4,1.1,12.6,3.3v19.9c-1.4-2.2-3.1-4-4.9-5.2
	c-1.8-1.3-3.6-1.9-5.4-1.9c-1.3,0-2.5,0.4-3.3,1.2c-0.9,0.8-1.3,1.7-1.3,2.7c0,1.7,1.2,3.5,3.6,5.2l2.8,2.1c3.7,2.7,6.4,5.4,8,8.2
	c1.6,2.8,2.4,6.1,2.4,9.9c0,6.4-2,11.7-5.9,15.8c-3.9,4.2-8.8,6.2-14.8,6.2C490.4,486.4,486,485.5,481.3,483.7z"/>
<path d="M522.1,485.3v-65h32.6v15.3h-15.1v9.5h13.5v14.7h-13.5v9.9h15.1v15.6H522.1z"/>
<path d="M608.5,485.3h-19l-8.7-23.2c-0.1-0.4-0.2-0.9-0.4-1.6c-0.2-0.6-0.5-1.4-0.8-2.3l0.1,4.3v22.7h-17.5v-65h18
	c7.9,0,13.8,1.6,17.8,4.7c5,4,7.5,9.7,7.5,17c0,7.9-3.4,13.3-10.1,16.3L608.5,485.3z M579.8,450.4h1.2c2,0,3.7-0.8,5.1-2.3
	c1.3-1.5,2-3.5,2-5.9c0-4.9-2.5-7.3-7.6-7.3h-0.6v15.5H579.8z"/>
<path class="st3" d="M130.7,541.6l-1,18.8c-3.9,1.6-7.4,2.4-10.5,2.4c-7.3,0-13.4-2.7-18.4-8c-5.6-6-8.3-14.4-8.3-25.4
	c0-10.2,2.6-18.5,7.8-24.7c5.2-6.2,12.2-9.3,20.9-9.3c2.8,0,5.7,0.5,8.7,1.6v18.6c-2.6-2.6-5.3-3.9-8-3.9c-3.6,0-6.4,1.5-8.4,4.6
	c-2,3.1-3,7.4-3,12.8c0,2.6,0.3,5,0.8,7.1s1.2,3.8,2.2,5.3c0.9,1.4,2.1,2.5,3.5,3.3s2.9,1.1,4.7,1.1
	C124.6,545.9,127.7,544.5,130.7,541.6z"/>
<path class="st3" d="M137.6,561.6v-65h16.8l8.8,22.8c0.5,1.3,1,2.9,1.6,4.6c0.6,1.7,1.3,3.7,2,6l1.8,5.7c-0.6-5.6-1.1-10.5-1.5-14.5
	c-0.3-4-0.5-7.4-0.5-10.1v-14.6h16.8v65h-16.8l-8.8-23.9c-0.9-2.6-1.8-4.9-2.5-7.2c-0.7-2.2-1.4-4.4-2-6.4c0.4,4.6,0.6,8.6,0.8,12
	s0.3,6.4,0.3,8.9v16.6h-16.8V561.6z"/>
<path class="st3" d="M229.6,541.6l-1,18.8c-3.9,1.6-7.4,2.4-10.5,2.4c-7.3,0-13.4-2.7-18.4-8c-5.6-6-8.3-14.4-8.3-25.4
	c0-10.2,2.6-18.5,7.8-24.7s12.2-9.3,20.9-9.3c2.8,0,5.7,0.5,8.7,1.6v18.6c-2.6-2.6-5.3-3.9-8-3.9c-3.6,0-6.4,1.5-8.4,4.6
	c-2,3.1-3,7.4-3,12.8c0,2.6,0.3,5,0.8,7.1s1.2,3.8,2.2,5.3c0.9,1.4,2.1,2.5,3.5,3.3s2.9,1.1,4.7,1.1
	C223.5,545.9,226.6,544.5,229.6,541.6z"/>
<path d="M262.4,561.6v-65H295v15.3h-15v9.5h13.5v14.7H280v9.9h15.1v15.6H262.4z"/>
<path d="M302.5,561.6v-65h16.8l8.8,22.8c0.5,1.3,1,2.9,1.6,4.6c0.6,1.7,1.3,3.7,2,6l1.8,5.7c-0.6-5.6-1.1-10.5-1.5-14.5
	c-0.3-4-0.5-7.4-0.5-10.1v-14.6h16.8v65h-16.8l-8.8-23.9c-0.9-2.6-1.8-4.9-2.5-7.2c-0.7-2.2-1.4-4.4-2-6.4c0.4,4.6,0.6,8.6,0.8,12
	c0.2,3.4,0.3,6.4,0.3,8.9v16.6h-16.8V561.6z"/>
<path d="M380.8,524h24.5v2.7c0,12.5-1.9,21.5-5.6,27c-4.1,6-10.1,9-18.1,9c-7.8,0-14-2.9-18.4-8.8c-4.4-6-6.7-14.1-6.7-24.5
	c0-10.5,2.2-18.8,6.7-24.9s10.6-9.1,18.3-9.1c10.3,0,17.7,5.4,22.4,16.1l-17,6.2c-0.3-2-0.8-3.7-1.7-4.9c-0.9-1.2-2.1-1.8-3.4-1.8
	c-4.8,0-7.2,6.6-7.2,19.9c0,5.6,0.5,9.7,1.6,12.3s2.8,3.8,5.1,3.8c0.9,0,1.8-0.2,2.5-0.7c0.8-0.4,1.4-1.1,1.9-1.9
	c0.5-0.8,0.9-1.8,1.2-3c0.3-1.2,0.4-2.5,0.4-3.9h-6.5L380.8,524L380.8,524z"/>
<path d="M459,561.6h-19l-8.7-23.2c-0.1-0.4-0.2-0.9-0.4-1.6c-0.2-0.6-0.5-1.4-0.8-2.3l0.1,4.3v22.7h-17.5v-65h18
	c7.9,0,13.8,1.6,17.8,4.7c5,4,7.5,9.7,7.5,17c0,7.9-3.4,13.3-10.1,16.3L459,561.6z M430.4,526.7h1.2c2,0,3.7-0.8,5.1-2.3
	c1.3-1.5,2-3.5,2-5.9c0-4.9-2.5-7.3-7.6-7.3h-0.6v15.5H430.4z"/>
<path d="M511.7,561.6h-18.1l-1.3-8.3h-11.8l-1.4,8.3H461l15.6-65h21.5L511.7,561.6z M490.1,539.5l-1.1-7.6c0,0-0.1-0.4-0.2-1.1
	c-0.1-0.6-0.4-3.1-0.9-7.3c-0.1-0.5-0.1-1.1-0.2-2c-0.1-0.8-0.2-1.9-0.3-3.1l-0.5-6.1c-0.1,0.6-0.1,1.3-0.2,2s-0.2,1.5-0.3,2.4
	c-0.2,1.7-0.3,2.9-0.4,3.6c-0.1,0.7-0.1,1.1-0.2,1.2l-1.2,7.9l-1.8,10.2h7.3V539.5z"/>
<path d="M545,561.6h-17.9l-14.9-65h18.4l3.2,18.6c1.2,7.1,2.2,15,2.9,23.8c0.3-3.9,0.7-7.6,1.1-10.9c0.4-3.4,1-6.7,1.6-9.9l4.2-21.5
	h19.1L545,561.6z"/>
<path d="M584.9,561.6h-17.6v-65h17.6V561.6z"/>
<path d="M593.9,561.6v-65h16.8l8.8,22.8c0.5,1.3,1,2.9,1.6,4.6s1.3,3.7,2,6l1.8,5.7c-0.6-5.6-1.1-10.5-1.5-14.5
	c-0.3-4-0.5-7.4-0.5-10.1v-14.6h16.8v65H623l-8.8-23.9c-0.9-2.6-1.8-4.9-2.5-7.2c-0.7-2.2-1.4-4.4-2-6.4c0.4,4.6,0.6,8.6,0.8,12
	s0.3,6.4,0.3,8.9v16.6h-16.9V561.6z"/>
<path d="M672.2,524h24.5v2.7c0,12.5-1.9,21.5-5.6,27c-4.1,6-10.1,9-18.1,9c-7.8,0-14-2.9-18.4-8.8c-4.4-6-6.7-14.1-6.7-24.5
	c0-10.5,2.2-18.8,6.7-24.9s10.6-9.1,18.3-9.1c10.3,0,17.7,5.4,22.4,16.1l-17,6.2c-0.3-2-0.8-3.7-1.7-4.9s-2.1-1.8-3.4-1.8
	c-4.8,0-7.2,6.6-7.2,19.9c0,5.6,0.5,9.7,1.6,12.3s2.8,3.8,5.1,3.8c0.9,0,1.8-0.2,2.5-0.7c0.8-0.4,1.4-1.1,1.9-1.9
	c0.5-0.8,0.9-1.8,1.2-3s0.4-2.5,0.4-3.9h-6.5V524z"/>
<polyline class="st4" points="525.9,391.1 528.4,388.8 531,391.1 "/>
<polyline class="st4" points="525.9,386.4 528.4,388.8 531,386.4 "/>
<polyline class="st5" points="492.3,391.1 496.7,391.1 497,395.5 "/>
<polyline class="st5" points="496.4,386.7 496.7,391.1 501.1,391.2 "/>
<polyline class="st6" points="481,374.2 485.1,372.2 487.4,376.1 "/>
<polyline class="st6" points="482.9,368.2 485.1,372.2 489.3,370.2 "/>
<polyline class="st7" points="540.1,380.9 544.2,379.8 545.6,383.8 "/>
<polyline class="st7" points="542.8,375.8 544.2,379.8 548.3,378.7 "/>
<path d="M526.8,171.9l8.7-12.4l-6.2-4.4c-9.6-6.8-14.1-13.6-13.7-20.9c0.9-16.5,25.4-33.5,34.7-38.7l4.6-2.5
	c1.2-0.6,1.9-1.6,1.2-2.7l-3-2.4l-0.1-3.5l-3.2-1.5l-0.3-2.8c-0.6-1.2-1.9-0.5-3,0.1l-3.5,1.9c-4.2,2.3-41.1,23.4-42.6,51.1
	c-0.7,12.8,6.1,24.3,20.2,34.2L526.8,171.9z"/>
<path class="st8" d="M554.9,90.2c0,0,4.6-4.9,7.9-5.2"/>
<path class="st9" d="M553.4,89.5c0,0,4.5-6.3,5.6-9.1"/>
<path class="st9" d="M550.6,85.1c2.2-4.6,7.7-7.8,7.7-7.8"/>
<path class="st9" d="M548.8,83.8c1.3-4,4.9-9.3,4.9-9.3"/>
<path class="st8" d="M552.5,87.3c1.3-2.2,3.6-5.9,3.6-5.9"/>
<path d="M673.4,478.8H660l-1.8-2.5c-3.3,2.2-6.7,3.3-10.2,3.3c-4,0-7.5-1.4-10.3-4.1c-2.8-2.8-4.3-6.1-4.3-10.1
	c0-5.1,2.6-9.2,7.9-12.2c-2.4-3-3.5-6-3.5-9c0-3.4,1.2-6.2,3.7-8.6s5.5-3.6,9-3.6c3.8,0,7.1,1.2,9.8,3.6s4.1,5.3,4.1,8.8
	c0,4.6-2.6,8.6-7.8,12l4.5,5.9c0.5-0.6,1.2-1.3,1.9-2.2c0.7-0.9,1.5-1.9,2.4-3.1l6.3,8.5c-0.9,1-1.7,1.8-2.5,2.6
	c-0.8,0.8-1.5,1.5-2.3,2.2L673.4,478.8z M647.4,461.8c-1.4,0.9-2.2,2-2.2,3.4c0,1.1,0.3,2,1,2.7s1.5,1.1,2.5,1.1
	c1.1,0,2.1-0.4,3.1-1.3L647.4,461.8z M651.2,448.5c1.9-1.8,2.9-3.4,2.9-4.6c0-0.7-0.2-1.3-0.7-1.7c-0.5-0.5-1.1-0.7-1.8-0.7
	c-0.4,0-0.7,0.1-1,0.2s-0.6,0.3-0.8,0.5s-0.4,0.5-0.6,0.8s-0.2,0.6-0.2,0.9C649,444.8,649.8,446.3,651.2,448.5z"/>
<path d="M590.3,359l0.1,4.7l-6.1,2.5v1.4l4.6-2l0.1,4.2l-4.5,2v1.6l7.3-3.4l0.1,6l-12.3,5.1l-0.1-17.8L590.3,359z"/>
<path d="M603.1,354.4l0.1,5.4l-3.7,1.5l0.2,12.1l-5.3,2.5l0.5-12.9l-3.6,1.6V359L603.1,354.4z"/>
<path d="M620.6,362.2c0.2,4.6-3.3,8.3-7.5,9.6c-4,1.3-7.7-0.6-9-4.6c-1.8-5.8,1.5-13.6,7.5-15.5c2.7-0.8,5.6-0.4,6.5,2.6
	c0.2,0.7,0.3,1.5,0.3,2.2l-4.7,2.2c0-0.4-0.1-0.8-0.3-1.3c-0.2-0.7-0.6-1.4-1.4-1.1c-3,0.9-3.4,6.5-2.6,9c0.4,1.4,1.3,2.4,2.9,1.9
	c1.7-0.5,2.7-1.9,2.7-3.6L620.6,362.2z"/>
<path d="M633.6,344.8l0.2,17.6l-5.5,2.3v-5.3l-1.8,0.8v6.4l-5.2,2.1l0.4-17.6l4.5-2.1v5.2l1.9-0.7l0.2-6.2L633.6,344.8z"/>
<path d="M557.8,349.3l0.1,2.3l-3,1.3v0.7l2.3-1v2.1l-2.2,1v0.8l3.6-1.7l0.1,2.9l-6.1,2.5v-8.8L557.8,349.3z"/>
<path d="M564.2,347v2.7l-1.8,0.8l0.1,6l-2.6,1.2l0.3-6.4l-1.8,0.8v-2.8L564.2,347z"/>
<path d="M572.8,350.9c0.1,2.3-1.6,4.1-3.7,4.8c-2,0.6-3.8-0.3-4.5-2.3c-0.9-2.9,0.7-6.7,3.7-7.7c1.3-0.4,2.7-0.2,3.2,1.3
	c0.1,0.3,0.2,0.7,0.2,1.1l-2.3,1.1c0-0.2-0.1-0.4-0.1-0.6c-0.1-0.3-0.3-0.7-0.7-0.6c-1.5,0.5-1.7,3.2-1.3,4.4
	c0.2,0.7,0.7,1.2,1.4,0.9c0.8-0.3,1.3-0.9,1.3-1.8L572.8,350.9z"/>
<path d="M579.2,342.2l0.1,8.7l-2.7,1.1v-2.6l-0.9,0.4v3.2l-2.6,1l0.2-8.7l2.2-1v2.6l1-0.4l0.1-3.1L579.2,342.2z"/>
<g>
	<path d="M614.7,297.8c-0.8,3-2.3,5.9-4.6,8.1c-0.5,0.5-1.1,0.9-1.6,1.4c-0.7,0.8-1.4,1.6-2.2,2.3c-3.3,2.9-7.5,4.4-11.7,4.9
		c-0.7,0.1-1.5,0.1-2.2,0.1c-8,0-13.8-5.6-13.8-13.6c0-1,0.1-2,0.3-3c0.8-4.8,3-9.4,6.3-13c0.8-0.9,1.6-1.6,2.5-2.4
		c0.8-0.8,1.5-1.6,2.3-2.4c3.4-3.1,7.7-5.2,12.3-5.6c0.5,0,1.1-0.1,1.6-0.1c5.5,0,10.6,2.6,10.6,8.7c0,1.5-0.3,3-0.7,4.4l-2.4,0.3
		c-0.1,0.9-0.3,1.8-0.5,2.6l-10.6,1.4c0.2-1.1,0.4-2.2,0.4-3.2c0-0.9-0.2-2-1.4-2c-0.9,0-1.9,0.4-2.7,0.9c-1.9,2.7-3.4,6.8-3.4,10.1
		c0,2.4,0.9,4.4,3.5,4.4c0.9,0,2-0.2,2.8-0.5l0.5-1.3l1.2,0c0.8-0.8,1.4-1.9,1.7-3L614.7,297.8z M603.7,298.3
		c-1.1,3.1-3.8,4.8-7.1,4.8c-3.4,0-4.6-2.4-4.6-5.4c0-5.2,4-15,10.1-15c1.9,0,2.4,1.9,2.4,3.5c0,0.5,0,1.1-0.1,1.6l8.4-1.1
		c0.3-1.1,0.5-2.3,0.5-3.5c0-5.5-4.6-7.7-9.4-7.7c-11.3,0-21.3,11.6-21.3,22.6c0,7.4,5.4,12.6,12.8,12.6c7.6,0,15.6-4.2,18-11.8
		L603.7,298.3z"/>
	<path d="M650.1,274L637,311l-2,0.2l-1,2.7l-11.6,1.4l-0.3-9.7l-1.4,0.2l-0.7,2.6l-11.6,1.6l8.7-27.8l2.1-0.1l0.9-2.8l10.8-0.6
		l0.6,7.6l2.6-8.9l2.1-0.1l0.8-2.9L650.1,274z M648.6,275.1l-10.7,0.3l-6.6,22.3l-1.4-18l-9,0.5l-8.1,25.6l9.3-1.3l3.5-13.5
		l0.7,20.1l9.8-1.2L648.6,275.1z"/>
	<path d="M676.9,297.8c-0.8,3-2.3,5.9-4.6,8.1c-0.5,0.5-1.1,0.9-1.6,1.4c-0.7,0.8-1.4,1.6-2.2,2.3c-3.3,2.9-7.5,4.4-11.7,4.9
		c-0.7,0.1-1.5,0.1-2.2,0.1c-8,0-13.8-5.6-13.8-13.6c0-1,0.1-2,0.3-3c0.8-4.8,3-9.4,6.3-13c0.8-0.9,1.6-1.6,2.5-2.4
		c0.8-0.8,1.5-1.6,2.3-2.4c3.4-3.1,7.7-5.2,12.3-5.6c0.5,0,1.1-0.1,1.6-0.1c5.5,0,10.6,2.6,10.6,8.7c0,1.5-0.3,3-0.7,4.4l-2.4,0.3
		c-0.1,0.9-0.3,1.8-0.5,2.6l-10.6,1.4c0.2-1.1,0.4-2.2,0.4-3.2c0-0.9-0.2-2-1.4-2c-0.9,0-1.9,0.4-2.7,0.9c-1.9,2.7-3.4,6.8-3.4,10.1
		c0,2.4,0.9,4.4,3.5,4.4c0.9,0,2-0.2,2.8-0.5l0.5-1.3l1.2,0c0.8-0.8,1.4-1.9,1.7-3L676.9,297.8z M665.9,298.3
		c-1.1,3.1-3.8,4.8-7.1,4.8c-3.4,0-4.6-2.4-4.6-5.4c0-5.2,4-15,10.1-15c1.9,0,2.4,1.9,2.4,3.5c0,0.5,0,1.1-0.1,1.6l8.4-1.1
		c0.3-1.1,0.5-2.3,0.5-3.5c0-5.5-4.6-7.7-9.4-7.7c-11.3,0-21.3,11.6-21.3,22.6c0,7.4,5.4,12.6,12.8,12.6c7.6,0,15.6-4.2,18-11.8
		L665.9,298.3z"/>
</g>
<g>
	<polygon points="259.5,317 274.8,317.5 267.1,330.6 	"/>
	<polygon points="281.5,306.3 277,313.9 257.4,313.4 253,305.5 	"/>
	<polygon points="288.8,293.9 283.6,302.8 250.9,301.8 245.8,292.7 	"/>
	<polygon points="327.4,228.7 290.9,290.3 243.7,289 209,227.4 	"/>
	<rect x="254.6" y="152.6" transform="matrix(6.878030e-03 -1 1 6.878030e-03 55.1313 479.2873)" width="28.5" height="118.5"/>
	<path class="st1" d="M346.9,192.9L346.9,192.9l-156.1-1l0,0c0.3-43.1,35.5-77.8,78.6-77.5C312.5,114.6,347.2,149.7,346.9,192.9z"/>
	<path d="M268.4,330.9c0,0-0.6,67.3-1.3,67.3c-0.7,0-1.3-67.1-1.3-67.1l1.2,2.2L268.4,330.9z"/>
	<path d="M273.6,403.2v0.1h-12.9v-0.1c0-3.6,2.9-6.5,6.5-6.5C270.7,396.8,273.6,399.7,273.6,403.2z"/>
	<polygon points="251.7,401.9 259.4,403.2 259.4,400.6 	"/>
	<polygon points="256.8,391.2 261.3,397.6 263.2,395.8 	"/>
	<polygon points="282.7,401.9 274.9,403.2 274.9,400.6 	"/>
	<polygon points="277.5,391.2 273,397.6 271.1,395.8 	"/>
	<path d="M313.3,378.8l-10.5-4.7l-18,7.4l6.6,3.2l-11.1,10.9l25.8-9.1l-4.7-2.7L313.3,378.8z M289,390.2l6.2-6.2l-5-2.4l12.5-5.1
		l5,2.2l-11.2,4.8l4.3,2.5L289,390.2z"/>
	<path d="M284.4,370.1l-3.2-5.1l-1.7,6.4l-1.7-2.2l-2.8,13.9l4.8-6.5l2.1,3.2L284.4,370.1z M277.1,378.3l1.2-6.4l1.6,2l1.6-6.1
		l1.5,2.4l-1.7,6.8l-1.6-2.4L277.1,378.3z"/>
	<path d="M296.4,365.3l-2.1-3.4l-1.1,4.3l-1.2-1.5l-1.8,9.3l3.2-4.3l1.4,2.1L296.4,365.3z M291.6,370.8l0.8-4.3l1.1,1.4l1.1-4l1,1.6
		l-1.1,4.5l-1-1.6L291.6,370.8z"/>
	<path d="M221,378.8l10.5-4.7l18,7.4l-6.6,3.2l11.1,10.9l-25.8-9.1l4.7-2.7L221,378.8z M245.3,390.2l-6.2-6.2l5-2.4l-12.5-5.1
		l-5,2.2l11.2,4.8l-4.3,2.5L245.3,390.2z"/>
	<path d="M249.9,370.1l3.2-5.1l1.7,6.4l1.7-2.2l2.8,13.9l-4.8-6.5l-2.1,3.2L249.9,370.1z M257.2,378.3l-1.2-6.4l-1.6,2l-1.6-6.1
		l-1.5,2.4l1.7,6.8l1.6-2.4L257.2,378.3z"/>
	<path d="M237.9,365.3l2.1-3.4l1.1,4.3l1.2-1.5l1.8,9.3l-3.2-4.3l-1.4,2.1L237.9,365.3z M242.7,370.8l-0.8-4.3l-1.1,1.4l-1.1-4
		l-1,1.6l1.1,4.5l1-1.6L242.7,370.8z"/>
	<path d="M262.5,125.4l-8.7-12.4l6.2-4.4c9.6-6.8,14.1-13.6,13.7-20.9C272.8,71.2,248.3,54.2,239,49l-4.6-2.5
		c-1.2-0.6-1.9-1.6-1.2-2.7l3-2.4l0.1-3.5l3.2-1.5l0.3-2.8c0.6-1.2,1.9-0.5,3,0.1l3.5,1.9c4.2,2.3,41.1,23.4,42.6,51.1
		c0.7,12.8-6.1,24.3-20.2,34.2L262.5,125.4z"/>
	<path class="st8" d="M234.3,43.7c0,0-4.6-4.9-7.9-5.2"/>
	<path class="st9" d="M235.8,43c0,0-4.5-6.3-5.6-9.1"/>
	<path class="st9" d="M238.6,38.6c-2.2-4.6-7.7-7.8-7.7-7.8"/>
	<path class="st9" d="M240.5,37.3c-1.3-4-4.9-9.3-4.9-9.3"/>
	<path class="st8" d="M236.8,40.8c-1.3-2.2-3.6-5.9-3.6-5.9"/>
	<path d="M191.1,360.7c1.7,0,3.9,0.2,4.5,2.1c0.1,0.3,0.1,0.6,0.2,1c0.2,6.6-9.3,9.2-14.1,11.2l-0.1-18.8c1.6-0.9,3.3-1.6,5.1-2.2
		c2.2-0.7,6.4-1.6,7.4,1.4C194.7,357.4,192.3,359.3,191.1,360.7z M187.7,357.5c-0.6,0.2-1.1,0.4-1.6,0.7v2.7
		c0.8-0.4,3.8-2.1,3.5-3.2C189.4,357,188.2,357.4,187.7,357.5z M186.9,364.4c-0.2,0.1-0.4,0.2-0.6,0.2v3.1c0.8-0.5,4.1-2.2,3.8-3.4
		C189.9,363.5,187.5,364.2,186.9,364.4z"/>
	<path d="M209,346.9l0.1,8.2c0.1,5.1,0.2,9-5.1,11.4c-0.3,0.1-0.5,0.2-0.8,0.3c-2.6,0.8-5.6,0.5-6.5-2.5c-0.2-0.7-0.3-1.5-0.3-2.3
		l0.1-9l5-1.7l-0.2,8.5c0,0.5,0,1,0.2,1.4c0.2,0.7,0.7,1.2,1.5,1c1.7-0.6,1.2-3.8,1.2-5.2l-0.3-8L209,346.9z"/>
	<path d="M220.1,354.6l3.3,6.4l-5.1,2.7l-3.3-6.3l0.3,5.1l-4.7,2.4l0.1-17.7c1.7-0.9,3.6-1.7,5.5-2.3c2-0.6,6.3-1.8,7.2,1
		C224.4,348.9,222.1,352.5,220.1,354.6z M217.4,348.7c-0.9,0.3-1.8,0.8-2.6,1.3v3.1c1.2-0.6,4.3-2.7,3.8-4.2
		C218.5,348.4,217.7,348.6,217.4,348.7z"/>
	<path d="M238.2,336.8l-0.7,20.6l-5.3,2.4l-3.1-8.7l0.3,5.8l-5.2,2.5v-15.2l5-1.9l3.2,7.8l-0.2-11.2L238.2,336.8z"/>
	<path d="M311.2,358.6c0.8,0,1.9,0.1,2.2,1c0,0.2,0.1,0.3,0.1,0.5c0.1,3.3-4.6,4.5-7,5.6v-9.3c0.8-0.4,1.7-0.8,2.5-1.1
		c1.1-0.4,3.2-0.8,3.7,0.7C313,357,311.8,357.9,311.2,358.6z M309.6,357c-0.3,0.1-0.5,0.2-0.8,0.3v1.3c0.4-0.2,1.9-1.1,1.7-1.6
		C310.4,356.8,309.8,356.9,309.6,357z M309.2,360.4c-0.1,0-0.2,0.1-0.3,0.1v1.5c0.4-0.2,2-1.1,1.9-1.7
		C310.6,360,309.4,360.3,309.2,360.4z"/>
	<path d="M320.1,351.7l0.1,4.1c0,2.5,0.1,4.5-2.5,5.6c-0.1,0.1-0.3,0.1-0.4,0.1c-1.3,0.4-2.8,0.2-3.2-1.2c-0.1-0.4-0.2-0.7-0.2-1.1
		v-4.5l2.5-0.8l-0.1,4.2c0,0.2,0,0.5,0.1,0.7c0.1,0.3,0.3,0.6,0.7,0.5c0.9-0.3,0.6-1.9,0.6-2.6l-0.2-4L320.1,351.7z"/>
	<path d="M325.6,355.6l1.6,3.2l-2.5,1.3l-1.6-3.1l0.2,2.5l-2.3,1.2l0.1-8.7c0.9-0.5,1.8-0.9,2.7-1.1c1-0.3,3.1-0.9,3.6,0.5
		C327.7,352.7,326.6,354.5,325.6,355.6z M324.2,352.6c-0.4,0.1-0.9,0.4-1.3,0.6v1.5c0.6-0.3,2.1-1.3,1.9-2.1
		C324.8,352.5,324.4,352.6,324.2,352.6z"/>
	<path d="M334.5,346.7l-0.4,10.2l-2.6,1.2l-1.5-4.3l0.1,2.9l-2.6,1.2v-7.5l2.5-1l1.6,3.9l-0.1-5.5L334.5,346.7z"/>
	<path d="M112.8,295.2l-4.6,12l-1.9,0.2l-1.1,2.8L84.9,312l10.6-31.6l2-0.3l0.9-2.7l11.3-1.4l-7.3,20.5L112.8,295.2z M111.2,296.5
		l-10.3,1.2l7.3-20.5l-9,1.1l-9.8,29.5l18.1-1.6L111.2,296.5z"/>
	<path d="M140.8,273.9l-4.9,35.8l-2.6,0.4l-0.3,2.5l-12.5,1.9l2.4-10.4l-2.3,0.5l-1,2.3l-1.8,0.3l-1.1,2.7l-11.2,1.4l13.9-31.6
		l1.8-0.3l1.1-2.7L140.8,273.9z M139.5,275.2l-16.6,2.7l-12.9,29.3l8.7-1.1l2-4.8l6.4-1.3l-2.5,10.5l10.3-1.6L139.5,275.2z
		 M130.7,283.1l-1.8,8.9l-4.6,0.6l3-8.5L130.7,283.1z"/>
	<path d="M168.7,287.1l-1.6,0.1c-0.3,1-0.7,2.1-1.4,2.8l-1.4,0.1c3.1,1.2,5.8,1.9,5.8,5.8c0,3.1-1.9,6.5-4,8.7
		c-0.6,0.6-1.3,1.1-1.9,1.7c-0.4,0.3-0.7,0.8-1,1.2c-1.1,1.2-2.5,2.3-4.1,3c-3.9,1.9-8.6,2.9-12.9,2.9c-4.8,0-12-1.9-12-7.8
		c0-1.7,0.9-4.1,1.7-5.7c0.6-0.1,1.2-0.3,1.9-0.3c0.3-0.9,0.7-1.8,1.1-2.6c1.8-0.3,3.5-0.6,5.3-0.8c-2.6-1.1-4.1-1.8-4.1-5
		c0-0.4,0-0.8,0.1-1.2c0.4-2.8,2-5.4,4-7.3c0.5-0.5,1.1-0.9,1.5-1.4c0.6-0.6,1.1-1.4,1.8-2c3-2.7,6.7-4.4,10.7-4.4h0.3
		c4.4,0,11.7,1.4,11.7,7.1C170.4,283.5,169.8,286,168.7,287.1z M158.6,276c-6.4,0-13.3,4.6-14.4,11.2c0,0.3-0.1,0.7-0.1,1.1
		c0,1.3,0.5,2.6,1.7,3.2c2.5,1.2,5.5,2.4,8.2,3c1.4,0.3,5.8,1.3,5.8,3.2c0,0.2-0.1,0.4-0.2,0.6c-1.5,3.1-5.4,3.2-8.4,3.2
		c-1.6,0-3.1-0.5-3.1-2.3c0-0.9,0.3-1.8,0.6-2.6c-3.1,0.3-6.1,0.9-9.2,1.4c-0.6,1.4-1.4,3.3-1.4,4.8c0,5.2,6.8,6.8,10.9,6.8
		c4.2,0,8.8-1,12.5-2.8c3.8-1.8,7.2-6.1,7.2-10.5c0-1.6-0.5-3.1-2-3.8c-3.2-1.6-6.8-2.6-10.2-3.5c-1.4-0.3-4.9-1.7-4.9-3.5
		c0-2.2,3.7-3,5.4-3c1.5,0,3.2,0.4,3.2,2.2c0,0.7-0.2,1.4-0.5,2.1l8.2-0.7c0.7-0.9,1.1-2.9,1.1-4.1C169.3,277,162.3,276,158.6,276z
		 M149.5,298.2c-0.1,0.3-0.1,0.5-0.1,0.8c0,1.3,1.1,1.5,2.1,1.5c1.4,0,3-0.1,4.4-0.4C155.2,299.1,150.7,298.5,149.5,298.2z
		 M154.1,286.5c-0.2,0-0.4,0-0.6,0c0.8,0.6,1.9,0.9,2.8,1.2C156.3,286.6,155,286.5,154.1,286.5z"/>
	<path d="M198.7,275.2l-2.7,9.5l-2.2,0.2l-0.8,2.8l-1,0.1l-2,6.9l-2.2,0.3l-0.5,1.6l7.7-1l-3.4,11.7l-2.2,0.2l-0.8,2.8l-25.6,2.3
		l10.2-32.4l2.1-0.2l0.9-2.8L198.7,275.2z M197.3,276.4l-20.3,1.7l-9.4,30.2l23.3-2.1l2.7-9.4l-14.8,1.9l1.2-3.9l9.1-1.1l1.9-6.3
		l-9.3,0.9l1.2-3.5l12.2-1.1L197.3,276.4z"/>
	<path d="M226.3,282.7c0,3.5-2.1,6.4-4.4,8.8c-0.5,0.5-1.2,1.1-1.7,1.6c-1.4,1.4-2.7,2.8-4.3,4l2.1,12.3l-3.3,0.6l0.4,2.4l-11.6,2
		l-1.2-6.8l-1.9,0.3l-0.6,2.6l-10.8,1.9l10.4-32.2l2.1-0.3l0.8-2.7c3.5-0.6,7.2-0.9,10.8-0.9c4.1,0,13.2,0.4,13.2,6.2V282.7z
		 M213.8,277.1c-3.5,0-7.2,0.3-10.7,0.9l-9.7,29.9l8.4-1.4l2.8-11.2l2.6,14.9l9.5-1.6l-2.2-12.9c4.6-2.5,10.7-7.5,10.7-13.2
		C225.3,277.4,217.3,277.1,213.8,277.1z M205.8,290.9l2.1-6.6c1.7-0.4,3.5-0.8,5.2-0.8c0.9,0,3.1,0.2,3.1,1.5
		C216.2,288.2,208.4,290.4,205.8,290.9z M211.3,287.3c-1.1,0-2.4,0.2-3.4,0.4l-0.5,1.8c1.6-0.4,3.3-0.8,4.8-1.6
		C212.2,287.3,211.7,287.3,211.3,287.3z"/>
</g>
</svg>
