<?xml version="1.0" encoding="utf-8"?>
<!-- Generator: Adobe Illustrator 27.4.0, SVG Export Plug-In . SVG Version: 6.00 Build 0)  -->
<svg version="1.1" id="Layer_1" xmlns="http://www.w3.org/2000/svg" xmlns:xlink="http://www.w3.org/1999/xlink" x="0px" y="0px"
	 viewBox="0 0 792 612" style="enable-background:new 0 0 792 612;" xml:space="preserve">
<style type="text/css">
	.st0{fill:none;stroke:#000000;stroke-width:4.3307;stroke-miterlimit:10;}
	.st1{fill:#FFFFFF;stroke:#000000;stroke-width:4.3307;stroke-miterlimit:10;}
	.st2{stroke:#000000;stroke-width:25.1844;stroke-miterlimit:10;}
	.st3{fill:none;stroke:#000000;stroke-width:9.1262;stroke-miterlimit:10;}
	.st4{fill:none;}
</style>
<path class="st0" d="M92.4-595.3c0,0-15.7-16.8-27-17.8"/>
<path class="st1" d="M97.5-597.7c0,0-15.4-21.5-19.1-31.1"/>
<path class="st1" d="M107.1-612.8c-7.5-15.7-26.3-26.7-26.3-26.7"/>
<path class="st1" d="M113.6-617.2c-4.4-13.7-16.8-31.8-16.8-31.8"/>
<path class="st0" d="M100.9-605.2c-4.4-7.5-12.3-20.2-12.3-20.2"/>
<polygon points="176.1,337.1 228.4,338.8 202.1,383.6 "/>
<polygon points="251.3,300.5 236,326.5 168.9,324.8 153.9,297.8 "/>
<polygon points="276.3,258.1 258.5,288.6 146.7,285.1 129.3,254 "/>
<polygon points="408.3,35.2 283.5,245.8 122.1,241.4 3.5,30.8 "/>
<rect x="159.4" y="-224.9" transform="matrix(6.878030e-03 -1 1 6.878030e-03 228.9854 185.9985)" width="97.4" height="405.2"/>
<path class="st2" d="M475-87.2L475-87.2l-533.7-3.4l0,0c1-147.4,121.4-266,268.7-265C357.3-354.9,476-234.9,475-87.2z"/>
<g>
	<path d="M202.1,614.7c-0.9,0-18.9-33.5-19.6-74.9c-0.2-8.5,26.8-47.5,26.8-51.3c-0.1-5.2-20.9-15.4-21-21.8
		c-0.1-8.5,10.1-16.8,9.9-24.6c-0.4-32.6,3.1-53.1,3.8-58.4c-0.1,9.5,4.1,36.1,3.9,59.6c-0.1,6.8-10.4,13.9-10.5,21.3
		c-0.1,7.4,20.1,18.6,20,23.5c0,4.1-27.8,43.1-27.9,51.4C186.8,581,203,614.7,202.1,614.7z"/>
	<path d="M224.3,631.8v0.3h-44.1v-0.3c0-12.3,9.9-22.2,22.2-22.2C214.4,610,224.3,619.9,224.3,631.8z"/>
	<polygon points="149.5,627.4 175.8,631.8 175.8,622.9 	"/>
	<polygon points="166.9,590.8 182.3,612.7 188.8,606.5 	"/>
	<polygon points="255.4,627.4 228.8,631.8 228.8,622.9 	"/>
	<polygon points="237.7,590.8 222.3,612.7 215.8,606.5 	"/>
</g>
<path d="M839.1,776.5l-86.2,1.9l-98.1,107.9l55,0.5L680.7,966l-11.1,30.3l30.5-30.3l115-114.2l-40.5-3.2L839.1,776.5z M777.6,865.4
	l-66.4,66.3l22.1-61.9l-41.6-0.2l68.3-74.7l40.9-1.2l-60.4,68.5L777.6,865.4z"/>
<path d="M186.4-318l-29.7-42.4l21.2-15c32.8-23.3,48.2-46.5,46.8-71.5c-3.1-56.4-86.8-114.5-118.6-132.3l-15.7-8.5
	c-4.1-2.1-6.5-5.5-4.1-9.2l10.3-8.2l0.3-12l10.9-5.1l1-9.6c2.1-4.1,6.5-1.7,10.3,0.3l12,6.5c14.4,7.9,140.5,80,145.7,174.7
	c2.4,43.8-20.9,83.1-69.1,116.9L186.4-318z"/>
<path d="M-27.1,658.1c-19-18.6-46.3-27.8-82-27.8h-131.5V948h82.6V842.7h48.9c35.7,0,63-9.3,82-27.8c19-18.5,28.4-44.7,28.4-78.4
	C1.3,702.8-8.1,676.6-27.1,658.1z M-130.6,776.1H-158v-79.2h27.4c30.4,0,45.5,13.2,45.5,39.6C-85,762.9-100.2,776.1-130.6,776.1z"/>
<path d="M61.9,748.9V630.2H22.3v152.1h87v-33.5H61.9z"/>
<path d="M433.7,749.7c6.5-7,11.4-15,14.8-24s5.1-18.8,5.1-29.2c0-11.3-2.1-21.8-6.2-31.6s-10-18.3-17.5-25.5
	c-7.5-7.3-16.4-12.9-26.7-17c-10.4-4.1-21.7-6.1-33.9-6.1c-12.4,0-23.7,2-34,6.1c-10.3,4.1-19.1,9.8-26.5,17
	c-7.4,7.3-13.2,15.8-17.3,25.5c-4.2,9.8-6.3,20.3-6.3,31.6c0,11.3,2.1,21.8,6.3,31.6c4.2,9.8,10,18.3,17.3,25.5
	c7.4,7.3,16.2,12.9,26.5,17s21.6,6.2,34,6.2c7.4,0,14.4-0.8,21.1-2.3c6.7-1.6,13-3.7,18.9-6.4l13.9,14.3l36.3-5.6L433.7,749.7z
	 M405,719.8l-10.5-11.1l-37.3,4.6l22.6,23.8c-3.5,0.8-7,1.2-10.5,1.2c-5.8,0-11.3-1-16.4-3.1c-5.2-2.1-9.7-5-13.6-8.8
	c-3.9-3.8-7-8.2-9.3-13.3c-2.3-5.1-3.4-10.7-3.4-16.7s1.1-11.6,3.4-16.7c2.3-5.1,5.4-9.5,9.3-13.3c3.9-3.8,8.4-6.7,13.6-8.8
	c5.2-2.1,10.7-3.1,16.4-3.1c5.8,0,11.3,1,16.4,3.1c5.2,2.1,9.8,5,13.7,8.8c4,3.8,7.1,8.2,9.4,13.3c2.3,5.1,3.4,10.7,3.4,16.7
	C412.3,705.3,409.8,713.1,405,719.8z"/>
<path d="M571.8,626v82.7c0,4.4-0.2,9-0.5,13.6c-0.3,4.6-1.4,8.8-3.1,12.6c-1.8,3.8-4.4,6.8-8,9.2c-3.6,2.3-8.6,3.5-15.2,3.5
	c-6.6,0-11.7-1.2-15.3-3.5c-3.6-2.4-6.3-5.4-8-9.2c-1.7-3.8-2.7-8-3-12.6c-0.3-4.6-0.5-9.2-0.5-13.6V626h-39.5v88.2
	c0,23.7,5.4,41,16.3,51.8c10.9,10.9,27.6,16.3,50,16.3c22.5,0,39.1-5.4,49.9-16.3c10.8-10.9,16.2-28.2,16.2-51.8V626H571.8z"/>
<path d="M729.6,663.7v-33.5H643v152.1h86.5v-33.5h-47v-26.2H727v-33.5h-44.4v-25.4H729.6z"/>
<path d="M71.8,1000.8c-12.2-14.7-31.5-26.4-57.8-35.1c-6.6-2.2-13.2-4.2-19.9-6.2c-6.7-1.9-12.7-4.2-18.1-6.8
	c-5.4-2.6-9.7-5.7-13-9.2s-4.9-8.1-4.9-13.6c0-7.9,3.3-14.4,9.9-19.3c6.6-4.9,15.1-7.4,25.5-7.4c8.2,0,16.7,1.7,25.5,5.1
	c8.8,3.4,17.5,8.7,26.3,15.8l32.1-62.9C62,853,46,846.8,29.3,842.6c-16.7-4.2-32.8-6.4-48.1-6.4c-16.4,0-31.3,2.5-44.6,7.4
	c-13.3,4.9-24.5,11.9-33.7,20.8c-9.2,8.9-16.3,19.6-21.4,32.1c-5.1,12.5-7.6,26.4-7.6,41.7c0,15.4,2.4,28,7.2,38
	c4.8,10,11.1,18.3,18.9,24.9c7.8,6.6,16.7,11.9,26.7,15.8c10,4,20.2,7.6,30.6,10.9c8.8,3,16.2,5.8,22.4,8.2c6.2,2.5,11.2,5.1,15,8
	c3.8,2.9,6.6,6,8.2,9.4c1.6,3.4,2.5,7.5,2.5,12.1c0,7.7-3.2,14.5-9.7,20.6c-6.4,6-16.2,9-29.4,9c-11.5,0-23.2-2.6-34.9-7.8
	c-11.8-5.2-23.7-13.2-35.8-23.8l-34.5,65c33.4,23.3,69.8,34.9,109,34.9c18.9,0,35.8-2.5,50.8-7.6c14.9-5.1,27.5-12.2,37.8-21.4
	c10.3-9.2,18.1-20.2,23.4-33.1c5.3-12.9,8-27.3,8-43.2C90.1,1034.6,84,1015.5,71.8,1000.8z"/>
<path d="M300.2,962.6L268,778l-43.7-146.2v-0.1l0,0l-0.5-1.4h-43.2l-0.5,1.6v0L135,785l-21.7,200.8l-0.2,1.4L132,973l22.8-7
	l10.9-3.3v-81.3h74.2v81.3H300.2z M220,725.9h-35.5l17.8-50.6L220,725.9z M165.7,848.8v-38.5l8.4-54.4h56.5l9.1,56.4l0.2-30v66.5
	H165.7z"/>
<path d="M478.9,836.4c-4.4-10.3-10.6-19.3-18.5-27c-7.9-7.7-17.3-13.7-28.3-18c-11-4.3-22.9-6.5-35.8-6.5c-13.1,0-25.1,2.2-36,6.5
	c-10.9,4.3-20.2,10.3-28,18c-7.8,7.7-13.9,16.7-18.3,27c-4.4,10.3-6.6,21.4-6.6,33.4s2.2,23.1,6.6,33.4c4.4,10.3,10.5,19.3,18.3,27
	c7.8,7.7,17.2,13.7,28,18c10.9,4.3,22.9,6.5,36,6.5c12.9,0,24.9-2.2,35.8-6.5c11-4.3,20.4-10.3,28.3-18c7.9-7.7,14-16.7,18.5-27
	c4.4-10.3,6.6-21.4,6.6-33.4S483.3,846.7,478.9,836.4z M438.1,887.5c-2.4,5.4-5.7,10.1-9.9,14.1c-4.2,4-9,7.1-14.5,9.3
	c-5.5,2.2-11.3,3.3-17.4,3.3c-6.1,0-11.9-1.1-17.4-3.3c-5.5-2.2-10.3-5.3-14.4-9.3c-4.1-4-7.4-8.7-9.8-14.1
	c-2.4-5.4-3.6-11.3-3.6-17.7c0-6.4,1.2-12.3,3.6-17.7c2.4-5.4,5.7-10.1,9.8-14.1c4.1-4,8.9-7.1,14.4-9.3c5.5-2.2,11.3-3.3,17.4-3.3
	c6.1,0,11.9,1.1,17.4,3.3c5.5,2.2,10.3,5.3,14.5,9.3c4.2,4,7.5,8.7,9.9,14.1c2.4,5.4,3.6,11.3,3.6,17.7
	C441.7,876.2,440.5,882.1,438.1,887.5z"/>
<path d="M620,810.3c-9.6-9.4-23.4-14.1-41.5-14.1h-66.6v160.9h41.8v-53.3h24.8c18.1,0,31.9-4.7,41.5-14.1
	c9.6-9.4,14.4-22.6,14.4-39.7S629.6,819.7,620,810.3z M567.6,870h-13.9v-40.1h13.9c15.4,0,23,6.7,23,20S583,870,567.6,870z"/>
<path d="M158.8,1034.2v-34.4h-12.2v45.2H168v-10.9H158.8z"/>
<path d="M226.2,999.9h-14.9l-10.9,45.2H213l1-5.8h8.2l0.9,5.8h12.6L226.2,999.9z M215.7,1029.7l1.2-7.1l0.8-5.5
	c0-0.1,0.1-0.4,0.1-0.8c0.1-0.5,0.2-1.3,0.3-2.5c0.1-0.6,0.1-1.2,0.2-1.7s0.1-1,0.2-1.4l0.4,4.3c0.1,0.9,0.2,1.6,0.2,2.2
	c0.1,0.6,0.1,1,0.1,1.4c0.4,3,0.6,4.7,0.6,5.1c0.1,0.5,0.1,0.8,0.1,0.8l0.8,5.3H215.7z"/>
<path d="M290.3,1023.7c-1.1-2-3-3.9-5.5-5.7l-1.9-1.4c-1.7-1.2-2.5-2.4-2.5-3.6c0-0.7,0.3-1.4,0.9-1.9c0.6-0.5,1.4-0.8,2.3-0.8
	c1.2,0,2.5,0.4,3.8,1.3c1.3,0.9,2.4,2.1,3.4,3.6v-13.8c-2.9-1.5-5.9-2.3-8.8-2.3c-3.3,0-6,1-8.3,2.9c-0.8,0.7-1.6,1.5-2.2,2.4
	c-0.6,0.9-1.2,1.9-1.7,2.9c-1,2.3-1.5,4.5-1.5,6.6c0,1.2,0.1,2.4,0.4,3.5c0.3,1.1,0.7,2.2,1.3,3.2c0.6,1,1.3,2.1,2.3,3
	c0.9,1,2.1,2,3.4,3l2,1.6c1.4,1.2,2.2,2.3,2.2,3.6c0,0.8-0.3,1.5-1,2.1c-0.7,0.6-1.5,0.8-2.6,0.8c-2.8,0-5.4-1.6-7.8-4.9v14.2
	c3.3,1.3,6.3,1.9,9.2,1.9c4.2,0,7.6-1.5,10.3-4.3c2.7-2.9,4.1-6.6,4.1-11C292,1027.9,291.4,1025.6,290.3,1023.7z"/>
<path d="M349.5,1010.5v-10.6h-22.7v45.2h22.7v-10.9H339v-6.9h9.4v-10.2H339v-6.6H349.5z"/>
<path d="M407.8,1026.3c4.7-2.1,7-5.9,7-11.3c0-5.1-1.7-9.1-5.2-11.8c-2.7-2.2-6.9-3.2-12.4-3.2h-12.5v45.2h12.2v-15.8l-0.1-3
	c0.2,0.6,0.4,1.2,0.5,1.6c0.1,0.5,0.2,0.8,0.3,1.1l6,16.1h13.2L407.8,1026.3z M401.2,1019.2c-0.9,1.1-2.1,1.6-3.5,1.6h-0.8V1010h0.4
	c3.5,0,5.3,1.7,5.3,5.1C402.6,1016.8,402.2,1018.1,401.2,1019.2z"/>
<path d="M531.6,1036.7c0.7-0.7,1.5-1.4,2.2-2.1s1.6-1.6,2.4-2.6l-6.2-8.3c-0.9,1.2-1.7,2.2-2.4,3.1c-0.7,0.9-1.3,1.6-1.8,2.1
	l-4.5-5.8c5.1-3.3,7.7-7.3,7.7-11.8c0-3.4-1.3-6.3-4-8.6c-2.7-2.4-5.9-3.6-9.7-3.6c-3.5,0-6.5,1.2-8.9,3.5c-2.4,2.3-3.7,5.2-3.7,8.5
	c0,3,1.2,5.9,3.5,8.9c-5.2,3-7.8,7-7.8,12c0,3.9,1.4,7.2,4.2,9.9c2.8,2.7,6.2,4.1,10.1,4.1c3.4,0,6.8-1.1,10-3.3l1.8,2.5h13.2
	L531.6,1036.7z M513.6,1035.4c-1,0-1.8-0.4-2.5-1.1c-0.7-0.7-1-1.6-1-2.7c0-1.4,0.7-2.5,2.1-3.4l4.5,5.9
	C515.7,1035,514.6,1035.4,513.6,1035.4z M516,1015.2c-1.4-2.2-2.2-3.7-2.2-4.5c0-0.3,0.1-0.6,0.2-0.9c0.1-0.3,0.3-0.5,0.6-0.8
	c0.2-0.2,0.5-0.4,0.8-0.5c0.3-0.1,0.6-0.2,1-0.2c0.7,0,1.3,0.2,1.7,0.7c0.5,0.5,0.7,1,0.7,1.7C518.8,1011.9,517.9,1013.4,516,1015.2
	z"/>
<path d="M638.8,1034.1c-1.2,0-2.3-0.3-3.3-0.8c-1-0.5-1.8-1.3-2.4-2.3c-0.7-1-1.2-2.2-1.5-3.7c-0.4-1.4-0.5-3.1-0.5-4.9
	c0-3.8,0.7-6.8,2.1-8.9c1.4-2.1,3.4-3.2,5.9-3.2c1.9,0,3.8,0.9,5.6,2.7v-12.9c-2-0.7-4.1-1.1-6-1.1c-6.1,0-10.9,2.2-14.6,6.5
	c-3.6,4.3-5.5,10-5.5,17.2c0,7.6,1.9,13.5,5.8,17.7c3.5,3.7,7.7,5.6,12.8,5.6c2.1,0,4.6-0.6,7.3-1.6l0.7-13.1
	C643,1033.1,640.9,1034.1,638.8,1034.1z"/>
<path d="M700.1,999.9v10.2c0,1.9,0.1,4.2,0.4,7c0.2,2.8,0.6,6.1,1,10.1l-1.3-4c-0.5-1.6-1-3-1.4-4.2c-0.4-1.2-0.8-2.3-1.1-3.2
	l-6.1-15.9h-11.7v45.2h11.7v-11.5c0-1.8-0.1-3.8-0.2-6.2c-0.1-2.4-0.3-5.1-0.5-8.3c0.4,1.4,0.8,2.9,1.4,4.4c0.5,1.6,1.1,3.2,1.7,5
	l6.1,16.6h11.7v-45.2H700.1z"/>
<path d="M767.6,1034.1c-1.2,0-2.3-0.3-3.3-0.8c-1-0.5-1.8-1.3-2.4-2.3c-0.7-1-1.2-2.2-1.5-3.7c-0.3-1.4-0.5-3.1-0.5-4.9
	c0-3.8,0.7-6.8,2.1-8.9c1.4-2.1,3.4-3.2,5.9-3.2c1.9,0,3.8,0.9,5.6,2.7v-12.9c-2.1-0.7-4.1-1.1-6-1.1c-6.1,0-10.9,2.2-14.6,6.5
	c-3.6,4.3-5.5,10-5.5,17.2c0,7.6,1.9,13.5,5.8,17.7c3.5,3.7,7.7,5.6,12.8,5.6c2.2,0,4.6-0.6,7.3-1.6l0.7-13.1
	C771.8,1033.1,769.7,1034.1,767.6,1034.1z"/>
<path d="M199.5,1095.1v-23h-49.2v98h49.2v-23.5h-22.7v-15h20.4v-22.2h-20.4v-14.3H199.5z"/>
<path d="M254.5,1072.1v22c0,4.1,0.2,9.2,0.8,15.2s1.2,13.3,2.2,21.8l-2.7-8.6c-1.1-3.4-2.1-6.5-3-9.1c-0.9-2.6-1.7-4.9-2.5-7
	l-13.3-34.4h-25.3v98H236v-25c0-3.8-0.1-8.3-0.4-13.5c-0.3-5.1-0.7-11.1-1.2-18c0.8,3,1.8,6.2,3,9.6c1.1,3.4,2.4,7,3.8,10.8
	l13.3,36.1h25.3v-98H254.5z"/>
<path d="M328.7,1113.4v20.6h9.8c0,2.2-0.2,4.1-0.7,5.9c-0.4,1.8-1.1,3.2-1.8,4.5c-0.8,1.2-1.7,2.2-2.9,2.8c-1.1,0.7-2.4,1-3.8,1
	c-3.5,0-6.1-1.9-7.7-5.8c-1.6-3.8-2.4-10-2.4-18.5c0-20,3.6-30,10.9-30c2.1,0,3.8,0.9,5.2,2.7c1.4,1.8,2.3,4.2,2.6,7.3l25.6-9.4
	c-7-16.2-18.2-24.2-33.7-24.2c-11.7,0-20.9,4.6-27.6,13.7c-6.7,9.1-10.1,21.6-10.1,37.5c0,15.6,3.3,28,10,36.9
	c6.7,8.9,16,13.3,27.8,13.3c12,0,21.1-4.5,27.2-13.6c5.6-8.3,8.5-21.9,8.5-40.8v-4.1H328.7z"/>
<path d="M427,1129.3c10.1-4.5,15.2-12.7,15.2-24.6c0-11.1-3.8-19.6-11.3-25.7c-5.9-4.7-14.9-7-26.8-7H377v98h26.3v-34.3l-0.2-6.5
	c0.5,1.4,0.9,2.5,1.2,3.5c0.3,1,0.5,1.8,0.7,2.3l13.1,34.9h28.6L427,1129.3z M412.8,1114c-2,2.3-4.6,3.5-7.6,3.5h-1.8v-23.4h1
	c7.7,0,11.5,3.7,11.5,11C415.9,1108.7,414.8,1111.7,412.8,1114z"/>
<path d="M505.2,1072.1h-32.4l-23.5,98h27.4l2.2-12.5h17.8l2,12.5H526L505.2,1072.1z M482.4,1136.6l2.7-15.4l1.8-11.9
	c0-0.2,0.1-0.8,0.2-1.8c0.1-1,0.3-2.8,0.6-5.5c0.2-1.3,0.3-2.5,0.5-3.6s0.3-2.1,0.3-3l0.8,9.3c0.2,1.9,0.4,3.5,0.5,4.7
	c0.1,1.2,0.2,2.2,0.3,2.9c0.8,6.4,1.2,10.1,1.3,11c0.1,1.1,0.2,1.7,0.3,1.7l1.7,11.4H482.4z"/>
<path d="M574.2,1072.1l-6.3,32.4c-0.9,4.9-1.7,9.9-2.4,15c-0.7,5.1-1.2,10.6-1.7,16.5c-1.1-13.2-2.6-25.2-4.4-35.9l-4.8-28h-27.8
	l22.5,98h27l26.7-98H574.2z"/>
<path d="M609.8,1072.1v98h26.5v-98H609.8z"/>
<path d="M693.8,1072.1v22c0,4.1,0.2,9.2,0.8,15.2s1.2,13.3,2.2,21.8l-2.7-8.6c-1.1-3.4-2.1-6.5-3-9.1c-0.9-2.6-1.7-4.9-2.5-7
	l-13.3-34.4H650v98h25.3v-25c0-3.8-0.1-8.3-0.4-13.5c-0.2-5.1-0.7-11.1-1.2-18c0.8,3,1.8,6.2,3,9.6c1.1,3.4,2.4,7,3.8,10.8
	l13.3,36.1H719v-98H693.8z"/>
<path d="M768,1113.4v20.6h9.8c0,2.2-0.2,4.1-0.7,5.9c-0.4,1.8-1.1,3.2-1.8,4.5c-0.8,1.2-1.8,2.2-2.9,2.8c-1.1,0.7-2.4,1-3.8,1
	c-3.5,0-6.1-1.9-7.7-5.8c-1.6-3.8-2.4-10-2.4-18.5c0-20,3.6-30,10.9-30c2.1,0,3.8,0.9,5.2,2.7c1.4,1.8,2.2,4.2,2.6,7.3l25.6-9.4
	c-7-16.2-18.2-24.2-33.7-24.2c-11.7,0-20.9,4.6-27.6,13.7c-6.7,9.1-10.1,21.6-10.1,37.5c0,15.6,3.3,28,10,36.9
	c6.7,8.9,16,13.3,27.8,13.3c12,0,21.1-4.5,27.2-13.6c5.6-8.3,8.4-21.9,8.4-40.8v-4.1H768z"/>
<path class="st3" d="M789.7,1210H152.9c-27.2,0-49.3-22.1-49.3-49.3v-145.4c0-27.2,22.1-49.3,49.3-49.3h636.9
	c27.2,0,49.3,22.1,49.3,49.3v145.4C839,1187.9,816.9,1210,789.7,1210z"/>
<path class="st4" d="M-18.5,407.8c0.5-0.6,1.1-1.1,1.6-1.7c0.1-0.1,0.3-0.3,0.4-0.4"/>
<path class="st4" d="M-18.5,407.8c0.5-0.6,1.1-1.1,1.6-1.7c0.1-0.1,0.3-0.3,0.4-0.4"/>
</svg>
