<?xml version="1.0" encoding="utf-8"?>
<!-- Generator: Adobe Illustrator 27.4.0, SVG Export Plug-In . SVG Version: 6.00 Build 0)  -->
<svg version="1.1" id="Layer_1" xmlns="http://www.w3.org/2000/svg" xmlns:xlink="http://www.w3.org/1999/xlink" x="0px" y="0px"
	 viewBox="0 0 792 612" style="enable-background:new 0 0 792 612;" xml:space="preserve">
<style type="text/css">
	.st0{fill:#FFFFFF;}
	.st1{fill:none;}
	.st2{stroke:#000000;stroke-width:2.8512;stroke-miterlimit:10;}
	.st3{fill:none;stroke:#000000;stroke-width:0.4903;stroke-miterlimit:10;}
	.st4{fill:#FFFFFF;stroke:#000000;stroke-width:0.4903;stroke-miterlimit:10;}
	.st5{fill:none;stroke:#000000;stroke-width:0.7542;stroke-miterlimit:10;}
</style>
<path class="st0" d="M571.7,483.7H220.2c-21.7,0-39.3-17.6-39.3-39.3V167.2c0-21.7,17.6-39.3,39.3-39.3h351.5
	c21.7,0,39.3,17.6,39.3,39.3v277.1C611,466,593.4,483.7,571.7,483.7z"/>
<g>
	<g>
		<g>
			<path d="M418.7,385.6c-4.6,0-9.7-0.8-15.1-2.5c-6.5-2-12.5-4.8-18-8.4c-5.5-3.6-9.9-7.5-13-11.6l-1.4-1.8l18.4-24.1l2.4,3
				c2.6,3.3,5.8,6.3,9.4,8.9c3.6,2.6,7.4,4.5,11.1,5.7c2.6,0.8,4.2,1,5.1,1l0.2,0c1.1,0,1.5-0.2,1.7-0.3c0.2-0.1,0.4-0.3,0.5-0.7
				c0.1-0.4,0.2-0.9-0.5-1.7c-1-1.2-2.5-2.3-4.5-3.6c-2.2-1.4-4.7-2.9-7.4-4.5c-2.8-1.7-5.6-3.6-8.2-5.8c-2.8-2.2-5.2-4.8-7.2-7.8
				c-2.1-3.1-3.5-6.7-4-10.7c-0.6-4-0.1-8.7,1.5-13.8c1.8-5.9,4.9-11,9.2-15.1c4.4-4.1,9.9-6.8,16.3-8c2.1-0.4,4.4-0.6,6.7-0.6
				c3.5,0,7.2,0.5,11.1,1.4l3.2,0.7l0,0.1c0.1,0,0.5,0.1,0.5,0.2l0.6-0.3l0,0.5l1.6,0.5l3,1l-0.1,0.1c3.5,1.4,6.9,3.1,10.1,5.1
				c4.7,2.9,8.8,6.4,12.1,10.5l1.4,1.8L447.9,329l-2.4-2.7c-2.8-3.1-5.8-5.7-8.6-7.7c-2.8-2-5.8-3.4-8.7-4.3
				c-1.9-0.6-3.4-0.9-4.6-0.9c-0.1,0-0.2,0-0.3,0c-1.3,0.1-1.8,0.4-2,0.5c-0.4,0.3-0.6,0.6-0.7,1c-0.1,0.3-0.2,0.7,0.5,1.4
				c1,1.1,2.5,2.3,4.5,3.4c2.3,1.3,4.7,2.8,7.5,4.3c2.9,1.7,5.7,3.6,8.3,5.7c2.7,2.2,5.1,4.8,7.1,7.7c2.1,3.1,3.5,6.6,4.1,10.6
				c0.6,4,0.1,8.6-1.4,13.6c-1.8,5.9-4.9,10.9-9.2,15c-4.3,4.1-9.8,6.8-16.3,8.1C423.3,385.4,421,385.6,418.7,385.6
				C418.7,385.6,418.7,385.6,418.7,385.6z"/>
			<path class="st0" d="M421.9,286.4c3.3,0,6.7,0.4,10.4,1.3l-1.3,3.7l3.6-1.5l0.5,8.2l3.5-8.6c4.2,1.4,8.1,3.3,11.9,5.7
				c4.5,2.8,8.3,6,11.4,9.8l-14.1,19.3c-3-3.3-6.1-6.1-9.2-8.2c-3.1-2.1-6.3-3.7-9.5-4.7c-2.2-0.7-4-1-5.5-1c-0.2,0-0.3,0-0.5,0
				c-1.6,0.1-2.8,0.4-3.7,1.1c-0.8,0.7-1.4,1.5-1.8,2.5c-0.5,1.5-0.1,2.9,1.1,4.3c1.2,1.3,3,2.7,5.2,4c2.3,1.3,4.8,2.8,7.5,4.4
				c2.7,1.6,5.4,3.4,7.9,5.5c2.5,2.1,4.7,4.4,6.6,7.1c1.8,2.7,3,5.8,3.6,9.4c0.5,3.6,0.1,7.7-1.3,12.3c-1.7,5.4-4.4,10-8.4,13.7
				c-4,3.7-8.9,6.2-14.8,7.4c-2,0.4-4.1,0.6-6.3,0.6c-4.3,0-9.1-0.8-14.2-2.3c-6.2-1.9-12-4.6-17.3-8c-5.3-3.5-9.4-7.1-12.3-10.9
				l14.7-19.3c2.8,3.5,6.1,6.7,10,9.5s7.9,4.8,12,6.1c2.4,0.7,4.4,1.1,5.8,1.2c0.1,0,0.2,0,0.3,0c1.3,0,2.4-0.2,3.2-0.7
				c0.8-0.5,1.4-1.3,1.7-2.3c0.5-1.6,0.1-3.1-1.1-4.5c-1.2-1.4-2.9-2.8-5.2-4.1c-2.2-1.4-4.7-2.9-7.4-4.5c-2.7-1.6-5.3-3.4-7.9-5.5
				c-2.6-2.1-4.8-4.4-6.6-7.1c-1.8-2.7-3-5.8-3.5-9.4c-0.5-3.6-0.1-7.8,1.4-12.5c1.7-5.5,4.5-10.1,8.4-13.8c4-3.7,8.9-6.1,14.9-7.3
				C417.7,286.6,419.7,286.4,421.9,286.4 M432.8,287.9c0.2,0,0.4,0.1,0.6,0.1c0.5,0.1,1,0.3,1.6,0.4c0.2,0.1,0.5,0.1,0.7,0.2
				c0.1,0,0.3,0.1,0.5,0.1c0.4,0.1,0.8,0.3,1.2,0.4c0.2,0.1,0.4,0.1,0.6,0.2l-2.5,6.1l-0.4-6.4l-3.1,1.4L432.8,287.9 M421.9,280.5
				C421.9,280.5,421.9,280.5,421.9,280.5c-2.5,0-4.9,0.2-7.2,0.7c-7,1.3-13,4.3-17.8,8.8c-4.7,4.4-8.1,9.9-10,16.4
				c-1.7,5.5-2.2,10.6-1.6,15.1c0.6,4.2,2,8,4.1,11.3l-4.4,5.8l-14.7,19.3l-2.7,3.6l2.7,3.6c3.3,4.4,8,8.5,13.8,12.3
				c5.7,3.7,12,6.7,18.8,8.7c5.7,1.7,11,2.6,15.9,2.6c2.6,0,5-0.2,7.4-0.7c7-1.4,13-4.4,17.7-8.9c4.7-4.4,8.1-9.9,10-16.2
				c1.7-5.5,2.2-10.5,1.5-14.9c-0.7-4.5-2.2-8.4-4.5-11.8c-0.7-1-1.4-2-2.2-2.9l3.8-5.2l14.1-19.3l2.7-3.7l-2.9-3.5
				c-3.5-4.3-7.8-8.1-12.9-11.1c-2.6-1.6-5.2-2.9-7.9-4.1l0.2-0.4l-5.7-1.8l-0.2-2.7l-3.4,1.5l-1.4-0.5l-0.1,0.2l-1.4-0.3
				c-1.2-0.3-2.3-0.5-3.4-0.7L429,281l0,0.1C426.5,280.7,424.1,280.5,421.9,280.5L421.9,280.5L421.9,280.5z M441.4,326.4
				c-2.3-1.7-4.6-3.3-7-4.7c-2.7-1.5-5.2-3-7.4-4.3c-0.3-0.2-0.6-0.4-0.9-0.6c0.4,0.1,0.8,0.2,1.2,0.3c2.7,0.8,5.3,2.1,7.9,3.9
				C437.2,322.5,439.3,324.2,441.4,326.4L441.4,326.4z M413,351.9c-3.3-1.1-6.7-2.8-9.9-5.1c-2.8-2-5.2-4.2-7.4-6.6
				c0.6,0.6,1.2,1.1,1.9,1.6c2.7,2.2,5.6,4.2,8.5,6C408.5,349.1,410.8,350.5,413,351.9L413,351.9z"/>
		</g>
	</g>
	<g>
		<polygon class="st0" points="460.5,340.4 478.8,323.4 478.8,360.2 491.1,351 487.2,409.9 474.1,376.5 459.8,389 		"/>
		<path d="M482.1,353.6l0-37.8L457.3,339l-0.8,57.4l16.3-14.4l16.8,42.7l5.3-80.6L482.1,353.6z M475.4,370.9l-12.2,10.7l0.6-39.7
			l11.7-10.9v35.8l11.8-8.8l-2.4,37L475.4,370.9z"/>
	</g>
	<g>
		<path d="M355.2,355.1c-3.1-6.4-6-12.9-8.9-19.3c-3.4-7.5-6.6-14.6-10-21.4c-3.6-7.3-44.2-90-44.2-90l2.3-1.4
			c0.2-0.1,0.2-0.1,51.5-25.3c10.2-5,19.9-7.6,28.8-7.6c4.8,0,9.4,0.7,13.7,2.2c12.6,4.1,22.6,13.8,30,28.7
			c7.3,14.9,8.8,28.8,4.3,41.2c-4.4,12.4-14.6,22.6-30.3,30.4l-18,8.8l0.5,1.1c1.5,3,3.1,6.1,4.6,9.1c4.2,8.3,8.6,16.9,12.1,25.8
			l1,2.5l-36.3,17.8L355.2,355.1z M358.2,268l8.9-4.4c14.8-7.3,12.6-16.2,9.6-22.2c-3-6.1-7-9-12.4-9c-3.2,0-6.9,1-11.1,3.1
			l-8.9,4.4L358.2,268z"/>
		<path class="st0" d="M374.8,193.1c4.5,0,8.7,0.7,12.8,2c11.8,3.9,21.2,13,28.2,27.2c7,14.2,8.4,27.2,4.2,38.9
			c-4.2,11.8-13.8,21.3-28.8,28.7l-20.6,10.1l1.8,3.7c5.7,11.5,12,22.7,16.6,34.7l-31.2,15.3c-6.5-13.6-12.6-27.8-18.9-40.7
			c-3.6-7.3-43-87.6-43-87.6c0.1-0.1,51.3-25.2,51.3-25.2C357.2,195.5,366.3,193.1,374.8,193.1 M356.9,272l11.5-5.7
			c12.8-6.3,16.5-15,11-26.1c-3.5-7.1-8.5-10.7-15-10.7c-3.7,0-7.8,1.1-12.4,3.4l-11.6,5.7L356.9,272 M374.8,187.2
			c-9.4,0-19.5,2.6-30.1,7.9c-51.4,25.2-51.4,25.2-51.7,25.4l-4.6,2.8l2.4,4.9c0,0,39.4,80.3,43,87.6c3.3,6.8,6.5,13.8,9.9,21.3
			c2.9,6.4,5.9,12.9,8.9,19.3l2.6,5.3l5.3-2.6l31.2-15.3l4.8-2.4l-1.9-5c-3.5-9.1-7.9-17.7-12.2-26.1c-1.3-2.5-2.5-5-3.8-7.5
			l15.3-7.5c16.4-8.1,27.1-18.8,31.8-32c4.7-13.2,3.2-27.9-4.5-43.5c-7.7-15.6-18.3-25.8-31.7-30.2
			C384.8,188,379.9,187.2,374.8,187.2L374.8,187.2z M348.4,241.2l6.3-3.1c3.8-1.9,7.1-2.8,9.8-2.8c2.8,0,6.5,0.8,9.7,7.4
			c2.9,5.9,3.9,12.3-8.3,18.3l-6.3,3.1L348.4,241.2L348.4,241.2z"/>
	</g>
	<g>
		<polygon class="st0" points="437.8,263.1 444,264.2 436.7,269.8 440.3,270.8 428,279 432.7,271.3 428,270.4 		"/>
		<path d="M446,263.7l-8.4-1.4l-11.5,8.5l5.3,1.1l-5.9,9.8l16.8-11.2l-3.8-1.1L446,263.7z M430.7,276.2l3.3-5.5l-4-0.8l8-5.9l4,0.7
			l-7.1,5.4l3.5,1L430.7,276.2z"/>
	</g>
	<g>
		<polygon class="st0" points="439.4,285.6 437.9,289.3 435.5,295.5 435.1,289 432,290.4 432.8,287.9 434.8,282.1 438.9,280.2 
			436.8,286.5 		"/>
		<path d="M437.7,285.6l2.1-6.5l-5.5,2.6l-2.1,6c0.2,0,0.4,0.1,0.6,0.1l-0.9,2.5l3.1-1.4l0.4,6.4l2.5-6.1c0.2,0.1,0.4,0.1,0.6,0.2
			l2-4.9L437.7,285.6z M437.4,289.2l-1.5,3.6l-0.2-4.2l0-0.5l-0.7,0.3l-2,0.9l0.5-1.3l1.9-5.4l2.6-1.2l-2,6.1l2.5-0.9L437.4,289.2z"
			/>
	</g>
	<g>
		<polygon class="st0" points="447.2,275.3 444.9,273.1 444.8,277.8 443.3,276.6 443.7,284.3 445.4,280 447.2,281.6 		"/>
		<path d="M447.7,275.1l-3.2-3l-0.1,4.9l-1.6-1.3l0.5,10.4l2.2-5.5l2.1,1.9L447.7,275.1z M444,282.3l-0.3-4.8l1.5,1.2l0.1-4.6
			l1.5,1.4v5.1l-1.5-1.4L444,282.3z"/>
	</g>
	<polyline class="st1" points="459,237.5 463.8,231.7 464,231.5 	"/>
	<g>
		<path d="M477.2,183.2l-3.4-4.8l2.4-1.7c3.7-2.6,5.5-5.3,5.3-8.1c-0.3-6.4-9.8-13-13.5-15l-1.8-1c-0.4-0.2-0.7-0.6-0.5-1.1l1.2-0.9
			l0.1-1.4l1.3-0.6l0.1-1.1c0.2-0.4,0.7-0.2,1.2,0.1l1.4,0.7c1.6,0.9,15.9,9.1,16.5,19.8c0.3,5-2.4,9.4-7.8,13.2L477.2,183.2z"/>
	</g>
	<g>
		<polygon points="445,251.2 450.6,253.3 446.1,257.1 		"/>
		<polygon points="454.4,250 451.8,252.2 444.7,249.6 444.1,246.1 		"/>
		<polygon points="458.7,246.4 455.7,249 443.8,244.5 443.1,240.5 		"/>
		<polygon points="481,227.4 459.9,245.3 442.8,238.9 437.8,212 		"/>
	</g>
	<rect x="456.2" y="190.9" transform="matrix(0.3315 -0.9435 0.9435 0.3315 106.8817 578.5506)" width="11" height="45.9"/>
	<path class="st2" d="M494.2,217.2C494.2,217.2,494.2,217.2,494.2,217.2l-57-20c0,0,0,0,0,0c5.5-15.7,22.8-24,38.5-18.5
		C491.4,184.2,499.7,201.5,494.2,217.2z"/>
	<path class="st3" d="M466.3,151.6c0,0-1.8-1.9-3-2"/>
	<path class="st4" d="M466.9,151.3c0,0-1.7-2.5-2.2-3.5"/>
	<path class="st4" d="M468,149.6c-0.9-1.8-3-3-3-3"/>
	<path class="st4" d="M468.7,149.1c-0.5-1.6-1.9-3.6-1.9-3.6"/>
	<path class="st3" d="M467.3,150.4c-0.5-0.9-1.4-2.3-1.4-2.3"/>
	<g>
		<polyline class="st5" points="452.7,147.9 454.4,146.3 456,147.9 		"/>
		<polyline class="st5" points="452.7,144.8 454.4,146.3 456,144.8 		"/>
	</g>
	<g>
		<polyline class="st5" points="453.8,141.3 455.4,139.8 457.1,141.3 		"/>
		<polyline class="st5" points="453.8,138.3 455.4,139.8 457.1,138.3 		"/>
	</g>
	<g>
		<polyline class="st5" points="468.7,142.7 470.3,141.2 472,142.7 		"/>
		<polyline class="st5" points="468.7,139.7 470.3,141.2 472,139.7 		"/>
	</g>
	<g>
		<polyline class="st5" points="458,152.6 459.7,151.1 461.3,152.6 		"/>
		<polyline class="st5" points="458,149.6 459.7,151.1 461.3,149.6 		"/>
	</g>
	<g>
		<polyline class="st5" points="461,145 462.6,143.5 464.3,145 		"/>
		<polyline class="st5" points="461,142 462.6,143.5 464.3,142 		"/>
	</g>
</g>
<g>
	<path d="M298.7,468.8v-9.3h2c0.9,0,1.7,0.1,2.2,0.3c0.6,0.2,1.1,0.5,1.6,0.9c1,0.9,1.4,2,1.4,3.5c0,1.4-0.5,2.6-1.5,3.5
		c-0.5,0.4-1,0.8-1.6,0.9c-0.5,0.2-1.2,0.3-2.2,0.3H298.7z M300.1,467.5h0.6c0.6,0,1.2-0.1,1.6-0.2c0.4-0.1,0.8-0.4,1.1-0.7
		c0.7-0.6,1-1.5,1-2.5c0-1-0.3-1.9-1-2.5c-0.6-0.6-1.5-0.9-2.7-0.9h-0.6V467.5z"/>
	<path d="M315.9,460.8h-3.7v2.2h3.6v1.3h-3.6v3.1h3.7v1.3h-5.1v-9.3h5.1V460.8z"/>
	<path d="M326.1,460.9l-1.1,0.7c-0.2-0.4-0.4-0.6-0.6-0.7c-0.2-0.1-0.5-0.2-0.8-0.2c-0.4,0-0.7,0.1-1,0.3c-0.3,0.2-0.4,0.5-0.4,0.8
		c0,0.5,0.3,0.8,1,1.1l0.9,0.4c0.8,0.3,1.3,0.7,1.7,1.1c0.4,0.4,0.5,1,0.5,1.6c0,0.9-0.3,1.6-0.9,2.1c-0.6,0.6-1.3,0.8-2.1,0.8
		c-0.8,0-1.5-0.2-2-0.7c-0.5-0.5-0.8-1.2-1-2l1.4-0.3c0.1,0.5,0.2,0.9,0.3,1.1c0.3,0.4,0.7,0.6,1.3,0.6c0.4,0,0.8-0.1,1.1-0.4
		c0.3-0.3,0.4-0.7,0.4-1.1c0-0.2,0-0.3-0.1-0.5c0-0.2-0.1-0.3-0.2-0.4c-0.1-0.1-0.2-0.2-0.4-0.4s-0.4-0.2-0.6-0.3l-0.9-0.4
		c-1.3-0.5-1.9-1.3-1.9-2.4c0-0.7,0.3-1.3,0.8-1.8c0.5-0.5,1.2-0.7,2-0.7C324.7,459.3,325.5,459.9,326.1,460.9z"/>
	<path d="M332.6,459.5v9.3h-1.4v-9.3H332.6z"/>
	<path d="M342.7,464h3.9v0.3c0,0.7-0.1,1.3-0.2,1.9c-0.2,0.5-0.4,1-0.8,1.4c-0.9,1-2,1.5-3.3,1.5c-1.3,0-2.4-0.5-3.3-1.4
		c-0.9-0.9-1.4-2.1-1.4-3.4c0-1.4,0.5-2.5,1.4-3.4c0.9-0.9,2.1-1.4,3.5-1.4c0.7,0,1.4,0.1,2,0.4c0.6,0.3,1.2,0.8,1.8,1.4l-1,1
		c-0.8-1-1.7-1.5-2.8-1.5c-1,0-1.8,0.3-2.5,1c-0.7,0.7-1,1.5-1,2.5c0,1,0.4,1.9,1.1,2.6c0.7,0.6,1.5,0.9,2.3,0.9
		c0.7,0,1.3-0.2,1.9-0.7c0.6-0.5,0.9-1,0.9-1.7h-2.3V464z"/>
	<path d="M351.4,468.8v-10l6.8,7.1v-6.5h1.4v9.9l-6.8-7.1v6.5H351.4z"/>
	<path d="M375.5,463.7l1.7,2l0.1-0.1c0.2-0.2,0.4-0.4,0.5-0.6c0.2-0.2,0.3-0.4,0.5-0.6l0.9,0.9c-0.1,0.2-0.3,0.3-0.4,0.6
		c-0.2,0.2-0.4,0.5-0.7,0.7l1.7,2.1H378l-0.9-1.1c-0.9,0.9-1.7,1.3-2.7,1.3c-0.8,0-1.5-0.3-2.1-0.8c-0.6-0.5-0.8-1.2-0.8-2
		c0-0.9,0.4-1.7,1.3-2.3l0.6-0.4c0,0,0,0,0,0c0,0,0,0,0.1-0.1c-0.6-0.7-0.9-1.3-0.9-1.9c0-0.6,0.2-1.1,0.6-1.5
		c0.4-0.4,1-0.6,1.6-0.6c0.6,0,1.2,0.2,1.6,0.6c0.4,0.4,0.6,0.9,0.6,1.4c0,0.4-0.1,0.8-0.3,1.1C376.5,462.8,376.1,463.2,375.5,463.7
		z M374.4,464.4L374.4,464.4c-0.7,0.5-1,0.8-1.3,1c-0.2,0.2-0.3,0.5-0.3,0.8c0,0.4,0.2,0.7,0.5,1.1c0.3,0.3,0.7,0.5,1.1,0.5
		c0.5,0,1.2-0.4,1.9-1.1L374.4,464.4z M374.7,462.7l0.1-0.1c0.2-0.1,0.4-0.3,0.5-0.4c0.1-0.1,0.2-0.2,0.3-0.3
		c0.1-0.1,0.2-0.3,0.2-0.5c0-0.2-0.1-0.4-0.2-0.6c-0.2-0.2-0.4-0.2-0.7-0.2c-0.3,0-0.5,0.1-0.6,0.2c-0.2,0.1-0.3,0.3-0.3,0.6
		c0,0.3,0.1,0.5,0.3,0.8L374.7,462.7C374.6,462.6,374.6,462.6,374.7,462.7z"/>
	<path d="M396,460.8h-3.7v2.2h3.6v1.3h-3.6v3.1h3.7v1.3h-5.1v-9.3h5.1V460.8z"/>
	<path d="M400.9,468.8v-10l6.8,7.1v-6.5h1.4v9.9l-6.8-7.1v6.5H400.9z"/>
	<path d="M419.4,464h3.9v0.3c0,0.7-0.1,1.3-0.2,1.9c-0.2,0.5-0.4,1-0.8,1.4c-0.9,1-2,1.5-3.3,1.5c-1.3,0-2.4-0.5-3.3-1.4
		c-0.9-0.9-1.4-2.1-1.4-3.4c0-1.4,0.5-2.5,1.4-3.4c0.9-0.9,2.1-1.4,3.5-1.4c0.7,0,1.4,0.1,2,0.4c0.6,0.3,1.2,0.8,1.8,1.4l-1,1
		c-0.8-1-1.7-1.5-2.8-1.5c-1,0-1.8,0.3-2.5,1c-0.7,0.7-1,1.5-1,2.5c0,1,0.4,1.9,1.1,2.6c0.7,0.6,1.5,0.9,2.3,0.9
		c0.7,0,1.3-0.2,1.9-0.7c0.6-0.5,0.9-1,0.9-1.7h-2.3V464z"/>
	<path d="M431.2,464.9l2.9,4h-1.7l-2.7-3.8h-0.3v3.8h-1.4v-9.3h1.6c1.2,0,2.1,0.2,2.7,0.7c0.6,0.5,0.9,1.2,0.9,2
		c0,0.7-0.2,1.2-0.6,1.7C432.3,464.4,431.8,464.7,431.2,464.9z M429.5,463.8h0.4c1.3,0,2-0.5,2-1.5c0-1-0.6-1.4-1.9-1.4h-0.5V463.8z
		"/>
	<path d="M444.1,466.6h-4l-1,2.3h-1.5l4.6-9.9l4.4,9.9H445L444.1,466.6z M443.5,465.2l-1.4-3.2l-1.4,3.2H443.5z"/>
	<path d="M450.6,459.5l2.6,6.5l2.6-6.5h1.5l-4.2,10l-4.1-10H450.6z"/>
	<path d="M463,459.5v9.3h-1.4v-9.3H463z"/>
	<path d="M468.3,468.8v-10l6.8,7.1v-6.5h1.4v9.9l-6.8-7.1v6.5H468.3z"/>
	<path d="M486.7,464h3.9v0.3c0,0.7-0.1,1.3-0.2,1.9c-0.2,0.5-0.4,1-0.8,1.4c-0.9,1-2,1.5-3.3,1.5c-1.3,0-2.4-0.5-3.3-1.4
		c-0.9-0.9-1.4-2.1-1.4-3.4c0-1.4,0.5-2.5,1.4-3.4c0.9-0.9,2.1-1.4,3.5-1.4c0.7,0,1.4,0.1,2,0.4c0.6,0.3,1.2,0.8,1.8,1.4l-1,1
		c-0.8-1-1.7-1.5-2.8-1.5c-1,0-1.8,0.3-2.5,1c-0.7,0.7-1,1.5-1,2.5c0,1,0.4,1.9,1.1,2.6c0.7,0.6,1.5,0.9,2.3,0.9
		c0.7,0,1.3-0.2,1.9-0.7c0.6-0.5,0.9-1,0.9-1.7h-2.3V464z"/>
</g>
<g>
	<path d="M304.2,450.1h-3.9V435h6.2c1.7,0,3,0.4,3.9,1.3c0.9,0.9,1.3,2.1,1.3,3.7s-0.4,2.8-1.3,3.7c-0.9,0.9-2.2,1.3-3.9,1.3h-2.3
		V450.1z M304.2,441.9h1.3c1.4,0,2.2-0.6,2.2-1.9s-0.7-1.9-2.2-1.9h-1.3V441.9z"/>
	<path d="M321.3,435v11.8h4.7v3.3h-8.6V435H321.3z"/>
	<path d="M341.5,447.5h-5.6l-0.9,2.6h-4.2l5.7-15.1h4.3l5.7,15.1h-4.2L341.5,447.5z M340.5,444.5l-1.8-5l-1.8,5H340.5z"/>
	<path d="M350.7,442.6c0-1.1,0.2-2.2,0.6-3.1c0.4-1,1-1.8,1.7-2.5c0.7-0.7,1.6-1.3,2.6-1.7c1-0.4,2.1-0.6,3.4-0.6
		c1.2,0,2.3,0.2,3.4,0.6c1,0.4,1.9,1,2.7,1.7s1.3,1.6,1.7,2.5c0.4,1,0.6,2,0.6,3.1c0,1-0.2,2-0.5,2.9c-0.3,0.9-0.8,1.7-1.5,2.4
		l2.6,2.7l-3.6,0.6l-1.4-1.4c-0.6,0.3-1.2,0.5-1.9,0.6c-0.7,0.2-1.4,0.2-2.1,0.2c-1.2,0-2.4-0.2-3.4-0.6c-1-0.4-1.9-1-2.6-1.7
		c-0.7-0.7-1.3-1.6-1.7-2.5C350.9,444.7,350.7,443.7,350.7,442.6z M354.8,442.6c0,0.6,0.1,1.2,0.3,1.7s0.5,0.9,0.9,1.3
		c0.4,0.4,0.8,0.7,1.4,0.9c0.5,0.2,1.1,0.3,1.6,0.3c0.3,0,0.7,0,1-0.1l-2.2-2.4l3.7-0.5l1,1.1c0.5-0.7,0.7-1.4,0.7-2.3
		c0-0.6-0.1-1.2-0.3-1.7s-0.5-0.9-0.9-1.3c-0.4-0.4-0.8-0.7-1.4-0.9c-0.5-0.2-1.1-0.3-1.6-0.3s-1.1,0.1-1.6,0.3
		c-0.5,0.2-1,0.5-1.4,0.9s-0.7,0.8-0.9,1.3S354.8,442,354.8,442.6z"/>
	<path d="M377.4,435v8.2c0,0.4,0,0.9,0,1.4c0,0.5,0.1,0.9,0.3,1.2c0.2,0.4,0.4,0.7,0.8,0.9c0.4,0.2,0.9,0.4,1.5,0.4s1.2-0.1,1.5-0.4
		s0.6-0.5,0.8-0.9c0.2-0.4,0.3-0.8,0.3-1.2c0-0.5,0.1-0.9,0.1-1.4V435h3.9v8.7c0,2.3-0.5,4.1-1.6,5.1c-1.1,1.1-2.7,1.6-5,1.6
		s-3.9-0.5-5-1.6c-1.1-1.1-1.6-2.8-1.6-5.1V435H377.4z"/>
	<path d="M401.9,438.3h-4.7v2.5h4.4v3.3h-4.4v2.6h4.7v3.3h-8.6V435h8.6V438.3z"/>
	<path d="M427,438.9c-0.4-0.3-0.9-0.6-1.3-0.8c-0.4-0.2-0.8-0.2-1.2-0.2c-0.5,0-0.9,0.1-1.2,0.4c-0.3,0.2-0.5,0.6-0.5,0.9
		c0,0.3,0.1,0.5,0.2,0.7c0.2,0.2,0.4,0.3,0.6,0.4s0.6,0.2,0.9,0.3c0.3,0.1,0.6,0.2,1,0.3c1.3,0.4,2.2,1,2.8,1.7
		c0.6,0.7,0.9,1.6,0.9,2.8c0,0.8-0.1,1.5-0.4,2.1c-0.3,0.6-0.6,1.2-1.1,1.6c-0.5,0.4-1.1,0.8-1.8,1s-1.5,0.4-2.5,0.4
		c-1.9,0-3.7-0.6-5.3-1.7l1.7-3.2c0.6,0.5,1.2,0.9,1.7,1.2c0.6,0.3,1.1,0.4,1.7,0.4c0.6,0,1.1-0.1,1.4-0.4c0.3-0.3,0.5-0.6,0.5-1
		c0-0.2,0-0.4-0.1-0.6c-0.1-0.2-0.2-0.3-0.4-0.5c-0.2-0.1-0.4-0.3-0.7-0.4c-0.3-0.1-0.7-0.3-1.1-0.4c-0.5-0.2-1-0.3-1.5-0.5
		s-0.9-0.5-1.3-0.8c-0.4-0.3-0.7-0.7-0.9-1.2c-0.2-0.5-0.4-1.1-0.4-1.9s0.1-1.4,0.4-2c0.2-0.6,0.6-1.1,1-1.6c0.4-0.4,1-0.8,1.6-1
		c0.6-0.2,1.4-0.4,2.2-0.4c0.7,0,1.5,0.1,2.3,0.3s1.6,0.5,2.3,0.9L427,438.9z"/>
	<path d="M439.2,440.8h5.7V435h3.9v15.1h-3.9v-6.2h-5.7v6.2h-3.9V435h3.9V440.8z"/>
	<path d="M454.9,442.6c0-1.1,0.2-2.2,0.6-3.1c0.4-1,1-1.8,1.7-2.5c0.7-0.7,1.6-1.3,2.6-1.7c1-0.4,2.1-0.6,3.4-0.6
		c1.2,0,2.3,0.2,3.4,0.6c1,0.4,1.9,1,2.7,1.7s1.3,1.6,1.7,2.5c0.4,1,0.6,2,0.6,3.1s-0.2,2.2-0.6,3.1c-0.4,1-1,1.8-1.7,2.5
		s-1.6,1.3-2.7,1.7c-1,0.4-2.1,0.6-3.4,0.6c-1.2,0-2.4-0.2-3.4-0.6c-1-0.4-1.9-1-2.6-1.7c-0.7-0.7-1.3-1.6-1.7-2.5
		C455.1,444.7,454.9,443.7,454.9,442.6z M459,442.6c0,0.6,0.1,1.2,0.3,1.7s0.5,0.9,0.9,1.3c0.4,0.4,0.8,0.7,1.4,0.9
		c0.5,0.2,1.1,0.3,1.6,0.3s1.1-0.1,1.6-0.3c0.5-0.2,1-0.5,1.4-0.9c0.4-0.4,0.7-0.8,0.9-1.3s0.3-1.1,0.3-1.7s-0.1-1.2-0.3-1.7
		s-0.5-0.9-0.9-1.3c-0.4-0.4-0.8-0.7-1.4-0.9c-0.5-0.2-1.1-0.3-1.6-0.3s-1.1,0.1-1.6,0.3c-0.5,0.2-1,0.5-1.4,0.9s-0.7,0.8-0.9,1.3
		S459,442,459,442.6z"/>
	<path d="M481.6,450.1h-3.9V435h6.2c1.7,0,3,0.4,3.9,1.3c0.9,0.9,1.3,2.1,1.3,3.7s-0.4,2.8-1.3,3.7c-0.9,0.9-2.2,1.3-3.9,1.3h-2.3
		V450.1z M481.6,441.9h1.3c1.4,0,2.2-0.6,2.2-1.9s-0.7-1.9-2.2-1.9h-1.3V441.9z"/>
</g>
</svg>
