<?xml version="1.0" encoding="UTF-8"?><svg id="Layer_1" xmlns="http://www.w3.org/2000/svg" viewBox="0 0 295.15 68.81"><defs><style>.cls-1,.cls-2{fill:#fff;}.cls-2{fill-rule:evenodd;}</style></defs><g><path class="cls-1" d="M98.8,18.39l6.02-14.2h8.51l-10.53,20.96v11.75h-8v-11.75l-10.51-20.96h8.47l6.04,14.2Z"/><path class="cls-1" d="M149.66,21.22c0,3.19-.59,6.01-1.77,8.47-1.18,2.46-2.86,4.35-5.04,5.67-2.18,1.33-4.66,1.99-7.45,1.99s-5.26-.64-7.41-1.92c-2.16-1.28-3.84-3.11-5.04-5.49-1.21-2.38-1.84-5.11-1.9-8.2v-1.84c0-3.2,.59-6.03,1.76-8.48,1.18-2.45,2.86-4.34,5.05-5.67,2.19-1.33,4.69-2,7.49-2s5.24,.66,7.41,1.98c2.17,1.32,3.86,3.19,5.06,5.63,1.21,2.43,1.82,5.22,1.83,8.37v1.5Zm-8.02-1.37c0-3.25-.54-5.72-1.63-7.4-1.09-1.68-2.64-2.53-4.66-2.53-3.95,0-6.04,2.96-6.27,8.89l-.02,2.4c0,3.2,.53,5.67,1.59,7.39,1.06,1.72,2.64,2.58,4.74,2.58s3.53-.85,4.6-2.54,1.62-4.12,1.64-7.3v-1.5Z"/><path class="cls-1" d="M171.74,24.72l-3.23,3.55v8.62h-7.88V4.19h7.88v14.42l2.74-4.16,7.05-10.26h9.75l-11.05,14.46,11.05,18.24h-9.34l-6.96-12.17Z"/><path class="cls-1" d="M223.94,21.22c0,3.19-.59,6.01-1.77,8.47-1.18,2.46-2.86,4.35-5.04,5.67-2.18,1.33-4.66,1.99-7.45,1.99s-5.26-.64-7.41-1.92c-2.16-1.28-3.84-3.11-5.04-5.49-1.21-2.38-1.84-5.11-1.9-8.2v-1.84c0-3.2,.59-6.03,1.76-8.48,1.18-2.45,2.86-4.34,5.05-5.67,2.19-1.33,4.69-2,7.49-2s5.24,.66,7.41,1.98c2.17,1.32,3.86,3.19,5.06,5.63,1.21,2.43,1.82,5.22,1.83,8.37v1.5Zm-8.02-1.37c0-3.25-.54-5.72-1.63-7.4-1.09-1.68-2.64-2.53-4.66-2.53-3.95,0-6.04,2.96-6.27,8.89l-.02,2.4c0,3.2,.53,5.67,1.59,7.39,1.06,1.72,2.64,2.58,4.74,2.58s3.53-.85,4.6-2.54,1.62-4.12,1.64-7.3v-1.5Z"/><path class="cls-1" d="M258.67,10.28h-9.82v26.62h-7.88V10.28h-9.64V4.19h27.34v6.09Z"/><path class="cls-1" d="M284.78,30.78h-10.8l-1.89,6.11h-8.42l11.99-32.7h7.41l12.08,32.7h-8.47l-1.91-6.11Zm-8.92-6.09h7.03l-3.53-11.34-3.5,11.34Z"/><path class="cls-1" d="M96.64,59.9v5.79h-4.11v-17.06h6.81c1.3,0,2.46,.24,3.46,.72s1.78,1.16,2.33,2.05,.83,1.89,.83,3.02c0,1.66-.6,2.99-1.79,3.99s-2.83,1.49-4.9,1.49h-2.62Zm0-3.18h2.7c.8,0,1.4-.2,1.82-.6s.63-.96,.63-1.69c0-.8-.21-1.43-.64-1.91s-1.02-.72-1.76-.73h-2.74v4.92Z"/><path class="cls-1" d="M115.86,62.53h7.16v3.16h-11.27v-17.06h4.11v13.9Z"/><path class="cls-1" d="M138.27,62.51h-5.64l-.98,3.19h-4.39l6.26-17.06h3.87l6.3,17.06h-4.42l-1-3.19Zm-4.65-3.18h3.67l-1.84-5.92-1.83,5.92Z"/><path class="cls-1" d="M162.75,57.51c0,1.58-.26,2.96-.79,4.13s-1.25,2.12-2.17,2.83l2.75,2.18-2.54,2.16-3.67-2.95c-.34,.05-.69,.07-1.03,.07-1.45,0-2.74-.34-3.87-1.01s-2-1.63-2.63-2.88-.96-2.69-.98-4.31v-.9c0-1.68,.31-3.16,.92-4.43s1.49-2.26,2.62-2.95,2.44-1.04,3.91-1.04,2.73,.34,3.87,1.03,2.01,1.67,2.64,2.94,.95,2.72,.96,4.37v.79Zm-4.18-.71c0-1.7-.28-2.98-.85-3.86s-1.38-1.32-2.43-1.32-1.9,.43-2.45,1.3-.82,2.14-.83,3.81v.79c0,1.68,.28,2.97,.83,3.86s1.38,1.34,2.47,1.34,1.85-.44,2.41-1.32,.84-2.15,.85-3.81v-.79Z"/><path class="cls-1" d="M181.83,48.63v11.17c0,1.27-.27,2.36-.81,3.29s-1.31,1.63-2.32,2.12-2.2,.73-3.57,.73c-2.08,0-3.71-.54-4.91-1.62s-1.8-2.55-1.83-4.43v-11.25h4.14v11.33c.05,1.87,.91,2.8,2.6,2.8,.85,0,1.5-.23,1.93-.7s.66-1.23,.66-2.29v-11.14h4.11Z"/><path class="cls-1" d="M198.58,58.45h-6.47v4.08h7.64v3.16h-11.75v-17.06h11.78v3.18h-7.66v3.6h6.47v3.05Z"/><path class="cls-1" d="M223.4,61.16c0-.6-.21-1.07-.64-1.41s-1.17-.68-2.24-1.04-1.95-.71-2.62-1.04c-2.21-1.09-3.32-2.58-3.32-4.48,0-.95,.28-1.78,.83-2.5s1.33-1.29,2.34-1.69,2.14-.6,3.4-.6,2.33,.22,3.3,.66,1.73,1.06,2.27,1.87,.81,1.73,.81,2.77h-4.1c0-.7-.21-1.23-.64-1.62s-1-.57-1.73-.57-1.31,.16-1.74,.49-.64,.74-.64,1.24c0,.44,.23,.83,.7,1.19s1.29,.72,2.47,1.1,2.15,.79,2.91,1.22c1.84,1.06,2.77,2.53,2.77,4.39,0,1.49-.56,2.66-1.69,3.52s-2.67,1.28-4.63,1.28c-1.38,0-2.63-.25-3.76-.74s-1.96-1.18-2.53-2.04-.85-1.86-.85-2.98h4.12c0,.91,.24,1.59,.71,2.02s1.24,.65,2.3,.65c.68,0,1.22-.15,1.61-.44s.59-.71,.59-1.24Z"/><path class="cls-1" d="M247.49,65.69h-4.09v-7.12h-6.06v7.12h-4.11v-17.06h4.11v6.77h6.06v-6.77h4.09v17.06Z"/><path class="cls-1" d="M268.14,57.51c0,1.66-.31,3.14-.93,4.42s-1.49,2.27-2.63,2.96-2.43,1.04-3.88,1.04-2.74-.33-3.87-1-2-1.62-2.63-2.87-.96-2.67-.99-4.28v-.96c0-1.67,.31-3.15,.92-4.42s1.49-2.26,2.64-2.96,2.45-1.04,3.91-1.04,2.73,.34,3.87,1.03,2.01,1.67,2.64,2.94,.95,2.72,.96,4.37v.79Zm-4.18-.71c0-1.7-.28-2.98-.85-3.86s-1.38-1.32-2.43-1.32c-2.06,0-3.15,1.55-3.27,4.64v1.25c-.01,1.67,.27,2.96,.82,3.86s1.38,1.35,2.47,1.35,1.84-.44,2.4-1.32,.85-2.15,.86-3.81v-.79Z"/><path class="cls-1" d="M277.97,59.9v5.79h-4.11v-17.06h6.81c1.3,0,2.46,.24,3.46,.72s1.78,1.16,2.33,2.05,.83,1.89,.83,3.02c0,1.66-.6,2.99-1.79,3.99s-2.83,1.49-4.9,1.49h-2.62Zm0-3.18h2.7c.8,0,1.4-.2,1.82-.6s.63-.96,.63-1.69c0-.8-.21-1.43-.64-1.91s-1.02-.72-1.76-.73h-2.74v4.92Z"/></g><path class="cls-1" d="M31.38,0c7.86,.07,15.64,3.2,21.32,8.62,7.15,6.82,10.75,17.15,9.38,26.94-2.04,14.57-15.47,26.85-30.9,26.85-7.99,0-15.9-3.19-21.66-8.75C2.12,46.52-1.37,35.6,.5,25.49,3.11,11.42,16.15,.14,30.98,0c.13,0,.27,0,.4,0h0Zm-.38,2.95c-10.21,.1-20.08,6.1-24.82,15.09-4.07,7.71-4.29,17.35-.54,25.26,5.29,11.14,18.31,18.07,30.89,15.66,8.68-1.67,16.41-7.67,20.2-15.66,3.74-7.88,3.54-17.54-.54-25.26-4.74-8.97-14.53-15-24.82-15.09-.12,0-.24,0-.37,0h0Z"/><path class="cls-2" d="M36.62,17.76h-1.27v14.56l-2.04,6.19h-1.51v4.53l-.4,4.49h-.43l-.4-4.49v-4.53h-1.51l-2.04-6.19v-14.56h-1.27v-2.78h10.88v2.78h0Zm0-10.39h-1.27v7.28h-8.34V7.37h-1.27v-2.78h10.88v2.78h0Zm-2.75-3.1h-5.37V1.49h5.37v2.78h0Z"/><path class="cls-2" d="M9.73,48.25l8.31-.82,13.14,.51,13.12-.51,8.34,.82c-.13,.16-.25,.32-.38,.47l-12.21-1.09,11.43,1.98c-.14,.15-.27,.3-.41,.45l-12.03-1.92,11.02,2.94c-.17,.16-.35,.33-.52,.48l-11.85-2.99,10.35,4.27c-.19,.15-.38,.3-.58,.44l-11.41-4.36,8.94,6.02c-.26,.16-.53,.31-.8,.46l-9.99-6.23,5.51,8.2c-.27,.09-.54,.17-.81,.26l-6.69-8.33-.46,9.41c-.37,0-.74,0-1.11-.01l-.46-9.4-6.61,8.23c-.27-.08-.55-.17-.82-.26l5.44-8.09-9.88,6.16c-.27-.15-.54-.3-.81-.45l8.84-5.95-11.32,4.33c-.2-.14-.39-.29-.59-.44l10.26-4.23-11.79,2.97c-.18-.16-.36-.32-.53-.48l10.96-2.93-11.99,1.91c-.14-.15-.28-.29-.42-.44l11.39-1.98-12.18,1.09c-.13-.16-.26-.31-.39-.47h0Z"/></svg>