<?xml version="1.0" encoding="utf-8"?>
<!-- Generator: Adobe Illustrator 27.4.0, SVG Export Plug-In . SVG Version: 6.00 Build 0)  -->
<svg version="1.1" id="Layer_1" xmlns="http://www.w3.org/2000/svg" xmlns:xlink="http://www.w3.org/1999/xlink" x="0px" y="0px"
	 viewBox="0 0 792 612" style="enable-background:new 0 0 792 612;" xml:space="preserve">
<style type="text/css">
	.st0{fill:#FFFFFF;}
	.st1{fill:none;stroke:#000000;stroke-width:1.7743;stroke-miterlimit:10;}
	.st2{fill:none;stroke:#000000;stroke-width:1.7743;stroke-miterlimit:10;stroke-dasharray:3.5297,3.5297;}
	.st3{fill:none;stroke:#000000;stroke-width:1.7743;stroke-miterlimit:10;stroke-dasharray:3.4298,3.4298;}
	.st4{fill:none;stroke:#000000;stroke-width:1.7743;stroke-miterlimit:10;stroke-dasharray:4.2634,4.2634;}
	.st5{fill:none;stroke:#000000;stroke-width:0.5914;stroke-miterlimit:10;stroke-dasharray:3.9801,3.9801;}
	.st6{fill:#808080;}
	.st7{fill:#B5829F;}
	.st8{fill:#404040;}
	.st9{fill:none;stroke:#000000;stroke-width:3.8102;stroke-linecap:round;stroke-miterlimit:10;}
	.st10{fill:none;stroke:#000000;stroke-width:3.9404;stroke-linecap:round;stroke-miterlimit:10;}
	.st11{fill:none;stroke:#000000;stroke-width:2.0495;stroke-linecap:round;stroke-miterlimit:10;}
	.st12{fill:none;stroke:#000000;stroke-width:3.0743;stroke-linecap:round;stroke-miterlimit:10;}
</style>
<path d="M201,499.9c-4.5,0-9,0-13.5,0c0-2.1,0-4.2,0-6.3c0-9.6,0-19.1,0-28.7c0-7.8,0-15.7,0-23.5c0-9.5,0-19,0-28.5
	c0-7.9,0-15.7,0-23.6c0-1.4,0-2.8,0-4.2c64.7,0,129.4,0,194,0c0,30.4,0,60.8,0,91.2c-0.1,0-0.2,0-0.3,0c-0.7,0-0.7,0-0.7-0.7
	c0-1.6,0-3.1,0-4.7c0-0.2,0-0.3,0-0.5c-1.9,0-3.8,0-5.8,0c0-1.9,0-3.8,0-5.7c-3.9,0-7.7,0-11.6,0c0-2,0-3.9,0-5.8
	c-0.2,0-0.2,0-0.3,0c-3.5,0-6.9,0-10.4-0.1c-0.1,0-0.2,0-0.3,0c-0.4,0-0.5-0.1-0.5-0.5c0-1.5,0-3.1,0-4.6c0-0.2,0-0.4,0-0.6
	c-1.8,0-3.6,0-5.3,0c-0.4,0-0.6-0.1-0.6-0.5c0-1.6,0-3.1,0-4.7c0-0.2,0-0.4,0-0.6c-5.8,0-11.5,0-17.3,0c0-1.9,0-3.8,0-5.7
	c-0.2,0-0.3,0-0.5,0c-5.3,0-10.6,0-15.9-0.1c-1.2,0-1,0.2-1.1-1.1c0-1.6,0-3.1,0-4.7c-19.3,0-38.6,0-57.9,0c0,1.8,0,3.5,0,5.2
	c0,0.4-0.1,0.6-0.6,0.6c-3.5,0-7,0-10.5,0c-0.2,0-0.4,0-0.6,0c0,0.3,0,0.5,0,0.7c0,1.5,0,3,0,4.6c0,0.3-0.1,0.5-0.5,0.5
	c-1.6,0-3.1,0-4.7,0c-0.4,0-0.5-0.1-0.5-0.5c0-1.7,0-3.3,0-5c0,0,0,0-0.1,0c0,1.8,0,3.6,0,5.5c-1.9,0-3.8,0-5.8,0c0,1.8,0,3.6,0,5.3
	c0,0.4-0.1,0.5-0.5,0.5c-1.3,0-2.7,0-4,0c-0.4,0-0.8,0-1.3,0c0,1.9,0,3.8,0,5.8c-1.9,0-3.8,0-5.8,0c0,1.7,0,3.4,0,5.1
	c0,0.7,0,0.7-0.7,0.7c-1.7,0-3.4,0-5.1,0c0,1.9,0,3.8,0,5.8c-1.9,0-3.8,0-5.8,0c0,3.9,0,7.7,0,11.6c-2,0-3.9,0-5.8,0
	c0,0.7,0,1.4,0,2.1C201,489.4,201,494.6,201,499.9z"/>
<path class="st0" d="M201,499.9c0-5.2,0-10.5,0-15.7c0-0.7,0-1.4,0-2.1c1.9,0,3.8,0,5.8,0c0-3.9,0-7.7,0-11.6c2,0,3.8,0,5.8,0
	c0-2,0-3.9,0-5.8c1.7,0,3.4,0,5.1,0c0.7,0,0.7,0,0.7-0.7c0-1.7,0-3.4,0-5.1c1.9,0,3.8,0,5.8,0c0-1.9,0-3.8,0-5.8c0.5,0,0.9,0,1.3,0
	c1.3,0,2.7,0,4,0c0.4,0,0.5-0.1,0.5-0.5c0-1.7,0-3.5,0-5.3c1.9,0,3.8,0,5.8,0c0-1.9,0-3.7,0-5.5c0,0,0,0,0.1,0c0,1.7,0,3.3,0,5
	c0,0.4,0.1,0.5,0.5,0.5c1.6,0,3.1,0,4.7,0c0.4,0,0.5-0.1,0.5-0.5c0-1.5,0-3,0-4.6c0-0.2,0-0.4,0-0.7c0.2,0,0.4,0,0.6,0
	c3.5,0,7,0,10.5,0c0.5,0,0.6-0.2,0.6-0.6c0-1.7,0-3.4,0-5.2c19.3,0,38.6,0,57.9,0c0,1.6,0,3.1,0,4.7c0,1.3-0.1,1.1,1.1,1.1
	c5.3,0,10.6,0,15.9,0.1c0.1,0,0.3,0,0.5,0c0,1.9,0,3.8,0,5.7c5.8,0,11.5,0,17.3,0c0,0.3,0,0.4,0,0.6c0,1.6,0,3.1,0,4.7
	c0,0.4,0.1,0.6,0.6,0.5c1.8,0,3.5,0,5.3,0c0,0.2,0,0.4,0,0.6c0,1.5,0,3.1,0,4.6c0,0.4,0.1,0.5,0.5,0.5c0.1,0,0.2,0,0.3,0
	c3.5,0,6.9,0,10.4,0.1c0.1,0,0.2,0,0.3,0c0,1.9,0,3.8,0,5.8c3.9,0,7.7,0,11.6,0c0,2,0,3.8,0,5.7c1.9,0,3.8,0,5.8,0
	c0,0.2,0,0.3,0,0.5c0,1.6,0,3.1,0,4.7c0,0.6,0,0.6,0.7,0.7c0.1,0,0.2,0,0.3,0c0,7.8,0,15.7,0,23.5
	C321.4,499.9,261.2,499.9,201,499.9z"/>
<path class="st0" d="M381.6,385.1c-64.7,0-129.3,0-194,0c0,1.4,0,2.8,0,4.2c0,7.9,0,15.7,0,23.6c0,9.5,0,19,0,28.5
	c0,7.8,0,15.7,0,23.5c0,9.6,0,19.1,0,28.7c0,2.1,0,4.2,0,6.3c0,0-0.1,0-0.1,0c0-0.1,0-0.3,0-0.4c0-38.1,0-76.3,0-114.4
	c64.6,0,129.1,0,193.7,0C381.3,385,381.4,385.1,381.6,385.1z"/>
<g>
	<path d="M248.7,367.6v-1l5.3-6.5l0.2,0.6h-5.5v-1.3h6.8v1l-5.3,6.5l-0.2-0.6h5.7v1.3H248.7z"/>
	<path d="M260.9,367.8c-0.6,0-1.2-0.1-1.8-0.3c-0.5-0.2-1-0.5-1.4-0.9c-0.4-0.4-0.7-0.8-0.9-1.4c-0.2-0.5-0.3-1.1-0.3-1.7
		c0-0.6,0.1-1.2,0.3-1.7c0.2-0.5,0.5-1,0.9-1.3c0.4-0.4,0.9-0.7,1.4-0.9s1.1-0.3,1.8-0.3c0.6,0,1.2,0.1,1.8,0.3
		c0.5,0.2,1,0.5,1.4,0.9c0.4,0.4,0.7,0.8,0.9,1.4c0.2,0.5,0.3,1.1,0.3,1.7s-0.1,1.2-0.3,1.7c-0.2,0.5-0.5,1-0.9,1.4
		c-0.4,0.4-0.9,0.7-1.4,0.9C262.2,367.7,261.6,367.8,260.9,367.8z M260.9,366.4c0.4,0,0.8-0.1,1.2-0.2c0.4-0.1,0.7-0.3,0.9-0.6
		c0.3-0.3,0.5-0.6,0.6-0.9s0.2-0.7,0.2-1.2s-0.1-0.8-0.2-1.2c-0.1-0.4-0.3-0.7-0.6-0.9c-0.3-0.3-0.6-0.5-0.9-0.6
		c-0.4-0.1-0.7-0.2-1.2-0.2s-0.8,0.1-1.2,0.2s-0.7,0.3-0.9,0.6s-0.5,0.6-0.6,0.9c-0.1,0.4-0.2,0.7-0.2,1.2c0,0.4,0.1,0.8,0.2,1.2
		c0.1,0.4,0.4,0.7,0.6,0.9c0.3,0.3,0.6,0.5,0.9,0.6C260.1,366.3,260.5,366.4,260.9,366.4z"/>
	<path d="M270.9,367.8c-0.6,0-1.2-0.1-1.8-0.3c-0.5-0.2-1-0.5-1.4-0.9c-0.4-0.4-0.7-0.8-0.9-1.4c-0.2-0.5-0.3-1.1-0.3-1.7
		c0-0.6,0.1-1.2,0.3-1.7c0.2-0.5,0.5-1,0.9-1.3c0.4-0.4,0.9-0.7,1.4-0.9s1.1-0.3,1.8-0.3c0.6,0,1.2,0.1,1.8,0.3
		c0.5,0.2,1,0.5,1.4,0.9c0.4,0.4,0.7,0.8,0.9,1.4c0.2,0.5,0.3,1.1,0.3,1.7s-0.1,1.2-0.3,1.7c-0.2,0.5-0.5,1-0.9,1.4
		c-0.4,0.4-0.9,0.7-1.4,0.9C272.1,367.7,271.5,367.8,270.9,367.8z M270.9,366.4c0.4,0,0.8-0.1,1.2-0.2c0.4-0.1,0.7-0.3,0.9-0.6
		c0.3-0.3,0.5-0.6,0.6-0.9s0.2-0.7,0.2-1.2s-0.1-0.8-0.2-1.2c-0.1-0.4-0.3-0.7-0.6-0.9c-0.3-0.3-0.6-0.5-0.9-0.6
		c-0.4-0.1-0.7-0.2-1.2-0.2s-0.8,0.1-1.2,0.2s-0.7,0.3-0.9,0.6s-0.5,0.6-0.6,0.9c-0.1,0.4-0.2,0.7-0.2,1.2c0,0.4,0.1,0.8,0.2,1.2
		c0.1,0.4,0.4,0.7,0.6,0.9c0.3,0.3,0.6,0.5,0.9,0.6C270.1,366.3,270.5,366.4,270.9,366.4z"/>
	<path d="M277,367.6v-8.3h1.3l3.6,6h-0.7l3.6-6h1.3l0,8.3h-1.5v-6h0.3l-3,5.1h-0.7l-3.1-5.1h0.4v6H277z"/>
	<path d="M289.8,366.3h4.7v1.3h-6.2v-8.3h6v1.3h-4.5V366.3z M289.7,362.8h4.1v1.3h-4.1V362.8z"/>
	<path d="M296.2,367.6v-8.3h3.6c0.9,0,1.7,0.2,2.3,0.5s1.2,0.8,1.6,1.4s0.6,1.3,0.6,2.2s-0.2,1.6-0.6,2.2s-0.9,1.1-1.6,1.4
		c-0.7,0.3-1.5,0.5-2.3,0.5H296.2z M297.7,366.3h2c0.6,0,1.2-0.1,1.6-0.4c0.5-0.2,0.8-0.6,1.1-1s0.4-0.9,0.4-1.5
		c0-0.6-0.1-1.1-0.4-1.5s-0.6-0.7-1.1-1s-1-0.4-1.6-0.4h-2V366.3z"/>
	<path d="M309.2,367.6v-8.3h1.5v8.3H309.2z"/>
	<path d="M313,367.6v-8.3h1.3l5.2,6.4h-0.6v-6.4h1.5v8.3h-1.3l-5.2-6.4h0.6v6.4H313z"/>
</g>
<g>
	<path d="M380.9,385.8V511H188.1V385.8H380.9 M388.5,378.3h-7.5H188.1h-7.5v7.5V511v7.5h7.5h192.9h7.5V511V385.8V378.3L388.5,378.3z
		"/>
</g>
<g>
	<path d="M57.5,408.1c2.8-1.3,4.3-3.6,4.3-6.9c0-0.1,0-0.3,0-0.4l-0.5-0.5c0.2-0.2,0.3-0.3,0.4-0.5c0,0,0,0,0,0
		c-0.2-1.5-0.6-2.8-1.4-4c-0.6-0.4-1.3-0.8-2.2-1.1l0.3-0.8c-1.7-1.2-4.1-1.9-7.4-1.9h-7.6v3.4c0.4-0.4,1-0.8,1.6-1.2l0.7,1.2
		c-0.8,0.5-1.4,1-1.8,1.5l-0.5-0.3v2.3c0.1,0.6,0.6,1.2,1.2,1.8l-0.9,1c-0.1-0.1-0.3-0.2-0.4-0.3v18.2h7.4v-9.6l-0.1-1.8
		c0.1,0.4,0.2,0.7,0.3,1c0.1,0.3,0.2,0.5,0.2,0.7l3.7,9.8h8L57.5,408.1z M49,404c-1-0.2-1.9-0.5-2.7-0.8l0.5-1.2
		c0.7,0.3,1.6,0.6,2.4,0.7L49,404z M48,394.5l-0.4-1.3c0.9-0.3,1.8-0.4,2.7-0.6l0.2,1.3C49.7,394,48.8,394.2,48,394.5z M52.9,404.4
		c-0.4,0.3-0.9,0.4-1.5,0.4h-0.5v-6.6h0.3c2.2,0,3.2,1,3.2,3.1c0,0.6-0.1,1.2-0.3,1.7c0.1,0,0.2,0,0.3,0l0.1,1.3
		C53.9,404.3,53.4,404.4,52.9,404.4z M55.7,394.1c-0.8-0.2-1.7-0.2-2.5-0.3l0-1.3c0.9,0,1.9,0.1,2.8,0.3L55.7,394.1z M56.9,402.5
		c0.9-0.2,1.7-0.5,2.4-0.8l0.6,1.2c-0.8,0.4-1.7,0.7-2.6,0.9L56.9,402.5z"/>
	<path d="M79.5,392h-9.1l-6.6,27.5h7.7l0.6-3.5h5l0.6,3.5h7.7L79.5,392z M73.1,410.2l0.8-4.3l0.5-3.3c0-0.1,0-0.2,0.1-0.5
		c0-0.3,0.1-0.8,0.2-1.5c0-0.4,0.1-0.7,0.1-1c0-0.3,0.1-0.6,0.1-0.8l0.2,2.6c0.1,0.5,0.1,1,0.1,1.3s0.1,0.6,0.1,0.8
		c0.2,1.8,0.4,2.8,0.4,3.1c0,0.3,0.1,0.5,0.1,0.5l0.5,3.2H73.1z"/>
	<path d="M100.2,406.5c-0.7-1.2-1.8-2.3-3.4-3.5l-1.2-0.9c-1-0.7-1.5-1.5-1.5-2.2c0-0.5,0.2-0.8,0.6-1.2c0.4-0.3,0.8-0.5,1.4-0.5
		c0.7,0,1.5,0.3,2.3,0.8c0.8,0.5,1.5,1.3,2.1,2.2v-8.4c-1.8-0.9-3.6-1.4-5.4-1.4c-2,0-3.7,0.6-5.1,1.8c-0.5,0.4-1,0.9-1.4,1.4
		c-0.4,0.5-0.7,1.1-1,1.8c-0.6,1.4-0.9,2.7-0.9,4c0,0.7,0.1,1.5,0.2,2.1c0.2,0.7,0.4,1.3,0.8,2c0.4,0.6,0.8,1.3,1.4,1.9
		c0.6,0.6,1.3,1.2,2.1,1.8l1.2,0.9c0.9,0.7,1.3,1.4,1.3,2.2c0,0.5-0.2,0.9-0.6,1.3c-0.4,0.3-0.9,0.5-1.6,0.5c-1.7,0-3.3-1-4.7-3v8.7
		c2,0.8,3.9,1.2,5.6,1.2c2.5,0,4.6-0.9,6.3-2.6c1.7-1.8,2.5-4,2.5-6.7C101.3,409.1,100.9,407.7,100.2,406.5z"/>
	<path d="M102.6,392v6.6h4.1v20.9h7.4v-20.9h4.3V392H102.6z"/>
	<path d="M134.2,398.5V392h-13.8v27.5h13.8V413h-6.4v-4.2h5.7v-6.2h-5.7v-4H134.2z"/>
	<path d="M151.4,408.1c2.8-1.3,4.3-3.6,4.3-6.9c0-3.1-1.1-5.5-3.2-7.2c-1.7-1.3-4.2-2-7.5-2h-7.6v27.5h7.4v-9.6l-0.1-1.8
		c0.1,0.4,0.2,0.7,0.3,1c0.1,0.3,0.2,0.5,0.2,0.7l3.7,9.8h8L151.4,408.1z M147.4,403.8c-0.6,0.7-1.3,1-2.1,1h-0.5v-6.6h0.3
		c2.2,0,3.2,1,3.2,3.1C148.3,402.3,148,403.1,147.4,403.8z"/>
</g>
<g>
	<g>
		<line class="st1" x1="178.2" y1="439.4" x2="176.5" y2="438.8"/>
		<polyline class="st2" points="173.3,437.5 154.1,429.9 46.4,429.9 35.3,429.9 		"/>
		<polyline class="st1" points="33.5,429.9 31.7,429.9 31.7,428.2 		"/>
		<line class="st3" x1="31.7" y1="424.7" x2="31.7" y2="385.3"/>
		<polyline class="st1" points="31.7,383.6 31.7,381.8 33.2,382.8 		"/>
		<line class="st4" x1="36.8" y1="385.1" x2="42.2" y2="388.6"/>
		<line class="st1" x1="43.9" y1="389.7" x2="45.4" y2="390.7"/>
	</g>
</g>
<g>
	<path d="M628,367.6v-1l5.3-6.5l0.2,0.6h-5.5v-1.3h6.8v1l-5.3,6.5l-0.2-0.6h5.7v1.3H628z"/>
	<path d="M640.2,367.8c-0.6,0-1.2-0.1-1.8-0.3c-0.5-0.2-1-0.5-1.4-0.9s-0.7-0.8-0.9-1.4c-0.2-0.5-0.3-1.1-0.3-1.7
		c0-0.6,0.1-1.2,0.3-1.7c0.2-0.5,0.5-1,0.9-1.3s0.9-0.7,1.4-0.9c0.5-0.2,1.1-0.3,1.8-0.3c0.6,0,1.2,0.1,1.8,0.3
		c0.5,0.2,1,0.5,1.4,0.9c0.4,0.4,0.7,0.8,0.9,1.4c0.2,0.5,0.3,1.1,0.3,1.7c0,0.6-0.1,1.2-0.3,1.7c-0.2,0.5-0.5,1-0.9,1.4
		c-0.4,0.4-0.9,0.7-1.4,0.9C641.5,367.7,640.9,367.8,640.2,367.8z M640.2,366.4c0.4,0,0.8-0.1,1.2-0.2c0.4-0.1,0.7-0.3,0.9-0.6
		c0.3-0.3,0.5-0.6,0.6-0.9c0.1-0.4,0.2-0.7,0.2-1.2s-0.1-0.8-0.2-1.2c-0.1-0.4-0.3-0.7-0.6-0.9c-0.3-0.3-0.6-0.5-0.9-0.6
		c-0.4-0.1-0.7-0.2-1.2-0.2s-0.8,0.1-1.2,0.2c-0.4,0.1-0.7,0.3-0.9,0.6c-0.3,0.3-0.5,0.6-0.6,0.9c-0.2,0.4-0.2,0.7-0.2,1.2
		c0,0.4,0.1,0.8,0.2,1.2c0.1,0.4,0.4,0.7,0.6,0.9c0.3,0.3,0.6,0.5,0.9,0.6C639.4,366.3,639.8,366.4,640.2,366.4z"/>
	<path d="M650.2,367.8c-0.6,0-1.2-0.1-1.8-0.3c-0.5-0.2-1-0.5-1.4-0.9s-0.7-0.8-0.9-1.4c-0.2-0.5-0.3-1.1-0.3-1.7
		c0-0.6,0.1-1.2,0.3-1.7c0.2-0.5,0.5-1,0.9-1.3s0.9-0.7,1.4-0.9c0.5-0.2,1.1-0.3,1.8-0.3c0.6,0,1.2,0.1,1.8,0.3
		c0.5,0.2,1,0.5,1.4,0.9c0.4,0.4,0.7,0.8,0.9,1.4c0.2,0.5,0.3,1.1,0.3,1.7c0,0.6-0.1,1.2-0.3,1.7c-0.2,0.5-0.5,1-0.9,1.4
		c-0.4,0.4-0.9,0.7-1.4,0.9C651.4,367.7,650.8,367.8,650.2,367.8z M650.2,366.4c0.4,0,0.8-0.1,1.2-0.2c0.4-0.1,0.7-0.3,0.9-0.6
		c0.3-0.3,0.5-0.6,0.6-0.9c0.1-0.4,0.2-0.7,0.2-1.2s-0.1-0.8-0.2-1.2c-0.1-0.4-0.3-0.7-0.6-0.9c-0.3-0.3-0.6-0.5-0.9-0.6
		c-0.4-0.1-0.7-0.2-1.2-0.2s-0.8,0.1-1.2,0.2c-0.4,0.1-0.7,0.3-0.9,0.6c-0.3,0.3-0.5,0.6-0.6,0.9c-0.2,0.4-0.2,0.7-0.2,1.2
		c0,0.4,0.1,0.8,0.2,1.2c0.1,0.4,0.4,0.7,0.6,0.9c0.3,0.3,0.6,0.5,0.9,0.6C649.4,366.3,649.8,366.4,650.2,366.4z"/>
	<path d="M656.3,367.6v-8.3h1.3l3.6,6h-0.7l3.6-6h1.3l0,8.3h-1.5v-6h0.3l-3,5.1h-0.7l-3.1-5.1h0.4v6H656.3z"/>
	<path d="M669.1,366.3h4.7v1.3h-6.2v-8.3h6v1.3h-4.5V366.3z M669,362.8h4.1v1.3H669V362.8z"/>
	<path d="M675.5,367.6v-8.3h3.6c0.9,0,1.7,0.2,2.3,0.5c0.7,0.3,1.2,0.8,1.6,1.4c0.4,0.6,0.6,1.3,0.6,2.2s-0.2,1.6-0.6,2.2
		c-0.4,0.6-0.9,1.1-1.6,1.4c-0.7,0.3-1.5,0.5-2.3,0.5H675.5z M677,366.3h2c0.6,0,1.2-0.1,1.6-0.4c0.5-0.2,0.8-0.6,1.1-1
		c0.3-0.4,0.4-0.9,0.4-1.5c0-0.6-0.1-1.1-0.4-1.5c-0.3-0.4-0.6-0.7-1.1-1c-0.5-0.2-1-0.4-1.6-0.4h-2V366.3z"/>
	<path d="M688.5,367.6v-8.3h1.5v8.3H688.5z"/>
	<path d="M692.3,367.6v-8.3h1.3l5.2,6.4h-0.6v-6.4h1.5v8.3h-1.3l-5.2-6.4h0.6v6.4H692.3z"/>
</g>
<g>
	<path d="M760.3,381.9V507H567.4V381.9H760.3 M767.8,374.3h-7.5H567.4h-7.5v7.5V507v7.5h7.5h192.9h7.5V507V381.9V374.3L767.8,374.3z
		"/>
</g>
<g>
	<path d="M437,390.3l-1.7,8.9c-0.3,1.3-0.5,2.7-0.7,4.1c-0.2,1.4-0.3,2.9-0.5,4.5c-0.3-3.6-0.7-6.9-1.2-9.9l-1.3-7.7H424l6.2,26.9
		h7.4l7.3-26.9H437z"/>
	<path d="M460.3,396.6v-6.3h-13.5v26.9h13.5v-6.5H454v-4.1h5.6v-6.1H454v-3.9H460.3z"/>
	<path d="M474.7,410.6c-0.7,0-1.4-0.2-1.9-0.5c-0.6-0.3-1-0.8-1.4-1.4c-0.4-0.6-0.7-1.3-0.9-2.2c-0.2-0.9-0.3-1.8-0.3-2.9
		c0-0.8,0.1-1.6,0.2-2.2c-0.8-0.4-1.5-1-2-1.7l0.5-0.4c0.4,0.6,1,1.1,1.6,1.4c0-0.1,0-0.1,0-0.2c0-0.1,0.1-0.2,0.1-0.3
		c0.2-0.7,0.5-1.4,0.8-1.9c0.8-1.3,2-1.9,3.5-1.9c0.6,0,1.2,0.2,1.8,0.5v0c0-0.5-0.1-1-0.3-1.5l0.6-0.2c0.2,0.6,0.3,1.2,0.3,1.8
		c0,0.1,0,0.3,0,0.4c0.3,0.2,0.6,0.5,0.9,0.7v-7.7c-1.2-0.4-2.4-0.7-3.6-0.7c-3.6,0-6.5,1.3-8.7,3.8c-2.2,2.6-3.2,6-3.2,10.2
		c0,4.5,1.1,8,3.4,10.5c2.1,2.2,4.6,3.3,7.6,3.3c1.3,0,2.7-0.3,4.3-1l0.4-7.8C477.2,410,476,410.6,474.7,410.6z M473.5,392.1
		c0.9,0.2,1.8,0.7,2.5,1.4l-0.5,0.5c-0.6-0.6-1.3-1-2.1-1.2L473.5,392.1z M471.5,392.1l0.1,0.6c-0.8,0.2-1.6,0.5-2.2,1.1l-0.5-0.5
		C469.6,392.7,470.5,392.2,471.5,392.1z M467.5,397.8c-0.1-0.3-0.1-0.6-0.1-0.9c0-0.7,0.1-1.3,0.4-1.9l0.6,0.3
		c-0.2,0.5-0.3,1.1-0.3,1.7c0,0.3,0,0.5,0.1,0.8L467.5,397.8z"/>
	<path d="M479.4,390.3v6.4h4v20.4h7.3v-20.4h4.2v-6.4H479.4z"/>
	<path d="M513.9,393.6c-1.8-2.5-4.3-3.8-7.4-3.8c-2.5,0-4.7,0.9-6.6,2.8c-2.5,2.5-3.7,6.2-3.7,10.9c0,5,1.2,8.7,3.6,11.2
		c1.9,2,4.2,2.9,6.8,2.9c3,0,5.4-1.3,7.3-3.8c1.9-2.6,2.8-5.9,2.8-10C516.7,399.5,515.8,396.1,513.9,393.6z M508.4,409
		c-0.5,1.2-1.1,1.8-2,1.8c-0.8,0-1.5-0.6-2-1.9c-0.5-1.2-0.7-3-0.7-5.3c0-2.3,0.2-4,0.7-5.2c0.5-1.3,1.2-1.9,2.1-1.9
		c1.7,0,2.6,2.4,2.6,7.3C509.1,406,508.9,407.7,508.4,409z"/>
	<path d="M533.5,406c2.8-1.2,4.2-3.5,4.2-6.7c0-3-1-5.4-3.1-7c-1.6-1.3-4.1-1.9-7.3-1.9h-7.4v26.9h7.2v-9.4l-0.1-1.8
		c0.1,0.4,0.2,0.7,0.3,1c0.1,0.3,0.1,0.5,0.2,0.6l3.6,9.6h7.9L533.5,406z M529.6,401.7c-0.6,0.6-1.3,1-2.1,1H527v-6.4h0.3
		c2.1,0,3.2,1,3.2,3C530.4,400.3,530.2,401.1,529.6,401.7z"/>
</g>
<path d="M567.4,507c0,0,34.1-100.1,192.9-64.6v-60.6H567.4V507z"/>
<polyline class="st5" points="472.1,389.7 472.1,352.4 565.9,352.4 565.9,374.7 "/>
<path d="M476.7,397c0,0.8-0.3,1.6-0.7,2.3l0.5,0.4c0.4-0.7,0.7-1.5,0.8-2.3C477.1,397.2,476.9,397.1,476.7,397z M470.4,400.8
	c-0.1,0.2-0.1,0.4-0.1,0.7c0.1,0,0.1,0.1,0.2,0.1l0.3-0.6C470.6,400.9,470.5,400.8,470.4,400.8z M474.7,400.5
	c-0.7,0.5-1.5,0.7-2.4,0.7l0,0.7c1,0,1.9-0.3,2.7-0.8L474.7,400.5z"/>
<g>
	<path d="M15.4,109.7c25.5,10.1,35.1,34.5,39.3,43.8c2.5-9.9,7.8-35.5,31.1-49.9c9.2,31.5-3.5,59-28.7,77
		C29.1,167.2,11.8,142.3,15.4,109.7z"/>
	<path d="M102.4,150.9c-1.1-13.1,7.7-25.5,22.4-26.7c15.6-1.4,25.1,7.5,25.8,15.2c0.6,6.8-3.5,11.2-9.6,11.7
		c-4.8,0.4-9.9-1.7-11.2-6.7c4,1.1,7.1-0.9,6.9-3.4c-0.2-2.6-3-5-7.4-4.6c-4.4,0.4-7.3,5.9-6.7,12.7c0.9,10.4,14.9,14.1,27.1,8.7
		c-1.4,9.3-8.2,15.1-21.7,16.1C114.5,174.9,103.7,165.4,102.4,150.9z"/>
	<path d="M162.6,145.9c-1.2-14,9.1-25.9,22.4-27c13.5-1.2,21.9,5.2,23.3,14.6c-3.3-3.2-7.3-3.9-12-3.5c-5.4,0.5-10.4,5.5-9.7,12.9
		c0.5,6.1,6.3,10,11.7,9.5c4.7-0.4,9.3-2.4,11.6-5.7c2.3,11.8-7,20.7-21,21.9C174.3,169.9,163.7,159.1,162.6,145.9z"/>
	<path d="M227.6,145.6c-0.6-7.4,0.8-13.2,6.7-19.1l-16.5-6c11.5-4.7,21.1-15.4,24.4-27.7c5.6,11.6,15.9,20,27.8,23.2
		c-11.3,4.4-16.5,15.2-16,20.8c0.4,4.7,4.4,7.9,9.7,7.4c3.6-0.3,7.2-2.2,9.7-5.9c1.5,11.7-7.8,23.5-20.1,24.6
		C238.7,164.2,228.4,155.2,227.6,145.6z"/>
	<path d="M282.3,134.9c-1.4-16.5,9.5-28.4,30.5-26.5c-8.9,2.8-12.8,11.9-12.2,18.5c0.4,4.5,3.1,7.9,8.3,7.5c6.3-0.5,8-4.4,7.6-8.6
		c-0.3-3.9-2.5-8.3-4.7-10.8c12.4-1.1,20.6,8.1,21.4,17.8c1,11.3-6.1,23.7-22.7,25.2C293,159.5,283.4,148.2,282.3,134.9z"/>
	<path d="M352.5,153c-9.5-14.4-6.9-40.2,5.2-54.5c4.7,11.4,20.4,16.2,29.4,16.5c-8.6,5.4-18,20.5-14.2,36.2L352.5,153z"/>
	<path d="M60.5,220.2c32.1,13.1,48.4,50.3,43.6,74.3c-15.6,1.4-32.4-4-40.9-18.4c9.3-4.7,13-11.5,12.4-18.4
		c-0.7-7.5-6.3-13.3-13.3-16.9c1.9,22.1-8.3,47.8-24.1,60.2C26.2,281.2,34.2,238.4,60.5,220.2z"/>
	<path d="M126,291.3c-9.5-14.4-6.9-40.2,5.2-54.5c4.7,11.4,20.4,16.2,29.4,16.5c-8.6,5.4-18,20.5-14.2,36.2L126,291.3z"/>
	<path d="M176,268.6c-0.6-7.4,0.8-13.2,6.7-19.1l-16.5-6c11.5-4.7,21.1-15.4,24.4-27.7c5.6,11.6,15.9,20,27.8,23.2
		c-11.3,4.4-16.5,15.2-16,20.8c0.4,4.7,4.4,7.9,9.7,7.4c3.6-0.3,7.2-2.2,9.7-5.9c1.5,11.7-7.8,23.5-20.1,24.6
		C187.2,287.3,176.9,278.2,176,268.6z"/>
	<path d="M225.2,234.5c13.2,0.3,20.7,9.7,25.3,18.4c1.2-6.5,6.5-13.2,12.3-13.7c5.6-0.5,11.4,5.2,13.5,11.5
		c3.1-9.4,8.8-19.9,21.7-22.5c5.7,20.1-2,42.7-17.2,51.8c-8.4-18.2-25.8-16.3-29.8,2.6C234.6,276.3,222.1,255.5,225.2,234.5z"/>
	<path d="M308.6,251.1c-1.4-16.5,9.5-28.4,30.5-26.5c-8.9,2.8-12.8,11.9-12.2,18.5c0.4,4.5,3.1,7.9,8.3,7.5c6.3-0.5,8-4.4,7.6-8.6
		c-0.3-3.9-2.5-8.3-4.7-10.8c12.4-1.1,20.6,8.1,21.4,17.8c1,11.3-6.1,23.7-22.7,25.2C319.4,275.7,309.8,264.4,308.6,251.1z"/>
	<path d="M378.9,269.2c-9.5-14.4-6.9-40.2,5.2-54.5c4.7,11.4,20.4,16.2,29.4,16.5c-8.6,5.4-18,20.5-14.2,36.2L378.9,269.2z"/>
	<path d="M453.7,247.3c-7.2,0.6-11.3,8.8-6.7,15.7l-16.2,1.4c-9.7-19.9-10.6-62,6-80c6.8,10.4,10,20.5,11.9,41.8
		c6.7-7.5,18.5-12.9,29.5-15c0.1,8.1-5.8,18.1-13.2,21.9c8.6-0.8,16.2,3.8,16.9,11.1c0.7,7.5-3.5,15-16.7,20.6
		C470.6,253.6,461.2,246.7,453.7,247.3z"/>
</g>
<g>
	<path d="M114.5,85.1c-1.9,0.2-3.4-0.2-4.6-1.2c-1.2-1-1.8-2.4-2-4.4l-0.7-7.5l3.1-0.3l0.7,7.4c0.1,1.3,0.5,2.2,1,2.7
		c0.6,0.5,1.3,0.7,2.3,0.7c0.9-0.1,1.7-0.4,2.1-1c0.5-0.6,0.7-1.6,0.5-2.8l-0.7-7.4l3.1-0.3l0.7,7.5c0.2,2-0.2,3.6-1.2,4.7
		C117.8,84.2,116.4,84.9,114.5,85.1z"/>
	<path d="M127.5,83.7l-1.2-13.5l2.6-0.2l8.8,9l-1.2,0.1l-0.8-9.7l3.1-0.3l1.2,13.5l-2.6,0.2l-8.8-9l1.2-0.1l0.8,9.7L127.5,83.7z"/>
	<path d="M146.9,82l-1.2-13.5l6.1-0.5c1.5-0.1,2.8,0,3.9,0.5c1.2,0.5,2.1,1.2,2.8,2.1c0.7,1,1.1,2.1,1.3,3.5s-0.1,2.6-0.6,3.6
		c-0.5,1.1-1.3,1.9-2.4,2.6c-1.1,0.7-2.3,1-3.8,1.2L146.9,82z M149.8,79.2l2.8-0.2c0.9-0.1,1.7-0.3,2.3-0.7c0.6-0.4,1.1-0.9,1.4-1.6
		c0.3-0.7,0.4-1.4,0.4-2.3c-0.1-0.9-0.3-1.6-0.7-2.2c-0.4-0.6-1-1-1.7-1.3c-0.7-0.3-1.5-0.4-2.4-0.3l-2.8,0.2L149.8,79.2z"/>
	<path d="M169.5,77.5l7.3-0.6l0.2,2.5l-10.4,0.9l-1.2-13.5l10.2-0.9l0.2,2.5l-7.1,0.6L169.5,77.5z M168.7,72l6.5-0.6l0.2,2.4
		l-6.5,0.6L168.7,72z"/>
	<path d="M183.3,78.8l-1.2-13.5l5.8-0.5c1.2-0.1,2.3,0,3.2,0.3c0.9,0.3,1.6,0.8,2.2,1.5c0.5,0.7,0.9,1.5,0.9,2.5
		c0.1,1-0.1,1.9-0.5,2.7c-0.4,0.8-1,1.4-1.9,1.8c-0.8,0.5-1.9,0.7-3.1,0.8l-4.1,0.4l1.3-1.5l0.4,5.1L183.3,78.8z M186,73.8l-1.6-1.4
		l3.9-0.3c0.9-0.1,1.6-0.3,2.1-0.8c0.5-0.5,0.6-1,0.6-1.8c-0.1-0.7-0.4-1.3-0.9-1.7c-0.5-0.4-1.3-0.5-2.2-0.4l-3.9,0.3l1.3-1.6
		L186,73.8z M191.9,78.1l-3.8-4.6l3.3-0.3l3.8,4.6L191.9,78.1z"/>
	<path d="M205.8,77.1c-1.1,0.1-2.1,0-3.1-0.2c-1-0.2-1.8-0.5-2.5-0.9l0.9-2.4c0.6,0.4,1.3,0.6,2.1,0.8c0.8,0.2,1.6,0.3,2.4,0.2
		c0.6-0.1,1.1-0.2,1.5-0.3c0.4-0.2,0.6-0.4,0.8-0.6c0.2-0.2,0.2-0.5,0.2-0.8c0-0.4-0.2-0.6-0.5-0.8c-0.3-0.2-0.7-0.3-1.2-0.4
		c-0.5-0.1-1-0.2-1.6-0.3s-1.1-0.2-1.7-0.3c-0.6-0.1-1.1-0.3-1.6-0.6c-0.5-0.2-0.9-0.6-1.2-1c-0.3-0.4-0.5-1-0.6-1.7
		c-0.1-0.8,0.1-1.5,0.4-2.2c0.4-0.7,0.9-1.2,1.7-1.7c0.8-0.5,1.8-0.7,3.1-0.8c0.8-0.1,1.7,0,2.5,0.1c0.8,0.1,1.6,0.4,2.2,0.7
		l-0.8,2.4c-0.6-0.3-1.3-0.5-1.9-0.6c-0.7-0.1-1.3-0.1-1.9-0.1c-0.6,0.1-1.1,0.2-1.5,0.3c-0.4,0.2-0.6,0.4-0.8,0.6
		c-0.2,0.2-0.2,0.5-0.2,0.8c0,0.4,0.2,0.6,0.5,0.8c0.3,0.2,0.7,0.3,1.2,0.4c0.5,0.1,1,0.2,1.6,0.2c0.6,0.1,1.1,0.2,1.7,0.3
		c0.6,0.1,1.1,0.3,1.6,0.5c0.5,0.2,0.9,0.6,1.2,1c0.3,0.4,0.5,1,0.6,1.7c0.1,0.8-0.1,1.5-0.4,2.1c-0.4,0.7-0.9,1.2-1.8,1.7
		C208.1,76.7,207,77,205.8,77.1z"/>
	<path d="M220,75.6l-1-10.9l-4.3,0.4l-0.2-2.5l11.7-1l0.2,2.5l-4.3,0.4l1,10.9L220,75.6z"/>
	<path d="M232.9,74.5L231.8,61l2.6-0.2l8.8,9l-1.2,0.1l-0.8-9.7l3.1-0.3l1.2,13.5l-2.6,0.2l-8.8-9l1.2-0.1l0.8,9.7L232.9,74.5z"/>
	<path d="M250.5,72.9l4.8-14l3.1-0.3l7.2,12.9l-3.3,0.3l-6-11.4l1.2-0.1l-3.9,12.3L250.5,72.9z M253.3,69.8l0.6-2.4l7-0.6l1,2.3
		L253.3,69.8z"/>
	<path d="M270.9,71.1l-1.2-13.5l6.1-0.5c1.5-0.1,2.8,0,3.9,0.5c1.2,0.5,2.1,1.2,2.8,2.1c0.7,1,1.1,2.1,1.3,3.5s-0.1,2.6-0.6,3.6
		c-0.5,1.1-1.3,1.9-2.4,2.6c-1.1,0.7-2.3,1-3.8,1.2L270.9,71.1z M273.8,68.3l2.8-0.2c0.9-0.1,1.7-0.3,2.3-0.7
		c0.6-0.4,1.1-0.9,1.4-1.6c0.3-0.7,0.4-1.4,0.4-2.3c-0.1-0.9-0.3-1.6-0.7-2.2c-0.4-0.6-1-1-1.7-1.3c-0.7-0.3-1.5-0.4-2.4-0.3
		l-2.8,0.2L273.8,68.3z"/>
	<path d="M290.6,69.4L289.4,56l3.1-0.3l1.2,13.5L290.6,69.4z"/>
	<path d="M300.8,68.5l-1.2-13.5l2.6-0.2l8.8,9l-1.2,0.1l-0.8-9.7l3.1-0.3l1.2,13.5l-2.6,0.2l-8.8-9l1.2-0.1l0.8,9.7L300.8,68.5z"/>
	<path d="M326.7,66.5c-1.1,0.1-2.1,0-3-0.3c-0.9-0.3-1.7-0.7-2.5-1.2s-1.3-1.3-1.7-2.1c-0.4-0.8-0.7-1.7-0.8-2.7c-0.1-1,0-2,0.3-2.8
		c0.3-0.9,0.7-1.7,1.4-2.3c0.6-0.7,1.4-1.2,2.2-1.7c0.9-0.4,1.8-0.7,2.9-0.8c1.2-0.1,2.3,0,3.3,0.3c1,0.3,1.8,0.8,2.6,1.5l-1.8,2
		c-0.5-0.5-1.1-0.8-1.7-1c-0.6-0.2-1.2-0.3-1.9-0.2c-0.6,0.1-1.2,0.2-1.7,0.5c-0.5,0.3-1,0.6-1.3,1c-0.4,0.4-0.6,0.9-0.8,1.4
		c-0.2,0.5-0.2,1.1-0.2,1.8c0.1,0.6,0.2,1.2,0.5,1.7c0.3,0.5,0.6,0.9,1,1.3c0.4,0.4,0.9,0.6,1.5,0.8c0.6,0.2,1.1,0.2,1.8,0.2
		c0.6-0.1,1.2-0.2,1.8-0.5c0.6-0.3,1.1-0.6,1.6-1.2l2,2.1c-0.7,0.6-1.5,1.1-2.4,1.5C328.6,66.2,327.6,66.4,326.7,66.5z M329.1,64.2
		l-0.4-5.1l2.8-0.2l0.5,5.5L329.1,64.2z"/>
</g>
<g>
	<path d="M529,278.7l-0.3-8.5l2-0.1l0.3,8.5L529,278.7z"/>
	<path d="M538.2,278.5c-0.7,0-1.3,0-2-0.2c-0.6-0.2-1.1-0.4-1.5-0.7l0.6-1.5c0.4,0.2,0.8,0.4,1.3,0.6c0.5,0.1,1,0.2,1.5,0.2
		c0.4,0,0.7-0.1,0.9-0.2c0.2-0.1,0.4-0.2,0.5-0.3c0.1-0.1,0.2-0.3,0.2-0.5c0-0.2-0.1-0.4-0.3-0.5c-0.2-0.1-0.4-0.2-0.7-0.3
		c-0.3-0.1-0.6-0.1-1-0.2c-0.4-0.1-0.7-0.1-1.1-0.2c-0.4-0.1-0.7-0.2-1-0.4c-0.3-0.2-0.5-0.4-0.7-0.7c-0.2-0.3-0.3-0.7-0.3-1.1
		c0-0.5,0.1-0.9,0.3-1.3c0.2-0.4,0.6-0.7,1.1-1c0.5-0.3,1.2-0.4,2-0.4c0.5,0,1.1,0,1.6,0.1c0.5,0.1,1,0.3,1.4,0.5l-0.6,1.5
		c-0.4-0.2-0.8-0.4-1.2-0.4c-0.4-0.1-0.8-0.1-1.2-0.1c-0.4,0-0.7,0.1-0.9,0.2c-0.2,0.1-0.4,0.2-0.5,0.4c-0.1,0.1-0.2,0.3-0.1,0.5
		c0,0.2,0.1,0.4,0.3,0.5c0.2,0.1,0.4,0.2,0.7,0.3c0.3,0.1,0.6,0.1,1,0.2c0.4,0.1,0.7,0.1,1.1,0.2c0.4,0.1,0.7,0.2,1,0.4
		c0.3,0.2,0.5,0.4,0.7,0.7c0.2,0.3,0.3,0.6,0.3,1.1c0,0.5-0.1,0.9-0.3,1.3c-0.2,0.4-0.6,0.7-1.2,1
		C539.6,278.3,539,278.5,538.2,278.5z"/>
	<path d="M553.1,277.8l-0.2-6.9l-2.7,0.1l-0.1-1.6l7.4-0.3l0.1,1.6l-2.7,0.1l0.2,6.9L553.1,277.8z"/>
	<path d="M563.2,277.5l-2,0.1l-0.3-8.5l2-0.1L563.2,277.5z M567.1,273.9l-4.1,0.1l-0.1-1.7l4.1-0.1L567.1,273.9z M566.7,268.9l2-0.1
		l0.3,8.5l-2,0.1L566.7,268.9z"/>
	<path d="M575.3,275.5l4.6-0.2l0.1,1.6l-6.5,0.2l-0.3-8.5l6.4-0.2l0.1,1.6l-4.4,0.2L575.3,275.5z M575,272l4.1-0.1l0.1,1.5l-4.1,0.1
		L575,272z"/>
	<path d="M589.8,276.5l-0.3-8.5l3.8-0.1c0.9,0,1.7,0.1,2.4,0.4c0.7,0.3,1.3,0.8,1.7,1.4c0.4,0.6,0.6,1.4,0.7,2.2
		c0,0.9-0.1,1.6-0.5,2.2c-0.4,0.6-0.9,1.2-1.6,1.5c-0.7,0.4-1.5,0.6-2.4,0.6L589.8,276.5z M591.7,274.9l1.8-0.1c0.6,0,1-0.1,1.5-0.4
		c0.4-0.2,0.7-0.5,0.9-1c0.2-0.4,0.3-0.9,0.3-1.4c0-0.5-0.2-1-0.4-1.4c-0.2-0.4-0.6-0.7-1-0.9c-0.4-0.2-0.9-0.3-1.5-0.3l-1.8,0.1
		L591.7,274.9z"/>
	<path d="M602.2,276.1l-0.3-8.5l2-0.1l0.3,8.5L602.2,276.1z"/>
	<path d="M610.5,275.8l-2,0.1l-0.3-8.5l6.4-0.2l0.1,1.6l-4.4,0.2L610.5,275.8z M610.2,271.2l4.1-0.1l0.1,1.6l-4.1,0.1L610.2,271.2z"
		/>
	<path d="M620.7,275.5l-2,0.1l-0.3-8.5l6.4-0.2l0.1,1.6l-4.4,0.2L620.7,275.5z M620.3,270.8l4.1-0.1l0.1,1.6l-4.1,0.1L620.3,270.8z"
		/>
	<path d="M630.7,273.5l4.6-0.2l0.1,1.6l-6.6,0.2l-0.3-8.5l6.4-0.2l0.1,1.6l-4.4,0.2L630.7,273.5z M630.5,270.1l4.1-0.1l0.1,1.5
		l-4.1,0.1L630.5,270.1z"/>
	<path d="M639.4,274.8l-0.3-8.5l3.7-0.1c0.8,0,1.4,0.1,2,0.3c0.6,0.2,1,0.6,1.3,1c0.3,0.4,0.5,1,0.5,1.6c0,0.6-0.1,1.2-0.4,1.7
		c-0.3,0.5-0.7,0.8-1.2,1.1c-0.5,0.3-1.2,0.4-1.9,0.4l-2.6,0.1l0.9-0.9l0.1,3.2L639.4,274.8z M641.2,271.7l-0.9-0.9l2.5-0.1
		c0.6,0,1-0.2,1.3-0.4c0.3-0.3,0.4-0.6,0.4-1.1c0-0.5-0.2-0.8-0.5-1.1c-0.3-0.2-0.8-0.4-1.4-0.3l-2.5,0.1l0.9-1L641.2,271.7z
		 M644.8,274.6l-2.2-3l2.1-0.1l2.2,3L644.8,274.6z"/>
	<path d="M652.6,272.8l4.6-0.2l0.1,1.6l-6.5,0.2l-0.3-8.5l6.4-0.2l0.1,1.6l-4.4,0.2L652.6,272.8z M652.3,269.3l4.1-0.1l0.1,1.5
		l-4.1,0.1L652.3,269.3z"/>
	<path d="M661.2,274l-0.3-8.5l1.6-0.1l5.2,5.9l-0.8,0l-0.2-6.1l1.9-0.1l0.3,8.5l-1.6,0.1l-5.2-5.9l0.8,0l0.2,6.1L661.2,274z"/>
	<path d="M677.4,273.6c-0.7,0-1.3-0.1-1.8-0.3c-0.6-0.2-1.1-0.5-1.5-0.9c-0.4-0.4-0.8-0.8-1-1.4c-0.2-0.5-0.4-1.1-0.4-1.7
		c0-0.6,0.1-1.2,0.3-1.8c0.2-0.5,0.5-1,0.9-1.4c0.4-0.4,0.9-0.7,1.4-1c0.6-0.2,1.2-0.4,1.8-0.4c0.7,0,1.4,0.1,2,0.3
		c0.6,0.2,1.1,0.6,1.5,1.1l-1.2,1.2c-0.3-0.3-0.6-0.6-1-0.7c-0.4-0.2-0.8-0.2-1.2-0.2c-0.4,0-0.8,0.1-1.1,0.2
		c-0.3,0.1-0.6,0.3-0.8,0.6c-0.2,0.3-0.4,0.5-0.5,0.9c-0.1,0.3-0.2,0.7-0.2,1.1c0,0.4,0.1,0.8,0.2,1.1c0.1,0.3,0.3,0.6,0.6,0.8
		c0.3,0.2,0.5,0.4,0.9,0.5c0.3,0.1,0.7,0.2,1.1,0.2c0.4,0,0.8-0.1,1.2-0.3c0.4-0.2,0.7-0.4,0.9-0.8l1.3,1.1
		c-0.4,0.5-0.9,0.9-1.5,1.2C678.8,273.4,678.2,273.6,677.4,273.6z"/>
	<path d="M686.5,271.6l4.6-0.2l0.1,1.6l-6.6,0.2l-0.3-8.5l6.4-0.2l0.1,1.6l-4.4,0.2L686.5,271.6z M686.3,268.1l4.1-0.1l0.1,1.5
		l-4.1,0.1L686.3,268.1z"/>
	<path d="M701,272.7l-0.3-8.5l3.7-0.1c0.8,0,1.4,0.1,2,0.3c0.6,0.2,1,0.6,1.3,1c0.3,0.4,0.5,1,0.5,1.6c0,0.6-0.1,1.2-0.4,1.7
		c-0.3,0.5-0.7,0.8-1.2,1.1c-0.5,0.3-1.2,0.4-1.9,0.4l-2.6,0.1l0.9-0.9l0.1,3.2L701,272.7z M702.9,269.6l-0.9-0.9l2.5-0.1
		c0.6,0,1-0.2,1.3-0.4c0.3-0.3,0.4-0.6,0.4-1.1c0-0.5-0.2-0.8-0.5-1.1c-0.3-0.2-0.8-0.4-1.4-0.3l-2.5,0.1l0.9-1L702.9,269.6z
		 M706.4,272.5l-2.2-3l2.1-0.1l2.2,3L706.4,272.5z"/>
	<path d="M714.2,270.6l4.6-0.2l0.1,1.6l-6.5,0.2l-0.3-8.5l6.4-0.2l0.1,1.6l-4.4,0.2L714.2,270.6z M713.9,267.1l4.1-0.1l0.1,1.5
		l-4.1,0.1L713.9,267.1z"/>
	<path d="M721.7,271.9l3.5-8.6l1.9-0.1l4.1,8.3l-2.1,0.1l-3.4-7.4l0.8,0l-2.8,7.6L721.7,271.9z M723.6,270.1l0.4-1.5l4.4-0.2
		l0.6,1.5L723.6,270.1z"/>
	<path d="M734.5,271.5l-0.3-8.5l2-0.1l0.2,6.9l4.2-0.1l0.1,1.6L734.5,271.5z"/>
	<path d="M744.2,271.1l-0.3-8.5l2-0.1l0.2,6.9l4.2-0.1l0.1,1.6L744.2,271.1z"/>
	<path d="M755.2,270.8l-0.1-3.5l0.5,1.2l-4-6.1l2.1-0.1l3,4.6l-1.2,0l2.7-4.8l1.9-0.1l-3.5,6.3l0.4-1.2l0.1,3.5L755.2,270.8z"/>
	<path d="M765.2,267.5c0-0.3,0-0.5,0.1-0.7c0.1-0.2,0.2-0.4,0.3-0.6c0.1-0.2,0.3-0.3,0.4-0.5c0.2-0.2,0.3-0.3,0.4-0.4
		c0.1-0.1,0.2-0.3,0.3-0.4c0.1-0.1,0.1-0.3,0.1-0.5c0-0.3-0.1-0.5-0.4-0.7c-0.2-0.2-0.6-0.2-0.9-0.2c-0.4,0-0.7,0.1-1,0.3
		c-0.3,0.2-0.5,0.4-0.7,0.7l-1.5-0.8c0.3-0.5,0.7-0.9,1.3-1.2c0.6-0.3,1.2-0.5,2.1-0.5c0.6,0,1.2,0,1.6,0.2c0.5,0.2,0.8,0.4,1.1,0.7
		c0.3,0.3,0.4,0.7,0.4,1.2c0,0.3,0,0.6-0.1,0.9c-0.1,0.2-0.2,0.5-0.4,0.6c-0.1,0.2-0.3,0.4-0.5,0.5c-0.2,0.2-0.3,0.3-0.5,0.5
		c-0.1,0.1-0.3,0.3-0.4,0.5c-0.1,0.2-0.1,0.4-0.1,0.6L765.2,267.5z M766.2,270.5c-0.3,0-0.6-0.1-0.8-0.3c-0.2-0.2-0.3-0.5-0.4-0.8
		c0-0.3,0.1-0.6,0.3-0.8c0.2-0.2,0.5-0.3,0.8-0.3c0.3,0,0.6,0.1,0.9,0.3c0.2,0.2,0.3,0.5,0.3,0.8c0,0.3-0.1,0.6-0.3,0.8
		C766.8,270.3,766.5,270.5,766.2,270.5z"/>
	<path d="M773,267.2l-0.6-5.5l2.2-0.1l-0.2,5.5L773,267.2z M773.9,270.2c-0.3,0-0.6-0.1-0.9-0.3c-0.2-0.2-0.3-0.5-0.4-0.8
		c0-0.3,0.1-0.6,0.3-0.8c0.2-0.2,0.5-0.3,0.8-0.3c0.3,0,0.6,0.1,0.8,0.3c0.2,0.2,0.3,0.5,0.3,0.8c0,0.3-0.1,0.6-0.3,0.8
		C774.5,270.1,774.2,270.2,773.9,270.2z"/>
</g>
<g>
	<path d="M270.7,330.2l-2.6,0.1l-0.4-11.1l2.6-0.1L270.7,330.2z M275.7,325.5l-5.4,0.2l-0.1-2.2l5.4-0.2L275.7,325.5z M275.3,319
		l2.6-0.1l0.4,11.1l-2.6,0.1L275.3,319z"/>
	<path d="M289.4,329.8c-0.9,0-1.7-0.1-2.4-0.3c-0.7-0.3-1.4-0.6-2-1.1c-0.6-0.5-1-1.1-1.3-1.8c-0.3-0.7-0.5-1.4-0.5-2.3
		c0-0.8,0.1-1.6,0.4-2.3c0.3-0.7,0.7-1.3,1.2-1.9c0.5-0.5,1.2-1,1.9-1.3c0.7-0.3,1.5-0.5,2.4-0.5c0.9,0,1.7,0.1,2.4,0.3
		c0.7,0.3,1.4,0.6,2,1.1c0.6,0.5,1,1.1,1.3,1.8c0.3,0.7,0.5,1.4,0.5,2.3c0,0.8-0.1,1.6-0.4,2.3c-0.3,0.7-0.7,1.3-1.2,1.9
		c-0.5,0.5-1.2,1-1.9,1.3C291.1,329.6,290.3,329.7,289.4,329.8z M289.3,327.6c0.5,0,0.9-0.1,1.4-0.3c0.4-0.2,0.8-0.4,1.1-0.8
		c0.3-0.3,0.5-0.7,0.7-1.1c0.2-0.4,0.2-0.9,0.2-1.4s-0.1-1-0.3-1.4c-0.2-0.4-0.4-0.8-0.8-1.1c-0.3-0.3-0.7-0.5-1.1-0.7
		s-0.9-0.2-1.4-0.2c-0.5,0-0.9,0.1-1.4,0.3s-0.8,0.4-1.1,0.8c-0.3,0.3-0.5,0.7-0.7,1.1c-0.2,0.4-0.2,0.9-0.2,1.4
		c0,0.5,0.1,1,0.3,1.4c0.2,0.4,0.4,0.8,0.8,1.1c0.3,0.3,0.7,0.5,1.1,0.7C288.4,327.6,288.8,327.6,289.3,327.6z"/>
	<path d="M302.8,329.1l-4-10.9l2.7-0.1l3.5,9.7l-1.3,0l2.9-9.9l2.4-0.1l3.5,9.7l-1.3,0l2.9-9.9l2.4-0.1l-3.2,11.2l-2.7,0.1l-3.1-8.5
		l0.7,0l-2.6,8.7L302.8,329.1z"/>
	<path d="M332.9,328.2c-0.9,0-1.7-0.1-2.6-0.3c-0.8-0.2-1.5-0.5-2-0.9l0.8-2c0.5,0.3,1,0.6,1.7,0.8c0.7,0.2,1.3,0.3,2,0.3
		c0.5,0,0.9-0.1,1.2-0.2c0.3-0.1,0.5-0.3,0.7-0.4c0.1-0.2,0.2-0.4,0.2-0.6c0-0.3-0.1-0.5-0.4-0.7c-0.2-0.2-0.6-0.3-0.9-0.4
		c-0.4-0.1-0.8-0.2-1.3-0.3c-0.5-0.1-0.9-0.2-1.4-0.3c-0.5-0.1-0.9-0.3-1.3-0.5c-0.4-0.2-0.7-0.5-0.9-0.9c-0.2-0.4-0.4-0.9-0.4-1.4
		c0-0.6,0.1-1.2,0.4-1.7c0.3-0.5,0.8-1,1.5-1.3c0.7-0.3,1.5-0.5,2.6-0.6c0.7,0,1.4,0,2.1,0.2c0.7,0.1,1.3,0.4,1.8,0.7l-0.7,2
		c-0.5-0.3-1-0.5-1.6-0.6c-0.5-0.1-1-0.2-1.5-0.2c-0.5,0-0.9,0.1-1.2,0.2c-0.3,0.1-0.5,0.3-0.7,0.5c-0.1,0.2-0.2,0.4-0.2,0.6
		c0,0.3,0.1,0.5,0.4,0.7c0.2,0.2,0.5,0.3,0.9,0.4c0.4,0.1,0.8,0.2,1.3,0.3c0.5,0.1,0.9,0.2,1.4,0.3c0.5,0.1,0.9,0.3,1.3,0.5
		c0.4,0.2,0.7,0.5,1,0.9c0.3,0.4,0.4,0.8,0.4,1.4c0,0.6-0.1,1.2-0.5,1.7c-0.3,0.5-0.8,1-1.5,1.3C334.9,328,334,328.2,332.9,328.2z"
		/>
	<path d="M345.1,327.6l-2.6,0.1l-0.4-11.1l2.6-0.1L345.1,327.6z M350.1,322.9l-5.4,0.2l-0.1-2.2l5.4-0.2L350.1,322.9z M349.7,316.4
		l2.6-0.1l0.4,11.1l-2.6,0.1L349.7,316.4z"/>
	<path d="M363.8,327.2c-0.9,0-1.7-0.1-2.4-0.3c-0.7-0.3-1.4-0.6-2-1.1c-0.6-0.5-1-1.1-1.3-1.8c-0.3-0.7-0.5-1.4-0.5-2.3
		c0-0.8,0.1-1.6,0.4-2.3c0.3-0.7,0.7-1.3,1.2-1.9c0.5-0.5,1.2-1,1.9-1.3c0.7-0.3,1.5-0.5,2.4-0.5c0.9,0,1.7,0.1,2.4,0.3
		c0.7,0.3,1.4,0.6,2,1.1c0.6,0.5,1,1.1,1.3,1.8c0.3,0.7,0.5,1.4,0.5,2.3c0,0.8-0.1,1.6-0.4,2.3c-0.3,0.7-0.7,1.3-1.2,1.9
		c-0.5,0.5-1.2,1-1.9,1.3C365.5,327,364.7,327.1,363.8,327.2z M363.7,325c0.5,0,0.9-0.1,1.4-0.3c0.4-0.2,0.8-0.4,1.1-0.8
		c0.3-0.3,0.5-0.7,0.7-1.1c0.2-0.4,0.2-0.9,0.2-1.4s-0.1-1-0.3-1.4c-0.2-0.4-0.4-0.8-0.8-1.1c-0.3-0.3-0.7-0.5-1.1-0.7
		c-0.4-0.2-0.9-0.2-1.4-0.2c-0.5,0-1,0.1-1.4,0.3c-0.4,0.2-0.8,0.4-1.1,0.8c-0.3,0.3-0.5,0.7-0.7,1.1c-0.2,0.4-0.2,0.9-0.2,1.4
		c0,0.5,0.1,1,0.3,1.4c0.2,0.4,0.4,0.8,0.8,1.1s0.7,0.5,1.1,0.7C362.8,325,363.2,325,363.7,325z"/>
	<path d="M379.8,326.6c-1.6,0.1-2.8-0.3-3.7-1.2c-0.9-0.8-1.4-2.1-1.5-3.7l-0.2-6.2l2.6-0.1l0.2,6.1c0,1,0.3,1.8,0.7,2.2
		c0.4,0.5,1.1,0.7,1.8,0.6c0.8,0,1.4-0.3,1.8-0.8c0.4-0.5,0.6-1.2,0.6-2.3l-0.2-6.1l2.5-0.1l0.2,6.2c0.1,1.6-0.3,2.9-1.2,3.8
		S381.4,326.6,379.8,326.6z"/>
	<path d="M390.5,326.1l-0.4-11.1l2.6-0.1l0.3,9l5.5-0.2l0.1,2.1L390.5,326.1z"/>
	<path d="M403.2,325.6l-0.4-11.1l5-0.2c1.2,0,2.3,0.2,3.2,0.6c0.9,0.4,1.7,1,2.2,1.9c0.5,0.8,0.8,1.8,0.9,2.9c0,1.1-0.2,2.1-0.7,2.9
		c-0.5,0.8-1.2,1.5-2.1,2c-0.9,0.5-1.9,0.8-3.1,0.8L403.2,325.6z M405.7,323.4l2.3-0.1c0.7,0,1.4-0.2,1.9-0.5
		c0.5-0.3,0.9-0.7,1.2-1.2c0.3-0.5,0.4-1.1,0.4-1.8c0-0.7-0.2-1.3-0.5-1.8c-0.3-0.5-0.8-0.9-1.3-1.1c-0.6-0.3-1.2-0.4-1.9-0.4
		l-2.3,0.1L405.7,323.4z"/>
	<path d="M427,324.8l-0.4-11.1l2.6-0.1l0.4,11.1L427,324.8z"/>
	<path d="M445.5,322.1l6-0.2l0.1,2.1l-8.6,0.3l-0.4-11.1l8.4-0.3l0.1,2.1l-5.8,0.2L445.5,322.1z M445.1,317.5l5.3-0.2l0.1,2
		l-5.3,0.2L445.1,317.5z"/>
	<path d="M455.4,323.8l4.5-6.7l0.1,1.9l-4.8-6.2l2.9-0.1l3.3,4.3l-1.2,0.1l3-4.6l2.8-0.1l-4.3,6.4l-0.1-1.8l5,6.5l-3,0.1l-3.4-4.6
		l1.2,0l-3,4.8L455.4,323.8z"/>
	<path d="M470.7,323.2l-0.4-11.1l4.8-0.2c1,0,1.8,0.1,2.6,0.4c0.7,0.3,1.3,0.7,1.7,1.3c0.4,0.6,0.6,1.3,0.7,2.1
		c0,0.8-0.1,1.6-0.5,2.2c-0.4,0.6-0.9,1.1-1.6,1.4c-0.7,0.4-1.6,0.5-2.5,0.6l-3.4,0.1l1.1-1.2l0.1,4.2L470.7,323.2z M473.2,319.2
		l-1.2-1.2l3.2-0.1c0.8,0,1.4-0.2,1.8-0.6c0.4-0.4,0.6-0.8,0.5-1.4s-0.2-1.1-0.6-1.4c-0.4-0.3-1-0.5-1.8-0.4l-3.2,0.1l1.1-1.3
		L473.2,319.2z"/>
	<path d="M485.3,322.7l-0.4-11.1l2.6-0.1l0.3,9l5.5-0.2l0.1,2.1L485.3,322.7z"/>
	<path d="M496.6,322.3l4.5-11.2l2.5-0.1l5.3,10.9l-2.7,0.1l-4.4-9.6l1,0l-3.7,9.9L496.6,322.3z M499,319.9l0.6-2l5.7-0.2l0.7,1.9
		L499,319.9z"/>
	<path d="M513.3,321.8l-0.4-11.1l2.6-0.1l0.4,11.1L513.3,321.8z"/>
	<path d="M521.6,321.5l-0.4-11.1l2.1-0.1l6.8,7.7l-1,0l-0.3-8l2.5-0.1l0.4,11.1l-2.1,0.1l-6.8-7.7l1,0l0.3,8L521.6,321.5z"/>
	<path d="M545.1,320.7l-0.4-11.1l2.6-0.1l0.4,11.1L545.1,320.7z"/>
	<path d="M555.8,320.3l-0.3-9l-3.5,0.1l-0.1-2.1l9.6-0.3l0.1,2.1l-3.5,0.1l0.3,9L555.8,320.3z"/>
	<path d="M566.6,320c-0.4,0-0.8-0.1-1.1-0.4c-0.3-0.3-0.5-0.6-0.5-1.1c0-0.5,0.1-0.8,0.4-1.1c0.3-0.3,0.6-0.4,1.1-0.5
		c0.4,0,0.8,0.1,1.1,0.4c0.3,0.3,0.5,0.6,0.5,1.1c0,0.4-0.1,0.8-0.4,1.1C567.4,319.9,567.1,320,566.6,320z"/>
	<path d="M573.9,319.8c-0.4,0-0.8-0.1-1.1-0.4c-0.3-0.3-0.5-0.6-0.5-1.1c0-0.5,0.1-0.8,0.4-1.1c0.3-0.3,0.6-0.4,1.1-0.5
		c0.4,0,0.8,0.1,1.1,0.4c0.3,0.3,0.5,0.6,0.5,1.1c0,0.4-0.1,0.8-0.4,1.1C574.7,319.6,574.4,319.8,573.9,319.8z"/>
	<path d="M581.2,319.5c-0.4,0-0.8-0.1-1.1-0.4c-0.3-0.3-0.5-0.6-0.5-1.1c0-0.5,0.1-0.8,0.4-1.1c0.3-0.3,0.6-0.4,1.1-0.5
		c0.4,0,0.8,0.1,1.1,0.4c0.3,0.3,0.5,0.6,0.5,1.1c0,0.4-0.1,0.8-0.4,1.1C582,319.3,581.7,319.5,581.2,319.5z"/>
</g>
<g>
	<path d="M604.1,256.1l1.8-14.3l-7,14.3h-6.7l2.7-24.2h6.1l-2,15.9l7.8-15.9h5.1l-1.5,15.5l7.9-15.5h5l-12.9,24.2H604.1z"/>
	<path d="M637.3,256.1l3.1-9.8h-7.2l-3.1,9.8h-6.3l7.6-24.2h6.3l-2.8,9h7.2l2.8-9h6.3l-7.6,24.2H637.3z"/>
	<path d="M667.7,256.1l0-4.6h-7.1l-2.9,4.6h-6.1l15.9-24.3h5.7l0.6,24.3H667.7z M667.8,240l-4.2,6.7h4.1L667.8,240z"/>
	<path d="M683.8,256.1l5.9-18.7h-5.4l1.7-5.4h17.2l-1.7,5.4H696l-5.9,18.7H683.8z"/>
	<path d="M711.4,257.8c-2,0-3-1.4-2.4-3.3c0.6-2,2.5-3.3,4.4-3.3c2,0,2.9,1.4,2.3,3.3C715.2,256.4,713.3,257.8,711.4,257.8z
		 M711.3,249.6l0.2-0.8c0.5-1.6,1.3-3.1,2.9-4.4c2.6-2.2,5.3-3.7,5.8-5.4c0.5-1.6-0.2-2.4-1.7-2.4c-1.9,0-3.2,1.7-4,3.9l-5.7-0.7
		c1.8-4.5,6.2-8.4,11.1-8.4c5.5,0,7.5,3.2,6.2,7.3c-0.9,2.9-3.2,4.6-6.4,7c-1.4,1.1-2.8,2.6-3.1,3.4l-0.2,0.5H711.3z"/>
</g>
<g>
	<path class="st0" d="M75,91.1C75,91,75,91.1,75,91.1L75,91.1z"/>
	<path class="st0" d="M75,91.1C75,91.1,75,91.1,75,91.1C75,91.1,75,91.1,75,91.1C75,91.1,75,91.1,75,91.1C75,91.1,75,91.1,75,91.1z"
		/>
	<path d="M83.7,65.9c-0.3-0.5-0.6-1-1-1.4c-0.4-0.5-1-0.9-1.7-1c0,0-0.1,0-0.1,0c-0.3,0-0.5,0-0.8,0.1c-0.3,0.1-0.4,0.6-0.2,0.8
		c0.2,0.2,0.4,0.4,0.5,0.6c0.8,0.7,1.5,1.5,1.9,2.4c0.4,0.9,0.9,1.9,1.2,2.8c0.9,3.5,0.6,6.8-1.4,9.9c-1.5,2.3-3.5,4.1-5.9,5.3
		c-0.2,0.1-0.3,0.1-0.5,0.2c-0.2-0.7,0-1.3,0-1.9c0.1-1,0.2-2,0.2-3c0-0.8-0.3-1.5-1-1.9c-0.8,0.4-1.1,1.2-1.8,1.6
		c-0.1-0.2-0.2-0.4-0.3-0.6c-0.1-0.2-0.2-0.5-0.3-0.7c-0.1-0.3-0.5-0.4-0.7-0.2c-0.4,0.3-0.9,0.6-1.3,1c-0.3,0.2-0.5,0.5-0.8,0.8
		c-0.2-0.4-0.3-0.7-0.5-1.1c-0.1-0.2-0.2-0.5-0.3-0.7c-0.2-0.4-0.7-0.5-1-0.2c-0.4,0.4-0.6,0.7-1,1.1c-0.2,0.2-0.3,0.6-0.7,0.6
		c-0.5-0.3-0.7-0.9-1-1.3c-0.2-0.3-0.4-0.5-0.6-0.7c-0.4-0.3-0.9-0.2-1.1,0.3c-0.1,0.2-0.1,0.3-0.1,0.5c-0.3,1.1-0.3,2.3-0.2,3.5
		c0.1,1.1,0.3,2.1,0.4,3.2c0,0.2,0,0.4-0.1,0.6c-3.8-1.1-7.7-5.4-7.9-10.6c-0.1-2.6,0.7-5,2-7.3c2.9-4.9,7.1-7.4,12.8-7.4
		c0.6,0,1.2,0,1.7,0c1.8,0.1,3.4,0.5,5,1.2c0.4,0.2,0.7,0.4,1.1,0.5c0.4,0.2,0.7,0.3,1.2,0c0-0.2-0.1-0.3-0.2-0.5
		c-0.2-0.4-0.5-0.7-0.8-1c-0.9-0.8-2-1.3-3.2-1.6c-2.4-0.6-4.7-0.8-7.2-0.6c-3.2,0.4-6.1,1.5-8.5,3.7c-2.3,2-4,4.5-5,7.4
		c-0.9,2.3-1.2,4.7-0.7,7.1c0.9,4.8,3.6,8.2,8,10.3c0.3,0.1,0.6,0.3,0.9,0.4c0,1.7,0.2,2.1,1.4,3.3c0,0.2,0,0.5,0,0.7
		c0.1,0.9,0.5,1.6,1.3,2.1c0.3,0.2,0.6,0.4,1,0.5c0.4,0.2,0.8,0.4,1.1,0.8l1.8,1c1.5,0.1,2.7-0.4,3.4-1.7c0.2-0.4,0.5-0.7,0.9-0.9
		c1.1-0.7,1.8-1.6,1.7-3c0.5-0.7,1-1.1,1.2-1.8c0.2-0.6,0.1-1.4,0.2-2.1c0.4-0.2,0.8-0.4,1.2-0.6c1.2-0.7,2.4-1.5,3.4-2.4
		c3.1-2.9,4.9-6.3,4.9-10.7C85.8,70.8,85,68.2,83.7,65.9z M64.5,81.1c0.2,0.1,0.3,0.2,0.4,0.4c1,1.2,1.8,0.9,2.4-0.2
		c0.2-0.3,0.4-0.7,0.7-1.1c0.1,0.3,0.3,0.6,0.4,0.8c0.1,0.2,0.2,0.5,0.3,0.7c0.3,0.6,0.8,0.7,1.3,0.3c0.2-0.2,0.4-0.4,0.7-0.7
		c0.2-0.3,0.5-0.5,0.8-0.9c0.1,0.3,0.2,0.6,0.3,0.8c0.4,0.8,1,1,1.7,0.4c0.3-0.3,0.6-0.6,1.1-1c-0.2,2-0.4,3.8-0.6,5.6
		c-3,1.2-6.1,1.5-9.2,0.8C64.6,85.9,64.4,82,64.5,81.1z M72.9,92.2c-0.4,0.3-0.9,0.6-1.4,0.8c-1.3,0.5-2.7,0.7-4.1,0.6
		c-0.5,0-1-0.2-1.4-0.3c-0.5-0.2-0.9-0.5-1-1.2c0.9,0.1,1.8,0.2,2.7,0.2c0.9,0,1.8,0,2.7-0.1c0.9-0.1,1.8-0.2,2.7-0.3
		C73.2,92,73,92.1,72.9,92.2z M73.8,89.5c-0.6,0.3-1.2,0.5-1.8,0.6c-1,0.2-2,0.3-3.1,0.3c-0.9,0-1.8,0-2.7,0c-0.5,0-1-0.1-1.5-0.3
		c-0.6-0.2-0.9-0.6-1-1.4c1.9,0.4,3.7,0.7,5.5,0.5c1.8-0.2,3.5-0.6,5.3-1.3C74.7,88.8,74.3,89.2,73.8,89.5z"/>
	<path d="M89.6,90.8c-0.1,0.1-0.2,0.3-0.4,0.3c-0.2,0.1-0.4,0.1-0.5,0C87.8,90.6,87,90,86.6,89c-0.1-0.3,0.1-0.6,0.4-0.5
		c0.1,0,0.3,0,0.4,0.1c0.9,0.4,1.5,1.1,2.1,1.9C89.6,90.5,89.6,90.6,89.6,90.8z"/>
	<path d="M50.2,63.1c-0.1,0.1-0.1,0.2-0.2,0.3c-0.1,0.1-0.2,0.1-0.3,0.1c-0.8-0.2-1.6-0.5-2.2-1.1c-0.1-0.1-0.1-0.1-0.2-0.2
		c-0.2-0.3-0.2-0.7,0-0.9c0.2-0.2,0.6-0.3,0.9-0.1c0.7,0.5,1.3,1.1,1.9,1.6C50.1,62.9,50.1,63,50.2,63.1z"/>
	<path d="M51.3,61.5c-0.7,0.1-1.9-0.4-2.1-1.5c0-0.2,0-0.4,0.1-0.5c0.1-0.1,0.3-0.2,0.4-0.3c0.2,0,0.3,0,0.4,0.1
		c0.5,0.5,1,1,1.5,1.5C51.8,61,51.6,61.4,51.3,61.5z"/>
	<path d="M72.2,50.7c-0.1,0.6-0.2,1.1-0.3,1.6c0,0.1-0.2,0.3-0.3,0.3c-0.1,0-0.4-0.1-0.4-0.2c-0.5-0.9-0.4-1.8-0.1-2.7l0.8-0.2
		C72,49.9,72.1,50.3,72.2,50.7z"/>
	<path d="M69.7,53.2c-0.1,0.2-0.2,0.4-0.3,0.5c-0.1,0.1-0.4-0.1-0.5-0.5c-0.3-1.1-0.3-2.1-0.2-3.2c0-0.1,0.1-0.3,0.1-0.4l0.5,0.1
		c0.1,0.1,0.1,0.2,0.1,0.4c0.1,0.8,0.1,1.7,0.2,2.4C69.7,52.8,69.8,53,69.7,53.2z"/>
	<path d="M91.3,88.4c-0.1,0.2-0.3,0.3-0.4,0.3c-0.5,0-1-0.2-1.3-0.5c-0.3-0.2-0.5-0.5-0.7-0.8c-0.1-0.2-0.2-0.4-0.1-0.6
		c0.1-0.1,0.4-0.2,0.6-0.1c0.6,0.3,1.2,0.7,1.7,1C91.4,87.8,91.5,88.1,91.3,88.4z"/>
	<path d="M92.9,60.4c-0.4,0.9-1.1,1.4-1.9,1.8c0,0-0.1,0-0.2,0c-0.1-0.1-0.2-0.2-0.2-0.4c0.2-0.9,0.7-1.6,1.6-2c0.1-0.1,0.3,0,0.4,0
		C92.8,59.8,93,60.1,92.9,60.4z"/>
	<path d="M50.9,90.9c-0.5,0.7-1.2,1.1-2.1,1.3c0,0-0.1,0-0.1,0c-0.3,0-0.4-0.4-0.3-0.6c0.5-0.8,1.3-1.2,2.2-1.3
		c0.1,0,0.3,0.1,0.3,0.2C51,90.6,51,90.8,50.9,90.9z"/>
	<path d="M94.5,62.5c-0.1,0.2-0.1,0.4-0.3,0.5c-0.6,0.5-1.2,0.9-2,1c-0.1,0-0.3-0.1-0.3-0.1c-0.1-0.1-0.1-0.4,0-0.5
		c0.5-0.4,1-0.8,1.5-1.2c0.1-0.1,0.4-0.1,0.5-0.1C94.2,62.2,94.4,62.4,94.5,62.5z"/>
	<path d="M52.1,92.3c-0.1,0.6-0.4,1.1-0.9,1.5c-0.1,0.1-0.3,0.1-0.5,0.2c-0.1-0.1-0.3-0.3-0.3-0.5c0-0.2,0-0.4,0.1-0.5
		c0.3-0.3,0.6-0.7,0.9-1c0.1-0.1,0.3-0.2,0.5,0C52.1,92,52.1,92.2,52.1,92.3z"/>
</g>
<g>
	<g>
		<path class="st6" d="M497.7,194.4c-0.1,0.2-0.1,0.3-0.3,0.4c-0.1,0.1-0.2,0.1-0.3,0.2c0,0,0,0,0,0l-1.9-2.9
			c0.8,0.3,1.6,0.7,2.2,1.3C497.7,193.6,497.9,193.9,497.7,194.4z"/>
		<path class="st7" d="M496.7,196.7L496.7,196.7c0.1,0,0.1,0.1,0.1,0.1C496.8,196.7,496.7,196.7,496.7,196.7z"/>
		<path d="M578.5,191c-0.1,0.1-0.2,0.2-0.5,0.4c1.9,0.2,3.3,1.1,4.4,2.3c1.3,1.4,2.4,3,3.4,4.7c1.1,2,1.9,4.2,2.6,6.4
			c1.5,5.2,2.9,10.3,3.8,15.7c0.6,3.2,0.8,6.3,0.2,9.6c-0.6,3.5-2.4,6.2-5.3,8.2c-1.9,1.3-4,2.3-6.2,3c-0.6,0.2-1.1,0.3-1.7,0.5
			c-0.1,0.2-0.2,0.3-0.2,0.5c0.2,2.4,0.4,4.7,0.5,7.1c0.2,4.3,0.3,8.6,0.5,12.9c0,0.6,0,1.2-0.1,1.7c-0.1,0.7-0.7,1.2-1.3,1.2
			c-0.6,0-1.1-0.4-1.3-1c0-0.1,0-0.1,0-0.2c-0.1-0.5-0.1-1-0.1-1.5c-0.2-5.4-0.4-10.9-0.6-16.3c0-0.9,0-1.8-0.1-2.7v0
			c0-0.3-0.1-0.6-0.1-1c-0.4,0-0.7,0.1-1,0.1c-2.8,0.4-5.6,0.9-8.4,1c-2.5,0.2-5,0.4-7.5,0.6c-0.8,0.1-1.5,0.1-2.3,0.1
			c-5.3,0-10.5,0.1-15.8-0.1c-4.3-0.1-8.6-0.4-12.9-0.6c-0.9-0.1-1.8-0.3-2.6-0.5c-0.4-0.1-0.8-0.4-1.2-0.7
			c-0.2-0.2-0.3-0.6-0.3-0.8c0-0.4,0.3-0.6,0.6-0.6c0.4-0.1,0.9-0.1,1.3-0.1c2.2,0.1,4.4,0.2,6.5,0.2c2.2,0.1,4.5,0.1,6.7,0.2
			c2.6,0.1,5.1,0.2,7.7,0.2c4.5-0.1,9.1-0.2,13.6-0.4c2.2-0.1,4.5-0.3,6.7-0.5c3.8-0.4,7.6-0.9,11.3-1.9c2.2-0.6,4.2-1.5,6.1-2.8
			c0.3-0.2,0.6-0.4,0.8-0.6c0.2-0.2,0.4-0.4,0.6-0.5c0.2-0.2,0.4-0.4,0.5-0.6c0.4-0.4,0.7-1,1-1.5c0.1-0.2,0.2-0.3,0.2-0.5
			c0.2-0.4,0.4-0.8,0.5-1.3c0.1-0.2,0.1-0.3,0.1-0.5c0.1-0.2,0.1-0.4,0.1-0.6c0.4-2.2,0.4-4.3,0.1-6.5c-0.5-4.3-1.6-8.5-2.7-12.8
			c-0.7-2.7-1.4-5.3-2.5-7.9c-0.8-2-1.8-3.9-3.2-5.7c-0.9-1.1-1.9-2-3.3-2.6c-0.3-0.1-0.6-0.2-0.9-0.4c-0.9-0.4-0.9-0.6-1-1.9
			c-0.5-0.1-1-0.1-1.5-0.2c-0.4-0.1-0.8-0.4-0.9-0.9c-0.1-0.5,0.2-0.9,0.6-1.1c0.8-0.4,1.6-0.9,2.4-1.2c2.4-1,4.6-2.3,6.7-3.8
			c5.6-4,9.7-9.3,12.6-15.5c1.9-3.9,3.1-8.1,3.8-12.4c0.5-3,0.8-6.1,0.8-9.2c0-8.4-1.9-16.4-5.8-23.9c-4.6-8.8-10.8-16.3-18.9-22.2
			c-0.1,0-0.1-0.1-0.2-0.1c-5.3-3.8-11.3-6.3-17.7-7.4c-6.7-1.2-13.5-1.3-20.3-0.8c-5.6,0.4-11.2,1.3-16.7,2.8
			c-6.3,1.7-12.2,4.2-17.5,7.6c-0.2,0.1-0.4,0.3-0.6,0.4c-2.9,1.9-5.7,4-8.3,6.3c-8.8,7.8-14.9,17.3-18.4,28.4
			c-0.3,1-0.6,1.9-0.8,2.9c-0.3,1.2-0.6,2.4-0.8,3.7c-0.1,0.3-0.1,0.7-0.2,1c-0.3,1.5-0.4,3-0.6,4.5c-0.2,2.3-0.3,4.6-0.2,7
			c0,0.1,0,0.2,0,0.3c0,1.3,0.1,2.6,0.2,3.9c0.3,3.3,0.8,6.5,1.8,9.6c1.4,4.4,3.4,8.4,6.6,11.8c1.8,1.9,3.8,3.6,6.1,5
			c2.2,1.4,4.5,2.6,7,3.5c0,0,0.1,0,0.1,0.1c0.8,0.3,1.6,0.7,2.2,1.3c0.3,0.3,0.5,0.6,0.3,1c-0.1,0.2-0.1,0.3-0.3,0.4
			c-0.1,0.1-0.2,0.1-0.3,0.2c0,0,0,0,0,0c-0.1,0-0.2,0-0.3,0c-1.4,0.1-2.7-0.2-3.9-0.7c-9.4-3.8-16.2-10.1-19.8-19.8
			c-1.2-3.4-2-6.9-2.4-10.5c-0.5-3.9-0.5-7.8-0.3-11.7c0.2-3.6,0.7-7.1,1.6-10.6c0.6-2.6,1.4-5.2,2.4-7.7
			c5.2-13.6,14.1-24.3,26.2-32.3c0.9-0.6,1.7-1.1,2.6-1.6c0.2-0.1,0.4-0.2,0.6-0.4c6.8-3.9,14.1-6.4,21.8-7.9
			c7.5-1.5,15.1-2.1,22.7-1.8c4.8,0.2,9.6,0.8,14.3,2c6.2,1.6,11.8,4.6,16.8,8.6c0.1,0.1,0.2,0.2,0.3,0.3c9,7.2,15.7,16.2,20,27
			c1.9,4.7,2.9,9.5,3.4,14.5c0.9,9.5-0.6,18.5-4.3,27.2c-1.6,3.8-3.8,7.3-6.4,10.4c-3.6,4.4-8,7.9-13.2,10.4
			C579,190.7,578.7,190.8,578.5,191z"/>
		<path d="M551.8,196.3c-0.8,0.5-1.7,0.8-2.7,1.2c0.1,0.5,0.3,1.1,0.3,1.6c0,0.6-0.2,1.1-0.4,1.7c-0.2,0.5-0.6,0.9-1.1,1.5
			c0.4,0.7,0.8,1.5,0.8,2.3c0,0.1,0,0.1,0,0.2c0,0.3-0.1,0.6-0.2,0.9c-0.1,0.3-0.2,0.5-0.4,0.7c-0.1,0.1-0.1,0.2-0.2,0.3
			c-0.4,0.6-1,1-1.5,1.4c-0.1,0.2-0.1,0.3-0.1,0.3c0.1,1.2,0,2.1-0.4,2.8c0,0.1-0.1,0.1-0.1,0.1h0c-0.1,0.1-0.2,0.2-0.3,0.3
			c-0.4,0.4-1,0.7-1.8,1.1c-0.3,0.1-0.6,0.2-0.9,0.3c-0.3,0.1-0.7,0.2-1,0.3c-0.3,0.1-0.6,0.1-0.8,0.1c-0.1,0-0.1,0-0.2,0
			c-0.6,0.1-1.3,0.1-2,0.2c0,0,0,0,0,0c-0.3,0.9-0.7,1.8-1,2.7c-0.2,0.6-0.4,1.2-0.6,1.8c-0.2,0.5-0.3,1-0.5,1.5
			c0,0.1-0.1,0.2-0.1,0.3c0,0,0,0,0,0c-0.1,0.2-0.2,0.5-0.3,0.7c-0.1,0.4-0.3,0.7-0.5,1.1c0,0,0,0.1-0.1,0.1c-0.2,0.5-0.4,1-0.6,1.5
			c-0.3,0.7-0.7,1.4-1,2.1c0,0.1-0.1,0.1-0.1,0.1c-0.3,0.7-0.7,1.3-1.1,2c-0.4,0.7-0.8,1.4-1.2,2c-0.3,0.5-0.6,1.1-1,1.6
			c0,0,0,0.1-0.1,0.1c0,0.1-0.1,0.1-0.1,0.1c-0.1,0.1-0.2,0.3-0.3,0.4c0,0,0,0,0,0c-0.1,0.2-0.3,0.4-0.4,0.6
			c-0.2,0.3-0.3,0.5-0.5,0.8c0,0,0,0,0,0c-0.1,0.2-0.3,0.4-0.4,0.6c0,0.1-0.1,0.2-0.2,0.2c-0.2,0.3-0.4,0.5-0.6,0.8
			c-0.1,0.2-0.3,0.4-0.4,0.5c0,0,0,0,0,0c0,0-0.1,0.1-0.1,0.1c-0.4,0.6-0.9,1.1-1.3,1.7c-0.5,0.7-1.1,1.3-1.6,1.9
			c-2.5,2.9-5.4,5.5-8.7,7.5c-3.2,2-6.6,3.5-10.4,3.8c-0.3,0-0.6,0.1-1,0.1c-0.2,0-0.5,0.1-0.8,0.1c-0.2,0.5-0.2,1-0.1,1.5
			c0,0.2,0.1,0.4,0.1,0.7c0,0.2,0.1,0.4,0.1,0.7c0.1,2.2,0.3,4.5,0.4,6.7c0,0.8,0,1.6-0.1,2.3c0,0.1,0,0.2-0.1,0.4
			c-0.1,0.3-0.2,0.6-0.3,0.9c0,0.1,0,0.1-0.1,0.2c-0.2,0.4-0.5,0.5-1,0.5c-0.4,0-0.8-0.2-0.9-0.6c-0.2-0.3-0.3-0.7-0.3-1.1
			c-0.1-0.6-0.1-1.1-0.1-1.7c-0.1-2.4-0.2-4.7-0.2-7.1c0-1.2,0-2.3,0-3.6c-0.3-0.2-0.7-0.4-1.1-0.5c-2.6-0.7-4.7-2.3-6.5-4.3
			c-1.8-2.1-3.1-4.5-4.2-7.1c-2-4.9-3.5-9.9-4.6-15c-0.6-2.8-1.1-5.5-1.4-8.3c-0.3-2.6-0.3-5.2,0.2-7.8c0.6-2.7,2-4.9,4.1-6.5
			c0.7-0.6,1.5-1.1,2.2-1.5c1.5-0.8,3.1-1.6,4.6-2.4c0.3-0.2,0.7-0.3,1.1-0.4c0.3-0.1,0.6-0.1,0.8,0.1c0.1,0,0.1,0.1,0.1,0.1
			c0.1,0,0.1,0.1,0.1,0.1c0.2,0.4,0.1,0.8-0.2,1.1c-0.3,0.3-0.6,0.5-0.9,0.7c-0.8,0.5-1.6,1-2.4,1.5c-0.6,0.4-1.2,0.7-1.8,1.1
			c-0.3,0.2-0.6,0.4-0.9,0.6c-0.6,0.4-1.1,0.9-1.5,1.4c-0.2,0.2-0.3,0.4-0.5,0.6c-0.1,0.1-0.1,0.1-0.1,0.2c0,0.1-0.1,0.1-0.1,0.2
			c-0.1,0.1-0.2,0.3-0.3,0.4c-0.1,0.1-0.1,0.2-0.2,0.3c-0.1,0.1-0.2,0.3-0.2,0.4c-0.1,0.2-0.2,0.4-0.3,0.6c-0.1,0.2-0.2,0.5-0.3,0.7
			c-0.1,0.2-0.2,0.5-0.2,0.7c-0.1,0.3-0.1,0.5-0.2,0.8c0,0.1-0.1,0.3-0.1,0.4v0.1c0,0.1-0.1,0.3-0.1,0.4c0,0.2-0.1,0.4-0.1,0.7
			c-0.1,2.7,0.1,5.4,0.5,8c1,6.3,2.6,12.4,4.9,18.4c0.7,1.7,1.5,3.4,2.4,5c0.6,1.1,1.4,2.1,2.3,3.1c2.6,2.9,5.8,3.8,9.6,3.3
			c4.7-0.7,8.7-3.1,12.2-6.1c2.3-2,4.4-4.2,6.2-6.6c0.3-0.3,0.6-0.7,0.8-1c0.1-0.2,0.3-0.3,0.4-0.5c0.1-0.2,0.3-0.3,0.4-0.5
			c1.5-2.1,2.9-4.4,4.2-6.7c0.9-1.6,1.7-3.4,2.5-5.1c0.1-0.3,0.3-0.7,0.4-1c0.1-0.2,0.2-0.5,0.3-0.7c0.3-0.7,0.6-1.5,0.9-2.2
			c0.1-0.3,0.2-0.6,0.4-0.8c0-0.1,0.1-0.2,0.1-0.3c0.3-0.7,0.6-1.3,0.8-2c0.2-0.6,0.5-1.2,0.7-1.7c0.4-0.9,1.1-1.4,2.1-1.4
			c0.7,0,1.4,0,2.1-0.1c0.9-0.1,1.8-0.3,2.6-0.5c0.3-0.1,0.5-0.2,0.6-0.4c0.1-0.2,0.2-0.4,0.2-0.6c0-0.1,0-0.2,0-0.3
			c0,0,0-0.1,0-0.1v0c0-0.1-0.1-0.2-0.1-0.3c-0.1-0.1-0.1-0.2-0.2-0.3c-0.1,0-0.1-0.1-0.2-0.1c-0.3-0.3-0.5-0.6-0.5-0.8
			c0-0.2,0-0.3,0-0.4c0,0,0,0,0,0c0-0.1,0-0.1,0.1-0.2c0.1-0.1,0.2-0.3,0.4-0.4c0.1-0.1,0.3-0.2,0.4-0.3c0.1-0.1,0.3-0.1,0.4-0.2
			c0.1-0.1,0.2-0.1,0.3-0.2c0.2-0.1,0.3-0.2,0.5-0.2c0.2-0.1,0.3-0.2,0.5-0.3c0.1-0.1,0.2-0.2,0.3-0.3v0c0.4-0.4,0.3-1.4-0.4-1.5
			c-0.2,0-0.4,0-0.6-0.1c-1.1-0.4-1.3-1.2-0.4-2c0.3-0.3,0.7-0.5,1.1-0.8c0.4-0.3,0.9-0.6,1.2-0.9c0.5-0.5,0.5-0.7-0.1-1.7
			c-1.1,0-2.1,0-3,0c-0.4,0-0.7-0.3-0.8-0.7c-0.1-0.4,0.1-0.8,0.4-1c0.3-0.2,0.5-0.3,0.8-0.5c0.5-0.2,1-0.3,1.5-0.5
			c1.1-0.3,2.2-0.6,3.3-0.9c0.5-0.2,1-0.4,1.4-0.6c0.5-0.3,0.6-1.1,0.2-1.5c-0.9-1-2-1.3-3.3-1.4c-2-0.2-4,0.1-5.9,0.5
			c-2.4,0.5-4.8,1.1-7.1,1.6c-1.3,0.3-2.7,0.3-3.9,0.9c-0.3,0.1-0.8-0.1-1.1-0.3c-0.5-0.4-0.9-0.9-1.3-1.4c-0.7-0.8-1.3-1.7-2.1-2.5
			c-0.5-0.6-1.2-1-1.9-1.3c-1-0.5-1.8,0.1-1.9,1.2c-0.1,1.2,0.1,2.4,0.5,3.6c0.2,0.6,0.4,1.1,0.6,1.6c0.1,0.3,0.2,0.7,0.1,1.1
			c0,0.6-0.8,1-1.3,0.6c-0.2-0.1-0.4-0.3-0.6-0.5c-1.3-2-2.2-4.2-2.1-6.7c0.1-3.1,3-5,5.8-3.8c2.1,0.9,3.5,2.5,4.7,4.4
			c0.3,0.4,0.5,0.9,0.8,1.4c0.5-0.1,0.9-0.2,1.3-0.4c3.7-1.4,7.6-2.2,11.5-2.9c1.9-0.3,3.7-0.3,5.5,0.2c1.3,0.3,2.4,0.9,3.3,1.9
			C554.6,192,554.3,194.8,551.8,196.3z"/>
		<path d="M622.1,80.7c-0.5-1.3-1.2-2.5-2.2-3.6c-1.6-1.7-3.4-2.9-5.5-3.8c-3.6-1.5-7.4-2-11.3-1.6c-1.9,0.2-3.6,0.8-5.3,1.7
			c-0.5,0.3-1,0.8-1.4,1.2c-0.1,0.1,0,0.4,0,0.8c0.4-0.1,0.6-0.2,0.8-0.3c2.3-1.1,4.7-1.5,7.3-1.5c2.2,0,4.3,0.3,6.5,0.8
			c2.3,0.6,4.3,1.6,6.2,3c1.1,0.9,2.1,1.9,2.7,3.2c0.9,2.1,0.3,4-1.8,5.2c-0.3-0.2-0.6-0.4-1-0.6c-2.5-1.6-5.3-2.2-8.3-2.1
			c-1.1,0.1-2.2,0.3-3.2,0.7c-1,0.5-1.9,1.2-1.9,2.5c0,1.1,0.7,1.9,1.6,2.4c0.6,0.3,1.3,0.6,1.9,0.8c2.2,0.6,4.4,0.6,6.7,0.2
			c1.3-0.3,2.6-0.7,3.8-1.1c1.5,2,1.6,3.8,0.1,5.6c-0.5,0.6-1.2,1.2-1.9,1.6c-0.9,0.5-2,0.9-3,1.2c-0.3,0.1-0.7,0.1-1.1,0.2
			c-1-2.9-3.1-4.1-5.8-4.4c-1.6-0.2-3.2,0.2-4.5,1.2c-1.5,1.1-1.5,2.7-0.1,3.9c0.7,0.6,1.5,0.9,2.4,1.2c1.3,0.4,2.8,0.5,4.2,0.5
			c0.6,0,1.3-0.2,1.9,0.2c-0.5,1.5-0.8,2.2-1.9,3.3c-1.5,1.6-3.3,2.8-5.3,3.8c-1.1,0.6-2.2,1.1-3.2,1.7c-0.3,0.2-0.6,0.4-1,0.8
			c0.5,0.2,0.8,0.4,1,0.4c0.5-0.1,1-0.2,1.5-0.4c3-1.2,5.6-3,8-5.2c1.1-1,2-2.2,2.5-3.6c0.3-1,0.9-1.2,1.8-1.5
			c1.3-0.3,2.5-0.9,3.8-1.5c1.3-0.6,2.3-1.6,3.1-2.8c1.2-1.9,1.4-3.8,0.4-5.8c-0.2-0.5-0.5-1-0.8-1.6c0.6-0.7,1.1-1.3,1.6-1.9
			C622.4,84.3,622.7,82.6,622.1,80.7z M608.4,88.3c-0.7-0.1-1.3-0.4-2-0.7c-0.4-0.2-0.6-0.6-1-1c0.4-0.3,0.7-0.7,1.1-0.9
			c0.7-0.2,1.4-0.4,2-0.4c2.3-0.2,4.4,0.3,6.5,1.4c0.2,0.1,0.4,0.3,0.6,0.4c0,0,0.1,0.1,0.1,0.3C613.4,88.6,610.9,88.6,608.4,88.3z
			 M604.1,97.5c-0.5-0.2-1-0.5-1.5-0.8c-0.3-0.2-0.3-0.8,0-1c0.1,0,0.1-0.1,0.2-0.1c2.1-1.4,6-0.6,7,1.7c0.1,0.1,0,0.2,0.1,0.6
			C607.9,98.2,606,98,604.1,97.5z"/>
		<path d="M573.1,222.4c-0.4,0.3-0.9,0.5-1.3,0.7c-1.6,0.7-3.3,1.1-5,1.4c-4.3,0.9-8.5,1.6-12.9,2c-1.9,0.2-3.7,0.4-5.5,0.6
			c-0.8,0.1-1.5,0.1-2.3,0.2c0,0,0,0,0,0c-0.6,0-1.2,0-1.7,0c-1.1-0.1-2.2-0.4-2.9-1.2c-0.9-0.9-1.9-1.2-3.1-1.4c-0.1,0-0.2,0-0.2,0
			c-0.3,0-0.6-0.1-0.9-0.2c-0.3-0.1-0.5-0.4-0.6-0.7c0-0.1-0.1-0.2,0-0.2c0,0,0-0.1,0-0.1c0,0,0,0,0,0c0.1-0.2,0.2-0.3,0.4-0.4
			c1.8-0.7,3.6-1.1,5.2,0.3c1,0.8,2,1.1,3.2,1c2.1-0.2,4.2-0.3,6.3-0.5c2.5-0.3,5.1-0.6,7.6-1c3.4-0.6,6.8-1.2,10.2-1.8
			c1-0.2,2-0.2,3-0.2c0.3,0,0.6,0.1,0.7,0.3c0.1,0.1,0.1,0.2,0.1,0.2c0,0,0,0,0,0.1C573.6,221.8,573.5,222.2,573.1,222.4z"/>
		<path d="M522.4,198.4c-0.1,0.2-0.2,0.7-0.4,1c-0.5,0.8-1,1.6-1.6,2.4c-1.5,2-3,4-4.7,5.9c-2.5,2.8-5.1,5.5-7.6,8.2
			c-0.6,0.6-1.2,1.1-1.9,1.7c-0.2,0.2-0.5,0.4-0.8,0.5c-0.4,0.2-0.9,0.2-1.3-0.2c-0.3-0.3-0.4-0.7-0.1-1.2c0.5-1.1,1.2-1.9,2-2.8
			c2-2,3.9-4.1,5.9-6.1c2.1-2.1,4-4.4,5.8-6.7c0.7-0.9,1.5-1.8,2.2-2.6c0.4-0.4,0.8-0.8,1.4-1C521.9,197.4,522.4,197.8,522.4,198.4z
			"/>
		<path d="M576.6,219.2c0,0.3,0,0.7-0.1,1c-0.1,0.5-0.4,0.8-0.9,0.9c-0.1,0-0.2,0-0.3,0c-0.1,0-0.2,0-0.3-0.1c0,0,0,0,0,0
			c-0.1,0-0.2-0.1-0.3-0.2c-0.1-0.1-0.1-0.1-0.2-0.2c0,0,0,0-0.1-0.1c-0.2-0.4-0.4-0.8-0.5-1.2c-0.3-1.6-0.5-3.3-0.7-4.9
			c-0.1-1.1-0.2-2.2-0.3-3.2c-0.1-1-0.1-1.9,0.2-2.9c0.1-0.2,0.2-0.5,0.3-0.7c0.2-0.3,0.8-0.4,1-0.1c0.2,0.3,0.4,0.6,0.5,1
			c0.2,0.9,0.4,1.9,0.6,2.8c0.3,2.1,0.6,4.2,1,6.3C576.6,218.2,576.6,218.7,576.6,219.2z"/>
		<path d="M541.3,159.9c0,0.5-0.2,0.9-0.7,1.1c-0.4,0.2-0.8,0.1-1.1-0.1c-0.4-0.3-0.8-0.7-1.1-1c-1.3-1.1-2.4-1.2-3.9-0.3
			c-0.3,0.2-0.6,0.5-1,0.6c-0.3,0.1-0.6,0.1-0.9,0c-0.3-0.1-0.4-0.7-0.3-1c0.6-1.3,1.6-2.3,3.1-2.6c0.4-0.1,0.9-0.1,1.1-0.1
			c1.8,0.1,3.3,0.5,4.2,1.9C541.1,158.8,541.3,159.3,541.3,159.9z"/>
		<path d="M561.6,139.1c0,1.2-0.4,2.2-1.5,2.7c-1,0.5-2.1,0.2-2.6-0.7c-0.7-1.2-0.3-3.5,0.7-4.4c0.6-0.5,1.6-0.5,2.3,0.1
			C561.3,137.4,561.7,138.2,561.6,139.1z"/>
		<path d="M527.3,138.6c-0.1,1.1-0.3,2.1-1.2,2.8c-1,0.8-2.3,0.5-2.9-0.6c-0.6-1.1-0.5-2.8,0.3-3.8c0.5-0.6,1.2-1,2-0.8
			c0.8,0.2,1.4,0.7,1.6,1.5C527.3,138,527.3,138.3,527.3,138.6z"/>
		<path d="M542,131.1c-0.1,0.7-0.2,1.5-0.4,2.2c-0.1,0.4-0.4,0.7-0.8,0.7c-0.4,0-0.8-0.3-0.9-0.6c-0.2-0.7-0.5-1.5-0.5-2.2
			c0-1.1,0.2-2.2,0.4-3.2c0.1-0.4,0.4-0.7,0.8-0.7c0.4-0.1,0.9,0.3,1,0.8C541.7,129,541.8,130,542,131.1z"/>
		<path d="M545.4,132.6c-0.1,0.5-0.4,0.8-0.9,0.8c-0.4,0-0.9-0.3-1-0.8c-0.1-0.3-0.1-0.6-0.1-0.9c0.1-0.8,0.3-1.6,0.5-2.4
			c0-0.2,0.1-0.2,0.8-0.4C545.5,130.1,545.6,131.3,545.4,132.6z"/>
	</g>
	<g>
		<path d="M506.8,90.2c0,0.1-0.1,0.1-0.1,0.2c-0.1,0.1-0.1,0.3-0.2,0.4c-0.1,0.2-0.3,0.5-0.4,0.8c-1.4,2.7-2.3,5.6-2.8,8.6
			c-0.9,0.5-1.7,1.1-2.6,1.6c-12.2,8-21,18.6-26.2,32.3c-1,2.5-1.8,5.1-2.4,7.7c-0.3,0.2-0.6,0.4-0.8,0.7c0.1-1.6,0.3-3.2,0.6-4.8
			c0.1-1,0.3-2,0.5-2.9c0.1-0.7,0.3-1.5,0.4-2.2c0.2-0.9,0.4-1.7,0.6-2.6c0,0,0,0,0-0.1c0,0,0-0.1,0-0.1c0.3-1.4,0.7-2.8,1.2-4.2
			c0.2-0.8,0.5-1.7,0.8-2.5c0-0.1,0.1-0.2,0.1-0.3c0.3-0.9,0.7-1.9,1.1-2.8c0.4-1,0.9-2.1,1.4-3.1c0.4-0.9,0.9-1.9,1.4-2.8
			c0.3-0.5,0.6-1,0.9-1.5c0-0.1,0.1-0.1,0.1-0.2c0.2,0,0.7-1.2,0.7-1.2c2.8-4.3,6.8-8.5,11.3-12.1c0.3,0.6,0.6,1.6,0.7,1.6l1.7-1.7
			c-0.1-0.1,0,0-0.6-1.2l-0.3-0.6c-0.2-0.5-0.4-1.4-0.3-1.6c0.2-0.6,0.6-1.2,1.2-1.6c1.2-0.7,2.8-0.7,4.2-0.6c0.3,0,0.6,0,0.8,0.1
			c0.4,0.1,0.6,0.2,0.7,0.2c0.1,0,0.1,0.1,0.1,0.1l2.2-0.3c-0.1-0.3-0.1-0.6-0.3-0.9C503.8,91.6,505.3,90.9,506.8,90.2z"/>
		<path d="M493,100.6c0,0-0.4-0.9-0.7-1.6c0.6-0.5,1.2-0.9,1.8-1.4c0.6,1.2,0.5,1.2,0.6,1.2L493,100.6z"/>
		<path d="M500.4,93.6c0,0,0-0.1-0.1-0.1c0.6-0.4,1.3-0.7,1.9-1.1c0.2,0.3,0.3,0.5,0.3,0.9L500.4,93.6z"/>
		<path d="M506.7,90.4c-1.3,3-2.2,6.1-2.8,9.3c-0.2,1.3-0.4,2.6-0.6,3.9c-0.6,5.6-0.5,11.2,0,16c-0.1,0-0.1,0.1-0.2,0.1
			c-8.7,5.5-18.6,12.7-27.1,19c-1.1,0.8-2.2,1.6-3.2,2.4c-0.2,0.2-0.5,0.4-0.8,0.6c0.6-2.6,1.4-5.2,2.4-7.7
			c5.2-13.6,14.1-24.3,26.2-32.3c0.9-0.6,1.7-1.1,2.6-1.6c0.5-3,1.4-5.9,2.8-8.6c0.1-0.3,0.3-0.5,0.4-0.8
			C506.6,90.7,506.7,90.5,506.7,90.4z"/>
		<path class="st8" d="M581.1,98.3c-0.2,0.6-0.8,1.8-1.2,2.6c-0.1,0.1-0.1,0.2-0.1,0.2c-0.2,0.5-0.4,0.8-0.5,0.9
			c-1.2-0.3-2.4-0.5-3.6-0.6c-3.7-0.4-7.4-0.4-11-0.4c-5.1,0.1-11.2,0.3-17.2,1.2c-12.8,1.9-25.8,6.7-39.7,14.8
			c-1.5,0.8-2.9,1.7-4.3,2.6c-0.1,0-0.1,0.1-0.2,0.1c-0.4-4.9-0.8-10.4-0.4-15.8c0.1-1.3,0.3-2.6,0.5-3.9c0.5-3,1.4-5.9,2.8-8.6
			c0.1-0.3,0.3-0.5,0.4-0.8c0.1-0.1,0.1-0.3,0.2-0.4c0.7-1.3,1.5-2.4,2.4-3.5c3-3.8,6.7-6.9,9.9-9.4c13.6-10.5,27-16,39.9-16.5
			c4.8-0.2,8.6,0.5,11.6,2c5.5,2.7,9.7,8.8,11.5,16.8C583.5,86.4,583.2,92.9,581.1,98.3z"/>
		<path d="M502.6,93.3l-2.2,0.3c0,0,0-0.1-0.1-0.1c-0.1-0.1-0.3-0.2-0.7-0.2c-0.2,0-0.5-0.1-0.8-0.1c-1.4,0-3,0-4.2,0.6
			c-0.6,0.3-1.1,0.9-1.2,1.6c-0.1,0.2,0.1,1.1,0.3,1.6l0.3,0.6c0.6,1.2,0.5,1.2,0.6,1.2l-1.7,1.7c0,0-0.4-0.9-0.7-1.6
			c-0.2-0.4-0.3-0.6-0.3-0.6c-0.5-0.8-0.9-2.6-0.7-3.5c0.3-1.2,1.1-2.3,2.2-2.9c1.7-1,3.7-1,5.3-0.9c1.4,0,2.5,0.4,3.1,1
			c0.1,0.1,0.2,0.2,0.3,0.4C502.4,92.7,502.5,93,502.6,93.3z"/>
	</g>
	<path class="st9" d="M576.4,219.6c4.3,4.3,8.6,8.6,13,13"/>
	<path class="st10" d="M503.8,218.7c-4.6,4.6-9.2,9.2-13.9,13.9"/>
	<g>
		<path d="M549.9,216.4c-0.4-2.4-2-4.3-4-5.2c-1.2-0.5-2.5-0.7-3.9-0.5c-3.8,0.6-6.3,4.2-5.7,7.9c0.1,0.4,0.2,0.9,0.3,1.3
			c0.4,1.1,1,2,1.8,2.7c1.5,1.4,3.6,2.1,5.8,1.7c0,0,0.1,0,0.1,0h0C548,223.7,550.5,220.1,549.9,216.4z M547.6,222.4
			c-0.9,0.9-2.1,1.5-3.5,1.7c-0.1,0-0.2,0-0.3,0.1h0c-1.9,0.2-3.8-0.4-5.2-1.7c-0.9-0.8-1.6-1.8-1.9-2.9c-0.1-0.3-0.2-0.7-0.3-1.1
			c-0.3-2.1,0.3-4.2,1.7-5.6c0.3-0.3,0.6-0.6,0.9-0.8c0.8-0.7,1.9-1.1,3-1.3c0.8-0.1,1.6-0.1,2.4,0.1c0.4,0.1,0.9,0.2,1.3,0.4l0,0h0
			l0,0c0.4,0.2,0.8,0.4,1.1,0.6c0.5,0.3,0.9,0.7,1.3,1.2l0,0c0.8,0.9,1.3,2,1.5,3.3c0.2,1,0.1,1.9-0.1,2.8
			C549.3,220.5,548.6,221.6,547.6,222.4z"/>
		<path d="M547.4,219.3c-0.1,0.1,0.1,0.2,0.1,0.4s-0.1,0.5-0.2,0.6s-0.5,0.5-0.6,0.6c-0.1,0.1-0.3,0.8-0.4,0.9s-0.3,0.2-0.4,0.2
			c-0.1,0-0.1,0.1-0.1,0.3c0,0.2-0.3,0.2-0.4,0.3c-0.1,0.1-0.3,0.2-0.3,0.3c0,0.1,0.1,0.3,0,0.4c0,0-0.2,0-0.2,0.1
			c0,0.1,0.1,0.1,0.3,0.1c0.1,0,0,0.1-0.1,0.1c0,0-0.5,0-0.6,0c-0.1,0-0.2-0.5-0.2-0.7c0-0.1,0.1-0.4,0.1-0.6c0-0.2-0.1-0.9-0.2-1.2
			c-0.3,0.1-1.4-0.9-1.5-1c-0.1-0.1-0.1-0.1-0.1-0.2c0.1-0.1,0-0.4-0.1-0.5c0-0.1,0.2-0.2,0.2-0.3c0-0.1-0.1-0.5-0.2-0.6
			s-0.2,0.1-0.4,0.2c-0.2,0-0.4-0.2-0.5-0.2c-0.1,0-0.3-0.2-0.4-0.3c-0.1-0.1-0.3,0-0.4,0.1c-0.1,0-0.1-0.1-0.2-0.2
			c-0.1,0-1-0.1-1-0.1c-0.1,0-0.3-0.1-0.3-0.3c0-0.2-0.1-0.4-0.2-0.5s-0.3-0.3-0.3-0.2c0,0.1,0.1,0.3,0.2,0.3s0.2,0.2,0,0.2
			c-0.2,0-0.4-0.6-0.4-0.6l-0.2-0.6l-0.2-0.3l-0.1-0.8l0.4-0.7l-0.1-0.6l0-0.7l-0.7-0.2l-0.1,0l0.9-0.9c0,0,0,0,0.1,0.1
			c0.1,0.1,0.2,0.2,0.4,0.2c0.2,0.1,0.3,0.3,0.3,0.2c0.1,0,0.2,0,0.4,0.1c0.2,0.1,0.1,0,0.1-0.1c0-0.2,0-0.2,0-0.3
			c0-0.1,0.3,0,0.3,0c0,0,0.3,0,0.3,0.1c0,0.1-0.2,0.2-0.1,0.2c0,0.1,0,0,0.2-0.1s0.1-0.1,0.2-0.1s0.3,0.1,0.4,0.2
			c0.1,0.1,0.1,0.2,0.1,0.4c0,0.1-0.5,0-0.7,0s0,0.3,0,0.5c0.1,0.2,0.3,0.1,0.5,0.1c0.2,0,0.2,0.2,0.3,0.3s0.2-0.1,0.2-0.2
			c0-0.1-0.1-0.3-0.1-0.4c0-0.1-0.1-0.2,0-0.4c0,0,0,0,0.1,0c0.2-0.1,0.4,0.1,0.5,0.1c0.2,0,0.1-0.2,0.2-0.1c0.1,0,0.1,0.2,0.2,0.3
			c0.1,0.1,0.3,0.1,0.5,0.2c0.2,0.1,0.2,0.2,0.3,0.2s0.3,0.3,0.2,0.3c-0.1,0-0.4,0.1-0.4,0.1c-0.1,0,0-0.3-0.2-0.4
			c-0.1-0.1-0.2,0.1-0.3,0.2c-0.1,0.1,0,0.3,0.1,0.4c0.1,0.1,0.3-0.2,0.3-0.1c-0.1,0.1-0.2,0.3-0.2,0.4s-0.3,0.1-0.4,0.1
			s0,0.2,0,0.3c0,0.1-0.2,0-0.2,0.1c-0.1,0-0.5,1-0.5,1.1c0,0.2,0.2,0.7,0.2,0.8c0,0-0.4-0.2-0.5-0.3c0-0.1-0.3-0.2-0.5-0.2
			c-0.2,0-0.1,0.2-0.1,0.3s-0.1-0.1-0.4-0.1s-0.3,0.3-0.4,0.5c0,0.1,0.2,0.5,0.2,0.7c0,0.2,0.4,0,0.5,0c0.1-0.1,0.1-0.1,0.1-0.3
			s0.3-0.2,0.4-0.1c0.1,0.1,0,0.5,0.1,0.6c0.1,0,0.3-0.1,0.4,0c0.1,0.1,0.2,0.6,0.3,0.6c0.1,0,0.5-0.1,0.6-0.1
			c0.2,0,0.3-0.4,0.4-0.5c0.1-0.1,0.7,0,0.9,0c0.1,0,0.3-0.2,0.4-0.2c0.2,0,0.1,0.2,0.3,0.3s0.4,0.1,0.7,0.1c0.3,0,0.2,0.1,0.4,0.2
			c0.2,0,0.2,0.2,0.2,0.3c0.1,0.1,0.4,0.1,0.5,0c0.1,0,0.2,0,0.4,0c0.2,0,0.4,0,0.6,0s0,0.2,0.1,0.4
			C547.8,218.9,547.5,219.2,547.4,219.3z"/>
		<path d="M543.6,211.7c0,0-0.1,0.4-0.1,0.5c-0.1,0.2-0.2,0.2-0.3,0.3c-0.1,0-0.7-0.6-0.8-0.6c-0.1,0-0.5-0.1-0.5-0.1
			c-0.1,0-0.2,0.2-0.2,0.3c0,0.1,0.3,0.1,0.4,0.1c0.1,0,0.2,0.1,0.4,0.1c0.1,0,0,0.3,0.1,0.4c0,0.1-0.2,0-0.1,0.2
			c0.1,0.2-0.3,0-0.5-0.1c0,0-0.1-0.1-0.1-0.1c0-0.1,0.1-0.2-0.1-0.4s-0.2,0.1-0.3,0.1c-0.2,0-0.2-0.1-0.1-0.1s0.2-0.2,0.1-0.2
			c-0.1,0-0.5-0.1-0.7-0.1c0,0,0.4-0.1,0.6-0.2c0.2-0.1,0.4-0.3,0.6-0.4c0.2-0.1,1.2,0.1,1.4,0.1
			C543.5,211.4,543.6,211.7,543.6,211.7z"/>
		<path d="M549.9,216.7l0,1.7l-0.2,1.1c0,0,0-0.1,0-0.3c0,0,0,0,0,0c0-0.7-0.1-2.1-0.1-2.3c0-0.3-0.1-0.6-0.1-0.8
			c0-0.2,0,0.2-0.4,0.2c-0.4,0-1.2-1.2-1.3-1.4c-0.1-0.2-0.3-1-0.3-1.1s-0.3-0.4-0.3-0.5c0-0.1-0.3,0-0.4,0s-0.2-0.3-0.2-0.5
			s-0.2-0.3-0.3-0.2s-0.3-0.4-0.3-0.5s-0.4-0.3-0.5-0.3c0-0.1-0.4-0.1-0.4-0.1c0,0-0.3,0.1-0.4,0.1s-0.7-0.3-0.7-0.3
			s-0.5-0.5-0.6-0.5l1,0.1l0.5,0.1l1.7,0.7l0.3,0.3l0,0l1.3,1.2l0,0l0.4,0.3l0.9,1.7L549.9,216.7z"/>
		<path d="M536,216.2l-1,0.1c0-0.1,0.1-0.2,0.1-0.3c0.3-0.7,0.6-1.3,0.8-2l0.8-0.1C535.9,215.1,536,216.2,536,216.2z"/>
		<path d="M535.9,219.2l-2.2,0.1c0.3-0.7,0.6-1.5,0.9-2.2l1.1-0.1C535.7,217.3,535.8,218.8,535.9,219.2z"/>
		<path d="M537,221.9l-1.3,0h-1.1L533,221c0.1-0.3,0.3-0.7,0.4-1l2.6-0.1c0,0.2,0.1,0.5,0.3,0.7C536.6,221.3,537,221.9,537,221.9z"
			/>
		<path d="M548.1,212.2c1.2,0.8,1.4,1.9,1.4,1.9l14.6-4l2.2-2.7L548.1,212.2L548.1,212.2L548.1,212.2z"/>
		<path d="M560.9,211.9l-2.9,2.9l-7.4,2.1c0-0.3-0.4-1.9-0.5-2.1L560.9,211.9L560.9,211.9L560.9,211.9z"/>
		<path d="M555.4,216.2l-2.8,2.8l-2.3,0.7c0,0,0.5-1.4,0.4-2.1L555.4,216.2L555.4,216.2L555.4,216.2z"/>
		<path d="M543.3,206.7c0,0.1,0,0.1-0.1,0.2c0,0,0,0,0,0c0,0,0,0,0,0c0,0.1,0,0.3,0,0.4c0.1,0,0.1-0.1,0.1-0.1
			c0.1-0.1,0.2-0.3,0.3-0.5c0-0.1,0.1-0.3,0.1-0.4C543.5,206.5,543.3,206.6,543.3,206.7z"/>
		<path d="M545.7,205.9c0.1-0.1,0.2-0.2,0.3-0.3c0.1-0.1,0.1-0.3,0.1-0.4c0-0.1,0-0.1-0.1-0.2c-0.1,0.1-0.2,0.2-0.3,0.3
			c0,0.1,0,0.2-0.1,0.3c-0.1,0.1-0.2,0.2-0.4,0.2l-0.5,0.1v-0.1c-0.1,0.1-0.2,0.1-0.3,0.2l0.2,1.2l0.3-0.1l-0.2-1l0.6-0.1l0.7,0.9
			l0.4-0.1v0L545.7,205.9z"/>
		<path d="M548.6,205.7c0,0.2,0,0.4-0.1,0.5c-0.1,0.1-0.2,0.1-0.4,0.2c0,0,0,0-0.1,0c-0.2,0-0.4,0-0.5-0.2c-0.1-0.1-0.2-0.3-0.3-0.6
			l0-0.2c-0.1-0.3,0-0.5,0.1-0.7c0.1-0.2,0.2-0.3,0.5-0.3c0.2,0,0.3,0,0.4,0.1c0.1,0.1,0.2,0.2,0.3,0.4l0.2,0l0.1,0
			c0-0.1,0-0.1-0.1-0.2c-0.1-0.2-0.2-0.3-0.3-0.4c-0.2-0.1-0.4-0.2-0.7-0.1c-0.2,0-0.4,0.1-0.5,0.2c-0.2,0.1-0.2,0.3-0.3,0.5
			c-0.1,0.2-0.1,0.4,0,0.7l0,0.2c0.1,0.3,0.2,0.6,0.4,0.8c0.2,0.2,0.3,0.2,0.6,0.2c0.1,0,0.1,0,0.2,0c0.3-0.1,0.5-0.2,0.6-0.3
			c0.2-0.2,0.2-0.4,0.2-0.7L548.6,205.7z"/>
		<path d="M551.5,205.8l-1.3,0.2l-0.1-0.9l1.1-0.2l0-0.3l-1.1,0.2l-0.1-0.8l1.3-0.2l0-0.3l-1.6,0.3l0.4,2.5l1.6-0.3L551.5,205.8z"/>
		<path d="M526.2,232.8c-0.1,0.2-0.2,0.3-0.4,0.5l0.6,1.1l-1.1,0.2l0.1-0.7c-0.3,0.3-0.5,0.7-0.8,1l-0.3,1.3l0.7-0.1l0.2-0.9
			l1.5-0.2l0.4,0.8l0.5-0.1c0,0,0.1-0.1,0.1-0.1c0,0,0,0,0,0L526.2,232.8z"/>
		<path d="M530.1,231.6c-0.3-0.2-0.6-0.2-1.1-0.1l-1.3,0.2l0.5,3.2c0.2-0.3,0.4-0.5,0.6-0.8l0-0.2l0.2,0c0.2-0.2,0.3-0.4,0.4-0.6
			c0,0,0,0,0,0c0,0-0.1,0-0.1,0l-0.7,0.1l-0.2-1.3l0.7-0.1c0.2,0,0.4,0,0.6,0.1c0.1,0.1,0.2,0.2,0.2,0.4c0.2-0.2,0.3-0.4,0.4-0.6
			C530.3,231.8,530.2,231.7,530.1,231.6z"/>
		<path d="M530.8,231.2C530.8,231.2,530.8,231.2,530.8,231.2c-0.1,0.1-0.1,0.2-0.1,0.2l0-0.2L530.8,231.2z"/>
		<path d="M526.2,232.8c-0.1,0.2-0.2,0.3-0.4,0.5l0.6,1.1l-1.1,0.2l0.1-0.7c-0.3,0.3-0.5,0.7-0.8,1l-0.3,1.3l0.7-0.1l0.2-0.9
			l1.5-0.2l0.4,0.8l0.5-0.1c0,0,0.1-0.1,0.1-0.1c0,0,0,0,0,0L526.2,232.8z"/>
		<path d="M530.1,231.6c-0.3-0.2-0.6-0.2-1.1-0.1l-1.3,0.2l0.5,3.2c0.2-0.3,0.4-0.5,0.6-0.8l0-0.2l0.2,0c0.2-0.2,0.3-0.4,0.4-0.6
			c0,0,0,0,0,0c0,0-0.1,0-0.1,0l-0.7,0.1l-0.2-1.3l0.7-0.1c0.2,0,0.4,0,0.6,0.1c0.1,0.1,0.2,0.2,0.2,0.4c0.2-0.2,0.3-0.4,0.4-0.6
			C530.3,231.8,530.2,231.7,530.1,231.6z"/>
		<path d="M530.6,231.2l0,0.2c0-0.1,0.1-0.1,0.1-0.1c0,0,0-0.1,0.1-0.1L530.6,231.2z"/>
	</g>
	<g>
		<circle class="st11" cx="526.2" cy="141.6" r="13.3"/>
		<circle class="st11" cx="564.1" cy="138.3" r="13.3"/>
		<path class="st11" d="M540.2,137.8c1.5-0.9,3.1-1.8,4.8-2.3c1.7-0.5,3.5-0.7,5.2-0.3"/>
	</g>
	<path class="st12" d="M548.3,197.5c12.1-1.7,26.9-6.6,26.9-6.6"/>
	<path class="st12" d="M496.5,195.7c12,1.8,25.8,0.7,25.8,0.7"/>
	<line class="st11" x1="576.6" y1="132.7" x2="602.4" y2="132.7"/>
	<line class="st11" x1="512.9" y1="139" x2="474.2" y2="146.3"/>
</g>
<g>
	<path d="M230.2,536.2v-4.4h-1.8v-1.6h5.6v1.6h-1.8v4.4H230.2z"/>
	<path d="M236.6,536.2h-2v-6h2V536.2z M238.6,534h-2.1v-1.7h2.1V534z M238.5,530.2h2v6h-2V530.2z"/>
	<path d="M241.5,536.2v-6h2v6H241.5z"/>
	<path d="M246.7,536.3c-0.5,0-1-0.1-1.5-0.2s-0.9-0.3-1.2-0.4l0.7-1.5c0.3,0.2,0.6,0.3,1,0.4c0.4,0.1,0.7,0.2,1,0.2
		c0.2,0,0.3,0,0.5,0c0.1,0,0.2-0.1,0.2-0.1s0.1-0.1,0.1-0.2c0-0.1-0.1-0.2-0.2-0.3c-0.1-0.1-0.3-0.1-0.5-0.2s-0.4-0.1-0.6-0.1
		s-0.5-0.1-0.7-0.2s-0.5-0.2-0.7-0.3s-0.4-0.3-0.5-0.5s-0.2-0.5-0.2-0.8c0-0.4,0.1-0.7,0.3-1c0.2-0.3,0.5-0.6,0.9-0.7
		s0.9-0.3,1.6-0.3c0.4,0,0.8,0,1.2,0.1c0.4,0.1,0.8,0.2,1.1,0.4l-0.6,1.5c-0.3-0.1-0.6-0.3-0.9-0.3s-0.5-0.1-0.8-0.1
		c-0.2,0-0.3,0-0.5,0.1c-0.1,0-0.2,0.1-0.2,0.1c0,0.1-0.1,0.1-0.1,0.2c0,0.1,0.1,0.2,0.2,0.2c0.1,0.1,0.3,0.1,0.5,0.2
		c0.2,0,0.4,0.1,0.7,0.1s0.5,0.1,0.7,0.2s0.5,0.2,0.6,0.3s0.4,0.3,0.5,0.5c0.1,0.2,0.2,0.5,0.2,0.8c0,0.4-0.1,0.7-0.3,1
		c-0.2,0.3-0.5,0.6-0.9,0.7S247.3,536.3,246.7,536.3z"/>
	<path d="M254,536.2v-4.4h-1.8v-1.6h5.6v1.6H256v4.4H254z"/>
	<path d="M260.3,534.6h3v1.5h-5v-6h4.9v1.5h-2.9V534.6z M260.2,532.4h2.7v1.5h-2.7V532.4z"/>
	<path d="M263.5,536.2l2.7-3.7l0,1.4l-2.6-3.7h2.3l1.5,2.2l-1,0l1.5-2.2h2.2l-2.6,3.6v-1.4l2.7,3.8h-2.3l-1.5-2.3l0.9,0l-1.5,2.3
		H263.5z"/>
	<path d="M271.7,536.2v-4.4h-1.8v-1.6h5.6v1.6h-1.8v4.4H271.7z"/>
	<path d="M277.9,536.2l2.6-6h2l2.6,6h-2.1l-1.9-5.1h0.8l-1.9,5.1H277.9z M279.5,535.1l0.5-1.5h2.8l0.5,1.5H279.5z"/>
	<path d="M287.7,536.3c-0.5,0-1-0.1-1.5-0.2s-0.9-0.3-1.2-0.4l0.7-1.5c0.3,0.2,0.6,0.3,1,0.4c0.4,0.1,0.7,0.2,1,0.2
		c0.2,0,0.3,0,0.5,0c0.1,0,0.2-0.1,0.2-0.1s0.1-0.1,0.1-0.2c0-0.1-0.1-0.2-0.2-0.3c-0.1-0.1-0.3-0.1-0.5-0.2s-0.4-0.1-0.6-0.1
		s-0.5-0.1-0.7-0.2s-0.5-0.2-0.7-0.3s-0.4-0.3-0.5-0.5s-0.2-0.5-0.2-0.8c0-0.4,0.1-0.7,0.3-1c0.2-0.3,0.5-0.6,0.9-0.7
		s0.9-0.3,1.6-0.3c0.4,0,0.8,0,1.2,0.1c0.4,0.1,0.8,0.2,1.1,0.4l-0.6,1.5c-0.3-0.1-0.6-0.3-0.9-0.3s-0.5-0.1-0.8-0.1
		c-0.2,0-0.3,0-0.5,0.1c-0.1,0-0.2,0.1-0.2,0.1c0,0.1-0.1,0.1-0.1,0.2c0,0.1,0.1,0.2,0.2,0.2c0.1,0.1,0.3,0.1,0.5,0.2
		c0.2,0,0.4,0.1,0.7,0.1s0.5,0.1,0.7,0.2s0.5,0.2,0.6,0.3s0.4,0.3,0.5,0.5c0.1,0.2,0.2,0.5,0.2,0.8c0,0.4-0.1,0.7-0.3,1
		c-0.2,0.3-0.5,0.6-0.9,0.7S288.3,536.3,287.7,536.3z"/>
	<path d="M293,536.2l2.6-6h2l2.6,6h-2.1l-1.9-5.1h0.8l-1.9,5.1H293z M294.6,535.1l0.5-1.5h2.8l0.5,1.5H294.6z"/>
	<path d="M300.6,536.2v-6h1.7l3.1,3.7h-0.8v-3.7h2v6h-1.7l-3.1-3.7h0.8v3.7H300.6z"/>
	<path d="M312.1,534.6h3v1.5h-5v-6h4.9v1.5h-2.9V534.6z M312,532.4h2.7v1.5H312V532.4z"/>
	<path d="M315.3,536.2l2.7-3.7l0,1.4l-2.6-3.7h2.3l1.5,2.2l-1,0l1.5-2.2h2.2l-2.6,3.6v-1.4l2.7,3.8h-2.3l-1.5-2.3l0.9,0l-1.5,2.3
		H315.3z"/>
	<path d="M321.4,536.2l2.6-6h2l2.6,6h-2.1l-1.9-5.1h0.8l-1.9,5.1H321.4z M323,535.1l0.5-1.5h2.8l0.5,1.5H323z"/>
	<path d="M329,536.2v-6h1.7l2.4,3.9h-0.9l2.3-3.9h1.7l0,6h-1.8l0-3.2h0.3l-1.6,2.7h-0.9l-1.7-2.7h0.4v3.2H329z"/>
	<path d="M337.2,536.2v-6h2.9c0.6,0,1,0.1,1.5,0.3s0.7,0.4,0.9,0.8c0.2,0.3,0.3,0.7,0.3,1.2c0,0.5-0.1,0.9-0.3,1.2
		c-0.2,0.3-0.5,0.6-0.9,0.8c-0.4,0.2-0.9,0.3-1.5,0.3h-1.8l0.9-0.9v2.3H337.2z M339.2,534l-0.9-0.9h1.6c0.3,0,0.5-0.1,0.6-0.2
		s0.2-0.3,0.2-0.5s-0.1-0.4-0.2-0.5s-0.3-0.2-0.6-0.2h-1.6l0.9-0.9V534z"/>
	<path d="M343.5,536.2v-6h2v4.4h2.7v1.6H343.5z"/>
	<path d="M350.8,534.6h3v1.5h-5v-6h4.9v1.5h-2.9V534.6z M350.6,532.4h2.7v1.5h-2.7V532.4z"/>
</g>
<g>
	<path d="M602.8,536.2v-4.4H601v-1.6h5.6v1.6h-1.8v4.4H602.8z"/>
	<path d="M609.1,536.2h-2v-6h2V536.2z M611.2,534H609v-1.7h2.1V534z M611,530.2h2v6h-2V530.2z"/>
	<path d="M614,536.2v-6h2v6H614z"/>
	<path d="M619.3,536.3c-0.5,0-1-0.1-1.5-0.2s-0.9-0.3-1.2-0.4l0.7-1.5c0.3,0.2,0.6,0.3,1,0.4c0.4,0.1,0.7,0.2,1,0.2
		c0.2,0,0.3,0,0.5,0c0.1,0,0.2-0.1,0.2-0.1c0.1,0,0.1-0.1,0.1-0.2c0-0.1-0.1-0.2-0.2-0.3c-0.1-0.1-0.3-0.1-0.5-0.2
		c-0.2,0-0.4-0.1-0.6-0.1c-0.2,0-0.5-0.1-0.7-0.2c-0.2-0.1-0.5-0.2-0.7-0.3c-0.2-0.1-0.4-0.3-0.5-0.5s-0.2-0.5-0.2-0.8
		c0-0.4,0.1-0.7,0.3-1c0.2-0.3,0.5-0.6,0.9-0.7c0.4-0.2,0.9-0.3,1.6-0.3c0.4,0,0.8,0,1.2,0.1s0.8,0.2,1.1,0.4l-0.6,1.5
		c-0.3-0.1-0.6-0.3-0.9-0.3c-0.3-0.1-0.5-0.1-0.8-0.1c-0.2,0-0.3,0-0.5,0.1c-0.1,0-0.2,0.1-0.2,0.1c0,0.1-0.1,0.1-0.1,0.2
		c0,0.1,0.1,0.2,0.2,0.2c0.1,0.1,0.3,0.1,0.5,0.2c0.2,0,0.4,0.1,0.7,0.1c0.2,0,0.5,0.1,0.7,0.2c0.2,0.1,0.5,0.2,0.6,0.3
		c0.2,0.1,0.4,0.3,0.5,0.5s0.2,0.5,0.2,0.8c0,0.4-0.1,0.7-0.3,1c-0.2,0.3-0.5,0.6-0.9,0.7S619.9,536.3,619.3,536.3z"/>
	<path d="M626.6,536.2v-4.4h-1.8v-1.6h5.6v1.6h-1.8v4.4H626.6z"/>
	<path d="M632.9,534.6h3v1.5h-5v-6h4.9v1.5h-2.9V534.6z M632.7,532.4h2.7v1.5h-2.7V532.4z"/>
	<path d="M636.1,536.2l2.7-3.7l0,1.4l-2.6-3.7h2.3l1.5,2.2l-1,0l1.5-2.2h2.2l-2.6,3.6v-1.4l2.7,3.8h-2.3l-1.5-2.3l0.9,0l-1.5,2.3
		H636.1z"/>
	<path d="M644.2,536.2v-4.4h-1.8v-1.6h5.6v1.6h-1.8v4.4H644.2z"/>
	<path d="M650.5,536.2l2.6-6h2l2.6,6h-2.1l-1.9-5.1h0.8l-1.9,5.1H650.5z M652,535.1l0.5-1.5h2.8l0.5,1.5H652z"/>
	<path d="M660.3,536.3c-0.5,0-1-0.1-1.5-0.2s-0.9-0.3-1.2-0.4l0.7-1.5c0.3,0.2,0.6,0.3,1,0.4c0.4,0.1,0.7,0.2,1,0.2
		c0.2,0,0.3,0,0.5,0c0.1,0,0.2-0.1,0.2-0.1c0.1,0,0.1-0.1,0.1-0.2c0-0.1-0.1-0.2-0.2-0.3c-0.1-0.1-0.3-0.1-0.5-0.2
		c-0.2,0-0.4-0.1-0.6-0.1c-0.2,0-0.5-0.1-0.7-0.2c-0.2-0.1-0.5-0.2-0.7-0.3c-0.2-0.1-0.4-0.3-0.5-0.5s-0.2-0.5-0.2-0.8
		c0-0.4,0.1-0.7,0.3-1c0.2-0.3,0.5-0.6,0.9-0.7c0.4-0.2,0.9-0.3,1.6-0.3c0.4,0,0.8,0,1.2,0.1s0.8,0.2,1.1,0.4l-0.6,1.5
		c-0.3-0.1-0.6-0.3-0.9-0.3c-0.3-0.1-0.5-0.1-0.8-0.1c-0.2,0-0.3,0-0.5,0.1c-0.1,0-0.2,0.1-0.2,0.1c0,0.1-0.1,0.1-0.1,0.2
		c0,0.1,0.1,0.2,0.2,0.2c0.1,0.1,0.3,0.1,0.5,0.2c0.2,0,0.4,0.1,0.7,0.1c0.2,0,0.5,0.1,0.7,0.2c0.2,0.1,0.5,0.2,0.6,0.3
		c0.2,0.1,0.4,0.3,0.5,0.5s0.2,0.5,0.2,0.8c0,0.4-0.1,0.7-0.3,1c-0.2,0.3-0.5,0.6-0.9,0.7S660.9,536.3,660.3,536.3z"/>
	<path d="M665.6,536.2l2.6-6h2l2.6,6h-2.1l-1.9-5.1h0.8l-1.9,5.1H665.6z M667.2,535.1l0.5-1.5h2.8l0.5,1.5H667.2z"/>
	<path d="M673.2,536.2v-6h1.7l3.1,3.7h-0.8v-3.7h2v6h-1.7l-3.1-3.7h0.8v3.7H673.2z"/>
	<path d="M684.7,534.6h3v1.5h-5v-6h4.9v1.5h-2.9V534.6z M684.5,532.4h2.7v1.5h-2.7V532.4z"/>
	<path d="M687.9,536.2l2.7-3.7l0,1.4l-2.6-3.7h2.3l1.5,2.2l-1,0l1.5-2.2h2.2l-2.6,3.6v-1.4l2.7,3.8h-2.3l-1.5-2.3l0.9,0l-1.5,2.3
		H687.9z"/>
	<path d="M694,536.2l2.6-6h2l2.6,6h-2.1l-1.9-5.1h0.8l-1.9,5.1H694z M695.5,535.1l0.5-1.5h2.8l0.5,1.5H695.5z"/>
	<path d="M701.5,536.2v-6h1.7l2.4,3.9h-0.9l2.3-3.9h1.7l0,6h-1.8l0-3.2h0.3l-1.6,2.7h-0.9l-1.7-2.7h0.4v3.2H701.5z"/>
	<path d="M709.7,536.2v-6h2.9c0.6,0,1,0.1,1.5,0.3c0.4,0.2,0.7,0.4,0.9,0.8s0.3,0.7,0.3,1.2c0,0.5-0.1,0.9-0.3,1.2
		c-0.2,0.3-0.5,0.6-0.9,0.8c-0.4,0.2-0.9,0.3-1.5,0.3h-1.8l0.9-0.9v2.3H709.7z M711.8,534l-0.9-0.9h1.6c0.3,0,0.5-0.1,0.6-0.2
		s0.2-0.3,0.2-0.5s-0.1-0.4-0.2-0.5s-0.3-0.2-0.6-0.2h-1.6l0.9-0.9V534z"/>
	<path d="M716,536.2v-6h2v4.4h2.7v1.6H716z"/>
	<path d="M723.3,534.6h3v1.5h-5v-6h4.9v1.5h-2.9V534.6z M723.2,532.4h2.7v1.5h-2.7V532.4z"/>
</g>
<g>
	<path d="M427.4,448.8v-4l0.7,1.8l-4.1-7h3.2l2.8,4.8h-1.9l2.8-4.8h3l-4.1,7l0.7-1.8v4H427.4z"/>
	<path d="M438.7,449c-0.7,0-1.4-0.1-2.1-0.4s-1.2-0.6-1.6-1c-0.5-0.4-0.8-0.9-1.1-1.5c-0.3-0.6-0.4-1.2-0.4-1.9
		c0-0.7,0.1-1.3,0.4-1.9c0.3-0.6,0.6-1.1,1.1-1.5c0.5-0.4,1-0.8,1.6-1s1.3-0.4,2.1-0.4c0.7,0,1.4,0.1,2.1,0.4c0.6,0.2,1.2,0.6,1.6,1
		c0.5,0.4,0.8,0.9,1.1,1.5c0.3,0.6,0.4,1.2,0.4,1.9c0,0.7-0.1,1.3-0.4,1.9c-0.3,0.6-0.6,1.1-1.1,1.5c-0.5,0.4-1,0.8-1.6,1
		C440.2,448.9,439.5,449,438.7,449z M438.7,446.5c0.3,0,0.6-0.1,0.8-0.2c0.2-0.1,0.5-0.3,0.7-0.4s0.3-0.4,0.4-0.7s0.2-0.6,0.2-1
		s-0.1-0.7-0.2-1s-0.2-0.5-0.4-0.7c-0.2-0.2-0.4-0.3-0.7-0.5c-0.2-0.1-0.5-0.2-0.8-0.2s-0.6,0.1-0.8,0.2c-0.2,0.1-0.5,0.3-0.7,0.5
		c-0.2,0.2-0.3,0.4-0.4,0.7c-0.1,0.3-0.2,0.6-0.2,1s0.1,0.7,0.2,1c0.1,0.3,0.2,0.5,0.4,0.7c0.2,0.2,0.4,0.3,0.7,0.4
		C438.2,446.4,438.5,446.5,438.7,446.5z"/>
	<path d="M449.4,449c-1.4,0-2.5-0.4-3.3-1.1s-1.2-1.8-1.2-3.2v-5h3.1v4.9c0,0.7,0.1,1.2,0.4,1.5c0.3,0.3,0.6,0.4,1,0.4
		c0.4,0,0.8-0.1,1-0.4c0.2-0.3,0.4-0.8,0.4-1.5v-4.9h3v5c0,1.4-0.4,2.4-1.2,3.2S450.8,449,449.4,449z"/>
	<path d="M463.9,449c-0.7,0-1.4-0.1-2-0.3s-1.2-0.6-1.6-1s-0.8-0.9-1.1-1.5s-0.4-1.2-0.4-1.9c0-0.7,0.1-1.3,0.4-1.9
		c0.3-0.6,0.6-1.1,1.1-1.5s1-0.8,1.6-1c0.6-0.2,1.3-0.3,2-0.3c0.9,0,1.7,0.2,2.4,0.5c0.7,0.3,1.3,0.8,1.7,1.4L466,443
		c-0.3-0.3-0.6-0.6-0.9-0.8c-0.3-0.2-0.7-0.3-1.1-0.3c-0.3,0-0.6,0.1-0.9,0.2s-0.5,0.3-0.7,0.5c-0.2,0.2-0.3,0.4-0.4,0.7
		c-0.1,0.3-0.2,0.6-0.2,0.9s0.1,0.7,0.2,0.9c0.1,0.3,0.2,0.5,0.4,0.7c0.2,0.2,0.4,0.4,0.7,0.5s0.6,0.2,0.9,0.2
		c0.4,0,0.8-0.1,1.1-0.3c0.3-0.2,0.6-0.4,0.9-0.8l1.9,1.7c-0.5,0.6-1,1-1.7,1.3C465.6,448.8,464.8,449,463.9,449z"/>
	<path d="M467.7,448.8l4-9.1h3l4,9.1h-3.2l-2.9-7.7h1.2l-2.9,7.7H467.7z M470.1,447.2l0.8-2.2h4.2l0.8,2.2H470.1z"/>
	<path d="M479.2,448.8v-9.1h2.5l4.6,5.6h-1.2v-5.6h3v9.1h-2.5l-4.6-5.6h1.2v5.6H479.2z"/>
	<path d="M497,449c-0.8,0-1.5-0.1-2.2-0.3c-0.7-0.2-1.3-0.4-1.8-0.7l1-2.2c0.4,0.3,0.9,0.5,1.5,0.6c0.5,0.2,1.1,0.2,1.6,0.2
		c0.3,0,0.5,0,0.7-0.1c0.2,0,0.3-0.1,0.4-0.2c0.1-0.1,0.1-0.2,0.1-0.3c0-0.2-0.1-0.3-0.3-0.4s-0.4-0.2-0.7-0.2
		c-0.3-0.1-0.6-0.1-1-0.2c-0.4-0.1-0.7-0.2-1.1-0.3c-0.4-0.1-0.7-0.3-1-0.5s-0.5-0.5-0.7-0.8c-0.2-0.3-0.3-0.7-0.3-1.2
		c0-0.6,0.2-1.1,0.5-1.5c0.3-0.5,0.8-0.8,1.4-1.1s1.4-0.4,2.4-0.4c0.6,0,1.2,0.1,1.8,0.2s1.1,0.3,1.6,0.6l-0.9,2.2
		c-0.5-0.2-0.9-0.4-1.3-0.5c-0.4-0.1-0.8-0.2-1.2-0.2c-0.3,0-0.5,0-0.7,0.1c-0.2,0.1-0.3,0.1-0.4,0.2c-0.1,0.1-0.1,0.2-0.1,0.3
		c0,0.2,0.1,0.3,0.3,0.4c0.2,0.1,0.4,0.2,0.7,0.2c0.3,0.1,0.6,0.1,1,0.2c0.4,0.1,0.7,0.2,1.1,0.3c0.4,0.1,0.7,0.3,1,0.5
		s0.5,0.5,0.7,0.8s0.3,0.7,0.3,1.2c0,0.6-0.2,1.1-0.5,1.5s-0.8,0.8-1.4,1.1S498,449,497,449z"/>
	<path d="M505.2,446.4h4.6v2.3h-7.6v-9.1h7.4v2.3h-4.4V446.4z M505,443h4.1v2.2H505V443z"/>
	<path d="M514,446.4h4.6v2.3h-7.6v-9.1h7.4v2.3H514V446.4z M513.8,443h4.1v2.2h-4.1V443z"/>
	<path d="M427.1,469.8v-6.7h-2.7v-2.4h8.4v2.4h-2.7v6.7H427.1z"/>
	<path d="M436.7,469.8h-3.1v-9.1h3.1V469.8z M439.8,466.5h-3.3V464h3.3V466.5z M439.5,460.7h3.1v9.1h-3.1V460.7z"/>
	<path d="M447.1,467.5h4.6v2.3h-7.6v-9.1h7.4v2.3h-4.4V467.5z M446.9,464.1h4.1v2.2h-4.1V464.1z"/>
	<path d="M458.8,469.8v-6.7h-2.7v-2.4h8.4v2.4h-2.7v6.7H458.8z"/>
	<path d="M468.3,467.5h4.6v2.3h-7.6v-9.1h7.4v2.3h-4.4V467.5z M468.1,464.1h4.1v2.2h-4.1V464.1z"/>
	<path d="M473.2,469.8l4.1-5.7l0,2.2l-3.9-5.6h3.5l2.3,3.4l-1.5,0l2.2-3.4h3.3l-3.9,5.5v-2.1l4.1,5.8h-3.5l-2.3-3.5l1.4,0l-2.2,3.6
		H473.2z"/>
	<path d="M485.5,469.8v-6.7h-2.7v-2.4h8.4v2.4h-2.7v6.7H485.5z"/>
	<path d="M496,469.8v-9.1h3.1v9.1H496z"/>
	<path d="M504,470.1c-0.8,0-1.5-0.1-2.2-0.3c-0.7-0.2-1.3-0.4-1.8-0.7l1-2.2c0.4,0.3,0.9,0.5,1.5,0.6c0.5,0.2,1.1,0.2,1.6,0.2
		c0.3,0,0.5,0,0.7-0.1c0.2,0,0.3-0.1,0.4-0.2c0.1-0.1,0.1-0.2,0.1-0.3c0-0.2-0.1-0.3-0.3-0.4s-0.4-0.2-0.7-0.2
		c-0.3-0.1-0.6-0.1-1-0.2c-0.4-0.1-0.7-0.2-1.1-0.3c-0.4-0.1-0.7-0.3-1-0.5s-0.5-0.5-0.7-0.8c-0.2-0.3-0.3-0.7-0.3-1.2
		c0-0.6,0.2-1.1,0.5-1.5c0.3-0.5,0.8-0.8,1.4-1.1s1.4-0.4,2.4-0.4c0.6,0,1.2,0.1,1.8,0.2s1.1,0.3,1.6,0.6l-0.9,2.2
		c-0.5-0.2-0.9-0.4-1.3-0.5c-0.4-0.1-0.8-0.2-1.2-0.2c-0.3,0-0.5,0-0.7,0.1c-0.2,0.1-0.3,0.1-0.4,0.2c-0.1,0.1-0.1,0.2-0.1,0.3
		c0,0.2,0.1,0.3,0.3,0.4c0.2,0.1,0.4,0.2,0.7,0.2c0.3,0.1,0.6,0.1,1,0.2c0.4,0.1,0.7,0.2,1.1,0.3c0.4,0.1,0.7,0.3,1,0.5
		s0.5,0.5,0.7,0.8s0.3,0.7,0.3,1.2c0,0.6-0.2,1.1-0.5,1.5s-0.8,0.8-1.4,1.1S504.9,470.1,504,470.1z"/>
	<path d="M513.3,469.8v-12.8h3.5l6.5,7.8h-1.6v-7.8h4.2v12.8h-3.5l-6.5-7.8h1.6v7.8H513.3z"/>
	<path d="M534.8,470.1c-1.1,0-2-0.2-2.9-0.5c-0.9-0.3-1.7-0.8-2.3-1.4s-1.2-1.3-1.5-2.2c-0.4-0.8-0.5-1.7-0.5-2.7
		c0-1,0.2-1.9,0.5-2.7c0.4-0.8,0.9-1.5,1.5-2.2s1.4-1.1,2.3-1.4c0.9-0.3,1.9-0.5,2.9-0.5c1.1,0,2,0.2,2.9,0.5
		c0.9,0.3,1.7,0.8,2.3,1.4c0.7,0.6,1.2,1.3,1.5,2.2c0.4,0.8,0.5,1.7,0.5,2.7c0,1-0.2,1.9-0.5,2.7s-0.9,1.5-1.5,2.2
		c-0.7,0.6-1.4,1.1-2.3,1.4C536.8,470,535.9,470.1,534.8,470.1z M534.8,466.6c0.4,0,0.8-0.1,1.1-0.2s0.7-0.4,0.9-0.6
		c0.3-0.3,0.5-0.6,0.6-1c0.1-0.4,0.2-0.9,0.2-1.4c0-0.5-0.1-1-0.2-1.4c-0.1-0.4-0.4-0.7-0.6-1c-0.3-0.3-0.6-0.5-0.9-0.6
		s-0.7-0.2-1.1-0.2s-0.8,0.1-1.1,0.2s-0.7,0.4-0.9,0.6c-0.3,0.3-0.5,0.6-0.6,1c-0.1,0.4-0.2,0.9-0.2,1.4c0,0.5,0.1,1,0.2,1.4
		c0.1,0.4,0.4,0.7,0.6,1c0.3,0.3,0.6,0.5,0.9,0.6S534.4,466.6,534.8,466.6z"/>
	<path d="M546.5,469.8v-9.5h-3.8v-3.4h11.9v3.4h-3.8v9.5H546.5z"/>
	<path d="M425.1,490.9v-9.1h2.5l3.6,6H430l3.5-6h2.5l0,9.1h-2.8l0-4.9h0.4l-2.4,4.1h-1.4l-2.5-4.1h0.5v4.9H425.1z"/>
	<path d="M436.5,490.9l4-9.1h3l4,9.1h-3.2l-2.9-7.7h1.2l-2.9,7.7H436.5z M438.9,489.3l0.8-2.2h4.2l0.8,2.2H438.9z"/>
	<path d="M448,490.9v-9.1h4.5c1,0,1.9,0.2,2.7,0.6c0.8,0.4,1.4,0.9,1.8,1.6s0.7,1.5,0.7,2.4c0,0.9-0.2,1.8-0.7,2.4
		c-0.4,0.7-1,1.2-1.8,1.6s-1.7,0.6-2.7,0.6H448z M451.1,488.5h1.3c0.4,0,0.8-0.1,1.1-0.2c0.3-0.2,0.6-0.4,0.8-0.7
		c0.2-0.3,0.3-0.7,0.3-1.2c0-0.5-0.1-0.9-0.3-1.2c-0.2-0.3-0.4-0.6-0.8-0.7c-0.3-0.2-0.7-0.2-1.1-0.2h-1.3V488.5z"/>
	<path d="M461.8,488.6h4.6v2.3h-7.6v-9.1h7.4v2.3h-4.4V488.6z M461.6,485.2h4.1v2.2h-4.1V485.2z"/>
	<path d="M476.3,491.1c-0.7,0-1.4-0.1-2.1-0.4s-1.2-0.6-1.6-1c-0.5-0.4-0.8-0.9-1.1-1.5c-0.3-0.6-0.4-1.2-0.4-1.9
		c0-0.7,0.1-1.3,0.4-1.9c0.3-0.6,0.6-1.1,1.1-1.5c0.5-0.4,1-0.8,1.6-1s1.3-0.4,2.1-0.4c0.7,0,1.4,0.1,2.1,0.4c0.6,0.2,1.2,0.6,1.6,1
		c0.5,0.4,0.8,0.9,1.1,1.5c0.3,0.6,0.4,1.2,0.4,1.9c0,0.7-0.1,1.3-0.4,1.9c-0.3,0.6-0.6,1.1-1.1,1.5c-0.5,0.4-1,0.8-1.6,1
		C477.7,491,477,491.1,476.3,491.1z M476.3,488.7c0.3,0,0.6-0.1,0.8-0.2c0.2-0.1,0.5-0.3,0.7-0.4s0.3-0.4,0.4-0.7s0.2-0.6,0.2-1
		s-0.1-0.7-0.2-1s-0.2-0.5-0.4-0.7c-0.2-0.2-0.4-0.3-0.7-0.5c-0.2-0.1-0.5-0.2-0.8-0.2s-0.6,0.1-0.8,0.2c-0.2,0.1-0.5,0.3-0.7,0.5
		c-0.2,0.2-0.3,0.4-0.4,0.7c-0.1,0.3-0.2,0.6-0.2,1s0.1,0.7,0.2,1c0.1,0.3,0.2,0.5,0.4,0.7c0.2,0.2,0.4,0.3,0.7,0.4
		C475.7,488.6,476,488.7,476.3,488.7z"/>
	<path d="M485.6,490.9h-3.1v-9.1h7.4v2.3h-4.3V490.9z M485.4,485.7h4v2.3h-4V485.7z"/>
	<path d="M494.8,490.9v-9.1h2.5l3.6,6h-1.3l3.5-6h2.5l0,9.1H503l0-4.9h0.4l-2.4,4.1h-1.4l-2.5-4.1h0.5v4.9H494.8z"/>
	<path d="M506.3,490.9l4-9.1h3l4,9.1h-3.2l-2.9-7.7h1.2l-2.9,7.7H506.3z M508.7,489.3l0.8-2.2h4.2l0.8,2.2H508.7z"/>
	<path d="M517.8,490.9v-9.1h2.5l4.6,5.6h-1.2v-5.6h3v9.1h-2.5l-4.6-5.6h1.2v5.6H517.8z"/>
	<path d="M530.6,490.9v-4l0.7,1.8l-4.1-7h3.2l2.8,4.8h-1.9l2.8-4.8h3l-4.1,7l0.7-1.8v4H530.6z"/>
	<path d="M427.1,512v-6.7h-2.7v-2.4h8.4v2.4h-2.7v6.7H427.1z"/>
	<path d="M433.6,512v-9.1h3.1v9.1H433.6z"/>
	<path d="M438.2,512v-9.1h2.5l4.6,5.6h-1.2v-5.6h3v9.1h-2.5l-4.6-5.6h1.2v5.6H438.2z"/>
	<path d="M451,512v-4l0.7,1.8l-4.1-7h3.2l2.8,4.8h-1.9l2.8-4.8h3l-4.1,7l0.7-1.8v4H451z"/>
	<path d="M461.8,512v-9.1h4.4c0.9,0,1.6,0.1,2.2,0.4c0.6,0.3,1.1,0.7,1.4,1.2c0.3,0.5,0.5,1.1,0.5,1.8s-0.2,1.3-0.5,1.8
		s-0.8,0.9-1.4,1.2s-1.4,0.4-2.2,0.4h-2.7l1.4-1.3v3.6H461.8z M464.9,508.8l-1.4-1.4h2.5c0.4,0,0.7-0.1,0.9-0.3
		c0.2-0.2,0.3-0.5,0.3-0.8s-0.1-0.6-0.3-0.8s-0.5-0.3-0.9-0.3h-2.5l1.4-1.4V508.8z"/>
	<path d="M471.4,512v-9.1h3.1v9.1H471.4z"/>
	<path d="M475.1,512l4.1-5.7l0,2.2l-3.9-5.6h3.5l2.3,3.4l-1.5,0l2.2-3.4h3.3l-3.9,5.5v-2.1l4.1,5.8h-3.5l-2.3-3.5l1.4,0l-2.2,3.6
		H475.1z"/>
	<path d="M488.6,509.7h4.6v2.3h-7.6v-9.1h7.4v2.3h-4.4V509.7z M488.4,506.3h4.1v2.2h-4.1V506.3z"/>
	<path d="M494.4,512v-9.1h3.1v6.7h4.1v2.4H494.4z"/>
	<path d="M505.8,512.2c-0.8,0-1.5-0.1-2.2-0.3c-0.7-0.2-1.3-0.4-1.8-0.7l1-2.2c0.4,0.3,0.9,0.5,1.5,0.6c0.5,0.2,1.1,0.2,1.6,0.2
		c0.3,0,0.5,0,0.7-0.1c0.2,0,0.3-0.1,0.4-0.2c0.1-0.1,0.1-0.2,0.1-0.3c0-0.2-0.1-0.3-0.3-0.4s-0.4-0.2-0.7-0.2
		c-0.3-0.1-0.6-0.1-1-0.2c-0.4-0.1-0.7-0.2-1.1-0.3c-0.4-0.1-0.7-0.3-1-0.5s-0.5-0.5-0.7-0.8c-0.2-0.3-0.3-0.7-0.3-1.2
		c0-0.6,0.2-1.1,0.5-1.5c0.3-0.5,0.8-0.8,1.4-1.1s1.4-0.4,2.4-0.4c0.6,0,1.2,0.1,1.8,0.2s1.1,0.3,1.6,0.6l-0.9,2.2
		c-0.5-0.2-0.9-0.4-1.3-0.5c-0.4-0.1-0.8-0.2-1.2-0.2c-0.3,0-0.5,0-0.7,0.1c-0.2,0.1-0.3,0.1-0.4,0.2c-0.1,0.1-0.1,0.2-0.1,0.3
		c0,0.2,0.1,0.3,0.3,0.4c0.2,0.1,0.4,0.2,0.7,0.2c0.3,0.1,0.6,0.1,1,0.2c0.4,0.1,0.7,0.2,1.1,0.3c0.4,0.1,0.7,0.3,1,0.5
		s0.5,0.5,0.7,0.8s0.3,0.7,0.3,1.2c0,0.6-0.2,1.1-0.5,1.5s-0.8,0.8-1.4,1.1S506.8,512.2,505.8,512.2z"/>
</g>
<g>
	<path d="M46.9,452.8v-4l0.7,1.8l-4.1-7h3.2l2.8,4.8h-1.9l2.8-4.8h3l-4.1,7l0.7-1.8v4H46.9z"/>
	<path d="M58.2,453c-0.7,0-1.4-0.1-2.1-0.4s-1.2-0.6-1.6-1c-0.5-0.4-0.8-0.9-1.1-1.5c-0.3-0.6-0.4-1.2-0.4-1.9
		c0-0.7,0.1-1.3,0.4-1.9c0.3-0.6,0.6-1.1,1.1-1.5c0.5-0.4,1-0.8,1.6-1s1.3-0.4,2.1-0.4c0.7,0,1.4,0.1,2.1,0.4c0.6,0.2,1.2,0.6,1.6,1
		c0.5,0.4,0.8,0.9,1.1,1.5c0.3,0.6,0.4,1.2,0.4,1.9c0,0.7-0.1,1.3-0.4,1.9c-0.3,0.6-0.6,1.1-1.1,1.5c-0.5,0.4-1,0.8-1.6,1
		C59.6,452.9,58.9,453,58.2,453z M58.2,450.5c0.3,0,0.6-0.1,0.8-0.2c0.2-0.1,0.5-0.3,0.7-0.4s0.3-0.4,0.4-0.7s0.2-0.6,0.2-1
		s-0.1-0.7-0.2-1s-0.2-0.5-0.4-0.7c-0.2-0.2-0.4-0.3-0.7-0.5c-0.2-0.1-0.5-0.2-0.8-0.2s-0.6,0.1-0.8,0.2c-0.2,0.1-0.5,0.3-0.7,0.5
		c-0.2,0.2-0.3,0.4-0.4,0.7c-0.1,0.3-0.2,0.6-0.2,1s0.1,0.7,0.2,1c0.1,0.3,0.2,0.5,0.4,0.7c0.2,0.2,0.4,0.3,0.7,0.4
		C57.6,450.4,57.9,450.5,58.2,450.5z"/>
	<path d="M68.8,453c-1.4,0-2.5-0.4-3.3-1.1s-1.2-1.8-1.2-3.2v-5h3.1v4.9c0,0.7,0.1,1.2,0.4,1.5c0.3,0.3,0.6,0.4,1,0.4
		c0.4,0,0.8-0.1,1-0.4c0.2-0.3,0.4-0.8,0.4-1.5v-4.9h3v5c0,1.4-0.4,2.4-1.2,3.2S70.2,453,68.8,453z"/>
	<path d="M83.3,453c-0.7,0-1.4-0.1-2-0.3s-1.2-0.6-1.6-1s-0.8-0.9-1.1-1.5s-0.4-1.2-0.4-1.9c0-0.7,0.1-1.3,0.4-1.9
		c0.3-0.6,0.6-1.1,1.1-1.5s1-0.8,1.6-1c0.6-0.2,1.3-0.3,2-0.3c0.9,0,1.7,0.2,2.4,0.5c0.7,0.3,1.3,0.8,1.7,1.4l-1.9,1.7
		c-0.3-0.3-0.6-0.6-0.9-0.8c-0.3-0.2-0.7-0.3-1.1-0.3c-0.3,0-0.6,0.1-0.9,0.2s-0.5,0.3-0.7,0.5c-0.2,0.2-0.3,0.4-0.4,0.7
		c-0.1,0.3-0.2,0.6-0.2,0.9s0.1,0.7,0.2,0.9c0.1,0.3,0.2,0.5,0.4,0.7c0.2,0.2,0.4,0.4,0.7,0.5s0.6,0.2,0.9,0.2
		c0.4,0,0.8-0.1,1.1-0.3c0.3-0.2,0.6-0.4,0.9-0.8l1.9,1.7c-0.5,0.6-1,1-1.7,1.3C85,452.8,84.2,453,83.3,453z"/>
	<path d="M87.1,452.8l4-9.1h3l4,9.1H95l-2.9-7.7h1.2l-2.9,7.7H87.1z M89.5,451.2l0.8-2.2h4.2l0.8,2.2H89.5z"/>
	<path d="M98.6,452.8v-9.1h2.5l4.6,5.6h-1.2v-5.6h3v9.1h-2.5l-4.6-5.6h1.2v5.6H98.6z"/>
	<path d="M116.4,453c-0.8,0-1.5-0.1-2.2-0.3c-0.7-0.2-1.3-0.4-1.8-0.7l1-2.2c0.4,0.3,0.9,0.5,1.5,0.6c0.5,0.2,1.1,0.2,1.6,0.2
		c0.3,0,0.5,0,0.7-0.1c0.2,0,0.3-0.1,0.4-0.2c0.1-0.1,0.1-0.2,0.1-0.3c0-0.2-0.1-0.3-0.3-0.4s-0.4-0.2-0.7-0.2
		c-0.3-0.1-0.6-0.1-1-0.2c-0.4-0.1-0.7-0.2-1.1-0.3c-0.4-0.1-0.7-0.3-1-0.5s-0.5-0.5-0.7-0.8c-0.2-0.3-0.3-0.7-0.3-1.2
		c0-0.6,0.2-1.1,0.5-1.5c0.3-0.5,0.8-0.8,1.4-1.1s1.4-0.4,2.4-0.4c0.6,0,1.2,0.1,1.8,0.2s1.1,0.3,1.6,0.6l-0.9,2.2
		c-0.5-0.2-0.9-0.4-1.3-0.5c-0.4-0.1-0.8-0.2-1.2-0.2c-0.3,0-0.5,0-0.7,0.1c-0.2,0.1-0.3,0.1-0.4,0.2c-0.1,0.1-0.1,0.2-0.1,0.3
		c0,0.2,0.1,0.3,0.3,0.4c0.2,0.1,0.4,0.2,0.7,0.2c0.3,0.1,0.6,0.1,1,0.2c0.4,0.1,0.7,0.2,1.1,0.3c0.4,0.1,0.7,0.3,1,0.5
		s0.5,0.5,0.7,0.8s0.3,0.7,0.3,1.2c0,0.6-0.2,1.1-0.5,1.5s-0.8,0.8-1.4,1.1S117.4,453,116.4,453z"/>
	<path d="M124.6,450.4h4.6v2.3h-7.6v-9.1h7.4v2.3h-4.4V450.4z M124.4,447h4.1v2.2h-4.1V447z"/>
	<path d="M133.4,450.4h4.6v2.3h-7.6v-9.1h7.4v2.3h-4.4V450.4z M133.2,447h4.1v2.2h-4.1V447z"/>
	<path d="M46.5,473.8v-6.7h-2.7v-2.4h8.4v2.4h-2.7v6.7H46.5z"/>
	<path d="M56.1,473.8h-3.1v-9.1h3.1V473.8z M59.2,470.5h-3.3V468h3.3V470.5z M59,464.7H62v9.1H59V464.7z"/>
	<path d="M66.6,471.5h4.6v2.3h-7.6v-9.1h7.4v2.3h-4.4V471.5z M66.3,468.1h4.1v2.2h-4.1V468.1z"/>
	<path d="M78.2,473.8v-6.7h-2.7v-2.4h8.4v2.4h-2.7v6.7H78.2z"/>
	<path d="M87.8,471.5h4.6v2.3h-7.6v-9.1h7.4v2.3h-4.4V471.5z M87.6,468.1h4.1v2.2h-4.1V468.1z"/>
	<path d="M92.6,473.8l4.1-5.7l0,2.2l-3.9-5.6h3.5l2.3,3.4l-1.5,0l2.2-3.4h3.3l-3.9,5.5v-2.1l4.1,5.8h-3.5l-2.3-3.5l1.4,0l-2.2,3.6
		H92.6z"/>
	<path d="M105,473.8v-6.7h-2.7v-2.4h8.4v2.4H108v6.7H105z"/>
	<path d="M115.4,473.8v-9.1h3.1v9.1H115.4z"/>
	<path d="M123.4,474.1c-0.8,0-1.5-0.1-2.2-0.3c-0.7-0.2-1.3-0.4-1.8-0.7l1-2.2c0.4,0.3,0.9,0.5,1.5,0.6c0.5,0.2,1.1,0.2,1.6,0.2
		c0.3,0,0.5,0,0.7-0.1c0.2,0,0.3-0.1,0.4-0.2c0.1-0.1,0.1-0.2,0.1-0.3c0-0.2-0.1-0.3-0.3-0.4s-0.4-0.2-0.7-0.2
		c-0.3-0.1-0.6-0.1-1-0.2c-0.4-0.1-0.7-0.2-1.1-0.3c-0.4-0.1-0.7-0.3-1-0.5s-0.5-0.5-0.7-0.8c-0.2-0.3-0.3-0.7-0.3-1.2
		c0-0.6,0.2-1.1,0.5-1.5c0.3-0.5,0.8-0.8,1.4-1.1s1.4-0.4,2.4-0.4c0.6,0,1.2,0.1,1.8,0.2s1.1,0.3,1.6,0.6l-0.9,2.2
		c-0.5-0.2-0.9-0.4-1.3-0.5c-0.4-0.1-0.8-0.2-1.2-0.2c-0.3,0-0.5,0-0.7,0.1c-0.2,0.1-0.3,0.1-0.4,0.2c-0.1,0.1-0.1,0.2-0.1,0.3
		c0,0.2,0.1,0.3,0.3,0.4c0.2,0.1,0.4,0.2,0.7,0.2c0.3,0.1,0.6,0.1,1,0.2c0.4,0.1,0.7,0.2,1.1,0.3c0.4,0.1,0.7,0.3,1,0.5
		s0.5,0.5,0.7,0.8s0.3,0.7,0.3,1.2c0,0.6-0.2,1.1-0.5,1.5s-0.8,0.8-1.4,1.1S124.3,474.1,123.4,474.1z"/>
	<path d="M44.5,494.9v-9.1h2.5l3.6,6h-1.3l3.5-6h2.5l0,9.1h-2.8l0-4.9h0.4l-2.4,4.1h-1.4l-2.5-4.1h0.5v4.9H44.5z"/>
	<path d="M56,494.9l4-9.1h3l4,9.1h-3.2l-2.9-7.7H62l-2.9,7.7H56z M58.3,493.3l0.8-2.2h4.2l0.8,2.2H58.3z"/>
	<path d="M67.5,494.9v-9.1H72c1,0,1.9,0.2,2.7,0.6c0.8,0.4,1.4,0.9,1.8,1.6s0.7,1.5,0.7,2.4c0,0.9-0.2,1.8-0.7,2.4
		c-0.4,0.7-1,1.2-1.8,1.6s-1.7,0.6-2.7,0.6H67.5z M70.5,492.5h1.3c0.4,0,0.8-0.1,1.1-0.2c0.3-0.2,0.6-0.4,0.8-0.7
		c0.2-0.3,0.3-0.7,0.3-1.2c0-0.5-0.1-0.9-0.3-1.2c-0.2-0.3-0.4-0.6-0.8-0.7c-0.3-0.2-0.7-0.2-1.1-0.2h-1.3V492.5z"/>
	<path d="M81.3,492.6h4.6v2.3h-7.6v-9.1h7.4v2.3h-4.4V492.6z M81,489.2h4.1v2.2H81V489.2z"/>
	<path d="M95.7,495.1c-0.7,0-1.4-0.1-2.1-0.4s-1.2-0.6-1.6-1c-0.5-0.4-0.8-0.9-1.1-1.5c-0.3-0.6-0.4-1.2-0.4-1.9
		c0-0.7,0.1-1.3,0.4-1.9c0.3-0.6,0.6-1.1,1.1-1.5c0.5-0.4,1-0.8,1.6-1s1.3-0.4,2.1-0.4c0.7,0,1.4,0.1,2.1,0.4c0.6,0.2,1.2,0.6,1.6,1
		c0.5,0.4,0.8,0.9,1.1,1.5c0.3,0.6,0.4,1.2,0.4,1.9c0,0.7-0.1,1.3-0.4,1.9c-0.3,0.6-0.6,1.1-1.1,1.5c-0.5,0.4-1,0.8-1.6,1
		C97.1,495,96.4,495.1,95.7,495.1z M95.7,492.7c0.3,0,0.6-0.1,0.8-0.2c0.2-0.1,0.5-0.3,0.7-0.4s0.3-0.4,0.4-0.7s0.2-0.6,0.2-1
		s-0.1-0.7-0.2-1s-0.2-0.5-0.4-0.7c-0.2-0.2-0.4-0.3-0.7-0.5c-0.2-0.1-0.5-0.2-0.8-0.2s-0.6,0.1-0.8,0.2c-0.2,0.1-0.5,0.3-0.7,0.5
		c-0.2,0.2-0.3,0.4-0.4,0.7c-0.1,0.3-0.2,0.6-0.2,1s0.1,0.7,0.2,1c0.1,0.3,0.2,0.5,0.4,0.7c0.2,0.2,0.4,0.3,0.7,0.4
		C95.1,492.6,95.4,492.7,95.7,492.7z"/>
	<path d="M105,494.9H102v-9.1h7.4v2.3H105V494.9z M104.8,489.7h4v2.3h-4V489.7z"/>
	<path d="M114.3,494.9v-9.1h2.5l3.6,6h-1.3l3.5-6h2.5l0,9.1h-2.8l0-4.9h0.4l-2.4,4.1h-1.4l-2.5-4.1h0.5v4.9H114.3z"/>
	<path d="M125.7,494.9l4-9.1h3l4,9.1h-3.2l-2.9-7.7h1.2l-2.9,7.7H125.7z M128.1,493.3l0.8-2.2h4.2l0.8,2.2H128.1z"/>
	<path d="M137.2,494.9v-9.1h2.5l4.6,5.6h-1.2v-5.6h3v9.1h-2.5l-4.6-5.6h1.2v5.6H137.2z"/>
	<path d="M150,494.9v-4l0.7,1.8l-4.1-7h3.2l2.8,4.8h-1.9l2.8-4.8h3l-4.1,7l0.7-1.8v4H150z"/>
	<path d="M46.5,516v-6.7h-2.7v-2.4h8.4v2.4h-2.7v6.7H46.5z"/>
	<path d="M53.1,516v-9.1h3.1v9.1H53.1z"/>
	<path d="M57.6,516v-9.1h2.5l4.6,5.6h-1.2v-5.6h3v9.1h-2.5l-4.6-5.6h1.2v5.6H57.6z"/>
	<path d="M70.4,516v-4l0.7,1.8l-4.1-7h3.2l2.8,4.8h-1.9l2.8-4.8h3l-4.1,7l0.7-1.8v4H70.4z"/>
	<path d="M81.3,516v-9.1h4.4c0.9,0,1.6,0.1,2.2,0.4c0.6,0.3,1.1,0.7,1.4,1.2c0.3,0.5,0.5,1.1,0.5,1.8s-0.2,1.3-0.5,1.8
		s-0.8,0.9-1.4,1.2s-1.4,0.4-2.2,0.4H83l1.4-1.3v3.6H81.3z M84.3,512.8l-1.4-1.4h2.5c0.4,0,0.7-0.1,0.9-0.3c0.2-0.2,0.3-0.5,0.3-0.8
		s-0.1-0.6-0.3-0.8s-0.5-0.3-0.9-0.3H83l1.4-1.4V512.8z"/>
	<path d="M90.8,516v-9.1h3.1v9.1H90.8z"/>
	<path d="M94.5,516l4.1-5.7l0,2.2l-3.9-5.6h3.5l2.3,3.4l-1.5,0l2.2-3.4h3.3l-3.9,5.5v-2.1l4.1,5.8h-3.5l-2.3-3.5l1.4,0L98,516H94.5z
		"/>
	<path d="M108.1,513.7h4.6v2.3H105v-9.1h7.4v2.3h-4.4V513.7z M107.9,510.3h4.1v2.2h-4.1V510.3z"/>
	<path d="M113.8,516v-9.1h3.1v6.7h4.1v2.4H113.8z"/>
	<path d="M125.3,516.2c-0.8,0-1.5-0.1-2.2-0.3c-0.7-0.2-1.3-0.4-1.8-0.7l1-2.2c0.4,0.3,0.9,0.5,1.5,0.6c0.5,0.2,1.1,0.2,1.6,0.2
		c0.3,0,0.5,0,0.7-0.1c0.2,0,0.3-0.1,0.4-0.2c0.1-0.1,0.1-0.2,0.1-0.3c0-0.2-0.1-0.3-0.3-0.4s-0.4-0.2-0.7-0.2
		c-0.3-0.1-0.6-0.1-1-0.2c-0.4-0.1-0.7-0.2-1.1-0.3c-0.4-0.1-0.7-0.3-1-0.5s-0.5-0.5-0.7-0.8c-0.2-0.3-0.3-0.7-0.3-1.2
		c0-0.6,0.2-1.1,0.5-1.5c0.3-0.5,0.8-0.8,1.4-1.1s1.4-0.4,2.4-0.4c0.6,0,1.2,0.1,1.8,0.2s1.1,0.3,1.6,0.6l-0.9,2.2
		c-0.5-0.2-0.9-0.4-1.3-0.5c-0.4-0.1-0.8-0.2-1.2-0.2c-0.3,0-0.5,0-0.7,0.1c-0.2,0.1-0.3,0.1-0.4,0.2c-0.1,0.1-0.1,0.2-0.1,0.3
		c0,0.2,0.1,0.3,0.3,0.4c0.2,0.1,0.4,0.2,0.7,0.2c0.3,0.1,0.6,0.1,1,0.2c0.4,0.1,0.7,0.2,1.1,0.3c0.4,0.1,0.7,0.3,1,0.5
		s0.5,0.5,0.7,0.8s0.3,0.7,0.3,1.2c0,0.6-0.2,1.1-0.5,1.5s-0.8,0.8-1.4,1.1S126.2,516.2,125.3,516.2z"/>
</g>
<g>
	<path d="M236,572.7v20.7h8.3v5.8h-15.2v-26.5H236z"/>
	<path d="M262.9,578.6h-8.2v4.4h7.7v5.8h-7.7v4.6h8.2v5.8h-15.1v-26.5h15.1V578.6z"/>
	<path d="M277.9,578.6v20.7H271v-20.7h-5.7v-5.8h18.2v5.8H277.9z"/>
	<path d="M301.3,579.5c-0.8-0.6-1.5-1.1-2.3-1.4c-0.8-0.3-1.5-0.4-2.2-0.4c-0.9,0-1.6,0.2-2.2,0.6c-0.6,0.4-0.8,1-0.8,1.7
		c0,0.5,0.1,0.9,0.4,1.2c0.3,0.3,0.7,0.6,1.1,0.8c0.5,0.2,1,0.4,1.5,0.6c0.6,0.2,1.1,0.3,1.7,0.5c2.3,0.8,3.9,1.8,4.9,3
		c1,1.3,1.6,2.9,1.6,4.9c0,1.4-0.2,2.6-0.7,3.7c-0.5,1.1-1.1,2-2,2.8c-0.9,0.8-2,1.4-3.2,1.8c-1.3,0.4-2.7,0.7-4.3,0.7
		c-3.4,0-6.5-1-9.3-3l3-5.6c1,0.9,2.1,1.6,3.1,2c1,0.4,2,0.7,3,0.7c1.1,0,2-0.3,2.5-0.8c0.6-0.5,0.8-1.1,0.8-1.8
		c0-0.4-0.1-0.7-0.2-1c-0.1-0.3-0.4-0.6-0.7-0.8c-0.3-0.2-0.8-0.5-1.3-0.7c-0.5-0.2-1.2-0.4-1.9-0.7c-0.9-0.3-1.8-0.6-2.6-0.9
		c-0.9-0.3-1.6-0.8-2.3-1.4c-0.7-0.6-1.2-1.3-1.6-2.1c-0.4-0.9-0.6-1.9-0.6-3.3c0-1.3,0.2-2.5,0.7-3.6c0.4-1.1,1-2,1.8-2.7
		c0.8-0.8,1.7-1.4,2.9-1.8c1.1-0.4,2.4-0.6,3.8-0.6c1.3,0,2.7,0.2,4.1,0.5c1.4,0.4,2.8,0.9,4.1,1.6L301.3,579.5z"/>
	<path d="M328.3,572.7v20.7h8.3v5.8h-15.2v-26.5H328.3z"/>
	<path d="M355.3,578.6h-8.2v4.4h7.7v5.8h-7.7v4.6h8.2v5.8h-15.1v-26.5h15.1V578.6z"/>
	<path d="M376.5,594.6h-9.9l-1.6,4.6h-7.4l10.1-26.5h7.5l10.1,26.5h-7.4L376.5,594.6z M374.7,589.4l-3.1-8.8l-3.1,8.8H374.7z"/>
	<path d="M410.5,599.3h-8.6l-6.6-10.2v10.2h-6.9v-26.5h10.7c1.5,0,2.8,0.2,3.9,0.7c1.1,0.4,2,1,2.7,1.8c0.7,0.8,1.3,1.6,1.6,2.6
		c0.4,1,0.5,2,0.5,3.2c0,2-0.5,3.7-1.5,4.9c-1,1.3-2.4,2.1-4.3,2.6L410.5,599.3z M395.4,584.6h1.3c1.4,0,2.4-0.3,3.1-0.8
		c0.7-0.6,1.1-1.4,1.1-2.4s-0.4-1.9-1.1-2.4c-0.7-0.6-1.8-0.8-3.1-0.8h-1.3V584.6z"/>
	<path d="M413.4,599.3v-26.5h6.9l12.7,16.2v-16.2h6.9v26.5h-6.9L420.3,583v16.2H413.4z"/>
	<path d="M456.3,599.3l4.5-26.5h6.8l5.3,14.2l5.3-14.2h6.8l4.5,26.5h-6.9l-2.3-15.3l-6.3,15.3h-2.7l-6-15.3l-2.3,15.3H456.3z"/>
	<path d="M492.7,586c0-2,0.4-3.8,1.1-5.5c0.7-1.7,1.7-3.2,3-4.5c1.3-1.3,2.8-2.3,4.6-3c1.8-0.7,3.8-1.1,5.9-1.1
		c2.1,0,4.1,0.4,5.9,1.1c1.8,0.7,3.4,1.7,4.7,3c1.3,1.3,2.3,2.8,3,4.5c0.7,1.7,1.1,3.5,1.1,5.5s-0.4,3.8-1.1,5.5
		c-0.7,1.7-1.7,3.2-3,4.5c-1.3,1.3-2.9,2.3-4.7,3c-1.8,0.7-3.8,1.1-5.9,1.1c-2.2,0-4.1-0.4-5.9-1.1c-1.8-0.7-3.3-1.7-4.6-3
		c-1.3-1.3-2.3-2.8-3-4.5C493.1,589.8,492.7,588,492.7,586z M499.9,586c0,1.1,0.2,2,0.6,2.9c0.4,0.9,0.9,1.7,1.6,2.3
		c0.7,0.7,1.5,1.2,2.4,1.5c0.9,0.4,1.9,0.5,2.9,0.5s2-0.2,2.9-0.5c0.9-0.4,1.7-0.9,2.4-1.5c0.7-0.7,1.2-1.4,1.6-2.3
		c0.4-0.9,0.6-1.9,0.6-2.9s-0.2-2-0.6-2.9c-0.4-0.9-0.9-1.7-1.6-2.3c-0.7-0.7-1.5-1.2-2.4-1.5c-0.9-0.4-1.9-0.5-2.9-0.5
		s-2,0.2-2.9,0.5s-1.7,0.9-2.4,1.5c-0.7,0.7-1.2,1.4-1.6,2.3C500.1,584,499.9,584.9,499.9,586z"/>
	<path d="M548.6,599.3H540l-6.6-10.2v10.2h-6.9v-26.5h10.7c1.5,0,2.8,0.2,3.9,0.7c1.1,0.4,2,1,2.7,1.8c0.7,0.8,1.3,1.6,1.6,2.6
		c0.4,1,0.5,2,0.5,3.2c0,2-0.5,3.7-1.5,4.9c-1,1.3-2.4,2.1-4.3,2.6L548.6,599.3z M533.4,584.6h1.3c1.4,0,2.4-0.3,3.1-0.8
		c0.7-0.6,1.1-1.4,1.1-2.4s-0.4-1.9-1.1-2.4c-0.7-0.6-1.8-0.8-3.1-0.8h-1.3V584.6z"/>
	<path d="M566.5,578.6h-8.2v4.4h7.7v5.8h-7.7v4.6h8.2v5.8h-15.1v-26.5h15.1V578.6z"/>
	<path d="M571.4,595.9c0-0.6,0.1-1.1,0.3-1.6c0.2-0.5,0.5-0.9,0.9-1.3c0.4-0.4,0.8-0.7,1.3-0.9c0.5-0.2,1-0.3,1.6-0.3
		s1.1,0.1,1.6,0.3c0.5,0.2,0.9,0.5,1.3,0.9c0.4,0.4,0.7,0.8,0.9,1.3c0.2,0.5,0.3,1,0.3,1.6c0,0.6-0.1,1.1-0.3,1.6
		c-0.2,0.5-0.5,0.9-0.9,1.3c-0.4,0.4-0.8,0.7-1.3,0.9c-0.5,0.2-1,0.3-1.6,0.3s-1.1-0.1-1.6-0.3c-0.5-0.2-0.9-0.5-1.3-0.9
		c-0.4-0.4-0.7-0.8-0.9-1.3C571.5,597,571.4,596.4,571.4,595.9z M572.2,590.2v-17.5h6.6v17.5H572.2z"/>
</g>
</svg>
