<?xml version="1.0" encoding="UTF-8"?><svg id="Layer_1" xmlns="http://www.w3.org/2000/svg" viewBox="0 0 1925 1080"><defs><style>.cls-1{letter-spacing:-.02em;}.cls-2{fill:#fff;}.cls-3{letter-spacing:-.07em;}.cls-4{letter-spacing:.04em;}.cls-5{letter-spacing:0em;}.cls-6{letter-spacing:.02em;}.cls-7{letter-spacing:0em;}.cls-8{letter-spacing:0em;}.cls-9{letter-spacing:0em;}.cls-10{font-family:Futura-Medium, Futura;font-size:28px;font-weight:500;}.cls-11{fill:none;stroke:#000;stroke-miterlimit:10;stroke-width:1.98px;}</style></defs><rect class="cls-2" width="1925" height="1080"/><circle class="cls-11" cx="263.72" cy="898.67" r="40.07"/><path d="m244.89,863.41s1.24,1.16,2.32,2.09,1.24,1.7,1.78,1.7,1.24.08,2.09.93c.85.85.54.31.54-.62s0-1.39.08-1.94,1.71.31,1.94.54,1.71.08,1.71.62-1.09.77-1.09,1.24c0,.54,0,0,1.24-.08s.39-.77,1.24-.62c.85.08,1.63.77,2.32,1.63.77.85.31,1.39,0,2.09-.31.77-2.64-.31-3.95-.39s-.54,1.78-.23,2.87,1.71.85,2.79.85.77,1.47,1.39,2.25.93-.23,1.09-.85c.08-.62-.08-1.7-.23-2.56-.08-.85-.54-1.39.62-2.32s2.4.85,3.41.85c.93,0,.62-.85,1.24-.54.62.31.54,1.08.93,1.7s1.78.93,2.87,1.63.93,1.08,1.71,1.16,1.63,1.94,1.09,1.94-2.25.31-2.56,0,0-1.63-.62-2.25c-.62-.62-1.24.54-1.94,1.16-.62.62-.39,1.78.31,2.25.77.39,2.01-.85,1.63-.31s-1.24,1.7-1.71,1.94c-.39.23-1.63.08-2.32.39-.77.31,0,1.24,0,1.78s-.93.08-1.47.08-3.64,5.11-3.95,6.04c-.31.93.77,4.34.54,4.57s-2.25-1.7-2.32-2.25-1.78-1.47-2.87-1.47-.54,1.16-.93,1.39-.77-.39-2.01-.62-2.32,1.7-2.64,2.4c-.31.77.62,3.18.62,4.11s2.25.62,2.94.39c.77-.23.39-.77.62-1.47.23-.77,1.71-.62,2.09-.08s-.39,3.18.08,3.41c.54.23,1.71-.39,2.25.31s.62,3.41,1.16,3.72c.54.31,2.87.08,3.8.08s2.25-1.78,2.79-2.32,4.11.54,4.96.54,1.71-.93,2.64-.93.39,1.47,1.39,2.01c.93.54,2.25.93,3.72.93s1.09.85,2.09,1.24c1.09.39.77,1.16,1.09,1.78s2.01.62,2.64.62,1.39.31,2.32.31,2.4.08,3.41.39c.93.31,0,1.24,0,2.32s-1.94,2.79-2.4,3.41c-.54.62.08,1.39,0,2.4-.08,1.08-.77,2.63-1.71,3.25s-3.18,2.25-3.95,2.94c-.77.77-2.79,4.26-3.1,4.65s-1.63.62-2.4.62c-.85,0-.54.62-.62,1.63s-2.09,1.08-2.56,1.39c-.39.31-1.94.85-2.01,1.47s0,1.94-.31,2.09c-.31.23-1.16,0-1.16.39s.77.62,1.47.77c.77.08-.23.62-.39.77-.23.08-2.64-.39-3.41-.77-.77-.31-.39-3.25-.54-4.11-.08-.85.93-2.25,1.39-3.18.39-.93.39-5.27,0-7.28-1.94,0-7.13-6.43-7.52-6.97s-.54-.93-.08-1.24.08-2.32.08-3.1,1.63-.93,1.63-1.63,0-2.94-.54-3.41c-.54-.39-1.16.62-2.25.77-1.09.08-2.01-1.24-2.4-1.47-.39-.23-1.47-1.7-1.94-2.32-.39-.62-1.63,0-2.09,0-.54,0-.39-.93-1.16-1.16s-5.42-1.7-5.81-1.7-1.47-1.08-1.47-2.09c0-1.08-.39-2.56-.62-3.1s-1.63-1.78-1.63-1.39.39,1.7.62,2.09.93,1.39,0,1.16-1.94-3.8-1.94-3.8l-.62-3.72-.85-1.7-.08-4.65,2.94-3.95v-3.49l.62-4.26-3.95-2.01,6.12-3.95h0Z"/><path d="m255.04,864.96c1.16.08,3.41,1.08,3.95,1.08s-.08.62-.85.85-.31.54.54.85c.85.31,1.24-.93,1.94,0,.62.93-.08,1.39,0,2.25s3.95,3.18,3.49,1.7c-.39-1.47.77-.85.62-1.39-.08-.54.62-1.94,0-2.09-.62-.23-1.16-.93-1.94-1.08-.77-.08-2.32-.23-2.32-.85s.62-1.7,1.16-1.39,2.25.93,3.1,1.16,3.25,4.11,4.11,4.11,1.47-.08,2.01-1.16c.54-1.08,1.09-2.87,1.16-3.1s-.23-2.01-1.24-2.01-6.82-2.25-8.06-1.7c-1.24.54-2.79,1.39-3.95,1.94-1.16.54-3.72.85-3.72.85h0Z"/><path d="m272.09,860.15c.39.08,3.1,3.72,3.1,3.72,0,0,3.18,2.32,3.72,2.4s1.94,0,2.09,0,2.25.39,2.25.93,2.4,1.78,2.32,2.4.77,2.94,1.09,2.94,1.47.62,1.39,1.7.08,2.94.62,2.94,2.25,0,2.32.31,1.39,2.25,1.24,3.1c-.08.85.39,5.42.77,6.66.31,1.24,3.72,8.68,5.97,9.3s2.32-1.7,2.32-.54.08,3.18,0,4.8-1.63,15.58-1.63,15.58l2.4-6.28,1.71-10-.77-9.22-3.72-10.69-9.84-12.32-8.99-5.73-8.37-2.02h0Z"/><path d="m230.32,872.24c-5.97,5.81-6.59,12.32-6.59,12.32l-87.88-9.53-15.34-13.72,109.82,10.93h0Z"/><path d="m156.07,882.55l19.76,13.79,44.87,5.5c-.08-2.01.77-11.31,1.09-12.63l-65.72-6.66h0Z"/><path d="m192.19,902.47l18.75,13.87,13.79,2.01s-3.95-7.52-4.03-12.01l-28.52-3.87h0Z"/><path d="m297.9,872.78c5.97,5.81,6.59,12.32,6.59,12.32l87.88-9.53,15.34-13.72-109.82,10.93h0Z"/><path d="m371.99,883.01l-19.76,13.79-44.87,5.5c.08-2.01-.77-11.31-1.09-12.63l65.72-6.66h0Z"/><path d="m335.95,902.93l-18.75,13.87-13.79,2.01s3.95-7.52,4.03-12.01l28.52-3.87h0Z"/><path d="m212.03,825.32h-1.7l-5.74,15.11h2.02l1.39-3.95h6.36l1.39,3.95h2.02l-5.74-15.11Zm-3.41,9.53l2.56-7.05,2.56,7.05h-5.12Z"/><path d="m224.12,840.43h-2.01v-15.11h2.01v15.11Z"/><path d="m237.22,833.92c.85-.31,1.55-.85,2.09-1.55.55-.69.78-1.55.78-2.48,0-1.55-.47-2.63-1.4-3.41-.93-.77-2.24-1.16-3.95-1.16h-4.96v15.11h2.02v-6.12h3.56l3.26,6.2h2.17v-.15l-3.57-6.44Zm-2.32-1.24h-3.1v-5.81h3.02c1.01,0,1.86.31,2.4.78.54.54.85,1.24.85,2.17s-.23,1.55-.85,2.09c-.54.54-1.32.77-2.32.77Z"/><path d="m260.7,833.77h-6.35v6.66h-2.01v-15.11h9.38v1.63h-7.36v5.19h6.35v1.63Z"/><path d="m277.06,828.65c-.47-1.16-1.17-1.93-2.1-2.55-.93-.55-1.93-.86-3.17-.86-1.17,0-2.25.24-3.18.86s-1.63,1.47-2.17,2.55c-.54,1.17-.78,2.41-.78,3.88v1.08c0,1.4.24,2.64.78,3.72.54,1.09,1.24,1.86,2.17,2.48.93.55,2.01.86,3.18.86,1.24,0,2.24-.31,3.17-.86.86-.62,1.63-1.47,2.1-2.55.54-1.09.77-2.41.77-3.88v-.85c0-1.47-.31-2.79-.77-3.88Zm-1.17,4.81c0,1.78-.38,3.1-1.08,4.03s-1.63,1.39-2.95,1.39-2.32-.46-3.02-1.47c-.7-1.01-1.08-2.4-1.08-4.11v-1.08c0-1.71.38-3.02,1.08-3.95.7-1.01,1.71-1.48,2.95-1.48,1.31,0,2.32.55,3.02,1.48.7.93,1.08,2.32,1.08,4.1v1.09Z"/><path d="m290.39,833.92c.85-.31,1.55-.85,2.09-1.55.54-.69.77-1.55.77-2.48,0-1.55-.46-2.63-1.39-3.41-.93-.77-2.25-1.16-3.95-1.16h-4.96v15.11h2.01v-6.12h3.57l3.25,6.2h2.17v-.15l-3.56-6.44Zm-2.41-1.24h-3.1v-5.81h3.03c1,0,1.86.31,2.4.78.54.54.85,1.24.85,2.17s-.23,1.55-.85,2.09c-.54.54-1.32.77-2.33.77Z"/><path d="m309.22,835.63c-.16,1.63-.77,2.79-1.78,3.72-1.01.85-2.32,1.32-3.95,1.32-1.78,0-3.18-.62-4.26-1.94-1.09-1.24-1.63-3.02-1.63-5.11v-1.47c0-1.39.23-2.63.77-3.72.46-1.08,1.24-1.86,2.09-2.48.93-.54,2.01-.85,3.18-.85,1.63,0,2.87.46,3.87,1.32.93.93,1.55,2.17,1.71,3.72h-2.01c-.16-1.24-.54-2.09-1.16-2.63-.54-.54-1.39-.77-2.4-.77-1.24,0-2.25.46-3.02,1.39-.7.93-1.09,2.25-1.09,4.03v1.47c0,1.63.31,2.94,1.01,3.87.7.93,1.63,1.47,2.87,1.47,1.09,0,1.94-.23,2.56-.77.62-.46,1.01-1.39,1.16-2.63h2.09v.08Z"/><path d="m322.63,833.46h-6.51v5.35h7.59v1.63h-9.61v-15.11h9.45v1.63h-7.52v4.88h6.51v1.63h.08Z"/><path d="m160.18,966.71h-3.57l-8.52,22.63h4.11l1.86-5.27h8.75l1.79,5.27h4.1l-8.52-22.63Zm-5.04,14.19l3.33-9.38,3.26,9.38h-6.59Z"/><path d="m183.27,979.66c1.24-.55,2.33-1.32,3.03-2.33.69-1.01,1.08-2.25,1.08-3.8,0-2.24-.7-3.95-2.09-5.11-1.4-1.16-3.41-1.78-6.05-1.78h-7.98v22.63h3.95v-8.68h4.42l4.57,8.75h4.19v-.23l-5.12-9.45Zm-4.03-2.25h-4.1v-7.52h4.18c1.4,0,2.4.31,3.1,1.01.7.62,1.01,1.55,1.01,2.79,0,1.16-.31,2.01-1.09,2.71-.77.7-1.78,1.01-3.1,1.01Z"/><path d="m206.76,969.89h-7.05v19.45h-3.87v-19.45h-6.97v-3.18h17.9v3.18Z"/><path d="m221.25,983.45c0-1.01-.39-1.78-1.09-2.32s-1.94-1.08-3.8-1.63-3.25-1.16-4.34-1.86c-2.09-1.32-3.1-2.94-3.1-5.04,0-1.86.77-3.33,2.25-4.49s3.41-1.78,5.81-1.78c1.55,0,2.94.31,4.18.85,1.24.54,2.17,1.39,2.87,2.48.7,1.08,1.09,2.25,1.09,3.56h-3.95c0-1.16-.39-2.09-1.09-2.79-.77-.7-1.78-1.01-3.18-1.01-1.32,0-2.25.31-3.02.85-.7.54-1.09,1.32-1.09,2.32,0,.85.39,1.55,1.16,2.09s2.01,1.08,3.8,1.63,3.18,1.08,4.26,1.78,1.86,1.47,2.32,2.32.77,1.86.77,3.02c0,1.86-.7,3.41-2.17,4.49s-3.41,1.71-5.89,1.71c-1.63,0-3.18-.31-4.49-.93-1.39-.62-2.4-1.47-3.18-2.48-.77-1.08-1.16-2.32-1.16-3.72h3.95c0,1.32.39,2.25,1.24,2.94s2.09,1.08,3.64,1.08c1.39,0,2.4-.31,3.1-.85.77-.54,1.08-1.32,1.08-2.25Z"/><path d="m250.93,985.47c1.32-1.78,1.94-4.03,1.94-6.82h-3.26c0,1.55-.31,2.94-.93,4.18l-4.34-5.19,1.55-1.08c1.09-.86,1.86-1.63,2.33-2.41.46-.85.7-1.7.7-2.63,0-1.4-.47-2.56-1.55-3.57-1.01-1-2.41-1.47-4.03-1.47-1.79,0-3.26.54-4.34,1.55-1.09,1.01-1.63,2.4-1.63,4.19,0,.69.23,1.47.54,2.24.39.78,1.01,1.71,1.86,2.79-1.63,1.17-2.79,2.25-3.33,3.1-.54.86-.85,1.86-.85,2.87,0,1.86.69,3.41,1.86,4.73,1.31,1.16,3.1,1.78,5.34,1.78s4.19-.54,5.82-1.78l1.24,1.47h4.41l-3.33-3.95Zm-9.38-15.27c.47-.54,1.09-.77,1.79-.77s1.24.23,1.7.62c.47.46.7.93.7,1.55,0,.85-.31,1.62-.93,2.17l-.47.38-1.7,1.17c-1.09-1.32-1.63-2.41-1.63-3.26,0-.77.23-1.39.54-1.86Zm1.55,16.43c-1.16,0-2.01-.23-2.71-.93-.7-.7-1.01-1.55-1.01-2.56,0-1.24.62-2.32,1.86-3.25l.47-.31,4.96,5.81c-1.09.85-2.33,1.24-3.57,1.24Z"/><path d="m282.09,981.98c-.23,2.4-1.09,4.26-2.64,5.66-1.55,1.32-3.64,2.01-6.2,2.01-1.78,0-3.41-.47-4.73-1.32-1.39-.85-2.4-2.09-3.18-3.64s-1.16-3.41-1.16-5.5v-2.09c0-2.17.39-4.03,1.16-5.66.77-1.63,1.86-2.87,3.25-3.8s3.02-1.32,4.88-1.32c2.48,0,4.49.7,6.04,2.01s2.4,3.25,2.64,5.73h-3.95c-.16-1.63-.7-2.79-1.39-3.49-.77-.7-1.86-1.08-3.33-1.08-1.71,0-3.02.62-3.95,1.86-.93,1.24-1.39,3.1-1.39,5.5v2.01c0,2.48.46,4.34,1.32,5.58.85,1.32,2.17,1.94,3.87,1.94,1.55,0,2.71-.31,3.49-1.01s1.24-1.86,1.47-3.49h3.8v.08Z"/><path d="m297.59,979.66c1.24-.55,2.32-1.32,3.02-2.33.7-1.01,1.08-2.25,1.08-3.8,0-2.24-.69-3.95-2.09-5.11-1.39-1.16-3.41-1.78-6.04-1.78h-7.99v22.63h3.96v-8.68h4.41l4.58,8.75h4.18v-.23l-5.11-9.45Zm-4.03-2.25h-4.11v-7.52h4.18c1.4,0,2.41.31,3.1,1.01.7.62,1.01,1.55,1.01,2.79,0,1.16-.31,2.01-1.08,2.71-.78.7-1.79,1.01-3.1,1.01Z"/><path d="m315.49,966.71h-3.57l-8.52,22.63h4.11l1.86-5.27h8.75l1.79,5.27h4.1l-8.52-22.63Zm-5.04,14.19l3.33-9.38,3.26,9.38h-6.59Z"/><path d="m339.67,979.73h-9.07v9.61h-3.95v-22.63h14.34v3.18h-10.46v6.74h9.07v3.1h.08Z"/><path d="m360.75,969.89h-7.05v19.45h-3.87v-19.45h-6.97v-3.18h17.98v3.18h-.08Z"/><path d="m375.32,983.45c0-1.01-.39-1.78-1.09-2.32s-1.94-1.08-3.8-1.63-3.25-1.16-4.34-1.86c-2.09-1.32-3.1-2.94-3.1-5.04,0-1.86.77-3.33,2.25-4.49s3.41-1.78,5.81-1.78c1.55,0,2.94.31,4.18.85,1.24.54,2.17,1.39,2.87,2.48.7,1.08,1.09,2.25,1.09,3.56h-3.95c0-1.16-.39-2.09-1.09-2.79-.77-.7-1.78-1.01-3.18-1.01-1.32,0-2.25.31-3.02.85-.7.54-1.09,1.32-1.09,2.32,0,.85.39,1.55,1.16,2.09s2.01,1.08,3.8,1.63,3.18,1.08,4.26,1.78,1.86,1.47,2.32,2.32.77,1.86.77,3.02c0,1.86-.7,3.41-2.17,4.49s-3.41,1.71-5.89,1.71c-1.63,0-3.18-.31-4.49-.93-1.39-.62-2.4-1.47-3.18-2.48s-1.16-2.32-1.16-3.72h3.95c0,1.32.39,2.25,1.24,2.94s2.09,1.08,3.64,1.08c1.39,0,2.4-.31,3.1-.85s1.08-1.32,1.08-2.25Z"/><text class="cls-10" transform="translate(515.21 915.7)"><tspan x="0" y="0">Quality Eng</tspan><tspan class="cls-5" x="150.47" y="0">r</tspan><tspan class="cls-8" x="160.75" y="0">a</tspan><tspan x="177.79" y="0">ving Se</tspan><tspan class="cls-4" x="271.4" y="0">r</tspan><tspan x="283.08" y="0">vice dedica</tspan><tspan class="cls-8" x="427.77" y="0">t</tspan><tspan x="435.67" y="0">ed </tspan><tspan class="cls-7" x="476.59" y="0">t</tspan><tspan x="484.44" y="0">o se</tspan><tspan class="cls-4" x="536.76" y="0">r</tspan><tspan x="548.43" y="0">ving </tspan><tspan class="cls-6" x="610.23" y="0">t</tspan><tspan x="618.45" y="0">he </tspan><tspan class="cls-3" x="657.93" y="0">Y</tspan><tspan x="672.83" y="0">o</tspan><tspan class="cls-1" x="689.66" y="0">k</tspan><tspan class="cls-9" x="703.05" y="0">o</tspan><tspan class="cls-8" x="720.04" y="0">t</tspan><tspan x="727.95" y="0">a Community</tspan></text><path d="m1166.34,322.23c-7.58-11.47-7.57-17.99,3.52-25.9,10.09-7.18,19.13-15.87,28.62-23.88,18.79-15.8,19.11-18.08,1.57-36.1-80.47-82.69-178.14-116.41-292.07-98.82-74.53,11.48-136.69,47.65-188.17,102.74-10.65,11.41-10.5,19.5,1.88,28.9,11.78,8.95,22.15,19.69,33.99,28.55,9.9,7.41,9.73,13.69,2.72,23.26-11.54,15.8-20.85,33.12-27.06,51.76-28.9,86.52-17.97,167.11,38.24,239.76,9.61,12.41,9.34,19.3-2.16,28.68-9.12,7.46-16.92,16.55-25.23,24.98-16.53,16.71-16.63,19.54.87,34.97,62.96,55.54,136.47,83.72,224.26,84.85,72.67-2.08,141.3-25.61,200.99-74.08q32.71-26.53,3.89-55.36c-1.66-1.68-3.34-3.36-5.01-5.02q-22.87-22.81-4.44-49.21c59.9-85.85,61.65-192.33,3.61-280.09Zm-410.79-39.31c-4.01-3.5-8.09-6.92-12.21-10.31-22.15-18.27-22.37-18.51-2.33-37.74,61.7-59.29,135.03-90.23,233.68-90.31,75.15.61,149.81,32.09,212.29,93.83,11.82,11.69,14.76,19.58-.63,29.94-12.19,8.23-22.22,23.63-34.97,25.88-13.03,2.29-21.19-16.23-31.91-25.05-97.23-80.18-238.26-74.79-328.77,13.23q-16.84,16.37-35.13.54Zm417.8,390.49c8.25,7.29,7.92,12.62-.37,19.87-45.62,39.88-97.8,65.94-157.66,76.26-18.1,3.13-36.34,4.8-54.82,4.12-79.54-.71-148.92-27.67-208.8-80.15-9.14-8-9.47-12.89-.59-20.66,12.4-10.91,22.36-28.65,36.38-32.54,14.46-4.02,25.37,15.88,38.38,24.5,91.62,60.57,209.79,54.11,295.21-17.9,11.37-9.61,18.1-9.59,27.25,1.35,7.56,9.05,16.16,17.32,25.03,25.14Zm-212.46,21.39c-29.01-.09-56.91-5.64-82.71-15.69-.62-.23-1.26-.49-1.88-.74h-.01c-3.1-1.22-6.14-2.52-9.17-3.89-1.39-.62-2.78-1.26-4.16-1.91-79.85-37.78-136.16-119.55-136.46-212.81-.43-120.27,92.09-221.23,209.18-234.3,8.5-.95,17.1-1.44,25.82-1.44,9.42,0,18.7.55,27.82,1.61,117.66,13.68,208,113.09,207.76,234.79-.24,129.1-106.73,234.77-236.19,234.39Z"/><path d="m773.56,293.86c-4.04,0-8.51-3.88-17.43-11.6-3.61-3.14-7.61-6.52-12.24-10.33-11-9.07-16.52-13.63-16.69-18.06-.16-4.22,4.56-8.94,14.4-18.39,63.87-61.38,137.93-89.99,233.08-90.06,37.71.3,74.91,8.35,110.56,23.92,36.43,15.91,70.45,39.35,101.13,69.67,7.24,7.15,10.02,11.86,9.61,16.25-.38,4.03-3.6,7.96-10.13,12.35-4.56,3.08-8.85,7.17-12.99,11.12-7.13,6.81-13.87,13.24-21.65,14.62-.69.12-1.38.18-2.06.18-7.32,0-13.07-6.96-19.16-14.33-3.17-3.83-6.45-7.8-9.99-10.71-44.46-36.66-100.47-56.85-157.71-56.85-64.56,0-125.71,24.9-172.2,70.12-8.29,8.06-12.45,12.1-16.53,12.1Z"/><path class="cls-2" d="m974.69,146.29h0c37.6.3,74.68,8.33,110.22,23.84,36.33,15.86,70.26,39.24,100.87,69.49,6.94,6.86,9.74,11.51,9.36,15.56-.35,3.75-3.45,7.48-9.75,11.72-4.62,3.12-8.93,7.23-13.1,11.21-7.04,6.72-13.68,13.06-21.21,14.39-.64.11-1.28.17-1.91.17-6.91,0-12.54-6.81-18.5-14.02-3.2-3.87-6.5-7.86-10.1-10.83-22.67-18.7-48.07-33.11-75.5-42.83-26.63-9.44-54.48-14.23-82.76-14.23-64.78,0-126.15,24.99-172.81,70.37-8.12,7.89-12.2,11.86-15.92,11.86s-8.39-4.04-16.86-11.38c-3.62-3.15-7.63-6.53-12.25-10.34-10.46-8.63-16.22-13.38-16.37-17.43-.14-3.84,4.49-8.47,14.13-17.73,63.7-61.21,137.57-89.75,232.48-89.82m0-1.73c-98.64.07-171.99,31.01-233.68,90.3-20.04,19.24-19.82,19.47,2.34,37.74,4.12,3.39,8.2,6.82,12.22,10.31,9.07,7.85,13.64,11.81,18,11.81s8.64-4.09,17.13-12.35c47.75-46.44,109.57-69.88,171.6-69.88,55.53,0,111.24,18.78,157.16,56.66,10.11,8.32,17.93,25.24,29.7,25.24.72,0,1.46-.06,2.21-.2,12.75-2.25,22.79-17.65,34.98-25.87,15.4-10.37,12.46-18.26.64-29.94-62.47-61.75-137.13-93.23-212.29-93.83h0Z"/><path d="m968.72,772.95c-2.74,0-5.49-.05-8.19-.15-39.4-.35-76.9-7.28-111.49-20.61-34.4-13.25-66.96-33.21-96.77-59.34-4.67-4.09-6.76-7.17-6.76-10,0-2.73,1.9-5.62,6.17-9.36,4.3-3.78,8.33-8.4,12.24-12.87,7.63-8.74,14.84-16.99,23.8-19.48,1.19-.33,2.4-.5,3.59-.5,7.72,0,14.48,6.76,21.64,13.91,3.99,3.99,8.11,8.11,12.45,10.98,40.9,27.04,87.99,41.33,136.16,41.33,57.87,0,114.73-21.06,160.08-59.29,5.59-4.73,9.75-6.83,13.47-6.83,4.01,0,7.88,2.49,12.54,8.08,6.66,7.97,14.64,15.99,25.12,25.24,3.92,3.46,5.74,6.35,5.73,9.11,0,2.82-1.94,5.82-6.09,9.45-46.28,40.45-99.19,66.05-157.24,76.07-16.55,2.86-31.74,4.25-46.46,4.25Z"/><path class="cls-2" d="m791.31,641.51c7.36,0,14,6.63,21.03,13.66,4.02,4.02,8.17,8.17,12.58,11.09,41.04,27.13,88.29,41.48,136.64,41.48,28.69,0,56.98-5.02,84.06-14.91,27.74-10.13,53.5-25.13,76.58-44.59,5.43-4.58,9.41-6.63,12.91-6.63,3.73,0,7.39,2.4,11.88,7.77,6.69,8.01,14.7,16.06,25.21,25.33,3.72,3.28,5.45,5.97,5.44,8.46,0,2.55-1.85,5.35-5.8,8.8-22.85,19.97-47.45,36.45-73.11,48.96-26.24,12.8-54.4,21.85-83.71,26.91-16.5,2.85-31.65,4.24-46.31,4.24-2.73,0-5.47-.05-8.2-.15-39.27-.35-76.67-7.26-111.16-20.55-34.31-13.21-66.78-33.12-96.51-59.19-4.47-3.91-6.46-6.79-6.46-9.35,0-2.46,1.81-5.15,5.88-8.71,4.34-3.81,8.4-8.46,12.32-12.95,7.54-8.64,14.67-16.8,23.38-19.22,1.11-.31,2.24-.47,3.36-.47m0-1.73c-1.25,0-2.52.17-3.82.53-14.02,3.89-23.97,21.63-36.38,32.54-8.88,7.79-8.55,12.67.59,20.66,59.88,52.49,129.26,79.45,208.8,80.16,2.75.1,5.48.15,8.22.15,15.68,0,31.19-1.6,46.61-4.27,59.86-10.33,112.04-36.39,157.66-76.27,8.29-7.25,8.62-12.58.36-19.87-8.86-7.82-17.46-16.09-25.02-25.15-4.72-5.65-8.8-8.39-13.21-8.39-4.12,0-8.54,2.39-14.03,7.04-46.63,39.31-103.02,59.08-159.52,59.08-47,0-94.08-13.68-135.68-41.19-11.84-7.84-21.94-25.03-34.57-25.03h0Z"/><path class="cls-2" d="m809.23,682.5l4.71-6.34-16.38-12.14-21.35,28.79,16.38,12.15,4.69-6.35-8.9-6.6,3.68-4.96,8.4,6.23,4.71-6.34-8.4-6.23,3.56-4.82,8.9,6.6Z"/><path class="cls-2" d="m847.26,695.62l-10.3,19.35-4.89-27.43-8.23-4.39-16.85,31.65,8.23,4.38,10.3-19.35,4.89,27.44,8.19,4.35,16.84-31.65-8.18-4.35Z"/><path class="cls-2" d="m876.96,731.9l7.31,2.26c-.46.96-1.01,1.72-1.65,2.28-.65.57-1.35.98-2.15,1.21-.78.24-1.61.33-2.5.28-.88-.06-1.76-.22-2.63-.5-1.48-.45-2.71-1.11-3.67-1.95-.96-.85-1.69-1.84-2.17-2.99-.48-1.13-.71-2.39-.71-3.74.01-1.37.23-2.77.68-4.23.5-1.6,1.17-2.99,2.01-4.16.84-1.16,1.78-2.08,2.84-2.77,1.06-.69,2.21-1.11,3.46-1.28,1.24-.16,2.52-.04,3.86.38,1.6.49,2.9,1.34,3.91,2.55,1,1.21,1.61,2.88,1.82,4.99l9.53-.88c-.59-3.73-1.97-6.78-4.19-9.16s-5.12-4.12-8.69-5.23c-2.76-.84-5.39-1.18-7.9-.99-2.51.18-4.8.82-6.89,1.9-2.07,1.08-3.89,2.6-5.44,4.56-1.55,1.96-2.73,4.28-3.56,6.94-.83,2.69-1.15,5.29-.96,7.79.2,2.5.83,4.79,1.91,6.86,1.08,2.07,2.58,3.89,4.51,5.45,1.93,1.55,4.22,2.74,6.89,3.57,1.94.6,3.86.93,5.77.98,1.9.06,3.73-.15,5.49-.61,1.76-.48,3.39-1.23,4.91-2.27,1.51-1.05,2.86-2.36,4.05-3.95.85-1.13,1.57-2.41,2.19-3.85.6-1.44,1.19-3.07,1.76-4.89l-17.68-5.45-2.13,6.9Z"/><path class="cls-2" d="m927.62,740.64c2.62-.26,4.71-1.13,6.23-2.65,1.54-1.5,2.47-3.6,2.84-6.3.21-1.51.16-2.95-.16-4.34-.3-1.39-.87-2.65-1.69-3.78-.82-1.13-1.93-2.1-3.33-2.88-1.4-.78-3.08-1.3-5.06-1.57l-14.37-1.94-4.8,35.54,9.24,1.24,1.84-13.67,6.97,14.85,11.5,1.56-9.2-16.07Zm-.46-9.7c-.2,1.41-.83,2.43-1.9,3.05s-2.52.82-4.35.56l-1.74-.23,1.18-8.77,1.74.24c1.83.24,3.17.8,4.05,1.69.87.88,1.21,2.04,1.02,3.45Z"/><path class="cls-2" d="m971.48,721.6h-10.18l-13.64,35.85h9.94l2.13-6.23h13.31l2.15,6.23h9.94l-13.64-35.85Zm-9.28,22.54l4.18-11.93,4.18,11.93h-8.36Z"/><path class="cls-2" d="m1014.61,716.71l-4.89,22.98-12.21-20.04-9.98,1.71,20.92,32.78,7.31-1.26,8.84-37.89-9.98,1.72Z"/><path class="cls-2" d="m1042.64,709.28l-8.92,2.69,10.36,34.32,8.92-2.69-10.36-34.32Z"/><path class="cls-2" d="m1102.62,723.13l-14.98-32.56-8.42,3.88,9.16,19.91-24.8-12.71-8.46,3.9,14.98,32.56,8.47-3.9-9.17-19.91,24.8,12.71,8.42-3.88Z"/><path class="cls-2" d="m1141.65,684.94c-.38-1.37-.94-2.73-1.69-4.1-.77-1.37-1.68-2.83-2.78-4.39l-15.17,10.59,4.14,5.92,6.27-4.39c.48.95.73,1.85.79,2.71.05.85-.07,1.66-.37,2.43s-.74,1.48-1.32,2.13c-.59.66-1.26,1.26-2.01,1.78-1.28.89-2.55,1.46-3.8,1.69-1.26.24-2.49.21-3.68-.12-1.19-.33-2.33-.91-3.39-1.74-1.07-.84-2.05-1.89-2.91-3.13-.96-1.38-1.65-2.76-2.05-4.14-.4-1.38-.55-2.69-.44-3.95.11-1.26.49-2.43,1.12-3.5.63-1.08,1.52-2.02,2.67-2.83,1.38-.96,2.85-1.46,4.41-1.51,1.57-.05,3.25.49,5.06,1.63l5.16-8.07c-3.29-1.83-6.56-2.61-9.8-2.32-3.23.28-6.39,1.5-9.45,3.63-2.38,1.66-4.25,3.54-5.64,5.62-1.4,2.1-2.32,4.3-2.73,6.61-.43,2.3-.34,4.67.26,7.09.59,2.43,1.68,4.79,3.28,7.07,1.61,2.32,3.46,4.17,5.55,5.55,2.08,1.39,4.29,2.29,6.59,2.71,2.3.43,4.66.35,7.07-.21,2.4-.56,4.75-1.63,7.05-3.23,1.66-1.16,3.1-2.47,4.32-3.95,1.22-1.46,2.18-3.04,2.89-4.71.71-1.67,1.12-3.43,1.23-5.27.11-1.83-.1-3.71-.62-5.62Z"/><path class="cls-2" d="m813.78,222.3l.8-22.38-9.17,5.96-.18,11.62-10.74-4.5-9.16,5.97,20.76,8.33,9.24,14.18,7.67-5-9.23-14.18Z"/><path class="cls-2" d="m866.22,195.12c-1.06-2.39-2.5-4.41-4.29-6.08-1.8-1.67-3.84-2.93-6.1-3.75-2.27-.84-4.69-1.21-7.27-1.1-2.57.11-5.16.74-7.75,1.89-2.62,1.17-4.82,2.67-6.61,4.51-1.79,1.84-3.13,3.88-4.01,6.11-.88,2.23-1.3,4.58-1.27,7.03.04,2.45.59,4.88,1.66,7.27,1.06,2.39,2.5,4.43,4.29,6.1,1.8,1.67,3.83,2.93,6.08,3.77,2.24.84,4.66,1.21,7.22,1.11,2.56-.11,5.16-.74,7.77-1.9,2.6-1.16,4.79-2.66,6.6-4.5s3.16-3.89,4.05-6.13c.9-2.23,1.33-4.58,1.29-7.05-.04-2.45-.59-4.88-1.66-7.27Zm-8.62,11.47c-.49,1.17-1.18,2.22-2.08,3.15-.89.93-1.96,1.67-3.18,2.21-1.22.55-2.47.84-3.77.89s-2.54-.15-3.72-.57c-1.17-.43-2.24-1.07-3.22-1.94-.96-.87-1.73-1.94-2.3-3.22-.56-1.28-.85-2.57-.84-3.88,0-1.29.23-2.52.71-3.68.46-1.17,1.15-2.22,2.05-3.15.9-.93,1.96-1.67,3.18-2.21,1.23-.55,2.49-.84,3.78-.89,1.29-.05,2.54.15,3.73.56,1.19.43,2.27,1.07,3.24,1.94.96.87,1.73,1.94,2.3,3.22.56,1.28.85,2.57.85,3.86-.01,1.29-.26,2.54-.73,3.71Z"/><path class="cls-2" d="m916.21,199.95l-19.31-14.31,9.52-19.57-10.97,2.74-7.33,16.8-3.51-14.1-8.89,2.22,8.52,34.18,8.89-2.21-3.69-14.84,15.25,11.95,11.52-2.86Z"/><path class="cls-2" d="m959.51,178.26c-.21-2.61-.88-5-2.02-7.18-1.13-2.17-2.63-4.04-4.5-5.57-1.85-1.54-4.01-2.69-6.47-3.45-2.47-.76-5.12-1.02-7.95-.8-2.85.23-5.42.91-7.73,2.05-2.3,1.13-4.24,2.61-5.81,4.41-1.57,1.82-2.76,3.89-3.55,6.22-.78,2.33-1.07,4.79-.87,7.4.21,2.61.88,5,2.02,7.18,1.15,2.17,2.63,4.04,4.47,5.57,1.84,1.55,3.99,2.69,6.44,3.45,2.45.77,5.11,1.04,7.96.8,2.83-.22,5.4-.9,7.72-2.04,2.32-1.13,4.27-2.61,5.85-4.43,1.6-1.82,2.78-3.89,3.57-6.22.78-2.33,1.07-4.79.87-7.4Zm-10.03,4.68c-.44,1.22-1.08,2.3-1.93,3.24-.85.95-1.85,1.71-3.01,2.28-1.16.59-2.4.91-3.74,1.02-1.33.11-2.61-.04-3.85-.43-1.23-.38-2.33-.98-3.3-1.77-.96-.8-1.76-1.77-2.38-2.91-.62-1.13-.99-2.4-1.1-3.8-.11-1.39.05-2.71.49-3.93.43-1.22,1.06-2.3,1.89-3.24.84-.94,1.83-1.69,2.99-2.28,1.16-.57,2.4-.91,3.74-1.01,1.33-.11,2.62.02,3.85.41s2.34.98,3.33,1.78c.99.79,1.79,1.76,2.41,2.9.62,1.13.98,2.4,1.1,3.8.11,1.4-.06,2.71-.49,3.93Z"/><path class="cls-2" d="m970.74,161.17l-.52,7.74,7.51.5-1.85,27.42,9.14.61,1.84-27.42,7.51.51.52-7.74-24.15-1.62Z"/><path class="cls-2" d="m1026.89,168.22l-9.8-1.97-20.14,31.87,9.57,1.94,3.28-5.58,12.82,2.6.85,6.41,9.57,1.94-6.16-37.19Zm-13.32,19.91l6.35-10.68,1.71,12.31-8.06-1.63Z"/><path class="cls-2" d="m1086.06,187.96l-27.26,26.05,8.83,4.19,4.52-4.62,11.81,5.62-.73,6.44,8.81,4.19,3.04-37.57-9.02-4.3Zm-1.29,23.92l-7.42-3.54,8.75-8.81-1.33,12.35Z"/><path class="cls-2" d="m1135.92,219.61c-.51-2.24-2.11-4.27-4.78-6.1l-11.28-7.69-19.86,29.11,12.17,8.29c1.55,1.06,3.05,1.83,4.53,2.3,1.48.49,2.9.66,4.25.52,1.35-.12,2.62-.56,3.82-1.29,1.21-.73,2.27-1.78,3.19-3.15.6-.87,1.06-1.77,1.38-2.67.32-.91.45-1.84.4-2.79-.06-.94-.32-1.88-.79-2.83-.46-.94-1.17-1.88-2.11-2.83,1.54.07,2.89-.2,4.08-.8,1.18-.6,2.28-1.63,3.28-3.11,1.65-2.41,2.22-4.74,1.71-6.97Zm-15.25,16.3c-.73,1.07-1.68,1.58-2.84,1.51-1.16-.07-2.68-.77-4.6-2.06l-1.66-1.13,4.22-6.18,1.66,1.13c1.9,1.3,3.1,2.47,3.6,3.52.49,1.06.37,2.12-.38,3.21Zm5.83-12.95c-1.28,1.89-3.11,2.01-5.47.4l-1.39-.95,3.85-5.63,1.39.95c2.37,1.61,2.9,3.35,1.62,5.23Z"/><polygon points="902.38 582.14 919.51 588.58 905.71 600.36 902.38 582.14"/><polygon points="931.28 578.58 923.3 585.39 901.46 577.19 899.55 566.69 931.28 578.58"/><polygon points="944.35 567.46 935.02 575.4 898.61 561.7 896.38 549.45 944.35 567.46"/><path d="m1032.22,386l-14.77-5.19-5.1,13.3-56-19.68.27-.69,4.83-12.61-1.49-.52-14.17-4.97c-12.62-4.44-26.47,1.97-31.24,14.47l-33.66,91.87,14.57,82.48,52.68,19.82,64.18-54.65.28-.23.17-.44,34.33-90.82c4.97-13-1.76-27.53-14.87-32.13Zm-74.75,69.53l-5.89,6.67,26.62,2.26,3.01.26-24.36,24.32-.41.41-28.22,28.17,3.18-8.91h0s8.94-25.08,8.94-25.08l.16-.43,5.34-14.97-5.94-.02-27.23-.13,5.03-5.5,7.42-8.12,42.02-45.93,27.22-.78,2.26-.07h.01l3.16-.09-42.33,47.95Z"/><polygon points="940.5 483.21 940.34 483.64 928.22 517.62 956.44 489.45 956.86 489.04 940.5 483.21"/><polygon points="940.34 483.64 940.5 483.21 945.84 468.24 912.66 468.08 967.14 408.53 999.79 407.59 951.58 462.21 981.21 464.72 956.86 489.04 956.44 489.45 940.34 483.64"/><polygon points="1017.44 380.81 1012.35 394.11 956.34 374.43 961.44 361.13 1017.44 380.81"/><path d="m1019.72,370.45l-3.5,9.14-5.1,13.3-56-19.68,5.1-13.3,3.71-9.69c2.01-5.25,7.85-7.95,13.15-6.08l12.09,4.24,16.64,5.85,7.64,2.68c5.52,1.94,8.36,8.06,6.27,13.53Z"/><path d="m871.47,675.23c-.39-.17-3.13-14.13,2.46-27.33,1.13-2.71,17.95-9.91,18.48-11.12.7-1.67-6.57-8.78-5.67-10.85,1.17-2.71,6.59-3.4,7.65-5.88,4.48-10.36,8.84-16.18,9.9-17.69-1.39,2.97-3.39,12.16-6.85,19.52-1,2.13-6.34,2.42-7.41,4.73-1.09,2.31,5.74,9.66,5.03,11.18-.6,1.29-17.76,8.37-18.98,10.94-6.21,12.98-4.21,26.67-4.59,26.49Z"/><polygon points="861.25 663.66 863.56 675.71 867.44 674.37 861.25 663.66"/><polygon points="887.46 673.62 876.91 679.87 875.35 676.07 887.46 673.62"/><path d="m935.68,220.77h53.64v14.99c0,7.2-5.85,13.05-13.05,13.05h-27.55c-7.2,0-13.05-5.85-13.05-13.05v-14.99h0Z"/><path d="m1003.92,354.57c-.64,1.46-3.24,5.02-4.35,6.62-4.73-3.53-9.39-7.08-14.03-10.73,1.47-1.43,3.77-5.5,4.46-6.92,4.28-8.86,8.43-17.16,7.67-25.93-.94-10.75-7.03-16.8-13.32-23.77-5.21-5.77-10.43-8.99-16-13.97s-11.72-10.15-13.91-17.67c-2.32-7.98-3.21-16.53.03-24.71.87-2.21,14.98,2.35,17.15,3.96.37,7.31-1.46,15.23,4.1,20.77,4.34,4.32,8.79,6.95,13.12,11.04,6.12,5.8,12.22,10.78,17.19,17.99,4.97,7.21,9.28,14.76,9.53,24.16.37,14.06-5.82,25.93-11.62,39.16Z"/><polygon class="cls-2" points="953.97 454.83 982.37 460.52 957.36 484.17 956.93 484.57 927.96 511.97 940.56 465.8 913.75 462.02 972.25 423.14 1000.29 403.63 953.97 454.83"/><polygon points="892.57 661.01 896.81 666.51 891.01 662.7 892.57 661.01 892.57 661.01"/><polygon points="891.01 661.01 896.81 657.19 892.57 662.7 891.01 661.01 891.01 661.01"/><polygon points="892.45 662.7 886.65 666.51 890.9 661.01 892.45 662.7 892.45 662.7"/><polygon points="890.9 662.7 886.65 657.19 892.45 661.01 890.9 662.7 890.9 662.7"/><polygon points="853.56 642.73 857.8 648.23 852 644.41 853.56 642.73 853.56 642.73"/><polygon points="852 642.73 857.8 638.91 853.56 644.41 852 642.73 852 642.73"/><polygon points="853.45 644.41 847.64 648.23 851.89 642.73 853.45 644.41 853.45 644.41"/><polygon points="851.89 644.41 847.64 638.91 853.45 642.73 851.89 644.41 851.89 644.41"/><polygon points="865.75 618.35 869.99 623.85 864.19 620.03 865.75 618.35 865.75 618.35"/><polygon points="864.19 618.35 869.99 614.53 865.75 620.03 864.19 618.35 864.19 618.35"/><polygon points="865.64 620.03 859.83 623.85 864.08 618.35 865.64 620.03 865.64 620.03"/><polygon points="864.08 620.03 859.83 614.53 865.64 618.35 864.08 620.03 864.08 620.03"/><polygon points="916.95 673.2 921.2 678.71 915.39 674.89 916.95 673.2 916.95 673.2"/><polygon points="915.39 673.2 921.2 669.39 916.95 674.89 915.39 673.2 915.39 673.2"/><polygon points="916.84 674.89 911.03 678.71 915.28 673.2 916.84 674.89 916.84 674.89"/><polygon points="915.28 674.89 911.03 669.39 916.84 673.2 915.28 674.89 915.28 674.89"/><polygon points="913.29 643.95 917.54 649.45 911.73 645.63 913.29 643.95 913.29 643.95"/><polygon points="911.73 643.95 917.54 640.13 913.29 645.63 911.73 643.95 911.73 643.95"/><polygon points="913.18 645.63 907.37 649.45 911.62 643.95 913.18 645.63 913.18 645.63"/><polygon points="911.62 645.63 907.37 640.13 913.18 643.95 911.62 645.63 911.62 645.63"/><polygon points="936.45 634.19 940.7 639.7 934.89 635.88 936.45 634.19 936.45 634.19"/><polygon points="934.89 634.19 940.7 630.38 936.45 635.88 934.89 634.19 934.89 634.19"/><polygon points="936.34 635.88 930.53 639.7 934.78 634.19 936.34 635.88 936.34 635.88"/><polygon points="934.78 635.88 930.53 630.38 936.34 634.19 934.78 635.88 934.78 635.88"/><polygon points="823.08 604.94 827.33 610.44 821.52 606.62 823.08 604.94 823.08 604.94"/><polygon points="821.52 604.94 827.33 601.12 823.08 606.62 821.52 604.94 821.52 604.94"/><polygon points="822.97 606.62 817.16 610.44 821.41 604.94 822.97 606.62 822.97 606.62"/><polygon points="821.41 606.62 817.16 601.12 822.97 604.94 821.41 606.62 821.41 606.62"/></svg>